%TF.GenerationSoftware,KiCad,Pcbnew,5.1.6-c6e7f7d~87~ubuntu18.04.1*%
%TF.CreationDate,2020-08-08T15:28:18-04:00*%
%TF.ProjectId,atmega168_tb2,61746d65-6761-4313-9638-5f7462322e6b,rev?*%
%TF.SameCoordinates,Original*%
%TF.FileFunction,Legend,Top*%
%TF.FilePolarity,Positive*%
%FSLAX46Y46*%
G04 Gerber Fmt 4.6, Leading zero omitted, Abs format (unit mm)*
G04 Created by KiCad (PCBNEW 5.1.6-c6e7f7d~87~ubuntu18.04.1) date 2020-08-08 15:28:18*
%MOMM*%
%LPD*%
G01*
G04 APERTURE LIST*
%ADD10C,0.150000*%
%ADD11C,0.120000*%
G04 APERTURE END LIST*
D10*
X114073095Y-50357380D02*
X114073095Y-49690714D01*
X114073095Y-49881190D02*
X114120714Y-49785952D01*
X114168333Y-49738333D01*
X114263571Y-49690714D01*
X114358809Y-49690714D01*
X115073095Y-50309761D02*
X114977857Y-50357380D01*
X114787380Y-50357380D01*
X114692142Y-50309761D01*
X114644523Y-50214523D01*
X114644523Y-49833571D01*
X114692142Y-49738333D01*
X114787380Y-49690714D01*
X114977857Y-49690714D01*
X115073095Y-49738333D01*
X115120714Y-49833571D01*
X115120714Y-49928809D01*
X114644523Y-50024047D01*
X115454047Y-49690714D02*
X115692142Y-50357380D01*
X115930238Y-49690714D01*
X117406428Y-49833571D02*
X117549285Y-49881190D01*
X117596904Y-49928809D01*
X117644523Y-50024047D01*
X117644523Y-50166904D01*
X117596904Y-50262142D01*
X117549285Y-50309761D01*
X117454047Y-50357380D01*
X117073095Y-50357380D01*
X117073095Y-49357380D01*
X117406428Y-49357380D01*
X117501666Y-49405000D01*
X117549285Y-49452619D01*
X117596904Y-49547857D01*
X117596904Y-49643095D01*
X117549285Y-49738333D01*
X117501666Y-49785952D01*
X117406428Y-49833571D01*
X117073095Y-49833571D01*
X102484761Y-50357380D02*
X102484761Y-49833571D01*
X102437142Y-49738333D01*
X102341904Y-49690714D01*
X102151428Y-49690714D01*
X102056190Y-49738333D01*
X102484761Y-50309761D02*
X102389523Y-50357380D01*
X102151428Y-50357380D01*
X102056190Y-50309761D01*
X102008571Y-50214523D01*
X102008571Y-50119285D01*
X102056190Y-50024047D01*
X102151428Y-49976428D01*
X102389523Y-49976428D01*
X102484761Y-49928809D01*
X102818095Y-49690714D02*
X103199047Y-49690714D01*
X102960952Y-49357380D02*
X102960952Y-50214523D01*
X103008571Y-50309761D01*
X103103809Y-50357380D01*
X103199047Y-50357380D01*
X103532380Y-50357380D02*
X103532380Y-49690714D01*
X103532380Y-49785952D02*
X103580000Y-49738333D01*
X103675238Y-49690714D01*
X103818095Y-49690714D01*
X103913333Y-49738333D01*
X103960952Y-49833571D01*
X103960952Y-50357380D01*
X103960952Y-49833571D02*
X104008571Y-49738333D01*
X104103809Y-49690714D01*
X104246666Y-49690714D01*
X104341904Y-49738333D01*
X104389523Y-49833571D01*
X104389523Y-50357380D01*
X105246666Y-50309761D02*
X105151428Y-50357380D01*
X104960952Y-50357380D01*
X104865714Y-50309761D01*
X104818095Y-50214523D01*
X104818095Y-49833571D01*
X104865714Y-49738333D01*
X104960952Y-49690714D01*
X105151428Y-49690714D01*
X105246666Y-49738333D01*
X105294285Y-49833571D01*
X105294285Y-49928809D01*
X104818095Y-50024047D01*
X106151428Y-49690714D02*
X106151428Y-50500238D01*
X106103809Y-50595476D01*
X106056190Y-50643095D01*
X105960952Y-50690714D01*
X105818095Y-50690714D01*
X105722857Y-50643095D01*
X106151428Y-50309761D02*
X106056190Y-50357380D01*
X105865714Y-50357380D01*
X105770476Y-50309761D01*
X105722857Y-50262142D01*
X105675238Y-50166904D01*
X105675238Y-49881190D01*
X105722857Y-49785952D01*
X105770476Y-49738333D01*
X105865714Y-49690714D01*
X106056190Y-49690714D01*
X106151428Y-49738333D01*
X107056190Y-50357380D02*
X107056190Y-49833571D01*
X107008571Y-49738333D01*
X106913333Y-49690714D01*
X106722857Y-49690714D01*
X106627619Y-49738333D01*
X107056190Y-50309761D02*
X106960952Y-50357380D01*
X106722857Y-50357380D01*
X106627619Y-50309761D01*
X106580000Y-50214523D01*
X106580000Y-50119285D01*
X106627619Y-50024047D01*
X106722857Y-49976428D01*
X106960952Y-49976428D01*
X107056190Y-49928809D01*
X108056190Y-50357380D02*
X107484761Y-50357380D01*
X107770476Y-50357380D02*
X107770476Y-49357380D01*
X107675238Y-49500238D01*
X107580000Y-49595476D01*
X107484761Y-49643095D01*
X108913333Y-49357380D02*
X108722857Y-49357380D01*
X108627619Y-49405000D01*
X108580000Y-49452619D01*
X108484761Y-49595476D01*
X108437142Y-49785952D01*
X108437142Y-50166904D01*
X108484761Y-50262142D01*
X108532380Y-50309761D01*
X108627619Y-50357380D01*
X108818095Y-50357380D01*
X108913333Y-50309761D01*
X108960952Y-50262142D01*
X109008571Y-50166904D01*
X109008571Y-49928809D01*
X108960952Y-49833571D01*
X108913333Y-49785952D01*
X108818095Y-49738333D01*
X108627619Y-49738333D01*
X108532380Y-49785952D01*
X108484761Y-49833571D01*
X108437142Y-49928809D01*
X109580000Y-49785952D02*
X109484761Y-49738333D01*
X109437142Y-49690714D01*
X109389523Y-49595476D01*
X109389523Y-49547857D01*
X109437142Y-49452619D01*
X109484761Y-49405000D01*
X109580000Y-49357380D01*
X109770476Y-49357380D01*
X109865714Y-49405000D01*
X109913333Y-49452619D01*
X109960952Y-49547857D01*
X109960952Y-49595476D01*
X109913333Y-49690714D01*
X109865714Y-49738333D01*
X109770476Y-49785952D01*
X109580000Y-49785952D01*
X109484761Y-49833571D01*
X109437142Y-49881190D01*
X109389523Y-49976428D01*
X109389523Y-50166904D01*
X109437142Y-50262142D01*
X109484761Y-50309761D01*
X109580000Y-50357380D01*
X109770476Y-50357380D01*
X109865714Y-50309761D01*
X109913333Y-50262142D01*
X109960952Y-50166904D01*
X109960952Y-49976428D01*
X109913333Y-49881190D01*
X109865714Y-49833571D01*
X109770476Y-49785952D01*
X110151428Y-50452619D02*
X110913333Y-50452619D01*
X111008571Y-49690714D02*
X111389523Y-49690714D01*
X111151428Y-49357380D02*
X111151428Y-50214523D01*
X111199047Y-50309761D01*
X111294285Y-50357380D01*
X111389523Y-50357380D01*
X111722857Y-50357380D02*
X111722857Y-49357380D01*
X111722857Y-49738333D02*
X111818095Y-49690714D01*
X112008571Y-49690714D01*
X112103809Y-49738333D01*
X112151428Y-49785952D01*
X112199047Y-49881190D01*
X112199047Y-50166904D01*
X112151428Y-50262142D01*
X112103809Y-50309761D01*
X112008571Y-50357380D01*
X111818095Y-50357380D01*
X111722857Y-50309761D01*
X112580000Y-49452619D02*
X112627619Y-49405000D01*
X112722857Y-49357380D01*
X112960952Y-49357380D01*
X113056190Y-49405000D01*
X113103809Y-49452619D01*
X113151428Y-49547857D01*
X113151428Y-49643095D01*
X113103809Y-49785952D01*
X112532380Y-50357380D01*
X113151428Y-50357380D01*
D11*
X119645000Y-48635000D02*
X118375000Y-48635000D01*
X120280000Y-49270000D02*
X119645000Y-48635000D01*
X120280000Y-49905000D02*
X120280000Y-49270000D01*
X119645000Y-49905000D02*
X120280000Y-49905000D01*
X119010000Y-49270000D02*
X119645000Y-49905000D01*
X119010000Y-48000000D02*
X119010000Y-49270000D01*
X118375000Y-48635000D02*
X119010000Y-48000000D01*
%TO.C,J7*%
X77560000Y-34600000D02*
X74660000Y-34600000D01*
X77560000Y-31700000D02*
X77560000Y-34600000D01*
X74660000Y-31700000D02*
X77560000Y-31700000D01*
X74660000Y-34600000D02*
X74660000Y-31700000D01*
%TO.C,Q1*%
X66310000Y-32030000D02*
X66310000Y-30570000D01*
X69470000Y-32030000D02*
X69470000Y-29870000D01*
X69470000Y-32030000D02*
X68540000Y-32030000D01*
X66310000Y-32030000D02*
X67240000Y-32030000D01*
%TO.C,C1*%
X49550000Y-29227936D02*
X49550000Y-30432064D01*
X51370000Y-29227936D02*
X51370000Y-30432064D01*
%TO.C,C2*%
X72070000Y-45907221D02*
X72070000Y-46232779D01*
X71050000Y-45907221D02*
X71050000Y-46232779D01*
%TO.C,C3*%
X74070000Y-36379721D02*
X74070000Y-36705279D01*
X73050000Y-36379721D02*
X73050000Y-36705279D01*
%TO.C,C4*%
X53609721Y-46070000D02*
X53935279Y-46070000D01*
X53609721Y-45050000D02*
X53935279Y-45050000D01*
%TO.C,C5*%
X67450279Y-41380000D02*
X67124721Y-41380000D01*
X67450279Y-42400000D02*
X67124721Y-42400000D01*
%TO.C,C6*%
X90460000Y-42832779D02*
X90460000Y-42507221D01*
X89440000Y-42832779D02*
X89440000Y-42507221D01*
%TO.C,C7*%
X105120000Y-36854721D02*
X105120000Y-37180279D01*
X104100000Y-36854721D02*
X104100000Y-37180279D01*
%TO.C,J1*%
X56500000Y-41090000D02*
X56500000Y-42110000D01*
X51300000Y-41090000D02*
X51300000Y-42110000D01*
X56500000Y-38550000D02*
X56500000Y-39570000D01*
X51300000Y-38550000D02*
X51300000Y-39570000D01*
X56500000Y-43630000D02*
X56500000Y-44200000D01*
X51300000Y-43630000D02*
X51300000Y-44200000D01*
X56500000Y-36460000D02*
X56500000Y-37030000D01*
X51300000Y-36460000D02*
X51300000Y-37030000D01*
X49860000Y-37030000D02*
X51300000Y-37030000D01*
X51300000Y-44200000D02*
X56500000Y-44200000D01*
X51300000Y-36460000D02*
X56500000Y-36460000D01*
%TO.C,U1*%
X63810000Y-34500000D02*
X61360000Y-34500000D01*
X62010000Y-37720000D02*
X63810000Y-37720000D01*
D10*
%TO.C,U2*%
X78205000Y-36940000D02*
X76780000Y-36940000D01*
X85455000Y-36715000D02*
X85130000Y-36715000D01*
X85455000Y-43965000D02*
X85130000Y-43965000D01*
X78205000Y-43965000D02*
X78530000Y-43965000D01*
X78205000Y-36715000D02*
X78530000Y-36715000D01*
X78205000Y-43965000D02*
X78205000Y-43640000D01*
X85455000Y-43965000D02*
X85455000Y-43640000D01*
X85455000Y-36715000D02*
X85455000Y-37040000D01*
X78205000Y-36715000D02*
X78205000Y-36940000D01*
D11*
%TO.C,Y1*%
X70745000Y-42555000D02*
X70745000Y-41205000D01*
X72495000Y-42555000D02*
X72495000Y-41205000D01*
%TO.C,J2*%
X75950000Y-26260000D02*
X72840000Y-26260000D01*
X81030000Y-26260000D02*
X77470000Y-26260000D01*
X86110000Y-26260000D02*
X82550000Y-26260000D01*
X91190000Y-26260000D02*
X87630000Y-26260000D01*
X78490000Y-28920000D02*
X74930000Y-28920000D01*
X83570000Y-28920000D02*
X80010000Y-28920000D01*
X88650000Y-28920000D02*
X85090000Y-28920000D01*
X73410000Y-28920000D02*
X72840000Y-28920000D01*
X93280000Y-26260000D02*
X92710000Y-26260000D01*
X92710000Y-26260000D02*
X92710000Y-24740000D01*
X93280000Y-28920000D02*
X90170000Y-28920000D01*
X72840000Y-26260000D02*
X72840000Y-28920000D01*
X93280000Y-26260000D02*
X93280000Y-28920000D01*
%TO.C,J3*%
X96800000Y-44350000D02*
X96800000Y-47910000D01*
X96800000Y-39270000D02*
X96800000Y-42830000D01*
X96800000Y-34190000D02*
X96800000Y-37750000D01*
X96800000Y-29110000D02*
X96800000Y-32670000D01*
X96800000Y-49430000D02*
X96800000Y-50000000D01*
X99460000Y-24480000D02*
X99460000Y-25050000D01*
X99460000Y-25050000D02*
X100980000Y-25050000D01*
X96800000Y-24480000D02*
X96800000Y-27590000D01*
X99460000Y-46890000D02*
X99460000Y-50000000D01*
X99460000Y-41810000D02*
X99460000Y-45370000D01*
X99460000Y-36730000D02*
X99460000Y-40290000D01*
X99460000Y-31650000D02*
X99460000Y-35210000D01*
X99460000Y-26570000D02*
X99460000Y-30130000D01*
X96800000Y-50000000D02*
X99460000Y-50000000D01*
X96800000Y-24480000D02*
X99460000Y-24480000D01*
%TO.C,Q2*%
X107150000Y-28370000D02*
X107150000Y-27440000D01*
X107150000Y-25210000D02*
X107150000Y-26140000D01*
X107150000Y-25210000D02*
X104990000Y-25210000D01*
X107150000Y-28370000D02*
X105690000Y-28370000D01*
%TO.C,R1*%
X102940000Y-26902779D02*
X102940000Y-26577221D01*
X103960000Y-26902779D02*
X103960000Y-26577221D01*
%TO.C,R2*%
X67349721Y-27620000D02*
X67675279Y-27620000D01*
X67349721Y-26600000D02*
X67675279Y-26600000D01*
%TO.C,J5*%
X55130000Y-29320000D02*
X55130000Y-32430000D01*
X57790000Y-31860000D02*
X57790000Y-32430000D01*
X55130000Y-27230000D02*
X55130000Y-27800000D01*
X55130000Y-27800000D02*
X53610000Y-27800000D01*
X57790000Y-27230000D02*
X57790000Y-30340000D01*
X55130000Y-32430000D02*
X57790000Y-32430000D01*
X55130000Y-27230000D02*
X57790000Y-27230000D01*
%TO.C,J6*%
X91060000Y-31390000D02*
X93960000Y-31390000D01*
X93960000Y-31390000D02*
X93960000Y-34290000D01*
X93960000Y-34290000D02*
X91060000Y-34290000D01*
X91060000Y-34290000D02*
X91060000Y-31390000D01*
%TO.C,J8*%
X73220000Y-43980000D02*
X76120000Y-43980000D01*
X76120000Y-43980000D02*
X76120000Y-46880000D01*
X76120000Y-46880000D02*
X73220000Y-46880000D01*
X73220000Y-46880000D02*
X73220000Y-43980000D01*
%TO.C,J9*%
X88720000Y-48650000D02*
X88720000Y-45750000D01*
X91620000Y-48650000D02*
X88720000Y-48650000D01*
X91620000Y-45750000D02*
X91620000Y-48650000D01*
X88720000Y-45750000D02*
X91620000Y-45750000D01*
%TO.C,J7*%
D10*
X73414380Y-33483333D02*
X74128666Y-33483333D01*
X74271523Y-33530952D01*
X74366761Y-33626190D01*
X74414380Y-33769047D01*
X74414380Y-33864285D01*
X73414380Y-33102380D02*
X73414380Y-32435714D01*
X74414380Y-32864285D01*
X78812380Y-34340476D02*
X77812380Y-34340476D01*
X77812380Y-33959523D01*
X77860000Y-33864285D01*
X77907619Y-33816666D01*
X78002857Y-33769047D01*
X78145714Y-33769047D01*
X78240952Y-33816666D01*
X78288571Y-33864285D01*
X78336190Y-33959523D01*
X78336190Y-34340476D01*
X78288571Y-33340476D02*
X78288571Y-33007142D01*
X78812380Y-32864285D02*
X78812380Y-33340476D01*
X77812380Y-33340476D01*
X77812380Y-32864285D01*
X77812380Y-32245238D02*
X77812380Y-32150000D01*
X77860000Y-32054761D01*
X77907619Y-32007142D01*
X78002857Y-31959523D01*
X78193333Y-31911904D01*
X78431428Y-31911904D01*
X78621904Y-31959523D01*
X78717142Y-32007142D01*
X78764761Y-32054761D01*
X78812380Y-32150000D01*
X78812380Y-32245238D01*
X78764761Y-32340476D01*
X78717142Y-32388095D01*
X78621904Y-32435714D01*
X78431428Y-32483333D01*
X78193333Y-32483333D01*
X78002857Y-32435714D01*
X77907619Y-32388095D01*
X77860000Y-32340476D01*
X77812380Y-32245238D01*
%TO.C,Q1*%
X70937619Y-31365238D02*
X70890000Y-31460476D01*
X70794761Y-31555714D01*
X70651904Y-31698571D01*
X70604285Y-31793809D01*
X70604285Y-31889047D01*
X70842380Y-31841428D02*
X70794761Y-31936666D01*
X70699523Y-32031904D01*
X70509047Y-32079523D01*
X70175714Y-32079523D01*
X69985238Y-32031904D01*
X69890000Y-31936666D01*
X69842380Y-31841428D01*
X69842380Y-31650952D01*
X69890000Y-31555714D01*
X69985238Y-31460476D01*
X70175714Y-31412857D01*
X70509047Y-31412857D01*
X70699523Y-31460476D01*
X70794761Y-31555714D01*
X70842380Y-31650952D01*
X70842380Y-31841428D01*
X70842380Y-30460476D02*
X70842380Y-31031904D01*
X70842380Y-30746190D02*
X69842380Y-30746190D01*
X69985238Y-30841428D01*
X70080476Y-30936666D01*
X70128095Y-31031904D01*
X65842380Y-33174761D02*
X64842380Y-33174761D01*
X64842380Y-32793809D01*
X64890000Y-32698571D01*
X64937619Y-32650952D01*
X65032857Y-32603333D01*
X65175714Y-32603333D01*
X65270952Y-32650952D01*
X65318571Y-32698571D01*
X65366190Y-32793809D01*
X65366190Y-33174761D01*
X65937619Y-32412857D02*
X65937619Y-31650952D01*
X65318571Y-31079523D02*
X65318571Y-31412857D01*
X65842380Y-31412857D02*
X64842380Y-31412857D01*
X64842380Y-30936666D01*
X65318571Y-30555714D02*
X65318571Y-30222380D01*
X65842380Y-30079523D02*
X65842380Y-30555714D01*
X64842380Y-30555714D01*
X64842380Y-30079523D01*
X64842380Y-29793809D02*
X64842380Y-29222380D01*
X65842380Y-29508095D02*
X64842380Y-29508095D01*
%TO.C,C1*%
X52637142Y-29996666D02*
X52684761Y-30044285D01*
X52732380Y-30187142D01*
X52732380Y-30282380D01*
X52684761Y-30425238D01*
X52589523Y-30520476D01*
X52494285Y-30568095D01*
X52303809Y-30615714D01*
X52160952Y-30615714D01*
X51970476Y-30568095D01*
X51875238Y-30520476D01*
X51780000Y-30425238D01*
X51732380Y-30282380D01*
X51732380Y-30187142D01*
X51780000Y-30044285D01*
X51827619Y-29996666D01*
X52732380Y-29044285D02*
X52732380Y-29615714D01*
X52732380Y-29330000D02*
X51732380Y-29330000D01*
X51875238Y-29425238D01*
X51970476Y-29520476D01*
X52018095Y-29615714D01*
X49092380Y-30949047D02*
X49092380Y-31520476D01*
X49092380Y-31234761D02*
X48092380Y-31234761D01*
X48235238Y-31330000D01*
X48330476Y-31425238D01*
X48378095Y-31520476D01*
X48092380Y-30330000D02*
X48092380Y-30234761D01*
X48140000Y-30139523D01*
X48187619Y-30091904D01*
X48282857Y-30044285D01*
X48473333Y-29996666D01*
X48711428Y-29996666D01*
X48901904Y-30044285D01*
X48997142Y-30091904D01*
X49044761Y-30139523D01*
X49092380Y-30234761D01*
X49092380Y-30330000D01*
X49044761Y-30425238D01*
X48997142Y-30472857D01*
X48901904Y-30520476D01*
X48711428Y-30568095D01*
X48473333Y-30568095D01*
X48282857Y-30520476D01*
X48187619Y-30472857D01*
X48140000Y-30425238D01*
X48092380Y-30330000D01*
X48092380Y-29377619D02*
X48092380Y-29282380D01*
X48140000Y-29187142D01*
X48187619Y-29139523D01*
X48282857Y-29091904D01*
X48473333Y-29044285D01*
X48711428Y-29044285D01*
X48901904Y-29091904D01*
X48997142Y-29139523D01*
X49044761Y-29187142D01*
X49092380Y-29282380D01*
X49092380Y-29377619D01*
X49044761Y-29472857D01*
X48997142Y-29520476D01*
X48901904Y-29568095D01*
X48711428Y-29615714D01*
X48473333Y-29615714D01*
X48282857Y-29568095D01*
X48187619Y-29520476D01*
X48140000Y-29472857D01*
X48092380Y-29377619D01*
X48425714Y-28187142D02*
X49092380Y-28187142D01*
X48425714Y-28615714D02*
X48949523Y-28615714D01*
X49044761Y-28568095D01*
X49092380Y-28472857D01*
X49092380Y-28330000D01*
X49044761Y-28234761D01*
X48997142Y-28187142D01*
%TO.C,C2*%
X71747142Y-49016666D02*
X71794761Y-49064285D01*
X71842380Y-49207142D01*
X71842380Y-49302380D01*
X71794761Y-49445238D01*
X71699523Y-49540476D01*
X71604285Y-49588095D01*
X71413809Y-49635714D01*
X71270952Y-49635714D01*
X71080476Y-49588095D01*
X70985238Y-49540476D01*
X70890000Y-49445238D01*
X70842380Y-49302380D01*
X70842380Y-49207142D01*
X70890000Y-49064285D01*
X70937619Y-49016666D01*
X70937619Y-48635714D02*
X70890000Y-48588095D01*
X70842380Y-48492857D01*
X70842380Y-48254761D01*
X70890000Y-48159523D01*
X70937619Y-48111904D01*
X71032857Y-48064285D01*
X71128095Y-48064285D01*
X71270952Y-48111904D01*
X71842380Y-48683333D01*
X71842380Y-48064285D01*
X69582380Y-46712857D02*
X69582380Y-47189047D01*
X70058571Y-47236666D01*
X70010952Y-47189047D01*
X69963333Y-47093809D01*
X69963333Y-46855714D01*
X70010952Y-46760476D01*
X70058571Y-46712857D01*
X70153809Y-46665238D01*
X70391904Y-46665238D01*
X70487142Y-46712857D01*
X70534761Y-46760476D01*
X70582380Y-46855714D01*
X70582380Y-47093809D01*
X70534761Y-47189047D01*
X70487142Y-47236666D01*
X69915714Y-46236666D02*
X70915714Y-46236666D01*
X69963333Y-46236666D02*
X69915714Y-46141428D01*
X69915714Y-45950952D01*
X69963333Y-45855714D01*
X70010952Y-45808095D01*
X70106190Y-45760476D01*
X70391904Y-45760476D01*
X70487142Y-45808095D01*
X70534761Y-45855714D01*
X70582380Y-45950952D01*
X70582380Y-46141428D01*
X70534761Y-46236666D01*
X70058571Y-44998571D02*
X70058571Y-45331904D01*
X70582380Y-45331904D02*
X69582380Y-45331904D01*
X69582380Y-44855714D01*
%TO.C,C3*%
X75347142Y-36709166D02*
X75394761Y-36756785D01*
X75442380Y-36899642D01*
X75442380Y-36994880D01*
X75394761Y-37137738D01*
X75299523Y-37232976D01*
X75204285Y-37280595D01*
X75013809Y-37328214D01*
X74870952Y-37328214D01*
X74680476Y-37280595D01*
X74585238Y-37232976D01*
X74490000Y-37137738D01*
X74442380Y-36994880D01*
X74442380Y-36899642D01*
X74490000Y-36756785D01*
X74537619Y-36709166D01*
X74442380Y-36375833D02*
X74442380Y-35756785D01*
X74823333Y-36090119D01*
X74823333Y-35947261D01*
X74870952Y-35852023D01*
X74918571Y-35804404D01*
X75013809Y-35756785D01*
X75251904Y-35756785D01*
X75347142Y-35804404D01*
X75394761Y-35852023D01*
X75442380Y-35947261D01*
X75442380Y-36232976D01*
X75394761Y-36328214D01*
X75347142Y-36375833D01*
X72582380Y-37661547D02*
X72582380Y-38232976D01*
X72582380Y-37947261D02*
X71582380Y-37947261D01*
X71725238Y-38042500D01*
X71820476Y-38137738D01*
X71868095Y-38232976D01*
X71582380Y-37042500D02*
X71582380Y-36947261D01*
X71630000Y-36852023D01*
X71677619Y-36804404D01*
X71772857Y-36756785D01*
X71963333Y-36709166D01*
X72201428Y-36709166D01*
X72391904Y-36756785D01*
X72487142Y-36804404D01*
X72534761Y-36852023D01*
X72582380Y-36947261D01*
X72582380Y-37042500D01*
X72534761Y-37137738D01*
X72487142Y-37185357D01*
X72391904Y-37232976D01*
X72201428Y-37280595D01*
X71963333Y-37280595D01*
X71772857Y-37232976D01*
X71677619Y-37185357D01*
X71630000Y-37137738D01*
X71582380Y-37042500D01*
X71582380Y-36090119D02*
X71582380Y-35994880D01*
X71630000Y-35899642D01*
X71677619Y-35852023D01*
X71772857Y-35804404D01*
X71963333Y-35756785D01*
X72201428Y-35756785D01*
X72391904Y-35804404D01*
X72487142Y-35852023D01*
X72534761Y-35899642D01*
X72582380Y-35994880D01*
X72582380Y-36090119D01*
X72534761Y-36185357D01*
X72487142Y-36232976D01*
X72391904Y-36280595D01*
X72201428Y-36328214D01*
X71963333Y-36328214D01*
X71772857Y-36280595D01*
X71677619Y-36232976D01*
X71630000Y-36185357D01*
X71582380Y-36090119D01*
X71915714Y-35328214D02*
X72582380Y-35328214D01*
X72010952Y-35328214D02*
X71963333Y-35280595D01*
X71915714Y-35185357D01*
X71915714Y-35042500D01*
X71963333Y-34947261D01*
X72058571Y-34899642D01*
X72582380Y-34899642D01*
%TO.C,C4*%
X50903333Y-45827142D02*
X50855714Y-45874761D01*
X50712857Y-45922380D01*
X50617619Y-45922380D01*
X50474761Y-45874761D01*
X50379523Y-45779523D01*
X50331904Y-45684285D01*
X50284285Y-45493809D01*
X50284285Y-45350952D01*
X50331904Y-45160476D01*
X50379523Y-45065238D01*
X50474761Y-44970000D01*
X50617619Y-44922380D01*
X50712857Y-44922380D01*
X50855714Y-44970000D01*
X50903333Y-45017619D01*
X51760476Y-45255714D02*
X51760476Y-45922380D01*
X51522380Y-44874761D02*
X51284285Y-45589047D01*
X51903333Y-45589047D01*
X52653452Y-47442380D02*
X52082023Y-47442380D01*
X52367738Y-47442380D02*
X52367738Y-46442380D01*
X52272500Y-46585238D01*
X52177261Y-46680476D01*
X52082023Y-46728095D01*
X53272500Y-46442380D02*
X53367738Y-46442380D01*
X53462976Y-46490000D01*
X53510595Y-46537619D01*
X53558214Y-46632857D01*
X53605833Y-46823333D01*
X53605833Y-47061428D01*
X53558214Y-47251904D01*
X53510595Y-47347142D01*
X53462976Y-47394761D01*
X53367738Y-47442380D01*
X53272500Y-47442380D01*
X53177261Y-47394761D01*
X53129642Y-47347142D01*
X53082023Y-47251904D01*
X53034404Y-47061428D01*
X53034404Y-46823333D01*
X53082023Y-46632857D01*
X53129642Y-46537619D01*
X53177261Y-46490000D01*
X53272500Y-46442380D01*
X54224880Y-46442380D02*
X54320119Y-46442380D01*
X54415357Y-46490000D01*
X54462976Y-46537619D01*
X54510595Y-46632857D01*
X54558214Y-46823333D01*
X54558214Y-47061428D01*
X54510595Y-47251904D01*
X54462976Y-47347142D01*
X54415357Y-47394761D01*
X54320119Y-47442380D01*
X54224880Y-47442380D01*
X54129642Y-47394761D01*
X54082023Y-47347142D01*
X54034404Y-47251904D01*
X53986785Y-47061428D01*
X53986785Y-46823333D01*
X54034404Y-46632857D01*
X54082023Y-46537619D01*
X54129642Y-46490000D01*
X54224880Y-46442380D01*
X54986785Y-46775714D02*
X54986785Y-47442380D01*
X54986785Y-46870952D02*
X55034404Y-46823333D01*
X55129642Y-46775714D01*
X55272500Y-46775714D01*
X55367738Y-46823333D01*
X55415357Y-46918571D01*
X55415357Y-47442380D01*
%TO.C,C5*%
X67120833Y-43677142D02*
X67073214Y-43724761D01*
X66930357Y-43772380D01*
X66835119Y-43772380D01*
X66692261Y-43724761D01*
X66597023Y-43629523D01*
X66549404Y-43534285D01*
X66501785Y-43343809D01*
X66501785Y-43200952D01*
X66549404Y-43010476D01*
X66597023Y-42915238D01*
X66692261Y-42820000D01*
X66835119Y-42772380D01*
X66930357Y-42772380D01*
X67073214Y-42820000D01*
X67120833Y-42867619D01*
X68025595Y-42772380D02*
X67549404Y-42772380D01*
X67501785Y-43248571D01*
X67549404Y-43200952D01*
X67644642Y-43153333D01*
X67882738Y-43153333D01*
X67977976Y-43200952D01*
X68025595Y-43248571D01*
X68073214Y-43343809D01*
X68073214Y-43581904D01*
X68025595Y-43677142D01*
X67977976Y-43724761D01*
X67882738Y-43772380D01*
X67644642Y-43772380D01*
X67549404Y-43724761D01*
X67501785Y-43677142D01*
X66644642Y-39912380D02*
X66168452Y-39912380D01*
X66120833Y-40388571D01*
X66168452Y-40340952D01*
X66263690Y-40293333D01*
X66501785Y-40293333D01*
X66597023Y-40340952D01*
X66644642Y-40388571D01*
X66692261Y-40483809D01*
X66692261Y-40721904D01*
X66644642Y-40817142D01*
X66597023Y-40864761D01*
X66501785Y-40912380D01*
X66263690Y-40912380D01*
X66168452Y-40864761D01*
X66120833Y-40817142D01*
X67120833Y-40245714D02*
X67120833Y-41245714D01*
X67120833Y-40293333D02*
X67216071Y-40245714D01*
X67406547Y-40245714D01*
X67501785Y-40293333D01*
X67549404Y-40340952D01*
X67597023Y-40436190D01*
X67597023Y-40721904D01*
X67549404Y-40817142D01*
X67501785Y-40864761D01*
X67406547Y-40912380D01*
X67216071Y-40912380D01*
X67120833Y-40864761D01*
X68358928Y-40388571D02*
X68025595Y-40388571D01*
X68025595Y-40912380D02*
X68025595Y-39912380D01*
X68501785Y-39912380D01*
%TO.C,C6*%
X88877142Y-42836666D02*
X88924761Y-42884285D01*
X88972380Y-43027142D01*
X88972380Y-43122380D01*
X88924761Y-43265238D01*
X88829523Y-43360476D01*
X88734285Y-43408095D01*
X88543809Y-43455714D01*
X88400952Y-43455714D01*
X88210476Y-43408095D01*
X88115238Y-43360476D01*
X88020000Y-43265238D01*
X87972380Y-43122380D01*
X87972380Y-43027142D01*
X88020000Y-42884285D01*
X88067619Y-42836666D01*
X87972380Y-41979523D02*
X87972380Y-42170000D01*
X88020000Y-42265238D01*
X88067619Y-42312857D01*
X88210476Y-42408095D01*
X88400952Y-42455714D01*
X88781904Y-42455714D01*
X88877142Y-42408095D01*
X88924761Y-42360476D01*
X88972380Y-42265238D01*
X88972380Y-42074761D01*
X88924761Y-41979523D01*
X88877142Y-41931904D01*
X88781904Y-41884285D01*
X88543809Y-41884285D01*
X88448571Y-41931904D01*
X88400952Y-41979523D01*
X88353333Y-42074761D01*
X88353333Y-42265238D01*
X88400952Y-42360476D01*
X88448571Y-42408095D01*
X88543809Y-42455714D01*
X91832380Y-43789047D02*
X91832380Y-44360476D01*
X91832380Y-44074761D02*
X90832380Y-44074761D01*
X90975238Y-44170000D01*
X91070476Y-44265238D01*
X91118095Y-44360476D01*
X90832380Y-43170000D02*
X90832380Y-43074761D01*
X90880000Y-42979523D01*
X90927619Y-42931904D01*
X91022857Y-42884285D01*
X91213333Y-42836666D01*
X91451428Y-42836666D01*
X91641904Y-42884285D01*
X91737142Y-42931904D01*
X91784761Y-42979523D01*
X91832380Y-43074761D01*
X91832380Y-43170000D01*
X91784761Y-43265238D01*
X91737142Y-43312857D01*
X91641904Y-43360476D01*
X91451428Y-43408095D01*
X91213333Y-43408095D01*
X91022857Y-43360476D01*
X90927619Y-43312857D01*
X90880000Y-43265238D01*
X90832380Y-43170000D01*
X90832380Y-42217619D02*
X90832380Y-42122380D01*
X90880000Y-42027142D01*
X90927619Y-41979523D01*
X91022857Y-41931904D01*
X91213333Y-41884285D01*
X91451428Y-41884285D01*
X91641904Y-41931904D01*
X91737142Y-41979523D01*
X91784761Y-42027142D01*
X91832380Y-42122380D01*
X91832380Y-42217619D01*
X91784761Y-42312857D01*
X91737142Y-42360476D01*
X91641904Y-42408095D01*
X91451428Y-42455714D01*
X91213333Y-42455714D01*
X91022857Y-42408095D01*
X90927619Y-42360476D01*
X90880000Y-42312857D01*
X90832380Y-42217619D01*
X91165714Y-41455714D02*
X91832380Y-41455714D01*
X91260952Y-41455714D02*
X91213333Y-41408095D01*
X91165714Y-41312857D01*
X91165714Y-41170000D01*
X91213333Y-41074761D01*
X91308571Y-41027142D01*
X91832380Y-41027142D01*
%TO.C,C7*%
X106397142Y-37184166D02*
X106444761Y-37231785D01*
X106492380Y-37374642D01*
X106492380Y-37469880D01*
X106444761Y-37612738D01*
X106349523Y-37707976D01*
X106254285Y-37755595D01*
X106063809Y-37803214D01*
X105920952Y-37803214D01*
X105730476Y-37755595D01*
X105635238Y-37707976D01*
X105540000Y-37612738D01*
X105492380Y-37469880D01*
X105492380Y-37374642D01*
X105540000Y-37231785D01*
X105587619Y-37184166D01*
X105492380Y-36850833D02*
X105492380Y-36184166D01*
X106492380Y-36612738D01*
X103632380Y-38136547D02*
X103632380Y-38707976D01*
X103632380Y-38422261D02*
X102632380Y-38422261D01*
X102775238Y-38517500D01*
X102870476Y-38612738D01*
X102918095Y-38707976D01*
X102632380Y-37517500D02*
X102632380Y-37422261D01*
X102680000Y-37327023D01*
X102727619Y-37279404D01*
X102822857Y-37231785D01*
X103013333Y-37184166D01*
X103251428Y-37184166D01*
X103441904Y-37231785D01*
X103537142Y-37279404D01*
X103584761Y-37327023D01*
X103632380Y-37422261D01*
X103632380Y-37517500D01*
X103584761Y-37612738D01*
X103537142Y-37660357D01*
X103441904Y-37707976D01*
X103251428Y-37755595D01*
X103013333Y-37755595D01*
X102822857Y-37707976D01*
X102727619Y-37660357D01*
X102680000Y-37612738D01*
X102632380Y-37517500D01*
X102632380Y-36565119D02*
X102632380Y-36469880D01*
X102680000Y-36374642D01*
X102727619Y-36327023D01*
X102822857Y-36279404D01*
X103013333Y-36231785D01*
X103251428Y-36231785D01*
X103441904Y-36279404D01*
X103537142Y-36327023D01*
X103584761Y-36374642D01*
X103632380Y-36469880D01*
X103632380Y-36565119D01*
X103584761Y-36660357D01*
X103537142Y-36707976D01*
X103441904Y-36755595D01*
X103251428Y-36803214D01*
X103013333Y-36803214D01*
X102822857Y-36755595D01*
X102727619Y-36707976D01*
X102680000Y-36660357D01*
X102632380Y-36565119D01*
X102965714Y-35803214D02*
X103632380Y-35803214D01*
X103060952Y-35803214D02*
X103013333Y-35755595D01*
X102965714Y-35660357D01*
X102965714Y-35517500D01*
X103013333Y-35422261D01*
X103108571Y-35374642D01*
X103632380Y-35374642D01*
%TO.C,J1*%
X48326666Y-36442380D02*
X48326666Y-37156666D01*
X48279047Y-37299523D01*
X48183809Y-37394761D01*
X48040952Y-37442380D01*
X47945714Y-37442380D01*
X49326666Y-37442380D02*
X48755238Y-37442380D01*
X49040952Y-37442380D02*
X49040952Y-36442380D01*
X48945714Y-36585238D01*
X48850476Y-36680476D01*
X48755238Y-36728095D01*
X50004761Y-35536666D02*
X50480952Y-35536666D01*
X49909523Y-35822380D02*
X50242857Y-34822380D01*
X50576190Y-35822380D01*
X50766666Y-34822380D02*
X51100000Y-35822380D01*
X51433333Y-34822380D01*
X52338095Y-35822380D02*
X52004761Y-35346190D01*
X51766666Y-35822380D02*
X51766666Y-34822380D01*
X52147619Y-34822380D01*
X52242857Y-34870000D01*
X52290476Y-34917619D01*
X52338095Y-35012857D01*
X52338095Y-35155714D01*
X52290476Y-35250952D01*
X52242857Y-35298571D01*
X52147619Y-35346190D01*
X51766666Y-35346190D01*
X52766666Y-35441428D02*
X53528571Y-35441428D01*
X54004761Y-35822380D02*
X54004761Y-34822380D01*
X54433333Y-35774761D02*
X54576190Y-35822380D01*
X54814285Y-35822380D01*
X54909523Y-35774761D01*
X54957142Y-35727142D01*
X55004761Y-35631904D01*
X55004761Y-35536666D01*
X54957142Y-35441428D01*
X54909523Y-35393809D01*
X54814285Y-35346190D01*
X54623809Y-35298571D01*
X54528571Y-35250952D01*
X54480952Y-35203333D01*
X54433333Y-35108095D01*
X54433333Y-35012857D01*
X54480952Y-34917619D01*
X54528571Y-34870000D01*
X54623809Y-34822380D01*
X54861904Y-34822380D01*
X55004761Y-34870000D01*
X55433333Y-35822380D02*
X55433333Y-34822380D01*
X55814285Y-34822380D01*
X55909523Y-34870000D01*
X55957142Y-34917619D01*
X56004761Y-35012857D01*
X56004761Y-35155714D01*
X55957142Y-35250952D01*
X55909523Y-35298571D01*
X55814285Y-35346190D01*
X55433333Y-35346190D01*
X56433333Y-35441428D02*
X57195238Y-35441428D01*
X58100000Y-34822380D02*
X57909523Y-34822380D01*
X57814285Y-34870000D01*
X57766666Y-34917619D01*
X57671428Y-35060476D01*
X57623809Y-35250952D01*
X57623809Y-35631904D01*
X57671428Y-35727142D01*
X57719047Y-35774761D01*
X57814285Y-35822380D01*
X58004761Y-35822380D01*
X58100000Y-35774761D01*
X58147619Y-35727142D01*
X58195238Y-35631904D01*
X58195238Y-35393809D01*
X58147619Y-35298571D01*
X58100000Y-35250952D01*
X58004761Y-35203333D01*
X57814285Y-35203333D01*
X57719047Y-35250952D01*
X57671428Y-35298571D01*
X57623809Y-35393809D01*
%TO.C,U1*%
X62148095Y-32662380D02*
X62148095Y-33471904D01*
X62195714Y-33567142D01*
X62243333Y-33614761D01*
X62338571Y-33662380D01*
X62529047Y-33662380D01*
X62624285Y-33614761D01*
X62671904Y-33567142D01*
X62719523Y-33471904D01*
X62719523Y-32662380D01*
X63719523Y-33662380D02*
X63148095Y-33662380D01*
X63433809Y-33662380D02*
X63433809Y-32662380D01*
X63338571Y-32805238D01*
X63243333Y-32900476D01*
X63148095Y-32948095D01*
X63292380Y-31454761D02*
X63292380Y-31930952D01*
X62292380Y-31930952D01*
X63292380Y-31121428D02*
X62292380Y-31121428D01*
X62292380Y-30740476D01*
X62340000Y-30645238D01*
X62387619Y-30597619D01*
X62482857Y-30550000D01*
X62625714Y-30550000D01*
X62720952Y-30597619D01*
X62768571Y-30645238D01*
X62816190Y-30740476D01*
X62816190Y-31121428D01*
X62387619Y-30169047D02*
X62340000Y-30121428D01*
X62292380Y-30026190D01*
X62292380Y-29788095D01*
X62340000Y-29692857D01*
X62387619Y-29645238D01*
X62482857Y-29597619D01*
X62578095Y-29597619D01*
X62720952Y-29645238D01*
X63292380Y-30216666D01*
X63292380Y-29597619D01*
X63292380Y-29121428D02*
X63292380Y-28930952D01*
X63244761Y-28835714D01*
X63197142Y-28788095D01*
X63054285Y-28692857D01*
X62863809Y-28645238D01*
X62482857Y-28645238D01*
X62387619Y-28692857D01*
X62340000Y-28740476D01*
X62292380Y-28835714D01*
X62292380Y-29026190D01*
X62340000Y-29121428D01*
X62387619Y-29169047D01*
X62482857Y-29216666D01*
X62720952Y-29216666D01*
X62816190Y-29169047D01*
X62863809Y-29121428D01*
X62911428Y-29026190D01*
X62911428Y-28835714D01*
X62863809Y-28740476D01*
X62816190Y-28692857D01*
X62720952Y-28645238D01*
X62720952Y-28073809D02*
X62673333Y-28169047D01*
X62625714Y-28216666D01*
X62530476Y-28264285D01*
X62482857Y-28264285D01*
X62387619Y-28216666D01*
X62340000Y-28169047D01*
X62292380Y-28073809D01*
X62292380Y-27883333D01*
X62340000Y-27788095D01*
X62387619Y-27740476D01*
X62482857Y-27692857D01*
X62530476Y-27692857D01*
X62625714Y-27740476D01*
X62673333Y-27788095D01*
X62720952Y-27883333D01*
X62720952Y-28073809D01*
X62768571Y-28169047D01*
X62816190Y-28216666D01*
X62911428Y-28264285D01*
X63101904Y-28264285D01*
X63197142Y-28216666D01*
X63244761Y-28169047D01*
X63292380Y-28073809D01*
X63292380Y-27883333D01*
X63244761Y-27788095D01*
X63197142Y-27740476D01*
X63101904Y-27692857D01*
X62911428Y-27692857D01*
X62816190Y-27740476D01*
X62768571Y-27788095D01*
X62720952Y-27883333D01*
X62292380Y-26788095D02*
X62292380Y-27264285D01*
X62768571Y-27311904D01*
X62720952Y-27264285D01*
X62673333Y-27169047D01*
X62673333Y-26930952D01*
X62720952Y-26835714D01*
X62768571Y-26788095D01*
X62863809Y-26740476D01*
X63101904Y-26740476D01*
X63197142Y-26788095D01*
X63244761Y-26835714D01*
X63292380Y-26930952D01*
X63292380Y-27169047D01*
X63244761Y-27264285D01*
X63197142Y-27311904D01*
X62911428Y-26311904D02*
X62911428Y-25550000D01*
X62292380Y-25169047D02*
X62292380Y-24550000D01*
X62673333Y-24883333D01*
X62673333Y-24740476D01*
X62720952Y-24645238D01*
X62768571Y-24597619D01*
X62863809Y-24550000D01*
X63101904Y-24550000D01*
X63197142Y-24597619D01*
X63244761Y-24645238D01*
X63292380Y-24740476D01*
X63292380Y-25026190D01*
X63244761Y-25121428D01*
X63197142Y-25169047D01*
X63197142Y-24121428D02*
X63244761Y-24073809D01*
X63292380Y-24121428D01*
X63244761Y-24169047D01*
X63197142Y-24121428D01*
X63292380Y-24121428D01*
X62292380Y-23454761D02*
X62292380Y-23359523D01*
X62340000Y-23264285D01*
X62387619Y-23216666D01*
X62482857Y-23169047D01*
X62673333Y-23121428D01*
X62911428Y-23121428D01*
X63101904Y-23169047D01*
X63197142Y-23216666D01*
X63244761Y-23264285D01*
X63292380Y-23359523D01*
X63292380Y-23454761D01*
X63244761Y-23550000D01*
X63197142Y-23597619D01*
X63101904Y-23645238D01*
X62911428Y-23692857D01*
X62673333Y-23692857D01*
X62482857Y-23645238D01*
X62387619Y-23597619D01*
X62340000Y-23550000D01*
X62292380Y-23454761D01*
%TO.C,U2*%
X81068095Y-33742380D02*
X81068095Y-34551904D01*
X81115714Y-34647142D01*
X81163333Y-34694761D01*
X81258571Y-34742380D01*
X81449047Y-34742380D01*
X81544285Y-34694761D01*
X81591904Y-34647142D01*
X81639523Y-34551904D01*
X81639523Y-33742380D01*
X82068095Y-33837619D02*
X82115714Y-33790000D01*
X82210952Y-33742380D01*
X82449047Y-33742380D01*
X82544285Y-33790000D01*
X82591904Y-33837619D01*
X82639523Y-33932857D01*
X82639523Y-34028095D01*
X82591904Y-34170952D01*
X82020476Y-34742380D01*
X82639523Y-34742380D01*
X74925952Y-50071666D02*
X75402142Y-50071666D01*
X74830714Y-50357380D02*
X75164047Y-49357380D01*
X75497380Y-50357380D01*
X75687857Y-49357380D02*
X76259285Y-49357380D01*
X75973571Y-50357380D02*
X75973571Y-49357380D01*
X76592619Y-50357380D02*
X76592619Y-49690714D01*
X76592619Y-49785952D02*
X76640238Y-49738333D01*
X76735476Y-49690714D01*
X76878333Y-49690714D01*
X76973571Y-49738333D01*
X77021190Y-49833571D01*
X77021190Y-50357380D01*
X77021190Y-49833571D02*
X77068809Y-49738333D01*
X77164047Y-49690714D01*
X77306904Y-49690714D01*
X77402142Y-49738333D01*
X77449761Y-49833571D01*
X77449761Y-50357380D01*
X78306904Y-50309761D02*
X78211666Y-50357380D01*
X78021190Y-50357380D01*
X77925952Y-50309761D01*
X77878333Y-50214523D01*
X77878333Y-49833571D01*
X77925952Y-49738333D01*
X78021190Y-49690714D01*
X78211666Y-49690714D01*
X78306904Y-49738333D01*
X78354523Y-49833571D01*
X78354523Y-49928809D01*
X77878333Y-50024047D01*
X79211666Y-49690714D02*
X79211666Y-50500238D01*
X79164047Y-50595476D01*
X79116428Y-50643095D01*
X79021190Y-50690714D01*
X78878333Y-50690714D01*
X78783095Y-50643095D01*
X79211666Y-50309761D02*
X79116428Y-50357380D01*
X78925952Y-50357380D01*
X78830714Y-50309761D01*
X78783095Y-50262142D01*
X78735476Y-50166904D01*
X78735476Y-49881190D01*
X78783095Y-49785952D01*
X78830714Y-49738333D01*
X78925952Y-49690714D01*
X79116428Y-49690714D01*
X79211666Y-49738333D01*
X80116428Y-50357380D02*
X80116428Y-49833571D01*
X80068809Y-49738333D01*
X79973571Y-49690714D01*
X79783095Y-49690714D01*
X79687857Y-49738333D01*
X80116428Y-50309761D02*
X80021190Y-50357380D01*
X79783095Y-50357380D01*
X79687857Y-50309761D01*
X79640238Y-50214523D01*
X79640238Y-50119285D01*
X79687857Y-50024047D01*
X79783095Y-49976428D01*
X80021190Y-49976428D01*
X80116428Y-49928809D01*
X81116428Y-50357380D02*
X80545000Y-50357380D01*
X80830714Y-50357380D02*
X80830714Y-49357380D01*
X80735476Y-49500238D01*
X80640238Y-49595476D01*
X80545000Y-49643095D01*
X81973571Y-49357380D02*
X81783095Y-49357380D01*
X81687857Y-49405000D01*
X81640238Y-49452619D01*
X81545000Y-49595476D01*
X81497380Y-49785952D01*
X81497380Y-50166904D01*
X81545000Y-50262142D01*
X81592619Y-50309761D01*
X81687857Y-50357380D01*
X81878333Y-50357380D01*
X81973571Y-50309761D01*
X82021190Y-50262142D01*
X82068809Y-50166904D01*
X82068809Y-49928809D01*
X82021190Y-49833571D01*
X81973571Y-49785952D01*
X81878333Y-49738333D01*
X81687857Y-49738333D01*
X81592619Y-49785952D01*
X81545000Y-49833571D01*
X81497380Y-49928809D01*
X82640238Y-49785952D02*
X82545000Y-49738333D01*
X82497380Y-49690714D01*
X82449761Y-49595476D01*
X82449761Y-49547857D01*
X82497380Y-49452619D01*
X82545000Y-49405000D01*
X82640238Y-49357380D01*
X82830714Y-49357380D01*
X82925952Y-49405000D01*
X82973571Y-49452619D01*
X83021190Y-49547857D01*
X83021190Y-49595476D01*
X82973571Y-49690714D01*
X82925952Y-49738333D01*
X82830714Y-49785952D01*
X82640238Y-49785952D01*
X82545000Y-49833571D01*
X82497380Y-49881190D01*
X82449761Y-49976428D01*
X82449761Y-50166904D01*
X82497380Y-50262142D01*
X82545000Y-50309761D01*
X82640238Y-50357380D01*
X82830714Y-50357380D01*
X82925952Y-50309761D01*
X82973571Y-50262142D01*
X83021190Y-50166904D01*
X83021190Y-49976428D01*
X82973571Y-49881190D01*
X82925952Y-49833571D01*
X82830714Y-49785952D01*
X83449761Y-50357380D02*
X83449761Y-49357380D01*
X83830714Y-49357380D01*
X83925952Y-49405000D01*
X83973571Y-49452619D01*
X84021190Y-49547857D01*
X84021190Y-49690714D01*
X83973571Y-49785952D01*
X83925952Y-49833571D01*
X83830714Y-49881190D01*
X83449761Y-49881190D01*
X84783095Y-49833571D02*
X84925952Y-49881190D01*
X84973571Y-49928809D01*
X85021190Y-50024047D01*
X85021190Y-50166904D01*
X84973571Y-50262142D01*
X84925952Y-50309761D01*
X84830714Y-50357380D01*
X84449761Y-50357380D01*
X84449761Y-49357380D01*
X84783095Y-49357380D01*
X84878333Y-49405000D01*
X84925952Y-49452619D01*
X84973571Y-49547857D01*
X84973571Y-49643095D01*
X84925952Y-49738333D01*
X84878333Y-49785952D01*
X84783095Y-49833571D01*
X84449761Y-49833571D01*
X85449761Y-49976428D02*
X86211666Y-49976428D01*
X86640238Y-50071666D02*
X87116428Y-50071666D01*
X86545000Y-50357380D02*
X86878333Y-49357380D01*
X87211666Y-50357380D01*
X87545000Y-49357380D02*
X87545000Y-50166904D01*
X87592619Y-50262142D01*
X87640238Y-50309761D01*
X87735476Y-50357380D01*
X87925952Y-50357380D01*
X88021190Y-50309761D01*
X88068809Y-50262142D01*
X88116428Y-50166904D01*
X88116428Y-49357380D01*
%TO.C,Y1*%
X69596190Y-42356190D02*
X70072380Y-42356190D01*
X69072380Y-42689523D02*
X69596190Y-42356190D01*
X69072380Y-42022857D01*
X70072380Y-41165714D02*
X70072380Y-41737142D01*
X70072380Y-41451428D02*
X69072380Y-41451428D01*
X69215238Y-41546666D01*
X69310476Y-41641904D01*
X69358095Y-41737142D01*
X67412380Y-38562380D02*
X68031428Y-38562380D01*
X67698095Y-38943333D01*
X67840952Y-38943333D01*
X67936190Y-38990952D01*
X67983809Y-39038571D01*
X68031428Y-39133809D01*
X68031428Y-39371904D01*
X67983809Y-39467142D01*
X67936190Y-39514761D01*
X67840952Y-39562380D01*
X67555238Y-39562380D01*
X67460000Y-39514761D01*
X67412380Y-39467142D01*
X68412380Y-38657619D02*
X68460000Y-38610000D01*
X68555238Y-38562380D01*
X68793333Y-38562380D01*
X68888571Y-38610000D01*
X68936190Y-38657619D01*
X68983809Y-38752857D01*
X68983809Y-38848095D01*
X68936190Y-38990952D01*
X68364761Y-39562380D01*
X68983809Y-39562380D01*
X69317142Y-38562380D02*
X69983809Y-38562380D01*
X69555238Y-39562380D01*
X70793333Y-38562380D02*
X70602857Y-38562380D01*
X70507619Y-38610000D01*
X70460000Y-38657619D01*
X70364761Y-38800476D01*
X70317142Y-38990952D01*
X70317142Y-39371904D01*
X70364761Y-39467142D01*
X70412380Y-39514761D01*
X70507619Y-39562380D01*
X70698095Y-39562380D01*
X70793333Y-39514761D01*
X70840952Y-39467142D01*
X70888571Y-39371904D01*
X70888571Y-39133809D01*
X70840952Y-39038571D01*
X70793333Y-38990952D01*
X70698095Y-38943333D01*
X70507619Y-38943333D01*
X70412380Y-38990952D01*
X70364761Y-39038571D01*
X70317142Y-39133809D01*
X71460000Y-38990952D02*
X71364761Y-38943333D01*
X71317142Y-38895714D01*
X71269523Y-38800476D01*
X71269523Y-38752857D01*
X71317142Y-38657619D01*
X71364761Y-38610000D01*
X71460000Y-38562380D01*
X71650476Y-38562380D01*
X71745714Y-38610000D01*
X71793333Y-38657619D01*
X71840952Y-38752857D01*
X71840952Y-38800476D01*
X71793333Y-38895714D01*
X71745714Y-38943333D01*
X71650476Y-38990952D01*
X71460000Y-38990952D01*
X71364761Y-39038571D01*
X71317142Y-39086190D01*
X71269523Y-39181428D01*
X71269523Y-39371904D01*
X71317142Y-39467142D01*
X71364761Y-39514761D01*
X71460000Y-39562380D01*
X71650476Y-39562380D01*
X71745714Y-39514761D01*
X71793333Y-39467142D01*
X71840952Y-39371904D01*
X71840952Y-39181428D01*
X71793333Y-39086190D01*
X71745714Y-39038571D01*
X71650476Y-38990952D01*
X73031428Y-39562380D02*
X73031428Y-38562380D01*
X73031428Y-39038571D02*
X73602857Y-39038571D01*
X73602857Y-39562380D02*
X73602857Y-38562380D01*
X73983809Y-38895714D02*
X74507619Y-38895714D01*
X73983809Y-39562380D01*
X74507619Y-39562380D01*
%TO.C,J2*%
X93732380Y-27923333D02*
X94446666Y-27923333D01*
X94589523Y-27970952D01*
X94684761Y-28066190D01*
X94732380Y-28209047D01*
X94732380Y-28304285D01*
X93827619Y-27494761D02*
X93780000Y-27447142D01*
X93732380Y-27351904D01*
X93732380Y-27113809D01*
X93780000Y-27018571D01*
X93827619Y-26970952D01*
X93922857Y-26923333D01*
X94018095Y-26923333D01*
X94160952Y-26970952D01*
X94732380Y-27542380D01*
X94732380Y-26923333D01*
X71292380Y-31709047D02*
X72292380Y-31470952D01*
X71578095Y-31280476D01*
X72292380Y-31090000D01*
X71292380Y-30851904D01*
X72006666Y-30518571D02*
X72006666Y-30042380D01*
X72292380Y-30613809D02*
X71292380Y-30280476D01*
X72292380Y-29947142D01*
X71292380Y-29756666D02*
X72292380Y-29423333D01*
X71292380Y-29090000D01*
X71768571Y-28756666D02*
X71768571Y-28423333D01*
X72292380Y-28280476D02*
X72292380Y-28756666D01*
X71292380Y-28756666D01*
X71292380Y-28280476D01*
X72244761Y-27899523D02*
X72292380Y-27756666D01*
X72292380Y-27518571D01*
X72244761Y-27423333D01*
X72197142Y-27375714D01*
X72101904Y-27328095D01*
X72006666Y-27328095D01*
X71911428Y-27375714D01*
X71863809Y-27423333D01*
X71816190Y-27518571D01*
X71768571Y-27709047D01*
X71720952Y-27804285D01*
X71673333Y-27851904D01*
X71578095Y-27899523D01*
X71482857Y-27899523D01*
X71387619Y-27851904D01*
X71340000Y-27804285D01*
X71292380Y-27709047D01*
X71292380Y-27470952D01*
X71340000Y-27328095D01*
X72292380Y-26899523D02*
X71292380Y-26899523D01*
X71768571Y-26899523D02*
X71768571Y-26328095D01*
X72292380Y-26328095D02*
X71292380Y-26328095D01*
X72006666Y-25899523D02*
X72006666Y-25423333D01*
X72292380Y-25994761D02*
X71292380Y-25661428D01*
X72292380Y-25328095D01*
X72292380Y-24423333D02*
X71816190Y-24756666D01*
X72292380Y-24994761D02*
X71292380Y-24994761D01*
X71292380Y-24613809D01*
X71340000Y-24518571D01*
X71387619Y-24470952D01*
X71482857Y-24423333D01*
X71625714Y-24423333D01*
X71720952Y-24470952D01*
X71768571Y-24518571D01*
X71816190Y-24613809D01*
X71816190Y-24994761D01*
X71768571Y-23994761D02*
X71768571Y-23661428D01*
X72292380Y-23518571D02*
X72292380Y-23994761D01*
X71292380Y-23994761D01*
X71292380Y-23518571D01*
%TO.C,J3*%
X97796666Y-22932380D02*
X97796666Y-23646666D01*
X97749047Y-23789523D01*
X97653809Y-23884761D01*
X97510952Y-23932380D01*
X97415714Y-23932380D01*
X98177619Y-22932380D02*
X98796666Y-22932380D01*
X98463333Y-23313333D01*
X98606190Y-23313333D01*
X98701428Y-23360952D01*
X98749047Y-23408571D01*
X98796666Y-23503809D01*
X98796666Y-23741904D01*
X98749047Y-23837142D01*
X98701428Y-23884761D01*
X98606190Y-23932380D01*
X98320476Y-23932380D01*
X98225238Y-23884761D01*
X98177619Y-23837142D01*
X94052380Y-43751428D02*
X93052380Y-43751428D01*
X93052380Y-43513333D01*
X93100000Y-43370476D01*
X93195238Y-43275238D01*
X93290476Y-43227619D01*
X93480952Y-43180000D01*
X93623809Y-43180000D01*
X93814285Y-43227619D01*
X93909523Y-43275238D01*
X94004761Y-43370476D01*
X94052380Y-43513333D01*
X94052380Y-43751428D01*
X93528571Y-42418095D02*
X93576190Y-42275238D01*
X93623809Y-42227619D01*
X93719047Y-42180000D01*
X93861904Y-42180000D01*
X93957142Y-42227619D01*
X94004761Y-42275238D01*
X94052380Y-42370476D01*
X94052380Y-42751428D01*
X93052380Y-42751428D01*
X93052380Y-42418095D01*
X93100000Y-42322857D01*
X93147619Y-42275238D01*
X93242857Y-42227619D01*
X93338095Y-42227619D01*
X93433333Y-42275238D01*
X93480952Y-42322857D01*
X93528571Y-42418095D01*
X93528571Y-42751428D01*
X93100000Y-41227619D02*
X93052380Y-41322857D01*
X93052380Y-41465714D01*
X93100000Y-41608571D01*
X93195238Y-41703809D01*
X93290476Y-41751428D01*
X93480952Y-41799047D01*
X93623809Y-41799047D01*
X93814285Y-41751428D01*
X93909523Y-41703809D01*
X94004761Y-41608571D01*
X94052380Y-41465714D01*
X94052380Y-41370476D01*
X94004761Y-41227619D01*
X93957142Y-41180000D01*
X93623809Y-41180000D01*
X93623809Y-41370476D01*
X94147619Y-40989523D02*
X94147619Y-40227619D01*
X93957142Y-39418095D02*
X94004761Y-39465714D01*
X94052380Y-39608571D01*
X94052380Y-39703809D01*
X94004761Y-39846666D01*
X93909523Y-39941904D01*
X93814285Y-39989523D01*
X93623809Y-40037142D01*
X93480952Y-40037142D01*
X93290476Y-39989523D01*
X93195238Y-39941904D01*
X93100000Y-39846666D01*
X93052380Y-39703809D01*
X93052380Y-39608571D01*
X93100000Y-39465714D01*
X93147619Y-39418095D01*
X93766666Y-39037142D02*
X93766666Y-38560952D01*
X94052380Y-39132380D02*
X93052380Y-38799047D01*
X94052380Y-38465714D01*
X94052380Y-37560952D02*
X93576190Y-37894285D01*
X94052380Y-38132380D02*
X93052380Y-38132380D01*
X93052380Y-37751428D01*
X93100000Y-37656190D01*
X93147619Y-37608571D01*
X93242857Y-37560952D01*
X93385714Y-37560952D01*
X93480952Y-37608571D01*
X93528571Y-37656190D01*
X93576190Y-37751428D01*
X93576190Y-38132380D01*
X94052380Y-37132380D02*
X93052380Y-37132380D01*
X93052380Y-36894285D01*
X93100000Y-36751428D01*
X93195238Y-36656190D01*
X93290476Y-36608571D01*
X93480952Y-36560952D01*
X93623809Y-36560952D01*
X93814285Y-36608571D01*
X93909523Y-36656190D01*
X94004761Y-36751428D01*
X94052380Y-36894285D01*
X94052380Y-37132380D01*
%TO.C,Q2*%
X106294761Y-24837619D02*
X106199523Y-24790000D01*
X106104285Y-24694761D01*
X105961428Y-24551904D01*
X105866190Y-24504285D01*
X105770952Y-24504285D01*
X105818571Y-24742380D02*
X105723333Y-24694761D01*
X105628095Y-24599523D01*
X105580476Y-24409047D01*
X105580476Y-24075714D01*
X105628095Y-23885238D01*
X105723333Y-23790000D01*
X105818571Y-23742380D01*
X106009047Y-23742380D01*
X106104285Y-23790000D01*
X106199523Y-23885238D01*
X106247142Y-24075714D01*
X106247142Y-24409047D01*
X106199523Y-24599523D01*
X106104285Y-24694761D01*
X106009047Y-24742380D01*
X105818571Y-24742380D01*
X106628095Y-23837619D02*
X106675714Y-23790000D01*
X106770952Y-23742380D01*
X107009047Y-23742380D01*
X107104285Y-23790000D01*
X107151904Y-23837619D01*
X107199523Y-23932857D01*
X107199523Y-24028095D01*
X107151904Y-24170952D01*
X106580476Y-24742380D01*
X107199523Y-24742380D01*
X104485238Y-29742380D02*
X104485238Y-28742380D01*
X104866190Y-28742380D01*
X104961428Y-28790000D01*
X105009047Y-28837619D01*
X105056666Y-28932857D01*
X105056666Y-29075714D01*
X105009047Y-29170952D01*
X104961428Y-29218571D01*
X104866190Y-29266190D01*
X104485238Y-29266190D01*
X105247142Y-29837619D02*
X106009047Y-29837619D01*
X106580476Y-29218571D02*
X106247142Y-29218571D01*
X106247142Y-29742380D02*
X106247142Y-28742380D01*
X106723333Y-28742380D01*
X107104285Y-29218571D02*
X107437619Y-29218571D01*
X107580476Y-29742380D02*
X107104285Y-29742380D01*
X107104285Y-28742380D01*
X107580476Y-28742380D01*
X107866190Y-28742380D02*
X108437619Y-28742380D01*
X108151904Y-29742380D02*
X108151904Y-28742380D01*
%TO.C,R1*%
X102472380Y-26906666D02*
X101996190Y-27240000D01*
X102472380Y-27478095D02*
X101472380Y-27478095D01*
X101472380Y-27097142D01*
X101520000Y-27001904D01*
X101567619Y-26954285D01*
X101662857Y-26906666D01*
X101805714Y-26906666D01*
X101900952Y-26954285D01*
X101948571Y-27001904D01*
X101996190Y-27097142D01*
X101996190Y-27478095D01*
X102472380Y-25954285D02*
X102472380Y-26525714D01*
X102472380Y-26240000D02*
X101472380Y-26240000D01*
X101615238Y-26335238D01*
X101710476Y-26430476D01*
X101758095Y-26525714D01*
X102624761Y-24952380D02*
X102053333Y-24952380D01*
X102339047Y-24952380D02*
X102339047Y-23952380D01*
X102243809Y-24095238D01*
X102148571Y-24190476D01*
X102053333Y-24238095D01*
X103243809Y-23952380D02*
X103339047Y-23952380D01*
X103434285Y-24000000D01*
X103481904Y-24047619D01*
X103529523Y-24142857D01*
X103577142Y-24333333D01*
X103577142Y-24571428D01*
X103529523Y-24761904D01*
X103481904Y-24857142D01*
X103434285Y-24904761D01*
X103339047Y-24952380D01*
X103243809Y-24952380D01*
X103148571Y-24904761D01*
X103100952Y-24857142D01*
X103053333Y-24761904D01*
X103005714Y-24571428D01*
X103005714Y-24333333D01*
X103053333Y-24142857D01*
X103100952Y-24047619D01*
X103148571Y-24000000D01*
X103243809Y-23952380D01*
X104005714Y-24952380D02*
X104005714Y-23952380D01*
X104100952Y-24571428D02*
X104386666Y-24952380D01*
X104386666Y-24285714D02*
X104005714Y-24666666D01*
%TO.C,R2*%
X67345833Y-26132380D02*
X67012500Y-25656190D01*
X66774404Y-26132380D02*
X66774404Y-25132380D01*
X67155357Y-25132380D01*
X67250595Y-25180000D01*
X67298214Y-25227619D01*
X67345833Y-25322857D01*
X67345833Y-25465714D01*
X67298214Y-25560952D01*
X67250595Y-25608571D01*
X67155357Y-25656190D01*
X66774404Y-25656190D01*
X67726785Y-25227619D02*
X67774404Y-25180000D01*
X67869642Y-25132380D01*
X68107738Y-25132380D01*
X68202976Y-25180000D01*
X68250595Y-25227619D01*
X68298214Y-25322857D01*
X68298214Y-25418095D01*
X68250595Y-25560952D01*
X67679166Y-26132380D01*
X68298214Y-26132380D01*
X66917261Y-28992380D02*
X66345833Y-28992380D01*
X66631547Y-28992380D02*
X66631547Y-27992380D01*
X66536309Y-28135238D01*
X66441071Y-28230476D01*
X66345833Y-28278095D01*
X67536309Y-27992380D02*
X67631547Y-27992380D01*
X67726785Y-28040000D01*
X67774404Y-28087619D01*
X67822023Y-28182857D01*
X67869642Y-28373333D01*
X67869642Y-28611428D01*
X67822023Y-28801904D01*
X67774404Y-28897142D01*
X67726785Y-28944761D01*
X67631547Y-28992380D01*
X67536309Y-28992380D01*
X67441071Y-28944761D01*
X67393452Y-28897142D01*
X67345833Y-28801904D01*
X67298214Y-28611428D01*
X67298214Y-28373333D01*
X67345833Y-28182857D01*
X67393452Y-28087619D01*
X67441071Y-28040000D01*
X67536309Y-27992380D01*
X68298214Y-28992380D02*
X68298214Y-27992380D01*
X68393452Y-28611428D02*
X68679166Y-28992380D01*
X68679166Y-28325714D02*
X68298214Y-28706666D01*
%TO.C,J4*%
X105082380Y-32733333D02*
X105796666Y-32733333D01*
X105939523Y-32780952D01*
X106034761Y-32876190D01*
X106082380Y-33019047D01*
X106082380Y-33114285D01*
X105415714Y-31828571D02*
X106082380Y-31828571D01*
X105034761Y-32066666D02*
X105749047Y-32304761D01*
X105749047Y-31685714D01*
%TO.C,J5*%
X56126666Y-25682380D02*
X56126666Y-26396666D01*
X56079047Y-26539523D01*
X55983809Y-26634761D01*
X55840952Y-26682380D01*
X55745714Y-26682380D01*
X57079047Y-25682380D02*
X56602857Y-25682380D01*
X56555238Y-26158571D01*
X56602857Y-26110952D01*
X56698095Y-26063333D01*
X56936190Y-26063333D01*
X57031428Y-26110952D01*
X57079047Y-26158571D01*
X57126666Y-26253809D01*
X57126666Y-26491904D01*
X57079047Y-26587142D01*
X57031428Y-26634761D01*
X56936190Y-26682380D01*
X56698095Y-26682380D01*
X56602857Y-26634761D01*
X56555238Y-26587142D01*
X55340952Y-33358571D02*
X55483809Y-33406190D01*
X55531428Y-33453809D01*
X55579047Y-33549047D01*
X55579047Y-33691904D01*
X55531428Y-33787142D01*
X55483809Y-33834761D01*
X55388571Y-33882380D01*
X55007619Y-33882380D01*
X55007619Y-32882380D01*
X55340952Y-32882380D01*
X55436190Y-32930000D01*
X55483809Y-32977619D01*
X55531428Y-33072857D01*
X55531428Y-33168095D01*
X55483809Y-33263333D01*
X55436190Y-33310952D01*
X55340952Y-33358571D01*
X55007619Y-33358571D01*
X55960000Y-33596666D02*
X56436190Y-33596666D01*
X55864761Y-33882380D02*
X56198095Y-32882380D01*
X56531428Y-33882380D01*
X56721904Y-32882380D02*
X57293333Y-32882380D01*
X57007619Y-33882380D02*
X57007619Y-32882380D01*
X57483809Y-32882380D02*
X58055238Y-32882380D01*
X57769523Y-33882380D02*
X57769523Y-32882380D01*
%TO.C,J6*%
X92176666Y-30144380D02*
X92176666Y-30858666D01*
X92129047Y-31001523D01*
X92033809Y-31096761D01*
X91890952Y-31144380D01*
X91795714Y-31144380D01*
X93081428Y-30144380D02*
X92890952Y-30144380D01*
X92795714Y-30192000D01*
X92748095Y-30239619D01*
X92652857Y-30382476D01*
X92605238Y-30572952D01*
X92605238Y-30953904D01*
X92652857Y-31049142D01*
X92700476Y-31096761D01*
X92795714Y-31144380D01*
X92986190Y-31144380D01*
X93081428Y-31096761D01*
X93129047Y-31049142D01*
X93176666Y-30953904D01*
X93176666Y-30715809D01*
X93129047Y-30620571D01*
X93081428Y-30572952D01*
X92986190Y-30525333D01*
X92795714Y-30525333D01*
X92700476Y-30572952D01*
X92652857Y-30620571D01*
X92605238Y-30715809D01*
X92343333Y-35542380D02*
X92010000Y-35066190D01*
X91771904Y-35542380D02*
X91771904Y-34542380D01*
X92152857Y-34542380D01*
X92248095Y-34590000D01*
X92295714Y-34637619D01*
X92343333Y-34732857D01*
X92343333Y-34875714D01*
X92295714Y-34970952D01*
X92248095Y-35018571D01*
X92152857Y-35066190D01*
X91771904Y-35066190D01*
X92676666Y-34542380D02*
X93343333Y-35542380D01*
X93343333Y-34542380D02*
X92676666Y-35542380D01*
%TO.C,J8*%
X74336666Y-42734380D02*
X74336666Y-43448666D01*
X74289047Y-43591523D01*
X74193809Y-43686761D01*
X74050952Y-43734380D01*
X73955714Y-43734380D01*
X74955714Y-43162952D02*
X74860476Y-43115333D01*
X74812857Y-43067714D01*
X74765238Y-42972476D01*
X74765238Y-42924857D01*
X74812857Y-42829619D01*
X74860476Y-42782000D01*
X74955714Y-42734380D01*
X75146190Y-42734380D01*
X75241428Y-42782000D01*
X75289047Y-42829619D01*
X75336666Y-42924857D01*
X75336666Y-42972476D01*
X75289047Y-43067714D01*
X75241428Y-43115333D01*
X75146190Y-43162952D01*
X74955714Y-43162952D01*
X74860476Y-43210571D01*
X74812857Y-43258190D01*
X74765238Y-43353428D01*
X74765238Y-43543904D01*
X74812857Y-43639142D01*
X74860476Y-43686761D01*
X74955714Y-43734380D01*
X75146190Y-43734380D01*
X75241428Y-43686761D01*
X75289047Y-43639142D01*
X75336666Y-43543904D01*
X75336666Y-43353428D01*
X75289047Y-43258190D01*
X75241428Y-43210571D01*
X75146190Y-43162952D01*
X73479523Y-48132380D02*
X73479523Y-47132380D01*
X73860476Y-47132380D01*
X73955714Y-47180000D01*
X74003333Y-47227619D01*
X74050952Y-47322857D01*
X74050952Y-47465714D01*
X74003333Y-47560952D01*
X73955714Y-47608571D01*
X73860476Y-47656190D01*
X73479523Y-47656190D01*
X74479523Y-47608571D02*
X74812857Y-47608571D01*
X74955714Y-48132380D02*
X74479523Y-48132380D01*
X74479523Y-47132380D01*
X74955714Y-47132380D01*
X75908095Y-48132380D02*
X75336666Y-48132380D01*
X75622380Y-48132380D02*
X75622380Y-47132380D01*
X75527142Y-47275238D01*
X75431904Y-47370476D01*
X75336666Y-47418095D01*
%TO.C,J9*%
X89836666Y-44504380D02*
X89836666Y-45218666D01*
X89789047Y-45361523D01*
X89693809Y-45456761D01*
X89550952Y-45504380D01*
X89455714Y-45504380D01*
X90360476Y-45504380D02*
X90550952Y-45504380D01*
X90646190Y-45456761D01*
X90693809Y-45409142D01*
X90789047Y-45266285D01*
X90836666Y-45075809D01*
X90836666Y-44694857D01*
X90789047Y-44599619D01*
X90741428Y-44552000D01*
X90646190Y-44504380D01*
X90455714Y-44504380D01*
X90360476Y-44552000D01*
X90312857Y-44599619D01*
X90265238Y-44694857D01*
X90265238Y-44932952D01*
X90312857Y-45028190D01*
X90360476Y-45075809D01*
X90455714Y-45123428D01*
X90646190Y-45123428D01*
X90741428Y-45075809D01*
X90789047Y-45028190D01*
X90836666Y-44932952D01*
X89468095Y-49370000D02*
X89372857Y-49322380D01*
X89230000Y-49322380D01*
X89087142Y-49370000D01*
X88991904Y-49465238D01*
X88944285Y-49560476D01*
X88896666Y-49750952D01*
X88896666Y-49893809D01*
X88944285Y-50084285D01*
X88991904Y-50179523D01*
X89087142Y-50274761D01*
X89230000Y-50322380D01*
X89325238Y-50322380D01*
X89468095Y-50274761D01*
X89515714Y-50227142D01*
X89515714Y-49893809D01*
X89325238Y-49893809D01*
X89944285Y-50322380D02*
X89944285Y-49322380D01*
X90515714Y-50322380D01*
X90515714Y-49322380D01*
X90991904Y-50322380D02*
X90991904Y-49322380D01*
X91230000Y-49322380D01*
X91372857Y-49370000D01*
X91468095Y-49465238D01*
X91515714Y-49560476D01*
X91563333Y-49750952D01*
X91563333Y-49893809D01*
X91515714Y-50084285D01*
X91468095Y-50179523D01*
X91372857Y-50274761D01*
X91230000Y-50322380D01*
X90991904Y-50322380D01*
%TD*%
M02*
