%TF.GenerationSoftware,KiCad,Pcbnew,5.1.6-c6e7f7d~87~ubuntu18.04.1*%
%TF.CreationDate,2020-08-08T15:28:18-04:00*%
%TF.ProjectId,atmega168_tb2,61746d65-6761-4313-9638-5f7462322e6b,rev?*%
%TF.SameCoordinates,Original*%
%TF.FileFunction,Copper,L2,Bot*%
%TF.FilePolarity,Positive*%
%FSLAX46Y46*%
G04 Gerber Fmt 4.6, Leading zero omitted, Abs format (unit mm)*
G04 Created by KiCad (PCBNEW 5.1.6-c6e7f7d~87~ubuntu18.04.1) date 2020-08-08 15:28:18*
%MOMM*%
%LPD*%
G01*
G04 APERTURE LIST*
%TA.AperFunction,ComponentPad*%
%ADD10C,1.200000*%
%TD*%
%TA.AperFunction,ViaPad*%
%ADD11C,0.800000*%
%TD*%
%TA.AperFunction,Conductor*%
%ADD12C,0.300000*%
%TD*%
%TA.AperFunction,Conductor*%
%ADD13C,0.254000*%
%TD*%
G04 APERTURE END LIST*
D10*
%TO.P,J4,~*%
%TO.N,N/C*%
X120430000Y-39700000D03*
X120430000Y-31700000D03*
%TD*%
D11*
%TO.N,+BATT*%
X82250000Y-39800000D03*
X83950000Y-42020000D03*
X74350000Y-34940000D03*
X65210000Y-35120000D03*
X53120000Y-23590000D03*
X52760000Y-27750000D03*
%TO.N,GND*%
X73010000Y-33990000D03*
X89222260Y-40397740D03*
X81750000Y-42060000D03*
X72860000Y-39310000D03*
X102570000Y-39650000D03*
X111370000Y-41110000D03*
X118100000Y-42590000D03*
X98630000Y-48730000D03*
X60460000Y-36120000D03*
X67460000Y-39550000D03*
X58640000Y-42920000D03*
X56000000Y-45660000D03*
X55860000Y-31080000D03*
X112200000Y-28700000D03*
X120280000Y-28730000D03*
X92690000Y-48450000D03*
X106870000Y-30130000D03*
X100270000Y-33690000D03*
X89420000Y-26240000D03*
X84270000Y-25940000D03*
X79260000Y-25940000D03*
X83610000Y-38540000D03*
X55960000Y-25930000D03*
X68340000Y-45510000D03*
X51070000Y-48900000D03*
X94728707Y-30631293D03*
X76365069Y-28705069D03*
X72430000Y-46500000D03*
%TO.N,RST*%
X80760000Y-38860000D03*
X64970000Y-50800000D03*
%TO.N,CARDDAT0_DO*%
X107990000Y-39140000D03*
X106200000Y-41740000D03*
%TO.N,D2*%
X104700000Y-39810000D03*
X111240000Y-32420000D03*
%TO.N,D3CS*%
X101560000Y-37820000D03*
X106430000Y-33660000D03*
%TO.N,PE1*%
X79640000Y-42285000D03*
X76320000Y-45480000D03*
%TD*%
D12*
%TO.N,*%
X118375000Y-48635000D02*
X119010000Y-48000000D01*
X119010000Y-48000000D02*
X119010000Y-49270000D01*
X119010000Y-49270000D02*
X119645000Y-49905000D01*
X119645000Y-49905000D02*
X120280000Y-49905000D01*
X120280000Y-49905000D02*
X120280000Y-49270000D01*
X120280000Y-49270000D02*
X119645000Y-48635000D01*
X119645000Y-48635000D02*
X118375000Y-48635000D01*
%TO.N,+BATT*%
X82250000Y-39800000D02*
X83950000Y-42020000D01*
X74350000Y-34940000D02*
X65210000Y-35120000D01*
X53120000Y-23590000D02*
X52760000Y-27750000D01*
%TO.N,GND*%
X118100000Y-42590000D02*
X111370000Y-41110000D01*
X102570000Y-39650000D02*
X98630000Y-48730000D01*
X60460000Y-36120000D02*
X67460000Y-39550000D01*
X58640000Y-42920000D02*
X56000000Y-45660000D01*
X92690000Y-48450000D02*
X89222260Y-40397740D01*
X106870000Y-30130000D02*
X100270000Y-33690000D01*
X89420000Y-26240000D02*
X84270000Y-25940000D01*
X84270000Y-25940000D02*
X79260000Y-25940000D01*
X89222260Y-40397740D02*
X83610000Y-38540000D01*
X55860000Y-31080000D02*
X55960000Y-25930000D01*
X56000000Y-45660000D02*
X51070000Y-48900000D01*
X94728707Y-30631293D02*
X89420000Y-26240000D01*
X94728707Y-30631293D02*
X106870000Y-30130000D01*
X73010000Y-33990000D02*
X76365069Y-28705069D01*
X76365069Y-28705069D02*
X94728707Y-30631293D01*
%TO.N,RST*%
X80760000Y-38860000D02*
X64970000Y-50800000D01*
%TO.N,CARDDAT0_DO*%
X107990000Y-39140000D02*
X106200000Y-41740000D01*
%TO.N,D2*%
X104700000Y-39810000D02*
X111240000Y-32420000D01*
%TO.N,D3CS*%
X101560000Y-37820000D02*
X106430000Y-33660000D01*
%TO.N,PE1*%
X79640000Y-42285000D02*
X76320000Y-45480000D01*
%TD*%
D13*
%TO.N,GND*%
G36*
X52124774Y-23288102D02*
G01*
X52085000Y-23488061D01*
X52085000Y-23691939D01*
X52124774Y-23891898D01*
X52202795Y-24080256D01*
X52279683Y-24195327D01*
X52036088Y-27010201D01*
X51956063Y-27090226D01*
X51842795Y-27259744D01*
X51764774Y-27448102D01*
X51725000Y-27648061D01*
X51725000Y-27851939D01*
X51764774Y-28051898D01*
X51842795Y-28240256D01*
X51956063Y-28409774D01*
X52100226Y-28553937D01*
X52269744Y-28667205D01*
X52458102Y-28745226D01*
X52658061Y-28785000D01*
X52861939Y-28785000D01*
X53061898Y-28745226D01*
X53250256Y-28667205D01*
X53419774Y-28553937D01*
X53563937Y-28409774D01*
X53677205Y-28240256D01*
X53755226Y-28051898D01*
X53795000Y-27851939D01*
X53795000Y-27648061D01*
X53755226Y-27448102D01*
X53677205Y-27259744D01*
X53600317Y-27144673D01*
X53843912Y-24329799D01*
X53923937Y-24249774D01*
X54037205Y-24080256D01*
X54115226Y-23891898D01*
X54155000Y-23691939D01*
X54155000Y-23488061D01*
X54115226Y-23288102D01*
X54103586Y-23260000D01*
X125970001Y-23260000D01*
X125970000Y-51940000D01*
X47290000Y-51940000D01*
X47290000Y-50698061D01*
X63935000Y-50698061D01*
X63935000Y-50901939D01*
X63974774Y-51101898D01*
X64052795Y-51290256D01*
X64166063Y-51459774D01*
X64310226Y-51603937D01*
X64479744Y-51717205D01*
X64668102Y-51795226D01*
X64868061Y-51835000D01*
X65071939Y-51835000D01*
X65271898Y-51795226D01*
X65460256Y-51717205D01*
X65629774Y-51603937D01*
X65773937Y-51459774D01*
X65887205Y-51290256D01*
X65965226Y-51101898D01*
X65981684Y-51019155D01*
X69134599Y-48635000D01*
X117586202Y-48635000D01*
X117601359Y-48788887D01*
X117646246Y-48936860D01*
X117719138Y-49073233D01*
X117817236Y-49192764D01*
X117936767Y-49290862D01*
X118073140Y-49363754D01*
X118221113Y-49408641D01*
X118234992Y-49410008D01*
X118236359Y-49423886D01*
X118281246Y-49571859D01*
X118281247Y-49571860D01*
X118354139Y-49708233D01*
X118389330Y-49751113D01*
X118427655Y-49797812D01*
X118427659Y-49797816D01*
X118452237Y-49827764D01*
X118482185Y-49852342D01*
X119062653Y-50432810D01*
X119087236Y-50462764D01*
X119206767Y-50560862D01*
X119343140Y-50633754D01*
X119491113Y-50678642D01*
X119566026Y-50686020D01*
X119606439Y-50690000D01*
X119606444Y-50690000D01*
X119645000Y-50693797D01*
X119683556Y-50690000D01*
X120241439Y-50690000D01*
X120280000Y-50693798D01*
X120318560Y-50690000D01*
X120318561Y-50690000D01*
X120433887Y-50678641D01*
X120581860Y-50633754D01*
X120718233Y-50560862D01*
X120837764Y-50462764D01*
X120935862Y-50343233D01*
X121008754Y-50206860D01*
X121053641Y-50058887D01*
X121068798Y-49905000D01*
X121065000Y-49866439D01*
X121065000Y-49308556D01*
X121068797Y-49270000D01*
X121065000Y-49231444D01*
X121065000Y-49231439D01*
X121055143Y-49131359D01*
X121053642Y-49116113D01*
X121008754Y-48968140D01*
X120935862Y-48831767D01*
X120837764Y-48712236D01*
X120807810Y-48687653D01*
X120227345Y-48107188D01*
X120202764Y-48077236D01*
X120083233Y-47979138D01*
X119946860Y-47906246D01*
X119798887Y-47861359D01*
X119785009Y-47859992D01*
X119783642Y-47846113D01*
X119738754Y-47698141D01*
X119738754Y-47698140D01*
X119665862Y-47561767D01*
X119567764Y-47442236D01*
X119448232Y-47344138D01*
X119311859Y-47271246D01*
X119163887Y-47226358D01*
X119083332Y-47218425D01*
X119010000Y-47211202D01*
X118933056Y-47218781D01*
X118856113Y-47226358D01*
X118708140Y-47271246D01*
X118571767Y-47344138D01*
X118452236Y-47442236D01*
X118427654Y-47472189D01*
X117847190Y-48052653D01*
X117817236Y-48077236D01*
X117719138Y-48196767D01*
X117646246Y-48333140D01*
X117601359Y-48481113D01*
X117586202Y-48635000D01*
X69134599Y-48635000D01*
X73441724Y-45378061D01*
X75285000Y-45378061D01*
X75285000Y-45581939D01*
X75324774Y-45781898D01*
X75402795Y-45970256D01*
X75516063Y-46139774D01*
X75660226Y-46283937D01*
X75829744Y-46397205D01*
X76018102Y-46475226D01*
X76218061Y-46515000D01*
X76421939Y-46515000D01*
X76621898Y-46475226D01*
X76810256Y-46397205D01*
X76979774Y-46283937D01*
X77123937Y-46139774D01*
X77237205Y-45970256D01*
X77315226Y-45781898D01*
X77355000Y-45581939D01*
X77355000Y-45573426D01*
X79696589Y-43320000D01*
X79741939Y-43320000D01*
X79941898Y-43280226D01*
X80130256Y-43202205D01*
X80299774Y-43088937D01*
X80443937Y-42944774D01*
X80557205Y-42775256D01*
X80635226Y-42586898D01*
X80675000Y-42386939D01*
X80675000Y-42183061D01*
X80635226Y-41983102D01*
X80557205Y-41794744D01*
X80443937Y-41625226D01*
X80299774Y-41481063D01*
X80130256Y-41367795D01*
X79941898Y-41289774D01*
X79741939Y-41250000D01*
X79538061Y-41250000D01*
X79338102Y-41289774D01*
X79149744Y-41367795D01*
X78980226Y-41481063D01*
X78836063Y-41625226D01*
X78722795Y-41794744D01*
X78644774Y-41983102D01*
X78605000Y-42183061D01*
X78605000Y-42191573D01*
X76263411Y-44445000D01*
X76218061Y-44445000D01*
X76018102Y-44484774D01*
X75829744Y-44562795D01*
X75660226Y-44676063D01*
X75516063Y-44820226D01*
X75402795Y-44989744D01*
X75324774Y-45178102D01*
X75285000Y-45378061D01*
X73441724Y-45378061D01*
X80692775Y-39895000D01*
X80861939Y-39895000D01*
X81061898Y-39855226D01*
X81215000Y-39791809D01*
X81215000Y-39901939D01*
X81254774Y-40101898D01*
X81332795Y-40290256D01*
X81446063Y-40459774D01*
X81590226Y-40603937D01*
X81759744Y-40717205D01*
X81948102Y-40795226D01*
X82036913Y-40812891D01*
X82915000Y-41959570D01*
X82915000Y-42121939D01*
X82954774Y-42321898D01*
X83032795Y-42510256D01*
X83146063Y-42679774D01*
X83290226Y-42823937D01*
X83459744Y-42937205D01*
X83648102Y-43015226D01*
X83848061Y-43055000D01*
X84051939Y-43055000D01*
X84251898Y-43015226D01*
X84440256Y-42937205D01*
X84609774Y-42823937D01*
X84753937Y-42679774D01*
X84867205Y-42510256D01*
X84945226Y-42321898D01*
X84985000Y-42121939D01*
X84985000Y-41918061D01*
X84945226Y-41718102D01*
X84912072Y-41638061D01*
X105165000Y-41638061D01*
X105165000Y-41841939D01*
X105204774Y-42041898D01*
X105282795Y-42230256D01*
X105396063Y-42399774D01*
X105540226Y-42543937D01*
X105709744Y-42657205D01*
X105898102Y-42735226D01*
X106098061Y-42775000D01*
X106301939Y-42775000D01*
X106501898Y-42735226D01*
X106690256Y-42657205D01*
X106859774Y-42543937D01*
X107003937Y-42399774D01*
X107117205Y-42230256D01*
X107195226Y-42041898D01*
X107235000Y-41841939D01*
X107235000Y-41638061D01*
X107232362Y-41624796D01*
X108252476Y-40143068D01*
X108291898Y-40135226D01*
X108480256Y-40057205D01*
X108649774Y-39943937D01*
X108793937Y-39799774D01*
X108907205Y-39630256D01*
X108928699Y-39578363D01*
X119195000Y-39578363D01*
X119195000Y-39821637D01*
X119242460Y-40060236D01*
X119335557Y-40284992D01*
X119470713Y-40487267D01*
X119642733Y-40659287D01*
X119845008Y-40794443D01*
X120069764Y-40887540D01*
X120308363Y-40935000D01*
X120551637Y-40935000D01*
X120790236Y-40887540D01*
X121014992Y-40794443D01*
X121217267Y-40659287D01*
X121389287Y-40487267D01*
X121524443Y-40284992D01*
X121617540Y-40060236D01*
X121665000Y-39821637D01*
X121665000Y-39578363D01*
X121617540Y-39339764D01*
X121524443Y-39115008D01*
X121389287Y-38912733D01*
X121217267Y-38740713D01*
X121014992Y-38605557D01*
X120790236Y-38512460D01*
X120551637Y-38465000D01*
X120308363Y-38465000D01*
X120069764Y-38512460D01*
X119845008Y-38605557D01*
X119642733Y-38740713D01*
X119470713Y-38912733D01*
X119335557Y-39115008D01*
X119242460Y-39339764D01*
X119195000Y-39578363D01*
X108928699Y-39578363D01*
X108985226Y-39441898D01*
X109025000Y-39241939D01*
X109025000Y-39038061D01*
X108985226Y-38838102D01*
X108907205Y-38649744D01*
X108793937Y-38480226D01*
X108649774Y-38336063D01*
X108480256Y-38222795D01*
X108291898Y-38144774D01*
X108091939Y-38105000D01*
X107888061Y-38105000D01*
X107688102Y-38144774D01*
X107499744Y-38222795D01*
X107330226Y-38336063D01*
X107186063Y-38480226D01*
X107072795Y-38649744D01*
X106994774Y-38838102D01*
X106955000Y-39038061D01*
X106955000Y-39241939D01*
X106957638Y-39255202D01*
X105937525Y-40736932D01*
X105898102Y-40744774D01*
X105709744Y-40822795D01*
X105540226Y-40936063D01*
X105396063Y-41080226D01*
X105282795Y-41249744D01*
X105204774Y-41438102D01*
X105165000Y-41638061D01*
X84912072Y-41638061D01*
X84867205Y-41529744D01*
X84753937Y-41360226D01*
X84609774Y-41216063D01*
X84440256Y-41102795D01*
X84251898Y-41024774D01*
X84163087Y-41007109D01*
X83285000Y-39860430D01*
X83285000Y-39708061D01*
X103665000Y-39708061D01*
X103665000Y-39911939D01*
X103704774Y-40111898D01*
X103782795Y-40300256D01*
X103896063Y-40469774D01*
X104040226Y-40613937D01*
X104209744Y-40727205D01*
X104398102Y-40805226D01*
X104598061Y-40845000D01*
X104801939Y-40845000D01*
X105001898Y-40805226D01*
X105190256Y-40727205D01*
X105359774Y-40613937D01*
X105503937Y-40469774D01*
X105617205Y-40300256D01*
X105695226Y-40111898D01*
X105735000Y-39911939D01*
X105735000Y-39824981D01*
X111378791Y-33447670D01*
X111541898Y-33415226D01*
X111730256Y-33337205D01*
X111899774Y-33223937D01*
X112043937Y-33079774D01*
X112157205Y-32910256D01*
X112235226Y-32721898D01*
X112275000Y-32521939D01*
X112275000Y-32318061D01*
X112235226Y-32118102D01*
X112157205Y-31929744D01*
X112043937Y-31760226D01*
X111899774Y-31616063D01*
X111843352Y-31578363D01*
X119195000Y-31578363D01*
X119195000Y-31821637D01*
X119242460Y-32060236D01*
X119335557Y-32284992D01*
X119470713Y-32487267D01*
X119642733Y-32659287D01*
X119845008Y-32794443D01*
X120069764Y-32887540D01*
X120308363Y-32935000D01*
X120551637Y-32935000D01*
X120790236Y-32887540D01*
X121014992Y-32794443D01*
X121217267Y-32659287D01*
X121389287Y-32487267D01*
X121524443Y-32284992D01*
X121617540Y-32060236D01*
X121665000Y-31821637D01*
X121665000Y-31578363D01*
X121617540Y-31339764D01*
X121524443Y-31115008D01*
X121389287Y-30912733D01*
X121217267Y-30740713D01*
X121014992Y-30605557D01*
X120790236Y-30512460D01*
X120551637Y-30465000D01*
X120308363Y-30465000D01*
X120069764Y-30512460D01*
X119845008Y-30605557D01*
X119642733Y-30740713D01*
X119470713Y-30912733D01*
X119335557Y-31115008D01*
X119242460Y-31339764D01*
X119195000Y-31578363D01*
X111843352Y-31578363D01*
X111730256Y-31502795D01*
X111541898Y-31424774D01*
X111341939Y-31385000D01*
X111138061Y-31385000D01*
X110938102Y-31424774D01*
X110749744Y-31502795D01*
X110580226Y-31616063D01*
X110436063Y-31760226D01*
X110322795Y-31929744D01*
X110244774Y-32118102D01*
X110205000Y-32318061D01*
X110205000Y-32405019D01*
X104561210Y-38782330D01*
X104398102Y-38814774D01*
X104209744Y-38892795D01*
X104040226Y-39006063D01*
X103896063Y-39150226D01*
X103782795Y-39319744D01*
X103704774Y-39508102D01*
X103665000Y-39708061D01*
X83285000Y-39708061D01*
X83285000Y-39698061D01*
X83245226Y-39498102D01*
X83167205Y-39309744D01*
X83053937Y-39140226D01*
X82909774Y-38996063D01*
X82740256Y-38882795D01*
X82551898Y-38804774D01*
X82351939Y-38765000D01*
X82148061Y-38765000D01*
X81948102Y-38804774D01*
X81795000Y-38868191D01*
X81795000Y-38758061D01*
X81755226Y-38558102D01*
X81677205Y-38369744D01*
X81563937Y-38200226D01*
X81419774Y-38056063D01*
X81250256Y-37942795D01*
X81061898Y-37864774D01*
X80861939Y-37825000D01*
X80658061Y-37825000D01*
X80458102Y-37864774D01*
X80269744Y-37942795D01*
X80100226Y-38056063D01*
X79956063Y-38200226D01*
X79842795Y-38369744D01*
X79764774Y-38558102D01*
X79748316Y-38640844D01*
X65037226Y-49765000D01*
X64868061Y-49765000D01*
X64668102Y-49804774D01*
X64479744Y-49882795D01*
X64310226Y-49996063D01*
X64166063Y-50140226D01*
X64052795Y-50309744D01*
X63974774Y-50498102D01*
X63935000Y-50698061D01*
X47290000Y-50698061D01*
X47290000Y-37718061D01*
X100525000Y-37718061D01*
X100525000Y-37921939D01*
X100564774Y-38121898D01*
X100642795Y-38310256D01*
X100756063Y-38479774D01*
X100900226Y-38623937D01*
X101069744Y-38737205D01*
X101258102Y-38815226D01*
X101458061Y-38855000D01*
X101661939Y-38855000D01*
X101861898Y-38815226D01*
X102050256Y-38737205D01*
X102219774Y-38623937D01*
X102363937Y-38479774D01*
X102477205Y-38310256D01*
X102555226Y-38121898D01*
X102583890Y-37977792D01*
X106426967Y-34695000D01*
X106531939Y-34695000D01*
X106731898Y-34655226D01*
X106920256Y-34577205D01*
X107089774Y-34463937D01*
X107233937Y-34319774D01*
X107347205Y-34150256D01*
X107425226Y-33961898D01*
X107465000Y-33761939D01*
X107465000Y-33558061D01*
X107425226Y-33358102D01*
X107347205Y-33169744D01*
X107233937Y-33000226D01*
X107089774Y-32856063D01*
X106920256Y-32742795D01*
X106731898Y-32664774D01*
X106531939Y-32625000D01*
X106328061Y-32625000D01*
X106128102Y-32664774D01*
X105939744Y-32742795D01*
X105770226Y-32856063D01*
X105626063Y-33000226D01*
X105512795Y-33169744D01*
X105434774Y-33358102D01*
X105406110Y-33502208D01*
X101563034Y-36785000D01*
X101458061Y-36785000D01*
X101258102Y-36824774D01*
X101069744Y-36902795D01*
X100900226Y-37016063D01*
X100756063Y-37160226D01*
X100642795Y-37329744D01*
X100564774Y-37518102D01*
X100525000Y-37718061D01*
X47290000Y-37718061D01*
X47290000Y-35018061D01*
X64175000Y-35018061D01*
X64175000Y-35221939D01*
X64214774Y-35421898D01*
X64292795Y-35610256D01*
X64406063Y-35779774D01*
X64550226Y-35923937D01*
X64719744Y-36037205D01*
X64908102Y-36115226D01*
X65108061Y-36155000D01*
X65311939Y-36155000D01*
X65511898Y-36115226D01*
X65700256Y-36037205D01*
X65869774Y-35923937D01*
X65902191Y-35891520D01*
X73684546Y-35738257D01*
X73690226Y-35743937D01*
X73859744Y-35857205D01*
X74048102Y-35935226D01*
X74248061Y-35975000D01*
X74451939Y-35975000D01*
X74651898Y-35935226D01*
X74840256Y-35857205D01*
X75009774Y-35743937D01*
X75153937Y-35599774D01*
X75267205Y-35430256D01*
X75345226Y-35241898D01*
X75385000Y-35041939D01*
X75385000Y-34838061D01*
X75345226Y-34638102D01*
X75267205Y-34449744D01*
X75153937Y-34280226D01*
X75009774Y-34136063D01*
X74840256Y-34022795D01*
X74651898Y-33944774D01*
X74451939Y-33905000D01*
X74248061Y-33905000D01*
X74048102Y-33944774D01*
X73859744Y-34022795D01*
X73690226Y-34136063D01*
X73657809Y-34168480D01*
X65875454Y-34321743D01*
X65869774Y-34316063D01*
X65700256Y-34202795D01*
X65511898Y-34124774D01*
X65311939Y-34085000D01*
X65108061Y-34085000D01*
X64908102Y-34124774D01*
X64719744Y-34202795D01*
X64550226Y-34316063D01*
X64406063Y-34460226D01*
X64292795Y-34629744D01*
X64214774Y-34818102D01*
X64175000Y-35018061D01*
X47290000Y-35018061D01*
X47290000Y-23260000D01*
X52136414Y-23260000D01*
X52124774Y-23288102D01*
G37*
X52124774Y-23288102D02*
X52085000Y-23488061D01*
X52085000Y-23691939D01*
X52124774Y-23891898D01*
X52202795Y-24080256D01*
X52279683Y-24195327D01*
X52036088Y-27010201D01*
X51956063Y-27090226D01*
X51842795Y-27259744D01*
X51764774Y-27448102D01*
X51725000Y-27648061D01*
X51725000Y-27851939D01*
X51764774Y-28051898D01*
X51842795Y-28240256D01*
X51956063Y-28409774D01*
X52100226Y-28553937D01*
X52269744Y-28667205D01*
X52458102Y-28745226D01*
X52658061Y-28785000D01*
X52861939Y-28785000D01*
X53061898Y-28745226D01*
X53250256Y-28667205D01*
X53419774Y-28553937D01*
X53563937Y-28409774D01*
X53677205Y-28240256D01*
X53755226Y-28051898D01*
X53795000Y-27851939D01*
X53795000Y-27648061D01*
X53755226Y-27448102D01*
X53677205Y-27259744D01*
X53600317Y-27144673D01*
X53843912Y-24329799D01*
X53923937Y-24249774D01*
X54037205Y-24080256D01*
X54115226Y-23891898D01*
X54155000Y-23691939D01*
X54155000Y-23488061D01*
X54115226Y-23288102D01*
X54103586Y-23260000D01*
X125970001Y-23260000D01*
X125970000Y-51940000D01*
X47290000Y-51940000D01*
X47290000Y-50698061D01*
X63935000Y-50698061D01*
X63935000Y-50901939D01*
X63974774Y-51101898D01*
X64052795Y-51290256D01*
X64166063Y-51459774D01*
X64310226Y-51603937D01*
X64479744Y-51717205D01*
X64668102Y-51795226D01*
X64868061Y-51835000D01*
X65071939Y-51835000D01*
X65271898Y-51795226D01*
X65460256Y-51717205D01*
X65629774Y-51603937D01*
X65773937Y-51459774D01*
X65887205Y-51290256D01*
X65965226Y-51101898D01*
X65981684Y-51019155D01*
X69134599Y-48635000D01*
X117586202Y-48635000D01*
X117601359Y-48788887D01*
X117646246Y-48936860D01*
X117719138Y-49073233D01*
X117817236Y-49192764D01*
X117936767Y-49290862D01*
X118073140Y-49363754D01*
X118221113Y-49408641D01*
X118234992Y-49410008D01*
X118236359Y-49423886D01*
X118281246Y-49571859D01*
X118281247Y-49571860D01*
X118354139Y-49708233D01*
X118389330Y-49751113D01*
X118427655Y-49797812D01*
X118427659Y-49797816D01*
X118452237Y-49827764D01*
X118482185Y-49852342D01*
X119062653Y-50432810D01*
X119087236Y-50462764D01*
X119206767Y-50560862D01*
X119343140Y-50633754D01*
X119491113Y-50678642D01*
X119566026Y-50686020D01*
X119606439Y-50690000D01*
X119606444Y-50690000D01*
X119645000Y-50693797D01*
X119683556Y-50690000D01*
X120241439Y-50690000D01*
X120280000Y-50693798D01*
X120318560Y-50690000D01*
X120318561Y-50690000D01*
X120433887Y-50678641D01*
X120581860Y-50633754D01*
X120718233Y-50560862D01*
X120837764Y-50462764D01*
X120935862Y-50343233D01*
X121008754Y-50206860D01*
X121053641Y-50058887D01*
X121068798Y-49905000D01*
X121065000Y-49866439D01*
X121065000Y-49308556D01*
X121068797Y-49270000D01*
X121065000Y-49231444D01*
X121065000Y-49231439D01*
X121055143Y-49131359D01*
X121053642Y-49116113D01*
X121008754Y-48968140D01*
X120935862Y-48831767D01*
X120837764Y-48712236D01*
X120807810Y-48687653D01*
X120227345Y-48107188D01*
X120202764Y-48077236D01*
X120083233Y-47979138D01*
X119946860Y-47906246D01*
X119798887Y-47861359D01*
X119785009Y-47859992D01*
X119783642Y-47846113D01*
X119738754Y-47698141D01*
X119738754Y-47698140D01*
X119665862Y-47561767D01*
X119567764Y-47442236D01*
X119448232Y-47344138D01*
X119311859Y-47271246D01*
X119163887Y-47226358D01*
X119083332Y-47218425D01*
X119010000Y-47211202D01*
X118933056Y-47218781D01*
X118856113Y-47226358D01*
X118708140Y-47271246D01*
X118571767Y-47344138D01*
X118452236Y-47442236D01*
X118427654Y-47472189D01*
X117847190Y-48052653D01*
X117817236Y-48077236D01*
X117719138Y-48196767D01*
X117646246Y-48333140D01*
X117601359Y-48481113D01*
X117586202Y-48635000D01*
X69134599Y-48635000D01*
X73441724Y-45378061D01*
X75285000Y-45378061D01*
X75285000Y-45581939D01*
X75324774Y-45781898D01*
X75402795Y-45970256D01*
X75516063Y-46139774D01*
X75660226Y-46283937D01*
X75829744Y-46397205D01*
X76018102Y-46475226D01*
X76218061Y-46515000D01*
X76421939Y-46515000D01*
X76621898Y-46475226D01*
X76810256Y-46397205D01*
X76979774Y-46283937D01*
X77123937Y-46139774D01*
X77237205Y-45970256D01*
X77315226Y-45781898D01*
X77355000Y-45581939D01*
X77355000Y-45573426D01*
X79696589Y-43320000D01*
X79741939Y-43320000D01*
X79941898Y-43280226D01*
X80130256Y-43202205D01*
X80299774Y-43088937D01*
X80443937Y-42944774D01*
X80557205Y-42775256D01*
X80635226Y-42586898D01*
X80675000Y-42386939D01*
X80675000Y-42183061D01*
X80635226Y-41983102D01*
X80557205Y-41794744D01*
X80443937Y-41625226D01*
X80299774Y-41481063D01*
X80130256Y-41367795D01*
X79941898Y-41289774D01*
X79741939Y-41250000D01*
X79538061Y-41250000D01*
X79338102Y-41289774D01*
X79149744Y-41367795D01*
X78980226Y-41481063D01*
X78836063Y-41625226D01*
X78722795Y-41794744D01*
X78644774Y-41983102D01*
X78605000Y-42183061D01*
X78605000Y-42191573D01*
X76263411Y-44445000D01*
X76218061Y-44445000D01*
X76018102Y-44484774D01*
X75829744Y-44562795D01*
X75660226Y-44676063D01*
X75516063Y-44820226D01*
X75402795Y-44989744D01*
X75324774Y-45178102D01*
X75285000Y-45378061D01*
X73441724Y-45378061D01*
X80692775Y-39895000D01*
X80861939Y-39895000D01*
X81061898Y-39855226D01*
X81215000Y-39791809D01*
X81215000Y-39901939D01*
X81254774Y-40101898D01*
X81332795Y-40290256D01*
X81446063Y-40459774D01*
X81590226Y-40603937D01*
X81759744Y-40717205D01*
X81948102Y-40795226D01*
X82036913Y-40812891D01*
X82915000Y-41959570D01*
X82915000Y-42121939D01*
X82954774Y-42321898D01*
X83032795Y-42510256D01*
X83146063Y-42679774D01*
X83290226Y-42823937D01*
X83459744Y-42937205D01*
X83648102Y-43015226D01*
X83848061Y-43055000D01*
X84051939Y-43055000D01*
X84251898Y-43015226D01*
X84440256Y-42937205D01*
X84609774Y-42823937D01*
X84753937Y-42679774D01*
X84867205Y-42510256D01*
X84945226Y-42321898D01*
X84985000Y-42121939D01*
X84985000Y-41918061D01*
X84945226Y-41718102D01*
X84912072Y-41638061D01*
X105165000Y-41638061D01*
X105165000Y-41841939D01*
X105204774Y-42041898D01*
X105282795Y-42230256D01*
X105396063Y-42399774D01*
X105540226Y-42543937D01*
X105709744Y-42657205D01*
X105898102Y-42735226D01*
X106098061Y-42775000D01*
X106301939Y-42775000D01*
X106501898Y-42735226D01*
X106690256Y-42657205D01*
X106859774Y-42543937D01*
X107003937Y-42399774D01*
X107117205Y-42230256D01*
X107195226Y-42041898D01*
X107235000Y-41841939D01*
X107235000Y-41638061D01*
X107232362Y-41624796D01*
X108252476Y-40143068D01*
X108291898Y-40135226D01*
X108480256Y-40057205D01*
X108649774Y-39943937D01*
X108793937Y-39799774D01*
X108907205Y-39630256D01*
X108928699Y-39578363D01*
X119195000Y-39578363D01*
X119195000Y-39821637D01*
X119242460Y-40060236D01*
X119335557Y-40284992D01*
X119470713Y-40487267D01*
X119642733Y-40659287D01*
X119845008Y-40794443D01*
X120069764Y-40887540D01*
X120308363Y-40935000D01*
X120551637Y-40935000D01*
X120790236Y-40887540D01*
X121014992Y-40794443D01*
X121217267Y-40659287D01*
X121389287Y-40487267D01*
X121524443Y-40284992D01*
X121617540Y-40060236D01*
X121665000Y-39821637D01*
X121665000Y-39578363D01*
X121617540Y-39339764D01*
X121524443Y-39115008D01*
X121389287Y-38912733D01*
X121217267Y-38740713D01*
X121014992Y-38605557D01*
X120790236Y-38512460D01*
X120551637Y-38465000D01*
X120308363Y-38465000D01*
X120069764Y-38512460D01*
X119845008Y-38605557D01*
X119642733Y-38740713D01*
X119470713Y-38912733D01*
X119335557Y-39115008D01*
X119242460Y-39339764D01*
X119195000Y-39578363D01*
X108928699Y-39578363D01*
X108985226Y-39441898D01*
X109025000Y-39241939D01*
X109025000Y-39038061D01*
X108985226Y-38838102D01*
X108907205Y-38649744D01*
X108793937Y-38480226D01*
X108649774Y-38336063D01*
X108480256Y-38222795D01*
X108291898Y-38144774D01*
X108091939Y-38105000D01*
X107888061Y-38105000D01*
X107688102Y-38144774D01*
X107499744Y-38222795D01*
X107330226Y-38336063D01*
X107186063Y-38480226D01*
X107072795Y-38649744D01*
X106994774Y-38838102D01*
X106955000Y-39038061D01*
X106955000Y-39241939D01*
X106957638Y-39255202D01*
X105937525Y-40736932D01*
X105898102Y-40744774D01*
X105709744Y-40822795D01*
X105540226Y-40936063D01*
X105396063Y-41080226D01*
X105282795Y-41249744D01*
X105204774Y-41438102D01*
X105165000Y-41638061D01*
X84912072Y-41638061D01*
X84867205Y-41529744D01*
X84753937Y-41360226D01*
X84609774Y-41216063D01*
X84440256Y-41102795D01*
X84251898Y-41024774D01*
X84163087Y-41007109D01*
X83285000Y-39860430D01*
X83285000Y-39708061D01*
X103665000Y-39708061D01*
X103665000Y-39911939D01*
X103704774Y-40111898D01*
X103782795Y-40300256D01*
X103896063Y-40469774D01*
X104040226Y-40613937D01*
X104209744Y-40727205D01*
X104398102Y-40805226D01*
X104598061Y-40845000D01*
X104801939Y-40845000D01*
X105001898Y-40805226D01*
X105190256Y-40727205D01*
X105359774Y-40613937D01*
X105503937Y-40469774D01*
X105617205Y-40300256D01*
X105695226Y-40111898D01*
X105735000Y-39911939D01*
X105735000Y-39824981D01*
X111378791Y-33447670D01*
X111541898Y-33415226D01*
X111730256Y-33337205D01*
X111899774Y-33223937D01*
X112043937Y-33079774D01*
X112157205Y-32910256D01*
X112235226Y-32721898D01*
X112275000Y-32521939D01*
X112275000Y-32318061D01*
X112235226Y-32118102D01*
X112157205Y-31929744D01*
X112043937Y-31760226D01*
X111899774Y-31616063D01*
X111843352Y-31578363D01*
X119195000Y-31578363D01*
X119195000Y-31821637D01*
X119242460Y-32060236D01*
X119335557Y-32284992D01*
X119470713Y-32487267D01*
X119642733Y-32659287D01*
X119845008Y-32794443D01*
X120069764Y-32887540D01*
X120308363Y-32935000D01*
X120551637Y-32935000D01*
X120790236Y-32887540D01*
X121014992Y-32794443D01*
X121217267Y-32659287D01*
X121389287Y-32487267D01*
X121524443Y-32284992D01*
X121617540Y-32060236D01*
X121665000Y-31821637D01*
X121665000Y-31578363D01*
X121617540Y-31339764D01*
X121524443Y-31115008D01*
X121389287Y-30912733D01*
X121217267Y-30740713D01*
X121014992Y-30605557D01*
X120790236Y-30512460D01*
X120551637Y-30465000D01*
X120308363Y-30465000D01*
X120069764Y-30512460D01*
X119845008Y-30605557D01*
X119642733Y-30740713D01*
X119470713Y-30912733D01*
X119335557Y-31115008D01*
X119242460Y-31339764D01*
X119195000Y-31578363D01*
X111843352Y-31578363D01*
X111730256Y-31502795D01*
X111541898Y-31424774D01*
X111341939Y-31385000D01*
X111138061Y-31385000D01*
X110938102Y-31424774D01*
X110749744Y-31502795D01*
X110580226Y-31616063D01*
X110436063Y-31760226D01*
X110322795Y-31929744D01*
X110244774Y-32118102D01*
X110205000Y-32318061D01*
X110205000Y-32405019D01*
X104561210Y-38782330D01*
X104398102Y-38814774D01*
X104209744Y-38892795D01*
X104040226Y-39006063D01*
X103896063Y-39150226D01*
X103782795Y-39319744D01*
X103704774Y-39508102D01*
X103665000Y-39708061D01*
X83285000Y-39708061D01*
X83285000Y-39698061D01*
X83245226Y-39498102D01*
X83167205Y-39309744D01*
X83053937Y-39140226D01*
X82909774Y-38996063D01*
X82740256Y-38882795D01*
X82551898Y-38804774D01*
X82351939Y-38765000D01*
X82148061Y-38765000D01*
X81948102Y-38804774D01*
X81795000Y-38868191D01*
X81795000Y-38758061D01*
X81755226Y-38558102D01*
X81677205Y-38369744D01*
X81563937Y-38200226D01*
X81419774Y-38056063D01*
X81250256Y-37942795D01*
X81061898Y-37864774D01*
X80861939Y-37825000D01*
X80658061Y-37825000D01*
X80458102Y-37864774D01*
X80269744Y-37942795D01*
X80100226Y-38056063D01*
X79956063Y-38200226D01*
X79842795Y-38369744D01*
X79764774Y-38558102D01*
X79748316Y-38640844D01*
X65037226Y-49765000D01*
X64868061Y-49765000D01*
X64668102Y-49804774D01*
X64479744Y-49882795D01*
X64310226Y-49996063D01*
X64166063Y-50140226D01*
X64052795Y-50309744D01*
X63974774Y-50498102D01*
X63935000Y-50698061D01*
X47290000Y-50698061D01*
X47290000Y-37718061D01*
X100525000Y-37718061D01*
X100525000Y-37921939D01*
X100564774Y-38121898D01*
X100642795Y-38310256D01*
X100756063Y-38479774D01*
X100900226Y-38623937D01*
X101069744Y-38737205D01*
X101258102Y-38815226D01*
X101458061Y-38855000D01*
X101661939Y-38855000D01*
X101861898Y-38815226D01*
X102050256Y-38737205D01*
X102219774Y-38623937D01*
X102363937Y-38479774D01*
X102477205Y-38310256D01*
X102555226Y-38121898D01*
X102583890Y-37977792D01*
X106426967Y-34695000D01*
X106531939Y-34695000D01*
X106731898Y-34655226D01*
X106920256Y-34577205D01*
X107089774Y-34463937D01*
X107233937Y-34319774D01*
X107347205Y-34150256D01*
X107425226Y-33961898D01*
X107465000Y-33761939D01*
X107465000Y-33558061D01*
X107425226Y-33358102D01*
X107347205Y-33169744D01*
X107233937Y-33000226D01*
X107089774Y-32856063D01*
X106920256Y-32742795D01*
X106731898Y-32664774D01*
X106531939Y-32625000D01*
X106328061Y-32625000D01*
X106128102Y-32664774D01*
X105939744Y-32742795D01*
X105770226Y-32856063D01*
X105626063Y-33000226D01*
X105512795Y-33169744D01*
X105434774Y-33358102D01*
X105406110Y-33502208D01*
X101563034Y-36785000D01*
X101458061Y-36785000D01*
X101258102Y-36824774D01*
X101069744Y-36902795D01*
X100900226Y-37016063D01*
X100756063Y-37160226D01*
X100642795Y-37329744D01*
X100564774Y-37518102D01*
X100525000Y-37718061D01*
X47290000Y-37718061D01*
X47290000Y-35018061D01*
X64175000Y-35018061D01*
X64175000Y-35221939D01*
X64214774Y-35421898D01*
X64292795Y-35610256D01*
X64406063Y-35779774D01*
X64550226Y-35923937D01*
X64719744Y-36037205D01*
X64908102Y-36115226D01*
X65108061Y-36155000D01*
X65311939Y-36155000D01*
X65511898Y-36115226D01*
X65700256Y-36037205D01*
X65869774Y-35923937D01*
X65902191Y-35891520D01*
X73684546Y-35738257D01*
X73690226Y-35743937D01*
X73859744Y-35857205D01*
X74048102Y-35935226D01*
X74248061Y-35975000D01*
X74451939Y-35975000D01*
X74651898Y-35935226D01*
X74840256Y-35857205D01*
X75009774Y-35743937D01*
X75153937Y-35599774D01*
X75267205Y-35430256D01*
X75345226Y-35241898D01*
X75385000Y-35041939D01*
X75385000Y-34838061D01*
X75345226Y-34638102D01*
X75267205Y-34449744D01*
X75153937Y-34280226D01*
X75009774Y-34136063D01*
X74840256Y-34022795D01*
X74651898Y-33944774D01*
X74451939Y-33905000D01*
X74248061Y-33905000D01*
X74048102Y-33944774D01*
X73859744Y-34022795D01*
X73690226Y-34136063D01*
X73657809Y-34168480D01*
X65875454Y-34321743D01*
X65869774Y-34316063D01*
X65700256Y-34202795D01*
X65511898Y-34124774D01*
X65311939Y-34085000D01*
X65108061Y-34085000D01*
X64908102Y-34124774D01*
X64719744Y-34202795D01*
X64550226Y-34316063D01*
X64406063Y-34460226D01*
X64292795Y-34629744D01*
X64214774Y-34818102D01*
X64175000Y-35018061D01*
X47290000Y-35018061D01*
X47290000Y-23260000D01*
X52136414Y-23260000D01*
X52124774Y-23288102D01*
%TD*%
M02*
