%TF.GenerationSoftware,KiCad,Pcbnew,5.1.6-c6e7f7d~87~ubuntu18.04.1*%
%TF.CreationDate,2020-08-08T15:28:18-04:00*%
%TF.ProjectId,atmega168_tb2,61746d65-6761-4313-9638-5f7462322e6b,rev?*%
%TF.SameCoordinates,Original*%
%TF.FileFunction,Copper,L1,Top*%
%TF.FilePolarity,Positive*%
%FSLAX46Y46*%
G04 Gerber Fmt 4.6, Leading zero omitted, Abs format (unit mm)*
G04 Created by KiCad (PCBNEW 5.1.6-c6e7f7d~87~ubuntu18.04.1) date 2020-08-08 15:28:18*
%MOMM*%
%LPD*%
G01*
G04 APERTURE LIST*
%TA.AperFunction,SMDPad,CuDef*%
%ADD10R,2.500000X2.500000*%
%TD*%
%TA.AperFunction,SMDPad,CuDef*%
%ADD11R,0.800000X0.900000*%
%TD*%
%TA.AperFunction,SMDPad,CuDef*%
%ADD12R,3.150000X1.000000*%
%TD*%
%TA.AperFunction,SMDPad,CuDef*%
%ADD13R,1.060000X0.650000*%
%TD*%
%TA.AperFunction,SMDPad,CuDef*%
%ADD14R,1.600000X0.550000*%
%TD*%
%TA.AperFunction,SMDPad,CuDef*%
%ADD15R,0.550000X1.600000*%
%TD*%
%TA.AperFunction,SMDPad,CuDef*%
%ADD16R,1.800000X1.000000*%
%TD*%
%TA.AperFunction,SMDPad,CuDef*%
%ADD17R,1.000000X2.510000*%
%TD*%
%TA.AperFunction,SMDPad,CuDef*%
%ADD18R,2.510000X1.000000*%
%TD*%
%TA.AperFunction,SMDPad,CuDef*%
%ADD19R,0.900000X0.800000*%
%TD*%
%TA.AperFunction,ComponentPad*%
%ADD20C,1.200000*%
%TD*%
%TA.AperFunction,ViaPad*%
%ADD21C,0.800000*%
%TD*%
%TA.AperFunction,Conductor*%
%ADD22C,0.300000*%
%TD*%
%TA.AperFunction,Conductor*%
%ADD23C,0.250000*%
%TD*%
%TA.AperFunction,Conductor*%
%ADD24C,0.254000*%
%TD*%
G04 APERTURE END LIST*
D10*
%TO.P,J7,1*%
%TO.N,PE0*%
X76110000Y-33150000D03*
%TD*%
D11*
%TO.P,Q1,1*%
%TO.N,PPWRCTRL*%
X68840000Y-30270000D03*
%TO.P,Q1,2*%
%TO.N,+BATT*%
X66940000Y-30270000D03*
%TO.P,Q1,3*%
%TO.N,PPWR*%
X67890000Y-32270000D03*
%TD*%
%TO.P,C1,1*%
%TO.N,+BATT*%
%TA.AperFunction,SMDPad,CuDef*%
G36*
G01*
X49835000Y-27805000D02*
X51085000Y-27805000D01*
G75*
G02*
X51335000Y-28055000I0J-250000D01*
G01*
X51335000Y-28805000D01*
G75*
G02*
X51085000Y-29055000I-250000J0D01*
G01*
X49835000Y-29055000D01*
G75*
G02*
X49585000Y-28805000I0J250000D01*
G01*
X49585000Y-28055000D01*
G75*
G02*
X49835000Y-27805000I250000J0D01*
G01*
G37*
%TD.AperFunction*%
%TO.P,C1,2*%
%TO.N,GND*%
%TA.AperFunction,SMDPad,CuDef*%
G36*
G01*
X49835000Y-30605000D02*
X51085000Y-30605000D01*
G75*
G02*
X51335000Y-30855000I0J-250000D01*
G01*
X51335000Y-31605000D01*
G75*
G02*
X51085000Y-31855000I-250000J0D01*
G01*
X49835000Y-31855000D01*
G75*
G02*
X49585000Y-31605000I0J250000D01*
G01*
X49585000Y-30855000D01*
G75*
G02*
X49835000Y-30605000I250000J0D01*
G01*
G37*
%TD.AperFunction*%
%TD*%
%TO.P,C2,2*%
%TO.N,GND*%
%TA.AperFunction,SMDPad,CuDef*%
G36*
G01*
X71303750Y-46420000D02*
X71816250Y-46420000D01*
G75*
G02*
X72035000Y-46638750I0J-218750D01*
G01*
X72035000Y-47076250D01*
G75*
G02*
X71816250Y-47295000I-218750J0D01*
G01*
X71303750Y-47295000D01*
G75*
G02*
X71085000Y-47076250I0J218750D01*
G01*
X71085000Y-46638750D01*
G75*
G02*
X71303750Y-46420000I218750J0D01*
G01*
G37*
%TD.AperFunction*%
%TO.P,C2,1*%
%TO.N,Net-(C2-Pad1)*%
%TA.AperFunction,SMDPad,CuDef*%
G36*
G01*
X71303750Y-44845000D02*
X71816250Y-44845000D01*
G75*
G02*
X72035000Y-45063750I0J-218750D01*
G01*
X72035000Y-45501250D01*
G75*
G02*
X71816250Y-45720000I-218750J0D01*
G01*
X71303750Y-45720000D01*
G75*
G02*
X71085000Y-45501250I0J218750D01*
G01*
X71085000Y-45063750D01*
G75*
G02*
X71303750Y-44845000I218750J0D01*
G01*
G37*
%TD.AperFunction*%
%TD*%
%TO.P,C3,2*%
%TO.N,GND*%
%TA.AperFunction,SMDPad,CuDef*%
G36*
G01*
X73303750Y-36892500D02*
X73816250Y-36892500D01*
G75*
G02*
X74035000Y-37111250I0J-218750D01*
G01*
X74035000Y-37548750D01*
G75*
G02*
X73816250Y-37767500I-218750J0D01*
G01*
X73303750Y-37767500D01*
G75*
G02*
X73085000Y-37548750I0J218750D01*
G01*
X73085000Y-37111250D01*
G75*
G02*
X73303750Y-36892500I218750J0D01*
G01*
G37*
%TD.AperFunction*%
%TO.P,C3,1*%
%TO.N,+BATT*%
%TA.AperFunction,SMDPad,CuDef*%
G36*
G01*
X73303750Y-35317500D02*
X73816250Y-35317500D01*
G75*
G02*
X74035000Y-35536250I0J-218750D01*
G01*
X74035000Y-35973750D01*
G75*
G02*
X73816250Y-36192500I-218750J0D01*
G01*
X73303750Y-36192500D01*
G75*
G02*
X73085000Y-35973750I0J218750D01*
G01*
X73085000Y-35536250D01*
G75*
G02*
X73303750Y-35317500I218750J0D01*
G01*
G37*
%TD.AperFunction*%
%TD*%
%TO.P,C4,1*%
%TO.N,RST*%
%TA.AperFunction,SMDPad,CuDef*%
G36*
G01*
X52547500Y-45816250D02*
X52547500Y-45303750D01*
G75*
G02*
X52766250Y-45085000I218750J0D01*
G01*
X53203750Y-45085000D01*
G75*
G02*
X53422500Y-45303750I0J-218750D01*
G01*
X53422500Y-45816250D01*
G75*
G02*
X53203750Y-46035000I-218750J0D01*
G01*
X52766250Y-46035000D01*
G75*
G02*
X52547500Y-45816250I0J218750D01*
G01*
G37*
%TD.AperFunction*%
%TO.P,C4,2*%
%TO.N,GND*%
%TA.AperFunction,SMDPad,CuDef*%
G36*
G01*
X54122500Y-45816250D02*
X54122500Y-45303750D01*
G75*
G02*
X54341250Y-45085000I218750J0D01*
G01*
X54778750Y-45085000D01*
G75*
G02*
X54997500Y-45303750I0J-218750D01*
G01*
X54997500Y-45816250D01*
G75*
G02*
X54778750Y-46035000I-218750J0D01*
G01*
X54341250Y-46035000D01*
G75*
G02*
X54122500Y-45816250I0J218750D01*
G01*
G37*
%TD.AperFunction*%
%TD*%
%TO.P,C5,1*%
%TO.N,Net-(C5-Pad1)*%
%TA.AperFunction,SMDPad,CuDef*%
G36*
G01*
X68512500Y-41633750D02*
X68512500Y-42146250D01*
G75*
G02*
X68293750Y-42365000I-218750J0D01*
G01*
X67856250Y-42365000D01*
G75*
G02*
X67637500Y-42146250I0J218750D01*
G01*
X67637500Y-41633750D01*
G75*
G02*
X67856250Y-41415000I218750J0D01*
G01*
X68293750Y-41415000D01*
G75*
G02*
X68512500Y-41633750I0J-218750D01*
G01*
G37*
%TD.AperFunction*%
%TO.P,C5,2*%
%TO.N,GND*%
%TA.AperFunction,SMDPad,CuDef*%
G36*
G01*
X66937500Y-41633750D02*
X66937500Y-42146250D01*
G75*
G02*
X66718750Y-42365000I-218750J0D01*
G01*
X66281250Y-42365000D01*
G75*
G02*
X66062500Y-42146250I0J218750D01*
G01*
X66062500Y-41633750D01*
G75*
G02*
X66281250Y-41415000I218750J0D01*
G01*
X66718750Y-41415000D01*
G75*
G02*
X66937500Y-41633750I0J-218750D01*
G01*
G37*
%TD.AperFunction*%
%TD*%
%TO.P,C6,1*%
%TO.N,+BATT*%
%TA.AperFunction,SMDPad,CuDef*%
G36*
G01*
X90206250Y-43895000D02*
X89693750Y-43895000D01*
G75*
G02*
X89475000Y-43676250I0J218750D01*
G01*
X89475000Y-43238750D01*
G75*
G02*
X89693750Y-43020000I218750J0D01*
G01*
X90206250Y-43020000D01*
G75*
G02*
X90425000Y-43238750I0J-218750D01*
G01*
X90425000Y-43676250D01*
G75*
G02*
X90206250Y-43895000I-218750J0D01*
G01*
G37*
%TD.AperFunction*%
%TO.P,C6,2*%
%TO.N,GND*%
%TA.AperFunction,SMDPad,CuDef*%
G36*
G01*
X90206250Y-42320000D02*
X89693750Y-42320000D01*
G75*
G02*
X89475000Y-42101250I0J218750D01*
G01*
X89475000Y-41663750D01*
G75*
G02*
X89693750Y-41445000I218750J0D01*
G01*
X90206250Y-41445000D01*
G75*
G02*
X90425000Y-41663750I0J-218750D01*
G01*
X90425000Y-42101250D01*
G75*
G02*
X90206250Y-42320000I-218750J0D01*
G01*
G37*
%TD.AperFunction*%
%TD*%
%TO.P,C7,2*%
%TO.N,GND*%
%TA.AperFunction,SMDPad,CuDef*%
G36*
G01*
X104353750Y-37367500D02*
X104866250Y-37367500D01*
G75*
G02*
X105085000Y-37586250I0J-218750D01*
G01*
X105085000Y-38023750D01*
G75*
G02*
X104866250Y-38242500I-218750J0D01*
G01*
X104353750Y-38242500D01*
G75*
G02*
X104135000Y-38023750I0J218750D01*
G01*
X104135000Y-37586250D01*
G75*
G02*
X104353750Y-37367500I218750J0D01*
G01*
G37*
%TD.AperFunction*%
%TO.P,C7,1*%
%TO.N,CARD_VDD*%
%TA.AperFunction,SMDPad,CuDef*%
G36*
G01*
X104353750Y-35792500D02*
X104866250Y-35792500D01*
G75*
G02*
X105085000Y-36011250I0J-218750D01*
G01*
X105085000Y-36448750D01*
G75*
G02*
X104866250Y-36667500I-218750J0D01*
G01*
X104353750Y-36667500D01*
G75*
G02*
X104135000Y-36448750I0J218750D01*
G01*
X104135000Y-36011250D01*
G75*
G02*
X104353750Y-35792500I218750J0D01*
G01*
G37*
%TD.AperFunction*%
%TD*%
D12*
%TO.P,J1,1*%
%TO.N,MISO*%
X51375000Y-37790000D03*
%TO.P,J1,2*%
%TO.N,+5V*%
X56425000Y-37790000D03*
%TO.P,J1,3*%
%TO.N,SCK*%
X51375000Y-40330000D03*
%TO.P,J1,4*%
%TO.N,MOSI*%
X56425000Y-40330000D03*
%TO.P,J1,5*%
%TO.N,RST*%
X51375000Y-42870000D03*
%TO.P,J1,6*%
%TO.N,GND*%
X56425000Y-42870000D03*
%TD*%
D13*
%TO.P,U1,1*%
%TO.N,+5V*%
X61810000Y-35160000D03*
%TO.P,U1,2*%
%TO.N,GND*%
X61810000Y-36110000D03*
%TO.P,U1,3*%
%TO.N,+5V*%
X61810000Y-37060000D03*
%TO.P,U1,4*%
%TO.N,Net-(U1-Pad4)*%
X64010000Y-37060000D03*
%TO.P,U1,5*%
%TO.N,+BATT*%
X64010000Y-35160000D03*
%TD*%
D14*
%TO.P,U2,1*%
%TO.N,PDC*%
X77580000Y-37540000D03*
%TO.P,U2,2*%
%TO.N,PCS*%
X77580000Y-38340000D03*
%TO.P,U2,3*%
%TO.N,PE0*%
X77580000Y-39140000D03*
%TO.P,U2,4*%
%TO.N,+BATT*%
X77580000Y-39940000D03*
%TO.P,U2,5*%
%TO.N,GND*%
X77580000Y-40740000D03*
%TO.P,U2,6*%
%TO.N,PE1*%
X77580000Y-41540000D03*
%TO.P,U2,7*%
%TO.N,Net-(C5-Pad1)*%
X77580000Y-42340000D03*
%TO.P,U2,8*%
%TO.N,Net-(C2-Pad1)*%
X77580000Y-43140000D03*
D15*
%TO.P,U2,9*%
%TO.N,PCLK*%
X79030000Y-44590000D03*
%TO.P,U2,10*%
%TO.N,PDI*%
X79830000Y-44590000D03*
%TO.P,U2,11*%
%TO.N,PPWRCTRL*%
X80630000Y-44590000D03*
%TO.P,U2,12*%
%TO.N,Net-(U2-Pad12)*%
X81430000Y-44590000D03*
%TO.P,U2,13*%
%TO.N,Net-(U2-Pad13)*%
X82230000Y-44590000D03*
%TO.P,U2,14*%
%TO.N,GND*%
X83030000Y-44590000D03*
%TO.P,U2,15*%
%TO.N,MOSI*%
X83830000Y-44590000D03*
%TO.P,U2,16*%
%TO.N,MISO*%
X84630000Y-44590000D03*
D14*
%TO.P,U2,17*%
%TO.N,SCK*%
X86080000Y-43140000D03*
%TO.P,U2,18*%
%TO.N,+BATT*%
X86080000Y-42340000D03*
%TO.P,U2,19*%
%TO.N,CARDPWR*%
X86080000Y-41540000D03*
%TO.P,U2,20*%
%TO.N,Net-(U2-Pad20)*%
X86080000Y-40740000D03*
%TO.P,U2,21*%
%TO.N,GND*%
X86080000Y-39940000D03*
%TO.P,U2,22*%
%TO.N,CARD_DET*%
X86080000Y-39140000D03*
%TO.P,U2,23*%
%TO.N,CARDDAT0_DO*%
X86080000Y-38340000D03*
%TO.P,U2,24*%
%TO.N,CARDDAT1*%
X86080000Y-37540000D03*
D15*
%TO.P,U2,25*%
%TO.N,D2*%
X84630000Y-36090000D03*
%TO.P,U2,26*%
%TO.N,D3CS*%
X83830000Y-36090000D03*
%TO.P,U2,27*%
%TO.N,CARDCLK*%
X83030000Y-36090000D03*
%TO.P,U2,28*%
%TO.N,CMDDI*%
X82230000Y-36090000D03*
%TO.P,U2,29*%
%TO.N,RST*%
X81430000Y-36090000D03*
%TO.P,U2,30*%
%TO.N,RX*%
X80630000Y-36090000D03*
%TO.P,U2,31*%
%TO.N,P_BUSY*%
X79830000Y-36090000D03*
%TO.P,U2,32*%
%TO.N,PRST*%
X79030000Y-36090000D03*
%TD*%
D16*
%TO.P,Y1,1*%
%TO.N,Net-(C5-Pad1)*%
X71620000Y-40630000D03*
%TO.P,Y1,2*%
%TO.N,Net-(C2-Pad1)*%
X71620000Y-43130000D03*
%TD*%
D17*
%TO.P,J2,1*%
%TO.N,P_BUSY*%
X91950000Y-25935000D03*
%TO.P,J2,3*%
%TO.N,PDC*%
X86870000Y-25935000D03*
%TO.P,J2,5*%
%TO.N,PCLK*%
X81790000Y-25935000D03*
%TO.P,J2,7*%
%TO.N,GND*%
X76710000Y-25935000D03*
%TO.P,J2,2*%
%TO.N,PRST*%
X89410000Y-29245000D03*
%TO.P,J2,4*%
%TO.N,PCS*%
X84330000Y-29245000D03*
%TO.P,J2,6*%
%TO.N,PDI*%
X79250000Y-29245000D03*
%TO.P,J2,8*%
%TO.N,PPWR*%
X74170000Y-29245000D03*
%TD*%
D18*
%TO.P,J3,2*%
%TO.N,+5V*%
X96475000Y-28350000D03*
%TO.P,J3,4*%
%TO.N,CMDDI*%
X96475000Y-33430000D03*
%TO.P,J3,6*%
%TO.N,D3CS*%
X96475000Y-38510000D03*
%TO.P,J3,8*%
%TO.N,CARDDAT1*%
X96475000Y-43590000D03*
%TO.P,J3,10*%
%TO.N,GND*%
X96475000Y-48670000D03*
%TO.P,J3,1*%
%TO.N,+BATT*%
X99785000Y-25810000D03*
%TO.P,J3,3*%
%TO.N,CARD_VDD*%
X99785000Y-30890000D03*
%TO.P,J3,5*%
%TO.N,CARDCLK*%
X99785000Y-35970000D03*
%TO.P,J3,7*%
%TO.N,D2*%
X99785000Y-41050000D03*
%TO.P,J3,9*%
%TO.N,CARDDAT0_DO*%
X99785000Y-46130000D03*
%TD*%
D19*
%TO.P,Q2,3*%
%TO.N,CARD_VDD*%
X107390000Y-26790000D03*
%TO.P,Q2,2*%
%TO.N,+BATT*%
X105390000Y-27740000D03*
%TO.P,Q2,1*%
%TO.N,CARDPWR*%
X105390000Y-25840000D03*
%TD*%
%TO.P,R1,2*%
%TO.N,CARDPWR*%
%TA.AperFunction,SMDPad,CuDef*%
G36*
G01*
X103706250Y-26390000D02*
X103193750Y-26390000D01*
G75*
G02*
X102975000Y-26171250I0J218750D01*
G01*
X102975000Y-25733750D01*
G75*
G02*
X103193750Y-25515000I218750J0D01*
G01*
X103706250Y-25515000D01*
G75*
G02*
X103925000Y-25733750I0J-218750D01*
G01*
X103925000Y-26171250D01*
G75*
G02*
X103706250Y-26390000I-218750J0D01*
G01*
G37*
%TD.AperFunction*%
%TO.P,R1,1*%
%TO.N,+BATT*%
%TA.AperFunction,SMDPad,CuDef*%
G36*
G01*
X103706250Y-27965000D02*
X103193750Y-27965000D01*
G75*
G02*
X102975000Y-27746250I0J218750D01*
G01*
X102975000Y-27308750D01*
G75*
G02*
X103193750Y-27090000I218750J0D01*
G01*
X103706250Y-27090000D01*
G75*
G02*
X103925000Y-27308750I0J-218750D01*
G01*
X103925000Y-27746250D01*
G75*
G02*
X103706250Y-27965000I-218750J0D01*
G01*
G37*
%TD.AperFunction*%
%TD*%
%TO.P,R2,1*%
%TO.N,+BATT*%
%TA.AperFunction,SMDPad,CuDef*%
G36*
G01*
X66287500Y-27366250D02*
X66287500Y-26853750D01*
G75*
G02*
X66506250Y-26635000I218750J0D01*
G01*
X66943750Y-26635000D01*
G75*
G02*
X67162500Y-26853750I0J-218750D01*
G01*
X67162500Y-27366250D01*
G75*
G02*
X66943750Y-27585000I-218750J0D01*
G01*
X66506250Y-27585000D01*
G75*
G02*
X66287500Y-27366250I0J218750D01*
G01*
G37*
%TD.AperFunction*%
%TO.P,R2,2*%
%TO.N,PPWRCTRL*%
%TA.AperFunction,SMDPad,CuDef*%
G36*
G01*
X67862500Y-27366250D02*
X67862500Y-26853750D01*
G75*
G02*
X68081250Y-26635000I218750J0D01*
G01*
X68518750Y-26635000D01*
G75*
G02*
X68737500Y-26853750I0J-218750D01*
G01*
X68737500Y-27366250D01*
G75*
G02*
X68518750Y-27585000I-218750J0D01*
G01*
X68081250Y-27585000D01*
G75*
G02*
X67862500Y-27366250I0J218750D01*
G01*
G37*
%TD.AperFunction*%
%TD*%
%TO.P,J4,1*%
%TO.N,D2*%
%TA.AperFunction,SMDPad,CuDef*%
G36*
G01*
X110160000Y-32850000D02*
X108700000Y-32850000D01*
G75*
G02*
X108630000Y-32780000I0J70000D01*
G01*
X108630000Y-32220000D01*
G75*
G02*
X108700000Y-32150000I70000J0D01*
G01*
X110160000Y-32150000D01*
G75*
G02*
X110230000Y-32220000I0J-70000D01*
G01*
X110230000Y-32780000D01*
G75*
G02*
X110160000Y-32850000I-70000J0D01*
G01*
G37*
%TD.AperFunction*%
%TO.P,J4,2*%
%TO.N,D3CS*%
%TA.AperFunction,SMDPad,CuDef*%
G36*
G01*
X110160000Y-33950000D02*
X108700000Y-33950000D01*
G75*
G02*
X108630000Y-33880000I0J70000D01*
G01*
X108630000Y-33320000D01*
G75*
G02*
X108700000Y-33250000I70000J0D01*
G01*
X110160000Y-33250000D01*
G75*
G02*
X110230000Y-33320000I0J-70000D01*
G01*
X110230000Y-33880000D01*
G75*
G02*
X110160000Y-33950000I-70000J0D01*
G01*
G37*
%TD.AperFunction*%
%TO.P,J4,3*%
%TO.N,CMDDI*%
%TA.AperFunction,SMDPad,CuDef*%
G36*
G01*
X110160000Y-35050000D02*
X108700000Y-35050000D01*
G75*
G02*
X108630000Y-34980000I0J70000D01*
G01*
X108630000Y-34420000D01*
G75*
G02*
X108700000Y-34350000I70000J0D01*
G01*
X110160000Y-34350000D01*
G75*
G02*
X110230000Y-34420000I0J-70000D01*
G01*
X110230000Y-34980000D01*
G75*
G02*
X110160000Y-35050000I-70000J0D01*
G01*
G37*
%TD.AperFunction*%
%TO.P,J4,4*%
%TO.N,CARD_VDD*%
%TA.AperFunction,SMDPad,CuDef*%
G36*
G01*
X110160000Y-36150000D02*
X108700000Y-36150000D01*
G75*
G02*
X108630000Y-36080000I0J70000D01*
G01*
X108630000Y-35520000D01*
G75*
G02*
X108700000Y-35450000I70000J0D01*
G01*
X110160000Y-35450000D01*
G75*
G02*
X110230000Y-35520000I0J-70000D01*
G01*
X110230000Y-36080000D01*
G75*
G02*
X110160000Y-36150000I-70000J0D01*
G01*
G37*
%TD.AperFunction*%
%TO.P,J4,5*%
%TO.N,CARDCLK*%
%TA.AperFunction,SMDPad,CuDef*%
G36*
G01*
X110160000Y-37250000D02*
X108700000Y-37250000D01*
G75*
G02*
X108630000Y-37180000I0J70000D01*
G01*
X108630000Y-36620000D01*
G75*
G02*
X108700000Y-36550000I70000J0D01*
G01*
X110160000Y-36550000D01*
G75*
G02*
X110230000Y-36620000I0J-70000D01*
G01*
X110230000Y-37180000D01*
G75*
G02*
X110160000Y-37250000I-70000J0D01*
G01*
G37*
%TD.AperFunction*%
%TO.P,J4,6*%
%TO.N,GND*%
%TA.AperFunction,SMDPad,CuDef*%
G36*
G01*
X110160000Y-38350000D02*
X108700000Y-38350000D01*
G75*
G02*
X108630000Y-38280000I0J70000D01*
G01*
X108630000Y-37720000D01*
G75*
G02*
X108700000Y-37650000I70000J0D01*
G01*
X110160000Y-37650000D01*
G75*
G02*
X110230000Y-37720000I0J-70000D01*
G01*
X110230000Y-38280000D01*
G75*
G02*
X110160000Y-38350000I-70000J0D01*
G01*
G37*
%TD.AperFunction*%
%TO.P,J4,7*%
%TO.N,CARDDAT0_DO*%
%TA.AperFunction,SMDPad,CuDef*%
G36*
G01*
X110160000Y-39450000D02*
X108700000Y-39450000D01*
G75*
G02*
X108630000Y-39380000I0J70000D01*
G01*
X108630000Y-38820000D01*
G75*
G02*
X108700000Y-38750000I70000J0D01*
G01*
X110160000Y-38750000D01*
G75*
G02*
X110230000Y-38820000I0J-70000D01*
G01*
X110230000Y-39380000D01*
G75*
G02*
X110160000Y-39450000I-70000J0D01*
G01*
G37*
%TD.AperFunction*%
%TO.P,J4,8*%
%TO.N,CARDDAT1*%
%TA.AperFunction,SMDPad,CuDef*%
G36*
G01*
X110160000Y-40550000D02*
X108700000Y-40550000D01*
G75*
G02*
X108630000Y-40480000I0J70000D01*
G01*
X108630000Y-39920000D01*
G75*
G02*
X108700000Y-39850000I70000J0D01*
G01*
X110160000Y-39850000D01*
G75*
G02*
X110230000Y-39920000I0J-70000D01*
G01*
X110230000Y-40480000D01*
G75*
G02*
X110160000Y-40550000I-70000J0D01*
G01*
G37*
%TD.AperFunction*%
%TO.P,J4,9*%
%TO.N,CARD_DET*%
%TA.AperFunction,SMDPad,CuDef*%
G36*
G01*
X110160000Y-41650000D02*
X108700000Y-41650000D01*
G75*
G02*
X108630000Y-41580000I0J70000D01*
G01*
X108630000Y-41020000D01*
G75*
G02*
X108700000Y-40950000I70000J0D01*
G01*
X110160000Y-40950000D01*
G75*
G02*
X110230000Y-41020000I0J-70000D01*
G01*
X110230000Y-41580000D01*
G75*
G02*
X110160000Y-41650000I-70000J0D01*
G01*
G37*
%TD.AperFunction*%
D20*
%TO.P,J4,~*%
%TO.N,N/C*%
X120430000Y-39700000D03*
X120430000Y-31700000D03*
%TO.P,J4,11*%
%TO.N,GND*%
%TA.AperFunction,SMDPad,CuDef*%
G36*
G01*
X121010000Y-43100000D02*
X119050000Y-43100000D01*
G75*
G02*
X118930000Y-42980000I0J120000D01*
G01*
X118930000Y-42020000D01*
G75*
G02*
X119050000Y-41900000I120000J0D01*
G01*
X121010000Y-41900000D01*
G75*
G02*
X121130000Y-42020000I0J-120000D01*
G01*
X121130000Y-42980000D01*
G75*
G02*
X121010000Y-43100000I-120000J0D01*
G01*
G37*
%TD.AperFunction*%
%TA.AperFunction,SMDPad,CuDef*%
G36*
G01*
X111060000Y-43100000D02*
X109800000Y-43100000D01*
G75*
G02*
X109680000Y-42980000I0J120000D01*
G01*
X109680000Y-42020000D01*
G75*
G02*
X109800000Y-41900000I120000J0D01*
G01*
X111060000Y-41900000D01*
G75*
G02*
X111180000Y-42020000I0J-120000D01*
G01*
X111180000Y-42980000D01*
G75*
G02*
X111060000Y-43100000I-120000J0D01*
G01*
G37*
%TD.AperFunction*%
%TA.AperFunction,SMDPad,CuDef*%
G36*
G01*
X111030000Y-28700000D02*
X109830000Y-28700000D01*
G75*
G02*
X109680000Y-28550000I0J150000D01*
G01*
X109680000Y-27250000D01*
G75*
G02*
X109830000Y-27100000I150000J0D01*
G01*
X111030000Y-27100000D01*
G75*
G02*
X111180000Y-27250000I0J-150000D01*
G01*
X111180000Y-28550000D01*
G75*
G02*
X111030000Y-28700000I-150000J0D01*
G01*
G37*
%TD.AperFunction*%
%TA.AperFunction,SMDPad,CuDef*%
G36*
G01*
X121010000Y-27600000D02*
X119050000Y-27600000D01*
G75*
G02*
X118930000Y-27480000I0J120000D01*
G01*
X118930000Y-26520000D01*
G75*
G02*
X119050000Y-26400000I120000J0D01*
G01*
X121010000Y-26400000D01*
G75*
G02*
X121130000Y-26520000I0J-120000D01*
G01*
X121130000Y-27480000D01*
G75*
G02*
X121010000Y-27600000I-120000J0D01*
G01*
G37*
%TD.AperFunction*%
%TD*%
D18*
%TO.P,J5,1*%
%TO.N,+BATT*%
X54805000Y-28560000D03*
%TO.P,J5,2*%
%TO.N,GND*%
X58115000Y-31100000D03*
%TD*%
D10*
%TO.P,J6,1*%
%TO.N,RX*%
X92510000Y-32840000D03*
%TD*%
%TO.P,J8,1*%
%TO.N,PE1*%
X74670000Y-45430000D03*
%TD*%
%TO.P,J9,1*%
%TO.N,GND*%
X90170000Y-47200000D03*
%TD*%
D21*
%TO.N,+BATT*%
X82250000Y-39800000D03*
X83950000Y-42020000D03*
X74350000Y-34940000D03*
X65210000Y-35120000D03*
X53120000Y-23590000D03*
X52760000Y-27750000D03*
%TO.N,GND*%
X73010000Y-33990000D03*
X89222260Y-40397740D03*
X81750000Y-42060000D03*
X72860000Y-39310000D03*
X102570000Y-39650000D03*
X111370000Y-41110000D03*
X118100000Y-42590000D03*
X98630000Y-48730000D03*
X60460000Y-36120000D03*
X67460000Y-39550000D03*
X58640000Y-42920000D03*
X56000000Y-45660000D03*
X55860000Y-31080000D03*
X112200000Y-28700000D03*
X120280000Y-28730000D03*
X92690000Y-48450000D03*
X106870000Y-30130000D03*
X100270000Y-33690000D03*
X89420000Y-26240000D03*
X84270000Y-25940000D03*
X79260000Y-25940000D03*
X83610000Y-38540000D03*
X55960000Y-25930000D03*
X68340000Y-45510000D03*
X51070000Y-48900000D03*
X94728707Y-30631293D03*
X76365069Y-28705069D03*
X72430000Y-46500000D03*
%TO.N,RST*%
X80760000Y-38860000D03*
X64970000Y-50800000D03*
%TO.N,CARDDAT0_DO*%
X107990000Y-39140000D03*
X106200000Y-41740000D03*
%TO.N,D2*%
X104700000Y-39810000D03*
X111240000Y-32420000D03*
%TO.N,D3CS*%
X101560000Y-37820000D03*
X106430000Y-33660000D03*
%TO.N,PE1*%
X79640000Y-42285000D03*
X76320000Y-45480000D03*
%TD*%
D22*
%TO.N,*%
X120280000Y-49905000D02*
X119645000Y-49905000D01*
X119645000Y-49905000D02*
X119010000Y-49270000D01*
X119010000Y-49270000D02*
X119010000Y-48000000D01*
X119010000Y-48000000D02*
X118375000Y-48635000D01*
X118375000Y-48635000D02*
X119645000Y-48635000D01*
X119645000Y-48635000D02*
X120280000Y-49270000D01*
X120280000Y-49270000D02*
X120280000Y-49905000D01*
%TO.N,+BATT*%
X86080000Y-42340000D02*
X87330000Y-42310000D01*
X87330000Y-42310000D02*
X87880000Y-42370000D01*
X87880000Y-42370000D02*
X88340000Y-42690000D01*
X88340000Y-42690000D02*
X88780000Y-43090000D01*
X88780000Y-43090000D02*
X89080000Y-43410000D01*
X89080000Y-43410000D02*
X89360000Y-43530000D01*
X89360000Y-43530000D02*
X89950000Y-43457500D01*
X73560000Y-35755000D02*
X74260000Y-35750000D01*
X74260000Y-35750000D02*
X74630000Y-36120000D01*
X74630000Y-36120000D02*
X74590000Y-36930000D01*
X74590000Y-36930000D02*
X74650000Y-38920000D01*
X74650000Y-38920000D02*
X75200000Y-39610000D01*
X75200000Y-39610000D02*
X75760000Y-39850000D01*
X75760000Y-39850000D02*
X77580000Y-39940000D01*
X66940000Y-30270000D02*
X66120000Y-30280000D01*
X66120000Y-30280000D02*
X65590000Y-30480000D01*
X65590000Y-30480000D02*
X65030000Y-31070000D01*
X65030000Y-31070000D02*
X64680000Y-31870000D01*
X64680000Y-31870000D02*
X64250000Y-32920000D01*
X64250000Y-32920000D02*
X64180000Y-33320000D01*
X64180000Y-33320000D02*
X64060000Y-34400000D01*
X64060000Y-34400000D02*
X64010000Y-35160000D01*
X66940000Y-30270000D02*
X66725000Y-27110000D01*
X54805000Y-28560000D02*
X58540000Y-28670000D01*
X58540000Y-28670000D02*
X60360000Y-28880000D01*
X60360000Y-28880000D02*
X61640000Y-29390000D01*
X61640000Y-29390000D02*
X63770000Y-30440000D01*
X63770000Y-30440000D02*
X65030000Y-31070000D01*
X77580000Y-39940000D02*
X79190000Y-39960000D01*
X79190000Y-39960000D02*
X81110000Y-39880000D01*
X81110000Y-39880000D02*
X82250000Y-39800000D01*
X83950000Y-42020000D02*
X84600000Y-42300000D01*
X84600000Y-42300000D02*
X86080000Y-42340000D01*
X73560000Y-35755000D02*
X74350000Y-34940000D01*
X65210000Y-35120000D02*
X64010000Y-35160000D01*
X99785000Y-25810000D02*
X96890000Y-25800000D01*
X96890000Y-25800000D02*
X95440000Y-25740000D01*
X95440000Y-25740000D02*
X94920000Y-25180000D01*
X94920000Y-25180000D02*
X93960000Y-24120000D01*
X93960000Y-24120000D02*
X93430000Y-23430000D01*
X93430000Y-23430000D02*
X92640000Y-23160000D01*
X92640000Y-23160000D02*
X55800000Y-23030000D01*
X55800000Y-23030000D02*
X54940000Y-23200000D01*
X54940000Y-23200000D02*
X53120000Y-23590000D01*
X52760000Y-27750000D02*
X52799988Y-28500012D01*
X50460000Y-28430000D02*
X52799988Y-28500012D01*
X52799988Y-28500012D02*
X54805000Y-28560000D01*
X99785000Y-25810000D02*
X101000000Y-26200000D01*
X101000000Y-26200000D02*
X101950000Y-26880000D01*
X101950000Y-26880000D02*
X102850000Y-27530000D01*
X102850000Y-27530000D02*
X103450000Y-27527500D01*
X103450000Y-27527500D02*
X105390000Y-27740000D01*
%TO.N,GND*%
X55630000Y-36110000D02*
X57750000Y-36060000D01*
X55630000Y-36110000D02*
X55290000Y-36160000D01*
X55290000Y-36160000D02*
X54890000Y-36410000D01*
X54890000Y-36410000D02*
X54590000Y-36870000D01*
X54590000Y-36870000D02*
X54499999Y-37210000D01*
X54499999Y-37210000D02*
X54450000Y-37690000D01*
X54450000Y-37690000D02*
X54450000Y-41510000D01*
X54450000Y-41510000D02*
X54510000Y-42080000D01*
X54510000Y-42080000D02*
X54750000Y-42470000D01*
X54750000Y-42470000D02*
X56425000Y-42870000D01*
X86080000Y-39940000D02*
X87140000Y-39930000D01*
X87140000Y-39930000D02*
X87960000Y-39930000D01*
X87960000Y-39930000D02*
X88680000Y-40070000D01*
X89590000Y-40620000D02*
X89810000Y-40930000D01*
X89810000Y-40930000D02*
X89950000Y-41882500D01*
X86080000Y-39940000D02*
X84140000Y-39990000D01*
X84140000Y-39990000D02*
X83430000Y-40240000D01*
X83430000Y-40240000D02*
X83250000Y-40580000D01*
X83250000Y-40580000D02*
X83060000Y-41290000D01*
X83060000Y-41290000D02*
X83010000Y-42480000D01*
X83010000Y-42480000D02*
X83030000Y-44590000D01*
X77580000Y-40740000D02*
X81950000Y-40770000D01*
X81950000Y-40770000D02*
X82650000Y-40700000D01*
X82650000Y-40700000D02*
X83250000Y-40580000D01*
X66500000Y-41890000D02*
X66420000Y-43450000D01*
X66420000Y-43450000D02*
X67050000Y-44610000D01*
X67050000Y-44610000D02*
X68720000Y-46210000D01*
X68720000Y-46210000D02*
X71560000Y-46857500D01*
X66500000Y-41890000D02*
X66910000Y-40770000D01*
X77580000Y-40740000D02*
X75560000Y-40830000D01*
X73060000Y-39710000D02*
X72000000Y-39570000D01*
X72000000Y-39570000D02*
X69930000Y-39690000D01*
X66910000Y-40770000D02*
X67416066Y-40296066D01*
X58115000Y-31100000D02*
X58066107Y-36063893D01*
X57750000Y-36060000D02*
X58066107Y-36063893D01*
X58066107Y-36063893D02*
X61810000Y-36110000D01*
X50460000Y-31230000D02*
X50480000Y-31510000D01*
X50480000Y-31510000D02*
X54890000Y-36410000D01*
X73560000Y-37330000D02*
X73412210Y-39867790D01*
X75560000Y-40830000D02*
X73412210Y-39867790D01*
X73412210Y-39867790D02*
X73060000Y-39710000D01*
X73560000Y-37330000D02*
X72580000Y-37280000D01*
X72580000Y-37280000D02*
X72240000Y-36890000D01*
X72240000Y-36890000D02*
X72090000Y-36160000D01*
X72090000Y-36160000D02*
X72190000Y-35560000D01*
X72190000Y-35560000D02*
X72990000Y-33990000D01*
X72990000Y-33990000D02*
X73010000Y-33990000D01*
X88680000Y-40070000D02*
X89222260Y-40397740D01*
X89222260Y-40397740D02*
X89590000Y-40620000D01*
X83250000Y-40580000D02*
X81750000Y-42060000D01*
X73412210Y-39867790D02*
X72860000Y-39310000D01*
X109430000Y-38000000D02*
X107640000Y-37940000D01*
X107640000Y-37940000D02*
X106300000Y-37960000D01*
X106300000Y-37960000D02*
X104610000Y-37805000D01*
X109430000Y-38000000D02*
X110950000Y-37980000D01*
X110950000Y-37980000D02*
X111500000Y-38250000D01*
X111500000Y-38250000D02*
X111990000Y-39360000D01*
X111990000Y-39360000D02*
X112210000Y-41010000D01*
X112210000Y-41010000D02*
X112190000Y-42170000D01*
X112190000Y-42170000D02*
X112300000Y-42500000D01*
X110430000Y-42500000D02*
X112300000Y-42500000D01*
X120030000Y-27000000D02*
X110430000Y-27900000D01*
X120030000Y-42500000D02*
X117060000Y-40530000D01*
X117060000Y-40530000D02*
X116310000Y-37560000D01*
X116310000Y-37560000D02*
X116570000Y-33960000D01*
X116570000Y-33960000D02*
X117460000Y-29380000D01*
X117460000Y-29380000D02*
X120030000Y-27000000D01*
X104610000Y-37805000D02*
X102570000Y-39650000D01*
X110430000Y-42500000D02*
X111370000Y-41110000D01*
X120030000Y-42500000D02*
X118100000Y-42590000D01*
X98630000Y-48730000D02*
X96475000Y-48670000D01*
X58066107Y-36063893D02*
X60460000Y-36120000D01*
X67460000Y-39550000D02*
X67953500Y-40166500D01*
X69930000Y-39690000D02*
X67953500Y-40166500D01*
X67953500Y-40166500D02*
X67416066Y-40296066D01*
X56425000Y-42870000D02*
X58640000Y-42920000D01*
X56000000Y-45660000D02*
X54560000Y-45560000D01*
X58115000Y-31100000D02*
X55860000Y-31080000D01*
X110430000Y-27900000D02*
X112200000Y-28700000D01*
X120030000Y-27000000D02*
X120280000Y-28730000D01*
X94180000Y-48710000D02*
X96475000Y-48670000D01*
X92690000Y-48450000D02*
X94180000Y-48710000D01*
X71560000Y-46857500D02*
X68340000Y-45510000D01*
X94728707Y-30631293D02*
X99510000Y-28780000D01*
X90170000Y-47200000D02*
X92670000Y-47260000D01*
X92670000Y-47260000D02*
X92690000Y-48450000D01*
X76365069Y-28705069D02*
X76500000Y-28410000D01*
X76500000Y-28410000D02*
X76640000Y-27350000D01*
X76640000Y-27350000D02*
X76710000Y-25935000D01*
X71560000Y-46857500D02*
X72430000Y-46500000D01*
%TO.N,Net-(C2-Pad1)*%
X77580000Y-43140000D02*
X71620000Y-43130000D01*
X71560000Y-45282500D02*
X71620000Y-43130000D01*
%TO.N,RST*%
X51375000Y-42870000D02*
X51390000Y-43870000D01*
X51390000Y-43870000D02*
X51410000Y-44480000D01*
X51410000Y-44480000D02*
X51570000Y-44820000D01*
X51570000Y-44820000D02*
X51900000Y-45250000D01*
X51900000Y-45250000D02*
X52180000Y-45400000D01*
X52180000Y-45400000D02*
X52985000Y-45560000D01*
X81430000Y-36090000D02*
X81520000Y-37240000D01*
X81520000Y-37240000D02*
X81360000Y-38350000D01*
X81360000Y-38350000D02*
X80760000Y-38860000D01*
X53060000Y-46250000D02*
X52985000Y-45560000D01*
X53720000Y-47170000D02*
X53130000Y-46580000D01*
X60190000Y-49970000D02*
X57090000Y-49080000D01*
X64970000Y-50800000D02*
X60190000Y-49970000D01*
X53130000Y-46580000D02*
X53060000Y-46250000D01*
X57090000Y-49080000D02*
X54780000Y-48030000D01*
X54780000Y-48030000D02*
X53720000Y-47170000D01*
%TO.N,Net-(C5-Pad1)*%
X71620000Y-40630000D02*
X72820000Y-40650000D01*
X72820000Y-40650000D02*
X73290000Y-40690000D01*
X73290000Y-40690000D02*
X73600000Y-40940000D01*
X73600000Y-40940000D02*
X74140000Y-41390000D01*
X74140000Y-41390000D02*
X74700000Y-41910000D01*
X74700000Y-41910000D02*
X75430000Y-42210000D01*
X75430000Y-42210000D02*
X76490000Y-42350000D01*
X76490000Y-42350000D02*
X77580000Y-42340000D01*
X68075000Y-41890000D02*
X69100000Y-41850000D01*
X69100000Y-41850000D02*
X69890000Y-41850000D01*
X69890000Y-41850000D02*
X70730000Y-41890000D01*
X70730000Y-41890000D02*
X71110000Y-41720000D01*
X71110000Y-41720000D02*
X71400000Y-41480000D01*
X71400000Y-41480000D02*
X71460000Y-41300000D01*
X71460000Y-41300000D02*
X71620000Y-40630000D01*
%TO.N,CARD_VDD*%
X99785000Y-30890000D02*
X101550000Y-30910000D01*
X101550000Y-30910000D02*
X102530000Y-30970000D01*
X102530000Y-30970000D02*
X103160000Y-31310000D01*
X103160000Y-31310000D02*
X103830000Y-32040000D01*
X103830000Y-32040000D02*
X104350000Y-32880000D01*
X104350000Y-32880000D02*
X104600000Y-34050000D01*
X104600000Y-34050000D02*
X104610000Y-36230000D01*
X109430000Y-35800000D02*
X107080000Y-35800000D01*
X107080000Y-35800000D02*
X106520000Y-35860000D01*
X106520000Y-35860000D02*
X105990000Y-36060000D01*
X105990000Y-36060000D02*
X105600000Y-36170000D01*
X105600000Y-36170000D02*
X104610000Y-36230000D01*
X107390000Y-26790000D02*
X108700000Y-28990000D01*
X108700000Y-28990000D02*
X109520000Y-29910000D01*
X109520000Y-29910000D02*
X110770000Y-30440000D01*
X112420000Y-31490000D02*
X112850000Y-33240000D01*
X112850000Y-33240000D02*
X111960000Y-34560000D01*
X111960000Y-34560000D02*
X110940000Y-35620000D01*
X110940000Y-35620000D02*
X109430000Y-35800000D01*
X110770000Y-30440000D02*
X111790000Y-30910000D01*
X111790000Y-30910000D02*
X112420000Y-31490000D01*
%TO.N,MISO*%
X84630000Y-44590000D02*
X84680000Y-45920000D01*
X84680000Y-45920000D02*
X84740000Y-47120000D01*
X84740000Y-47120000D02*
X84710000Y-48170000D01*
X84710000Y-48170000D02*
X84390000Y-48730000D01*
X84390000Y-48730000D02*
X83610000Y-49490000D01*
X83610000Y-49490000D02*
X82240000Y-49900000D01*
X82240000Y-49900000D02*
X69900000Y-49880000D01*
X69900000Y-49880000D02*
X66760000Y-49590000D01*
X66760000Y-49590000D02*
X65280000Y-49070000D01*
X65280000Y-49070000D02*
X64160000Y-47990000D01*
X51375000Y-37790000D02*
X53050000Y-37810000D01*
X53050000Y-37810000D02*
X53450000Y-37920000D01*
X53450000Y-37920000D02*
X53770000Y-38270000D01*
X53770000Y-38270000D02*
X53900000Y-39090000D01*
X53900000Y-39090000D02*
X53910000Y-41940000D01*
X53910000Y-41940000D02*
X54010000Y-42510000D01*
X54010000Y-42510000D02*
X54250000Y-43070000D01*
X54250000Y-43070000D02*
X54470000Y-43440000D01*
X54470000Y-43440000D02*
X54640000Y-43720001D01*
X54640000Y-43720001D02*
X54950000Y-43910000D01*
X54950000Y-43910000D02*
X55350000Y-43980000D01*
X55350000Y-43980000D02*
X58400000Y-43970000D01*
X58400000Y-43970000D02*
X60920000Y-43920000D01*
X60920000Y-43920000D02*
X61620000Y-44080000D01*
X61620000Y-44080000D02*
X62050000Y-44350000D01*
X62050000Y-44350000D02*
X62820000Y-45270000D01*
X62820000Y-45270000D02*
X63230000Y-46040000D01*
X63230000Y-46040000D02*
X63600000Y-47020000D01*
X63600000Y-47020000D02*
X63840000Y-47480000D01*
X63840000Y-47480000D02*
X64160000Y-47990000D01*
%TO.N,+5V*%
X56425000Y-37790000D02*
X58220000Y-37790000D01*
X58220000Y-37790000D02*
X61050000Y-37140000D01*
X61050000Y-37140000D02*
X61810000Y-37060000D01*
X61810000Y-37060000D02*
X62550000Y-37050000D01*
X62550000Y-37050000D02*
X62850000Y-36840000D01*
X62850000Y-36840000D02*
X62930000Y-35700000D01*
X62930000Y-35700000D02*
X62560000Y-35190000D01*
X62560000Y-35190000D02*
X61810000Y-35160000D01*
X61770000Y-32900000D02*
X61810000Y-35160000D01*
X61580000Y-31580000D02*
X61770000Y-32900000D01*
X60770000Y-30610000D02*
X61580000Y-31580000D01*
X59730000Y-30000000D02*
X60770000Y-30610000D01*
X50980000Y-29850000D02*
X52060000Y-29910000D01*
X49660000Y-29740000D02*
X50980000Y-29850000D01*
X49390000Y-29530000D02*
X49660000Y-29740000D01*
X93260000Y-24310000D02*
X92900000Y-23800000D01*
X94180000Y-28130000D02*
X93730000Y-27190000D01*
X92900000Y-23800000D02*
X92340000Y-23692858D01*
X96475000Y-28350000D02*
X94870000Y-28350000D01*
X54875000Y-23870000D02*
X53230000Y-24460000D01*
X93630000Y-26200000D02*
X93260000Y-24310000D01*
X94870000Y-28350000D02*
X94180000Y-28130000D01*
X52060000Y-29910000D02*
X58280000Y-29860000D01*
X70290000Y-23640000D02*
X54875000Y-23870000D01*
X53230000Y-24460000D02*
X49450000Y-26760000D01*
X58280000Y-29860000D02*
X59730000Y-30000000D01*
X49450000Y-26760000D02*
X49000000Y-27480000D01*
X49000000Y-27480000D02*
X48870000Y-28310000D01*
X48870000Y-28310000D02*
X49000000Y-28870000D01*
X93730000Y-27190000D02*
X93630000Y-26200000D01*
X49000000Y-28870000D02*
X49390000Y-29530000D01*
X70290000Y-23640000D02*
X92340000Y-23692858D01*
%TO.N,SCK*%
X51375000Y-40330000D02*
X52920000Y-40330000D01*
X52920000Y-40330000D02*
X53260000Y-40430000D01*
X53260000Y-40430000D02*
X53390000Y-40770000D01*
X53390000Y-40770000D02*
X53370000Y-41960000D01*
X53370000Y-41960000D02*
X53480000Y-42460000D01*
X53480000Y-42460000D02*
X53590000Y-42920000D01*
X53590000Y-42920000D02*
X53860000Y-43440000D01*
X53860000Y-43440000D02*
X54278032Y-44087267D01*
X54278032Y-44087267D02*
X54670000Y-44400000D01*
X54670000Y-44400000D02*
X55410000Y-44500000D01*
X55410000Y-44500000D02*
X60600000Y-44480000D01*
X60600000Y-44480000D02*
X61070000Y-44570000D01*
X61070000Y-44570000D02*
X61750000Y-44980000D01*
X61750000Y-44980000D02*
X62240000Y-45610000D01*
X62240000Y-45610000D02*
X62640000Y-46380000D01*
X62640000Y-46380000D02*
X62950000Y-47060000D01*
X62950000Y-47060000D02*
X63420000Y-47980000D01*
X63420000Y-47980000D02*
X63830000Y-48580000D01*
X63830000Y-48580000D02*
X64950000Y-49590000D01*
X64950000Y-49590000D02*
X66580000Y-50080000D01*
X66580000Y-50080000D02*
X69760000Y-50430000D01*
X69760000Y-50430000D02*
X74240000Y-50490000D01*
X74240000Y-50490000D02*
X81510000Y-50570000D01*
X81510000Y-50570000D02*
X82800000Y-50470000D01*
X82800000Y-50470000D02*
X84590000Y-49700000D01*
X84590000Y-49700000D02*
X86220000Y-48540000D01*
X86220000Y-48540000D02*
X87220000Y-47410000D01*
X87220000Y-47410000D02*
X87680000Y-46400000D01*
X87680000Y-46400000D02*
X87820000Y-45160000D01*
X87820000Y-45160000D02*
X87840000Y-44240000D01*
X87840000Y-44240000D02*
X87820000Y-43510000D01*
X87820000Y-43510000D02*
X87640000Y-43300000D01*
X87640000Y-43300000D02*
X87250000Y-43160000D01*
X87250000Y-43160000D02*
X86080000Y-43140000D01*
%TO.N,MOSI*%
X56425000Y-40330000D02*
X59090000Y-40300000D01*
X59090000Y-40300000D02*
X60060000Y-40410000D01*
X60060000Y-40410000D02*
X60810000Y-40680000D01*
X60810000Y-40680000D02*
X61480000Y-41140000D01*
X61480000Y-41140000D02*
X62400000Y-41940000D01*
X62400000Y-41940000D02*
X63170000Y-42950000D01*
X63170000Y-42950000D02*
X63540000Y-43810000D01*
X63540000Y-43810000D02*
X63830000Y-45230000D01*
X63830000Y-45230000D02*
X63980000Y-46240000D01*
X63980000Y-46240000D02*
X64240000Y-46990000D01*
X64240000Y-46990000D02*
X64760000Y-47690000D01*
X64760000Y-47690000D02*
X65370000Y-48220000D01*
X65370000Y-48220000D02*
X66610000Y-48800000D01*
X66610000Y-48800000D02*
X68100000Y-49030000D01*
X68100000Y-49030000D02*
X70100000Y-49250000D01*
X70100000Y-49250000D02*
X78610000Y-49220000D01*
X78610000Y-49220000D02*
X82200000Y-49250000D01*
X82200000Y-49250000D02*
X83380000Y-48850000D01*
X83380000Y-48850000D02*
X84030000Y-48000000D01*
X84030000Y-48000000D02*
X84140000Y-47170000D01*
X84140000Y-47170000D02*
X84030000Y-46340000D01*
X84030000Y-46340000D02*
X83890000Y-45760000D01*
X83890000Y-45760000D02*
X83830000Y-44590000D01*
%TO.N,PCS*%
X84330000Y-29245000D02*
X84330000Y-30440000D01*
X84330000Y-30440000D02*
X84140000Y-30730000D01*
X84140000Y-30730000D02*
X80980000Y-32070000D01*
X80980000Y-32070000D02*
X79280000Y-33340000D01*
X79280000Y-33340000D02*
X76790000Y-35470000D01*
X76790000Y-35470000D02*
X75890000Y-36360000D01*
X75890000Y-36360000D02*
X75690000Y-36900000D01*
X75690000Y-36900000D02*
X75700000Y-37490000D01*
X75700000Y-37490000D02*
X75780000Y-37980000D01*
X75780000Y-37980000D02*
X76050000Y-38220000D01*
X76050000Y-38220000D02*
X76580000Y-38320000D01*
X76580000Y-38320000D02*
X77580000Y-38340000D01*
%TO.N,PCLK*%
X77500000Y-47080000D02*
X71980000Y-47650000D01*
X71980000Y-47650000D02*
X70750000Y-47650000D01*
X70750000Y-47650000D02*
X68320000Y-46710000D01*
X68320000Y-46710000D02*
X66560000Y-45130000D01*
X66560000Y-45130000D02*
X65620000Y-43150000D01*
X65620000Y-43150000D02*
X65430000Y-41580000D01*
X65430000Y-41580000D02*
X65450000Y-40050000D01*
X65450000Y-40050000D02*
X65960000Y-39130000D01*
X65960000Y-39130000D02*
X67830000Y-37090000D01*
X80590000Y-30810000D02*
X81230000Y-30190000D01*
X81230000Y-30190000D02*
X81760000Y-28210000D01*
X81760000Y-28210000D02*
X81790000Y-25935000D01*
X80590000Y-30810000D02*
X79440000Y-31090000D01*
X79440000Y-31090000D02*
X74760000Y-31550000D01*
X74760000Y-31550000D02*
X74140000Y-31790000D01*
X74140000Y-31790000D02*
X67830000Y-37090000D01*
X79030000Y-44590000D02*
X79030000Y-45630000D01*
X79030000Y-45630000D02*
X78950000Y-46010000D01*
X78950000Y-46010000D02*
X78700000Y-46340000D01*
X78700000Y-46340000D02*
X78380000Y-46630000D01*
X77500000Y-47080000D02*
X77920000Y-46950000D01*
X77920000Y-46950000D02*
X78380000Y-46630000D01*
%TO.N,PDI*%
X79250000Y-29245000D02*
X78120000Y-29220000D01*
X78120000Y-29220000D02*
X77340000Y-29580000D01*
X77340000Y-29580000D02*
X76130000Y-30380000D01*
X76130000Y-30380000D02*
X74460000Y-31070000D01*
X74460000Y-31070000D02*
X73760000Y-31350000D01*
X73760000Y-31350000D02*
X70280000Y-34180000D01*
X70280000Y-34180000D02*
X67140000Y-36840000D01*
X67140000Y-36840000D02*
X65560000Y-38630000D01*
X65560000Y-38630000D02*
X64850000Y-39850000D01*
X64850000Y-39850000D02*
X64810000Y-41690000D01*
X64810000Y-41690000D02*
X65090000Y-43470000D01*
X65090000Y-43470000D02*
X66140000Y-45530000D01*
X66140000Y-45530000D02*
X68050000Y-47280000D01*
X68050000Y-47280000D02*
X70550000Y-48160000D01*
X70550000Y-48160000D02*
X72010000Y-48220000D01*
X72010000Y-48220000D02*
X76990000Y-47730000D01*
X76990000Y-47730000D02*
X77850000Y-47550000D01*
X77850000Y-47550000D02*
X78730000Y-47140000D01*
X78730000Y-47140000D02*
X79260000Y-46690000D01*
X79260000Y-46690000D02*
X79600000Y-46220000D01*
X79600000Y-46220000D02*
X79770000Y-45780000D01*
X79770000Y-45780000D02*
X79830000Y-44590000D01*
%TO.N,PPWRCTRL*%
X68840000Y-30270000D02*
X68300000Y-27110000D01*
X80630000Y-44590000D02*
X80680000Y-45550000D01*
X80680000Y-45550000D02*
X80510000Y-46260000D01*
X80510000Y-46260000D02*
X80090000Y-46910000D01*
X80090000Y-46910000D02*
X79410000Y-47560000D01*
X79410000Y-47560000D02*
X78410000Y-48000000D01*
X78410000Y-48000000D02*
X77490000Y-48330000D01*
X77490000Y-48330000D02*
X76110000Y-48520000D01*
X76110000Y-48520000D02*
X72440000Y-48730000D01*
X72440000Y-48730000D02*
X70710000Y-48730000D01*
X70710000Y-48730000D02*
X70060000Y-48630000D01*
X70060000Y-48630000D02*
X68160000Y-47960000D01*
X68160000Y-47960000D02*
X67460000Y-47550000D01*
X67460000Y-47550000D02*
X65840000Y-46320000D01*
X65840000Y-46320000D02*
X65330000Y-45570000D01*
X65330000Y-45570000D02*
X64580000Y-43970000D01*
X64580000Y-43970000D02*
X64290000Y-43080000D01*
X64290000Y-43080000D02*
X63940000Y-40400000D01*
X63940000Y-40400000D02*
X64100000Y-39480000D01*
X64100000Y-39480000D02*
X64460000Y-38700000D01*
X64460000Y-38700000D02*
X65240000Y-37960000D01*
X65240000Y-37960000D02*
X65510000Y-37430000D01*
X65510000Y-37430000D02*
X66670000Y-34980000D01*
X66670000Y-34980000D02*
X66870000Y-33430000D01*
X66870000Y-33430000D02*
X67060000Y-31880000D01*
X67060000Y-31880000D02*
X67300000Y-31400000D01*
X67300000Y-31400000D02*
X67880000Y-31030000D01*
X67880000Y-31030000D02*
X68840000Y-30270000D01*
%TO.N,CARD_DET*%
X102240000Y-46670000D02*
X103300000Y-45800000D01*
X103300000Y-45800000D02*
X105370000Y-43670000D01*
X105370000Y-43670000D02*
X106380000Y-42880000D01*
X106380000Y-42880000D02*
X107740000Y-41880000D01*
X107740000Y-41880000D02*
X108310000Y-41580000D01*
X108310000Y-41580000D02*
X109430000Y-41300000D01*
X102240000Y-46670000D02*
X101120000Y-47000000D01*
X101120000Y-47000000D02*
X98590000Y-47000000D01*
X98590000Y-47000000D02*
X98380000Y-46980001D01*
X95040000Y-45640000D02*
X94260000Y-45170000D01*
X94260000Y-45170000D02*
X93170000Y-44100000D01*
X93170000Y-44100000D02*
X92210000Y-42940000D01*
X92210000Y-42940000D02*
X91080000Y-40980000D01*
X91080000Y-40980000D02*
X90480000Y-39990000D01*
X90480000Y-39990000D02*
X89750000Y-39480000D01*
X86080000Y-39140000D02*
X86150000Y-39080000D01*
X86080000Y-39140000D02*
X88520000Y-39210000D01*
X88520000Y-39210000D02*
X89140000Y-39290000D01*
X89140000Y-39290000D02*
X89750000Y-39480000D01*
X97820000Y-46740000D02*
X95040000Y-45640000D01*
X98380000Y-46980001D02*
X98240000Y-46860000D01*
X98240000Y-46860000D02*
X97820000Y-46740000D01*
%TO.N,CARDPWR*%
X86080000Y-41540000D02*
X87200000Y-41530000D01*
X87200000Y-41530000D02*
X87570000Y-41610000D01*
X87570000Y-41610000D02*
X88270000Y-41870000D01*
X88270000Y-41870000D02*
X88770000Y-42210000D01*
X88770000Y-42210000D02*
X89160000Y-42560000D01*
X89160000Y-42560000D02*
X89320000Y-42640000D01*
D23*
X89320000Y-42640000D02*
X89510000Y-42660000D01*
X89510000Y-42660000D02*
X90600000Y-42670000D01*
D22*
X90600000Y-42670000D02*
X91170000Y-42860000D01*
X91170000Y-42860000D02*
X92050000Y-43840000D01*
X92050000Y-43840000D02*
X93660000Y-45550000D01*
X93660000Y-45550000D02*
X95780000Y-46860000D01*
X100830000Y-47520000D02*
X101640000Y-47500000D01*
X101640000Y-47500000D02*
X102900000Y-47200000D01*
X102900000Y-47200000D02*
X104450000Y-46590000D01*
X104450000Y-46590000D02*
X105220000Y-46480000D01*
X105220000Y-46480000D02*
X106070000Y-46552500D01*
X95780000Y-46860000D02*
X97667322Y-47217316D01*
X97667322Y-47217316D02*
X97959996Y-47300017D01*
X97959996Y-47300017D02*
X98123775Y-47418931D01*
X98123775Y-47418931D02*
X98300000Y-47490000D01*
X98300000Y-47490000D02*
X98620000Y-47510000D01*
X98620000Y-47510000D02*
X100830000Y-47520000D01*
X103450000Y-25952500D02*
X105390000Y-25840000D01*
X110210000Y-29400000D02*
X111700000Y-29700000D01*
X107884903Y-25765097D02*
X108420000Y-26200000D01*
X105390000Y-25840000D02*
X107884903Y-25765097D01*
X108420000Y-26200000D02*
X108630000Y-27270000D01*
X108630000Y-27270000D02*
X109210000Y-28670000D01*
X109210000Y-28670000D02*
X109580000Y-29170000D01*
X109580000Y-29170000D02*
X110210000Y-29400000D01*
X111700000Y-29700000D02*
X112750000Y-30340000D01*
X112750000Y-30340000D02*
X113350000Y-31520000D01*
X113350000Y-31520000D02*
X113850000Y-33730000D01*
X113850000Y-33730000D02*
X114180000Y-36890000D01*
X114180000Y-36890000D02*
X114150000Y-41940000D01*
X114150000Y-41940000D02*
X113820000Y-44120000D01*
X113820000Y-44120000D02*
X113090000Y-45640000D01*
X113090000Y-45640000D02*
X111900000Y-46600000D01*
X111900000Y-46600000D02*
X110290000Y-46830000D01*
X110290000Y-46830000D02*
X108740000Y-46800000D01*
X108740000Y-46800000D02*
X106070000Y-46552500D01*
%TO.N,CARDDAT0_DO*%
X86080000Y-38340000D02*
X88390000Y-38300000D01*
X88390000Y-38300000D02*
X89990000Y-38520000D01*
X89990000Y-38520000D02*
X91270000Y-39350000D01*
X91270000Y-39350000D02*
X91940000Y-40630000D01*
X91940000Y-40630000D02*
X92490000Y-41970000D01*
X92490000Y-41970000D02*
X93160000Y-43090000D01*
X93160000Y-43090000D02*
X94480000Y-44160000D01*
X94480000Y-44160000D02*
X95150000Y-44650000D01*
X95150000Y-44650000D02*
X96820000Y-45480000D01*
X96820000Y-45480000D02*
X98010000Y-45950000D01*
X98010000Y-45950000D02*
X98480000Y-46150000D01*
X98480000Y-46150000D02*
X99785000Y-46130000D01*
X109430000Y-39100000D02*
X107990000Y-39140000D01*
X101300000Y-45890000D02*
X99785000Y-46130000D01*
X102120000Y-45280000D02*
X101300000Y-45890000D01*
X103570000Y-43830000D02*
X102120000Y-45280000D01*
X104610000Y-42950000D02*
X103570000Y-43830000D01*
X106200000Y-41740000D02*
X105400000Y-42350000D01*
X105400000Y-42350000D02*
X104610000Y-42950000D01*
%TO.N,CARDDAT1*%
X96475000Y-43590000D02*
X98790000Y-43610000D01*
X98790000Y-43610000D02*
X99890000Y-43360000D01*
X99890000Y-43360000D02*
X101670000Y-42690000D01*
X101670000Y-42690000D02*
X104290000Y-41430000D01*
X104290000Y-41430000D02*
X105730000Y-40910000D01*
X105730000Y-40910000D02*
X107420000Y-40380000D01*
X107420000Y-40380000D02*
X109430000Y-40200000D01*
X96475000Y-43590000D02*
X94500000Y-43370000D01*
X94500000Y-43370000D02*
X93810000Y-42920000D01*
X93810000Y-42920000D02*
X92920000Y-41360000D01*
X92920000Y-41360000D02*
X92250000Y-39410000D01*
X92250000Y-39410000D02*
X91600000Y-38380000D01*
X91600000Y-38380000D02*
X91110000Y-38070000D01*
X91110000Y-38070000D02*
X89300000Y-37460000D01*
X89300000Y-37460000D02*
X88290000Y-37380000D01*
X88290000Y-37380000D02*
X86080000Y-37540000D01*
%TO.N,D2*%
X84630000Y-36090000D02*
X84640000Y-35430000D01*
X84640000Y-35430000D02*
X84700000Y-35230000D01*
X84700000Y-35230000D02*
X84860000Y-35110000D01*
X84860000Y-35110000D02*
X85710000Y-34880000D01*
X85710000Y-34880000D02*
X86470000Y-34820000D01*
X86470000Y-34820000D02*
X87500000Y-35100000D01*
X87500000Y-35100000D02*
X89140000Y-35730000D01*
X89140000Y-35730000D02*
X91760000Y-37210000D01*
X91760000Y-37210000D02*
X93030000Y-38450000D01*
X93030000Y-38450000D02*
X94980000Y-40330000D01*
X94980000Y-40330000D02*
X96820000Y-40850000D01*
X96820000Y-40850000D02*
X99785000Y-41050000D01*
X99785000Y-41050000D02*
X100740000Y-41050000D01*
X100740000Y-41050000D02*
X102550000Y-40970000D01*
X102550000Y-40970000D02*
X103690000Y-40500000D01*
X103690000Y-40500000D02*
X104700000Y-39810000D01*
X111240000Y-32420000D02*
X109430000Y-32500000D01*
%TO.N,D3CS*%
X83830000Y-36090000D02*
X83840000Y-35190000D01*
X83840000Y-35190000D02*
X83910000Y-35000000D01*
X83910000Y-35000000D02*
X84240000Y-34770000D01*
X84240000Y-34770000D02*
X85500000Y-34370000D01*
X85500000Y-34370000D02*
X86390000Y-34210000D01*
X86390000Y-34210000D02*
X87730000Y-34340000D01*
X87730000Y-34340000D02*
X88840000Y-34830000D01*
X88840000Y-34830000D02*
X91200000Y-36070000D01*
X91200000Y-36070000D02*
X93560000Y-37780000D01*
X93560000Y-37780000D02*
X95200000Y-38450000D01*
X95200000Y-38450000D02*
X96475000Y-38510000D01*
X96475000Y-38510000D02*
X98570000Y-38530000D01*
X98570000Y-38530000D02*
X100320000Y-38390000D01*
X100320000Y-38390000D02*
X101560000Y-37820000D01*
X106430000Y-33660000D02*
X109430000Y-33600000D01*
%TO.N,CARDCLK*%
X99785000Y-35970000D02*
X94160000Y-35890000D01*
X86550000Y-33590000D02*
X85670000Y-33690000D01*
X85670000Y-33690000D02*
X84120000Y-34240000D01*
X84120000Y-34240000D02*
X83320000Y-34620000D01*
X83320000Y-34620000D02*
X83130000Y-34870000D01*
X83130000Y-34870000D02*
X83030000Y-36090000D01*
X99785000Y-35970000D02*
X101490000Y-36050000D01*
X101490000Y-36050000D02*
X102310000Y-36450000D01*
X102310000Y-36450000D02*
X103610000Y-37000000D01*
X109430000Y-36900000D02*
X107490000Y-36880000D01*
X107490000Y-36880000D02*
X106060000Y-36960000D01*
X106060000Y-36960000D02*
X105490000Y-37010000D01*
D23*
X103610000Y-37000000D02*
X104230000Y-37010000D01*
X104230000Y-37010000D02*
X105490000Y-37010000D01*
D22*
X86550000Y-33590000D02*
X87380000Y-33570000D01*
X87380000Y-33570000D02*
X88360000Y-33730000D01*
X88360000Y-33730000D02*
X89080000Y-34100000D01*
X89080000Y-34100000D02*
X90070000Y-34720000D01*
X90070000Y-34720000D02*
X90890000Y-35150000D01*
X90890000Y-35150000D02*
X92510000Y-35760000D01*
X92510000Y-35760000D02*
X94160000Y-35890000D01*
%TO.N,CMDDI*%
X82230000Y-36090000D02*
X82280000Y-34880000D01*
X82280000Y-34880000D02*
X82480000Y-34480000D01*
X82480000Y-34480000D02*
X83190000Y-34040000D01*
X83190000Y-34040000D02*
X84730000Y-33450000D01*
X84730000Y-33450000D02*
X86010000Y-33040000D01*
X86010000Y-33040000D02*
X87450000Y-32880000D01*
X87450000Y-32880000D02*
X88730000Y-33090000D01*
X109430000Y-34700000D02*
X106920000Y-34820000D01*
X106920000Y-34820000D02*
X105900000Y-34720000D01*
X105900000Y-34720000D02*
X105620000Y-34490000D01*
X105620000Y-34490000D02*
X105290000Y-33600000D01*
X105290000Y-33600000D02*
X104950000Y-31900000D01*
X104950000Y-31900000D02*
X104520000Y-31050000D01*
X104520000Y-31050000D02*
X103950000Y-30350000D01*
X103950000Y-30350000D02*
X103240000Y-29950000D01*
X103240000Y-29950000D02*
X101960000Y-29600000D01*
X101960000Y-29600000D02*
X99000000Y-29640000D01*
X99000000Y-29640000D02*
X97900000Y-29950000D01*
X97900000Y-29950000D02*
X97090000Y-30290000D01*
X97090000Y-30290000D02*
X96790000Y-30980000D01*
X96790000Y-30980000D02*
X96580000Y-32530000D01*
X96580000Y-32530000D02*
X96475000Y-33430000D01*
X88730000Y-33090000D02*
X89350000Y-33370000D01*
X89350000Y-33370000D02*
X89800000Y-33780000D01*
X89800000Y-33780000D02*
X90840000Y-34470000D01*
X90840000Y-34470000D02*
X91320000Y-34580000D01*
X91320000Y-34580000D02*
X93710000Y-34600000D01*
X93710000Y-34600000D02*
X94190000Y-34460000D01*
X94190000Y-34460000D02*
X94380000Y-34170000D01*
X94380000Y-34170000D02*
X94510000Y-33840000D01*
X94510000Y-33840000D02*
X94660000Y-33650000D01*
X94660000Y-33650000D02*
X95037846Y-33417846D01*
X95037846Y-33417846D02*
X96475000Y-33430000D01*
%TO.N,P_BUSY*%
X91950000Y-25935000D02*
X90840000Y-28650000D01*
X90840000Y-28650000D02*
X90430000Y-29810000D01*
X90430000Y-29810000D02*
X90320000Y-30710000D01*
X79830000Y-36090000D02*
X79900000Y-35140000D01*
X79900000Y-35140000D02*
X80020000Y-34840000D01*
X80020000Y-34840000D02*
X81500000Y-33680000D01*
X81500000Y-33680000D02*
X83290000Y-32820000D01*
X83290000Y-32820000D02*
X85770000Y-31870000D01*
X85770000Y-31870000D02*
X88850000Y-31490000D01*
X88850000Y-31490000D02*
X89540000Y-31300000D01*
X89540000Y-31300000D02*
X89990000Y-31110000D01*
X89990000Y-31110000D02*
X90320000Y-30710000D01*
%TO.N,PRST*%
X89410000Y-29245000D02*
X89410000Y-30600000D01*
X89410000Y-30600000D02*
X89230000Y-30850000D01*
X89230000Y-30850000D02*
X87920000Y-31090000D01*
X87920000Y-31090000D02*
X86050000Y-31250000D01*
X86050000Y-31250000D02*
X85540000Y-31360000D01*
X85540000Y-31360000D02*
X82370000Y-32600000D01*
X82370000Y-32600000D02*
X81140000Y-33270000D01*
X81140000Y-33270000D02*
X79430000Y-34590000D01*
X79430000Y-34590000D02*
X79100000Y-35010000D01*
X79100000Y-35010000D02*
X79030000Y-36090000D01*
%TO.N,PDC*%
X85690000Y-30410000D02*
X86610000Y-28050000D01*
X86610000Y-28050000D02*
X86860000Y-27340000D01*
X86860000Y-27340000D02*
X86870000Y-25935000D01*
X77580000Y-37540000D02*
X76740000Y-37540000D01*
X76740000Y-37540000D02*
X76500000Y-37460000D01*
X76500000Y-37460000D02*
X76430000Y-37140000D01*
X76430000Y-37140000D02*
X76620000Y-36470000D01*
X76620000Y-36470000D02*
X78880000Y-34370000D01*
X78880000Y-34370000D02*
X80450000Y-33150000D01*
X80450000Y-33150000D02*
X80970000Y-32760000D01*
X80970000Y-32760000D02*
X82212577Y-32116374D01*
X82212577Y-32116374D02*
X85080000Y-30940000D01*
X85080000Y-30940000D02*
X85360000Y-30730000D01*
X85360000Y-30730000D02*
X85690000Y-30410000D01*
%TO.N,PPWR*%
X67890000Y-32270000D02*
X68660000Y-32290000D01*
X68660000Y-32290000D02*
X69290000Y-32250000D01*
X69290000Y-32250000D02*
X69850000Y-31800000D01*
X69850000Y-31800000D02*
X70200000Y-31310000D01*
X70200000Y-31310000D02*
X70850000Y-30500000D01*
X70850000Y-30500000D02*
X71640000Y-29740000D01*
X71640000Y-29740000D02*
X72090000Y-29570000D01*
X72090000Y-29570000D02*
X73060000Y-29390000D01*
X73060000Y-29390000D02*
X74170000Y-29245000D01*
%TO.N,RX*%
X87000000Y-32350000D02*
X85900000Y-32540000D01*
X85900000Y-32540000D02*
X84790000Y-32880000D01*
X84790000Y-32880000D02*
X82950000Y-33550000D01*
X82950000Y-33550000D02*
X81170000Y-34680000D01*
X81170000Y-34680000D02*
X80720000Y-35050000D01*
X80720000Y-35050000D02*
X80630000Y-36090000D01*
X87000000Y-32350000D02*
X88080000Y-32260000D01*
X88080000Y-32260000D02*
X89250000Y-32330000D01*
X89250000Y-32330000D02*
X89980000Y-32550000D01*
X89980000Y-32550000D02*
X90710000Y-32790000D01*
X90710000Y-32790000D02*
X91080000Y-32870000D01*
X91080000Y-32870000D02*
X92510000Y-32840000D01*
%TO.N,PE0*%
X76020000Y-32830000D02*
X75240000Y-35860000D01*
X75240000Y-35860000D02*
X75180000Y-36770000D01*
X75180000Y-36770000D02*
X75170000Y-37710000D01*
X75170000Y-37710000D02*
X75320000Y-38390000D01*
X75320000Y-38390000D02*
X75700000Y-38780000D01*
X75700000Y-38780000D02*
X76520000Y-39120000D01*
X76520000Y-39120000D02*
X77580000Y-39140000D01*
%TO.N,PE1*%
X77580000Y-41540000D02*
X79005000Y-41650000D01*
X79005000Y-41650000D02*
X79640000Y-42285000D01*
X76320000Y-45480000D02*
X74670000Y-45430000D01*
%TD*%
D24*
%TO.N,GND*%
G36*
X52124774Y-23288102D02*
G01*
X52085000Y-23488061D01*
X52085000Y-23691939D01*
X52124774Y-23891898D01*
X52202795Y-24080256D01*
X52243586Y-24141303D01*
X49050425Y-26084232D01*
X48992004Y-26117785D01*
X48955318Y-26149810D01*
X48916396Y-26179081D01*
X48897204Y-26200542D01*
X48875514Y-26219476D01*
X48845780Y-26258044D01*
X48813317Y-26294344D01*
X48779063Y-26352366D01*
X48352565Y-27034762D01*
X48326734Y-27069009D01*
X48294903Y-27134924D01*
X48262394Y-27200468D01*
X48261305Y-27204496D01*
X48259490Y-27208254D01*
X48241136Y-27279087D01*
X48222033Y-27349738D01*
X48219130Y-27392534D01*
X48100985Y-28146843D01*
X48091864Y-28180752D01*
X48089051Y-28223035D01*
X48088489Y-28226626D01*
X48086489Y-28261557D01*
X48081601Y-28335042D01*
X48082074Y-28338665D01*
X48081865Y-28342320D01*
X48092088Y-28415304D01*
X48096614Y-28449949D01*
X48097436Y-28453490D01*
X48103314Y-28495456D01*
X48114875Y-28528612D01*
X48218844Y-28976477D01*
X48219032Y-28980859D01*
X48236302Y-29051681D01*
X48244054Y-29085073D01*
X48245454Y-29089210D01*
X48255666Y-29131088D01*
X48270174Y-29162265D01*
X48281197Y-29194843D01*
X48302713Y-29232194D01*
X48304556Y-29236154D01*
X48322004Y-29265682D01*
X48358383Y-29328833D01*
X48361270Y-29332131D01*
X48691221Y-29890511D01*
X48704315Y-29919919D01*
X48730455Y-29956905D01*
X48733790Y-29962550D01*
X48752729Y-29988422D01*
X48793560Y-30046197D01*
X48798341Y-30050734D01*
X48802239Y-30056059D01*
X48854381Y-30103915D01*
X48877619Y-30125967D01*
X48882794Y-30129992D01*
X48916162Y-30160617D01*
X48943669Y-30177339D01*
X49049553Y-30259693D01*
X48995498Y-30360820D01*
X48959188Y-30480518D01*
X48946928Y-30605000D01*
X48950000Y-30944250D01*
X49108750Y-31103000D01*
X50333000Y-31103000D01*
X50333000Y-31083000D01*
X50587000Y-31083000D01*
X50587000Y-31103000D01*
X51811250Y-31103000D01*
X51970000Y-30944250D01*
X51972290Y-30691337D01*
X52002905Y-30693038D01*
X52027751Y-30695284D01*
X52041360Y-30695175D01*
X52054957Y-30695930D01*
X52079896Y-30694865D01*
X56222811Y-30661562D01*
X56225000Y-30814250D01*
X56383750Y-30973000D01*
X57988000Y-30973000D01*
X57988000Y-30953000D01*
X58242000Y-30953000D01*
X58242000Y-30973000D01*
X59837295Y-30973000D01*
X60255014Y-31218009D01*
X60834732Y-31912239D01*
X60985995Y-32963113D01*
X61008946Y-34259863D01*
X60925506Y-34304463D01*
X60828815Y-34383815D01*
X60749463Y-34480506D01*
X60690498Y-34590820D01*
X60654188Y-34710518D01*
X60641928Y-34835000D01*
X60641928Y-35485000D01*
X60654188Y-35609482D01*
X60661929Y-35635000D01*
X60654188Y-35660518D01*
X60641928Y-35785000D01*
X60645000Y-35824250D01*
X60803750Y-35983000D01*
X60885859Y-35983000D01*
X60925506Y-36015537D01*
X61035820Y-36074502D01*
X61152841Y-36110000D01*
X61035820Y-36145498D01*
X60925506Y-36204463D01*
X60885859Y-36237000D01*
X60803750Y-36237000D01*
X60645000Y-36395750D01*
X60642463Y-36428165D01*
X58515159Y-36916768D01*
X58451185Y-36838815D01*
X58354494Y-36759463D01*
X58244180Y-36700498D01*
X58124482Y-36664188D01*
X58000000Y-36651928D01*
X54850000Y-36651928D01*
X54725518Y-36664188D01*
X54605820Y-36700498D01*
X54495506Y-36759463D01*
X54398815Y-36838815D01*
X54319463Y-36935506D01*
X54260498Y-37045820D01*
X54224188Y-37165518D01*
X54211928Y-37290000D01*
X54211928Y-37589999D01*
X54062622Y-37426696D01*
X54046452Y-37403815D01*
X54010561Y-37369754D01*
X54003332Y-37361848D01*
X53982617Y-37343236D01*
X53934288Y-37297372D01*
X53925162Y-37291614D01*
X53917131Y-37284398D01*
X53859831Y-37250391D01*
X53803514Y-37214856D01*
X53793440Y-37210989D01*
X53784155Y-37205478D01*
X53721319Y-37183302D01*
X53695328Y-37173324D01*
X53684997Y-37170483D01*
X53638338Y-37154016D01*
X53610607Y-37150026D01*
X53567518Y-37138176D01*
X53539502Y-37045820D01*
X53480537Y-36935506D01*
X53401185Y-36838815D01*
X53304494Y-36759463D01*
X53194180Y-36700498D01*
X53074482Y-36664188D01*
X52950000Y-36651928D01*
X49800000Y-36651928D01*
X49675518Y-36664188D01*
X49555820Y-36700498D01*
X49445506Y-36759463D01*
X49348815Y-36838815D01*
X49269463Y-36935506D01*
X49210498Y-37045820D01*
X49174188Y-37165518D01*
X49161928Y-37290000D01*
X49161928Y-38290000D01*
X49174188Y-38414482D01*
X49210498Y-38534180D01*
X49269463Y-38644494D01*
X49348815Y-38741185D01*
X49445506Y-38820537D01*
X49555820Y-38879502D01*
X49675518Y-38915812D01*
X49800000Y-38928072D01*
X52950000Y-38928072D01*
X53074482Y-38915812D01*
X53077439Y-38914915D01*
X53115217Y-39153209D01*
X53115440Y-39216612D01*
X53074482Y-39204188D01*
X52950000Y-39191928D01*
X49800000Y-39191928D01*
X49675518Y-39204188D01*
X49555820Y-39240498D01*
X49445506Y-39299463D01*
X49348815Y-39378815D01*
X49269463Y-39475506D01*
X49210498Y-39585820D01*
X49174188Y-39705518D01*
X49161928Y-39830000D01*
X49161928Y-40830000D01*
X49174188Y-40954482D01*
X49210498Y-41074180D01*
X49269463Y-41184494D01*
X49348815Y-41281185D01*
X49445506Y-41360537D01*
X49555820Y-41419502D01*
X49675518Y-41455812D01*
X49800000Y-41468072D01*
X52593157Y-41468072D01*
X52588722Y-41731928D01*
X49800000Y-41731928D01*
X49675518Y-41744188D01*
X49555820Y-41780498D01*
X49445506Y-41839463D01*
X49348815Y-41918815D01*
X49269463Y-42015506D01*
X49210498Y-42125820D01*
X49174188Y-42245518D01*
X49161928Y-42370000D01*
X49161928Y-43370000D01*
X49174188Y-43494482D01*
X49210498Y-43614180D01*
X49269463Y-43724494D01*
X49348815Y-43821185D01*
X49445506Y-43900537D01*
X49555820Y-43959502D01*
X49675518Y-43995812D01*
X49800000Y-44008072D01*
X50609105Y-44008072D01*
X50624344Y-44472828D01*
X50622079Y-44517172D01*
X50632460Y-44588106D01*
X50641818Y-44659156D01*
X50643647Y-44664543D01*
X50644471Y-44670174D01*
X50668490Y-44737715D01*
X50691530Y-44805578D01*
X50713732Y-44844029D01*
X50846379Y-45125905D01*
X50862575Y-45168927D01*
X50899590Y-45228443D01*
X50935520Y-45288653D01*
X50966328Y-45322777D01*
X51261371Y-45707228D01*
X51289784Y-45749837D01*
X51335609Y-45795748D01*
X51379953Y-45843086D01*
X51390152Y-45850394D01*
X51399022Y-45859280D01*
X51452932Y-45895375D01*
X51505651Y-45933147D01*
X51552308Y-45954283D01*
X51741534Y-46055655D01*
X51741865Y-46055926D01*
X51809118Y-46091860D01*
X51843298Y-46110171D01*
X51843700Y-46110338D01*
X51878249Y-46128798D01*
X51914921Y-46139916D01*
X51950318Y-46154617D01*
X51983829Y-46161315D01*
X52053829Y-46292275D01*
X52160385Y-46422115D01*
X52290225Y-46528671D01*
X52320025Y-46544599D01*
X52353050Y-46700291D01*
X52356359Y-46733886D01*
X52369053Y-46775732D01*
X52370088Y-46780612D01*
X52380245Y-46812629D01*
X52401246Y-46881859D01*
X52403614Y-46886289D01*
X52405131Y-46891071D01*
X52440022Y-46954403D01*
X52474139Y-47018232D01*
X52477324Y-47022114D01*
X52479746Y-47026509D01*
X52526359Y-47081863D01*
X52547655Y-47107812D01*
X52551175Y-47111332D01*
X52579349Y-47144789D01*
X52605720Y-47165877D01*
X53111828Y-47671986D01*
X53113072Y-47673825D01*
X53166368Y-47726525D01*
X53192187Y-47752345D01*
X53193902Y-47753752D01*
X53195473Y-47755306D01*
X53223726Y-47778228D01*
X53281767Y-47825861D01*
X53283728Y-47826909D01*
X54273392Y-48629844D01*
X54319772Y-48670617D01*
X54366752Y-48697817D01*
X54412077Y-48727735D01*
X54469284Y-48751055D01*
X56712380Y-49770645D01*
X56728603Y-49781137D01*
X56782619Y-49802571D01*
X56800269Y-49810594D01*
X56818457Y-49816792D01*
X56836316Y-49823879D01*
X56854950Y-49829229D01*
X56909958Y-49847975D01*
X56929110Y-49850520D01*
X59902681Y-50704223D01*
X59906028Y-50705908D01*
X59976819Y-50725508D01*
X60010443Y-50735161D01*
X60014124Y-50735836D01*
X60017710Y-50736829D01*
X60052002Y-50742783D01*
X60124426Y-50756067D01*
X60128179Y-50756011D01*
X64164079Y-51456805D01*
X64166063Y-51459774D01*
X64310226Y-51603937D01*
X64479744Y-51717205D01*
X64668102Y-51795226D01*
X64868061Y-51835000D01*
X65071939Y-51835000D01*
X65271898Y-51795226D01*
X65460256Y-51717205D01*
X65629774Y-51603937D01*
X65773937Y-51459774D01*
X65887205Y-51290256D01*
X65965226Y-51101898D01*
X66005000Y-50901939D01*
X66005000Y-50726849D01*
X66311825Y-50819085D01*
X66342399Y-50832161D01*
X66385679Y-50841286D01*
X66390937Y-50842867D01*
X66423403Y-50849240D01*
X66455790Y-50856069D01*
X66461249Y-50856670D01*
X66504651Y-50865190D01*
X66537905Y-50865107D01*
X69673525Y-51210222D01*
X69710931Y-51214413D01*
X69711696Y-51214423D01*
X69712448Y-51214506D01*
X69749726Y-51214933D01*
X74191872Y-51274426D01*
X74192804Y-51274528D01*
X74230351Y-51274941D01*
X74268045Y-51275446D01*
X74268983Y-51275366D01*
X81497514Y-51354909D01*
X81532225Y-51355632D01*
X81536073Y-51355334D01*
X81539920Y-51355376D01*
X81574408Y-51352362D01*
X82797139Y-51257576D01*
X82810680Y-51258725D01*
X82874101Y-51251610D01*
X82899116Y-51249671D01*
X82912419Y-51247311D01*
X82964347Y-51241486D01*
X82988383Y-51233838D01*
X83013219Y-51229433D01*
X83061896Y-51210447D01*
X83074776Y-51206349D01*
X83097837Y-51196429D01*
X83157280Y-51173244D01*
X83168732Y-51165932D01*
X84870535Y-50433872D01*
X84913192Y-50419547D01*
X84974818Y-50384235D01*
X85037072Y-50349868D01*
X85071477Y-50320844D01*
X86653841Y-49194745D01*
X86694036Y-49170000D01*
X94581928Y-49170000D01*
X94594188Y-49294482D01*
X94630498Y-49414180D01*
X94689463Y-49524494D01*
X94768815Y-49621185D01*
X94865506Y-49700537D01*
X94975820Y-49759502D01*
X95095518Y-49795812D01*
X95220000Y-49808072D01*
X96189250Y-49805000D01*
X96348000Y-49646250D01*
X96348000Y-48797000D01*
X96602000Y-48797000D01*
X96602000Y-49646250D01*
X96760750Y-49805000D01*
X97730000Y-49808072D01*
X97854482Y-49795812D01*
X97974180Y-49759502D01*
X98084494Y-49700537D01*
X98181185Y-49621185D01*
X98260537Y-49524494D01*
X98319502Y-49414180D01*
X98355812Y-49294482D01*
X98368072Y-49170000D01*
X98365000Y-48955750D01*
X98206250Y-48797000D01*
X96602000Y-48797000D01*
X96348000Y-48797000D01*
X94743750Y-48797000D01*
X94585000Y-48955750D01*
X94581928Y-49170000D01*
X86694036Y-49170000D01*
X86697373Y-49167946D01*
X86744958Y-49123777D01*
X86793950Y-49081094D01*
X86825216Y-49040622D01*
X87347891Y-48450000D01*
X88281928Y-48450000D01*
X88294188Y-48574482D01*
X88330498Y-48694180D01*
X88389463Y-48804494D01*
X88468815Y-48901185D01*
X88565506Y-48980537D01*
X88675820Y-49039502D01*
X88795518Y-49075812D01*
X88920000Y-49088072D01*
X89884250Y-49085000D01*
X90043000Y-48926250D01*
X90043000Y-47327000D01*
X90297000Y-47327000D01*
X90297000Y-48926250D01*
X90455750Y-49085000D01*
X91420000Y-49088072D01*
X91544482Y-49075812D01*
X91664180Y-49039502D01*
X91774494Y-48980537D01*
X91871185Y-48901185D01*
X91950537Y-48804494D01*
X92009502Y-48694180D01*
X92027454Y-48635000D01*
X117586202Y-48635000D01*
X117601359Y-48788887D01*
X117646246Y-48936860D01*
X117719138Y-49073233D01*
X117817236Y-49192764D01*
X117936767Y-49290862D01*
X118073140Y-49363754D01*
X118221113Y-49408641D01*
X118234992Y-49410008D01*
X118236359Y-49423886D01*
X118281246Y-49571859D01*
X118354138Y-49708232D01*
X118452236Y-49827764D01*
X118482188Y-49852345D01*
X119062653Y-50432810D01*
X119087236Y-50462764D01*
X119206767Y-50560862D01*
X119331000Y-50627265D01*
X119343140Y-50633754D01*
X119491113Y-50678642D01*
X119566026Y-50686020D01*
X119606439Y-50690000D01*
X119606444Y-50690000D01*
X119645000Y-50693797D01*
X119683556Y-50690000D01*
X120241440Y-50690000D01*
X120280000Y-50693798D01*
X120433887Y-50678641D01*
X120581860Y-50633754D01*
X120718233Y-50560862D01*
X120837764Y-50462764D01*
X120935862Y-50343233D01*
X121008754Y-50206860D01*
X121053641Y-50058887D01*
X121065000Y-49943561D01*
X121068798Y-49905000D01*
X121065000Y-49866439D01*
X121065000Y-49308556D01*
X121068797Y-49270000D01*
X121065000Y-49231440D01*
X121065000Y-49231439D01*
X121058775Y-49168233D01*
X121053642Y-49116113D01*
X121008754Y-48968140D01*
X121008265Y-48967226D01*
X120935862Y-48831767D01*
X120837764Y-48712236D01*
X120807811Y-48687654D01*
X120227345Y-48107188D01*
X120202764Y-48077236D01*
X120083233Y-47979138D01*
X119946860Y-47906246D01*
X119798887Y-47861359D01*
X119785009Y-47859992D01*
X119783642Y-47846113D01*
X119747691Y-47727601D01*
X119738754Y-47698140D01*
X119665862Y-47561767D01*
X119567764Y-47442236D01*
X119448233Y-47344138D01*
X119311860Y-47271246D01*
X119255624Y-47254187D01*
X119163887Y-47226358D01*
X119086943Y-47218780D01*
X119010000Y-47211202D01*
X118939743Y-47218122D01*
X118856113Y-47226358D01*
X118708140Y-47271246D01*
X118660638Y-47296636D01*
X118571768Y-47344138D01*
X118517346Y-47388802D01*
X118482188Y-47417655D01*
X118482185Y-47417658D01*
X118452237Y-47442236D01*
X118427659Y-47472184D01*
X117847190Y-48052653D01*
X117817236Y-48077236D01*
X117719138Y-48196767D01*
X117646246Y-48333140D01*
X117601359Y-48481113D01*
X117586202Y-48635000D01*
X92027454Y-48635000D01*
X92045812Y-48574482D01*
X92058072Y-48450000D01*
X92055000Y-47485750D01*
X91896250Y-47327000D01*
X90297000Y-47327000D01*
X90043000Y-47327000D01*
X88443750Y-47327000D01*
X88285000Y-47485750D01*
X88281928Y-48450000D01*
X87347891Y-48450000D01*
X87757297Y-47987373D01*
X87758092Y-47986765D01*
X87808151Y-47929907D01*
X87833418Y-47901356D01*
X87834013Y-47900533D01*
X87860274Y-47870706D01*
X87879209Y-47838057D01*
X87901340Y-47807464D01*
X87917910Y-47771325D01*
X87918412Y-47770460D01*
X87934003Y-47736227D01*
X87965789Y-47666904D01*
X87966022Y-47665926D01*
X88301057Y-46930307D01*
X88443750Y-47073000D01*
X90043000Y-47073000D01*
X90043000Y-45473750D01*
X90297000Y-45473750D01*
X90297000Y-47073000D01*
X91896250Y-47073000D01*
X92055000Y-46914250D01*
X92058072Y-45950000D01*
X92045812Y-45825518D01*
X92009502Y-45705820D01*
X91950537Y-45595506D01*
X91871185Y-45498815D01*
X91774494Y-45419463D01*
X91664180Y-45360498D01*
X91544482Y-45324188D01*
X91420000Y-45311928D01*
X90455750Y-45315000D01*
X90297000Y-45473750D01*
X90043000Y-45473750D01*
X89884250Y-45315000D01*
X88920000Y-45311928D01*
X88795518Y-45324188D01*
X88675820Y-45360498D01*
X88581668Y-45410824D01*
X88599728Y-45250869D01*
X88603976Y-45215613D01*
X88604040Y-45212677D01*
X88604370Y-45209753D01*
X88604877Y-45174161D01*
X88624396Y-44276304D01*
X88625761Y-44257047D01*
X88625233Y-44237779D01*
X88625652Y-44218510D01*
X88624178Y-44199265D01*
X88620109Y-44050742D01*
X88620850Y-44051391D01*
X88627729Y-44055358D01*
X88633804Y-44060469D01*
X88694643Y-44093948D01*
X88754802Y-44128642D01*
X88798971Y-44143612D01*
X88992904Y-44226727D01*
X89005031Y-44234414D01*
X89063861Y-44257137D01*
X89069299Y-44259468D01*
X89087885Y-44282115D01*
X89217725Y-44388671D01*
X89365858Y-44467850D01*
X89526592Y-44516608D01*
X89693750Y-44533072D01*
X90206250Y-44533072D01*
X90373408Y-44516608D01*
X90534142Y-44467850D01*
X90682275Y-44388671D01*
X90812115Y-44282115D01*
X90918671Y-44152275D01*
X90997850Y-44004142D01*
X91034339Y-43883852D01*
X91446362Y-44342696D01*
X91452028Y-44350040D01*
X91472106Y-44371365D01*
X91491685Y-44393169D01*
X91498533Y-44399434D01*
X93079742Y-46078855D01*
X93122415Y-46127237D01*
X93163378Y-46158486D01*
X93202220Y-46192370D01*
X93258209Y-46224500D01*
X95325737Y-47502077D01*
X95347846Y-47519882D01*
X95371813Y-47532409D01*
X95220000Y-47531928D01*
X95095518Y-47544188D01*
X94975820Y-47580498D01*
X94865506Y-47639463D01*
X94768815Y-47718815D01*
X94689463Y-47815506D01*
X94630498Y-47925820D01*
X94594188Y-48045518D01*
X94581928Y-48170000D01*
X94585000Y-48384250D01*
X94743750Y-48543000D01*
X96348000Y-48543000D01*
X96348000Y-48523000D01*
X96602000Y-48523000D01*
X96602000Y-48543000D01*
X98206250Y-48543000D01*
X98365000Y-48384250D01*
X98366485Y-48280686D01*
X98555261Y-48292485D01*
X98577888Y-48294817D01*
X98593720Y-48294889D01*
X98609518Y-48295876D01*
X98632245Y-48295063D01*
X100799379Y-48304869D01*
X100810828Y-48305712D01*
X100837907Y-48305043D01*
X100865008Y-48305166D01*
X100876444Y-48304092D01*
X101625819Y-48285588D01*
X101669488Y-48288246D01*
X101741193Y-48278465D01*
X101812936Y-48269606D01*
X101854464Y-48255880D01*
X103023167Y-47977618D01*
X103040117Y-47976252D01*
X103098230Y-47959746D01*
X103119334Y-47954721D01*
X103135324Y-47949210D01*
X103151592Y-47944589D01*
X103171775Y-47936646D01*
X103228893Y-47916959D01*
X103243583Y-47908386D01*
X104651974Y-47354116D01*
X105242441Y-47269764D01*
X106000506Y-47334423D01*
X108657774Y-47580743D01*
X108686256Y-47584106D01*
X108696109Y-47584297D01*
X108705940Y-47585208D01*
X108734663Y-47585043D01*
X110222438Y-47613839D01*
X110247070Y-47617628D01*
X110299555Y-47615332D01*
X110313362Y-47615599D01*
X110338087Y-47613646D01*
X110362842Y-47612563D01*
X110376500Y-47610612D01*
X110428886Y-47606474D01*
X110452874Y-47599701D01*
X111952505Y-47385468D01*
X111970721Y-47385621D01*
X112028919Y-47374552D01*
X112049189Y-47371656D01*
X112066768Y-47367353D01*
X112122629Y-47356728D01*
X112141734Y-47349002D01*
X112161750Y-47344102D01*
X112213273Y-47320071D01*
X112265982Y-47298755D01*
X112283212Y-47287450D01*
X112301887Y-47278740D01*
X112347743Y-47245111D01*
X112362873Y-47235184D01*
X112378807Y-47222330D01*
X112426581Y-47187294D01*
X112438887Y-47173862D01*
X113568657Y-46262452D01*
X113616238Y-46227600D01*
X113654816Y-46185542D01*
X113695525Y-46145510D01*
X113706987Y-46128663D01*
X113720762Y-46113646D01*
X113750399Y-46064860D01*
X113782510Y-46017665D01*
X113805548Y-45963341D01*
X114494663Y-44528473D01*
X114495365Y-44527533D01*
X114527982Y-44459098D01*
X114544317Y-44425085D01*
X114544721Y-44423976D01*
X114561894Y-44387945D01*
X114571133Y-44351520D01*
X114584005Y-44316209D01*
X114590097Y-44276757D01*
X114590386Y-44275618D01*
X114596014Y-44238436D01*
X114607603Y-44163389D01*
X114607552Y-44162216D01*
X114768346Y-43100000D01*
X118291928Y-43100000D01*
X118304188Y-43224482D01*
X118340498Y-43344180D01*
X118399463Y-43454494D01*
X118478815Y-43551185D01*
X118575506Y-43630537D01*
X118685820Y-43689502D01*
X118805518Y-43725812D01*
X118930000Y-43738072D01*
X119744250Y-43735000D01*
X119903000Y-43576250D01*
X119903000Y-42627000D01*
X120157000Y-42627000D01*
X120157000Y-43576250D01*
X120315750Y-43735000D01*
X121130000Y-43738072D01*
X121254482Y-43725812D01*
X121374180Y-43689502D01*
X121484494Y-43630537D01*
X121581185Y-43551185D01*
X121660537Y-43454494D01*
X121719502Y-43344180D01*
X121755812Y-43224482D01*
X121768072Y-43100000D01*
X121765000Y-42785750D01*
X121606250Y-42627000D01*
X120157000Y-42627000D01*
X119903000Y-42627000D01*
X118453750Y-42627000D01*
X118295000Y-42785750D01*
X118291928Y-43100000D01*
X114768346Y-43100000D01*
X114917316Y-42115897D01*
X114922713Y-42098480D01*
X114928865Y-42039603D01*
X114931929Y-42019365D01*
X114932873Y-42001257D01*
X114934757Y-41983223D01*
X114934879Y-41962757D01*
X114937959Y-41903638D01*
X114937431Y-41900000D01*
X118291928Y-41900000D01*
X118295000Y-42214250D01*
X118453750Y-42373000D01*
X119903000Y-42373000D01*
X119903000Y-41423750D01*
X120157000Y-41423750D01*
X120157000Y-42373000D01*
X121606250Y-42373000D01*
X121765000Y-42214250D01*
X121768072Y-41900000D01*
X121755812Y-41775518D01*
X121719502Y-41655820D01*
X121660537Y-41545506D01*
X121581185Y-41448815D01*
X121484494Y-41369463D01*
X121374180Y-41310498D01*
X121254482Y-41274188D01*
X121130000Y-41261928D01*
X120315750Y-41265000D01*
X120157000Y-41423750D01*
X119903000Y-41423750D01*
X119744250Y-41265000D01*
X118930000Y-41261928D01*
X118805518Y-41274188D01*
X118685820Y-41310498D01*
X118575506Y-41369463D01*
X118478815Y-41448815D01*
X118399463Y-41545506D01*
X118340498Y-41655820D01*
X118304188Y-41775518D01*
X118291928Y-41900000D01*
X114937431Y-41900000D01*
X114935337Y-41885593D01*
X114949043Y-39578363D01*
X119195000Y-39578363D01*
X119195000Y-39821637D01*
X119242460Y-40060236D01*
X119335557Y-40284992D01*
X119470713Y-40487267D01*
X119642733Y-40659287D01*
X119845008Y-40794443D01*
X120069764Y-40887540D01*
X120308363Y-40935000D01*
X120551637Y-40935000D01*
X120790236Y-40887540D01*
X121014992Y-40794443D01*
X121217267Y-40659287D01*
X121389287Y-40487267D01*
X121524443Y-40284992D01*
X121617540Y-40060236D01*
X121665000Y-39821637D01*
X121665000Y-39578363D01*
X121617540Y-39339764D01*
X121524443Y-39115008D01*
X121389287Y-38912733D01*
X121217267Y-38740713D01*
X121014992Y-38605557D01*
X120790236Y-38512460D01*
X120551637Y-38465000D01*
X120308363Y-38465000D01*
X120069764Y-38512460D01*
X119845008Y-38605557D01*
X119642733Y-38740713D01*
X119470713Y-38912733D01*
X119335557Y-39115008D01*
X119242460Y-39339764D01*
X119195000Y-39578363D01*
X114949043Y-39578363D01*
X114964554Y-36967292D01*
X114965440Y-36962699D01*
X114965013Y-36890073D01*
X114965215Y-36856104D01*
X114964786Y-36851470D01*
X114964759Y-36846817D01*
X114961230Y-36813026D01*
X114954541Y-36740712D01*
X114953210Y-36736230D01*
X114637950Y-33717373D01*
X114638527Y-33709376D01*
X114629932Y-33640591D01*
X114626749Y-33610114D01*
X114625147Y-33602301D01*
X114624158Y-33594386D01*
X114617398Y-33564508D01*
X114603473Y-33496591D01*
X114600360Y-33489199D01*
X114168044Y-31578363D01*
X119195000Y-31578363D01*
X119195000Y-31821637D01*
X119242460Y-32060236D01*
X119335557Y-32284992D01*
X119470713Y-32487267D01*
X119642733Y-32659287D01*
X119845008Y-32794443D01*
X120069764Y-32887540D01*
X120308363Y-32935000D01*
X120551637Y-32935000D01*
X120790236Y-32887540D01*
X121014992Y-32794443D01*
X121217267Y-32659287D01*
X121389287Y-32487267D01*
X121524443Y-32284992D01*
X121617540Y-32060236D01*
X121665000Y-31821637D01*
X121665000Y-31578363D01*
X121617540Y-31339764D01*
X121524443Y-31115008D01*
X121389287Y-30912733D01*
X121217267Y-30740713D01*
X121014992Y-30605557D01*
X120790236Y-30512460D01*
X120551637Y-30465000D01*
X120308363Y-30465000D01*
X120069764Y-30512460D01*
X119845008Y-30605557D01*
X119642733Y-30740713D01*
X119470713Y-30912733D01*
X119335557Y-31115008D01*
X119242460Y-31339764D01*
X119195000Y-31578363D01*
X114168044Y-31578363D01*
X114119686Y-31364622D01*
X114109360Y-31306521D01*
X114088600Y-31253350D01*
X114070612Y-31199190D01*
X114041451Y-31147907D01*
X113473654Y-30031239D01*
X113465552Y-30008053D01*
X113438674Y-29962444D01*
X113432259Y-29949829D01*
X113419130Y-29929282D01*
X113387043Y-29874835D01*
X113377539Y-29864191D01*
X113369863Y-29852178D01*
X113326144Y-29806631D01*
X113284053Y-29759492D01*
X113272655Y-29750907D01*
X113262783Y-29740622D01*
X113211004Y-29704470D01*
X113191490Y-29689771D01*
X113179384Y-29682392D01*
X113135997Y-29652099D01*
X113113512Y-29642242D01*
X112156288Y-29058791D01*
X112139763Y-29045165D01*
X112090407Y-29018635D01*
X112075636Y-29009632D01*
X112056447Y-29000381D01*
X112003561Y-28971954D01*
X111986923Y-28966864D01*
X111971249Y-28959308D01*
X111913119Y-28944287D01*
X111892746Y-28938055D01*
X111875783Y-28934640D01*
X111821535Y-28920622D01*
X111800152Y-28919412D01*
X111778347Y-28915022D01*
X111805812Y-28824482D01*
X111818072Y-28700000D01*
X111815000Y-28185750D01*
X111656250Y-28027000D01*
X110557000Y-28027000D01*
X110557000Y-28047000D01*
X110303000Y-28047000D01*
X110303000Y-28027000D01*
X110283000Y-28027000D01*
X110283000Y-27773000D01*
X110303000Y-27773000D01*
X110303000Y-26623750D01*
X110557000Y-26623750D01*
X110557000Y-27773000D01*
X111656250Y-27773000D01*
X111815000Y-27614250D01*
X111815085Y-27600000D01*
X118291928Y-27600000D01*
X118304188Y-27724482D01*
X118340498Y-27844180D01*
X118399463Y-27954494D01*
X118478815Y-28051185D01*
X118575506Y-28130537D01*
X118685820Y-28189502D01*
X118805518Y-28225812D01*
X118930000Y-28238072D01*
X119744250Y-28235000D01*
X119903000Y-28076250D01*
X119903000Y-27127000D01*
X120157000Y-27127000D01*
X120157000Y-28076250D01*
X120315750Y-28235000D01*
X121130000Y-28238072D01*
X121254482Y-28225812D01*
X121374180Y-28189502D01*
X121484494Y-28130537D01*
X121581185Y-28051185D01*
X121660537Y-27954494D01*
X121719502Y-27844180D01*
X121755812Y-27724482D01*
X121768072Y-27600000D01*
X121765000Y-27285750D01*
X121606250Y-27127000D01*
X120157000Y-27127000D01*
X119903000Y-27127000D01*
X118453750Y-27127000D01*
X118295000Y-27285750D01*
X118291928Y-27600000D01*
X111815085Y-27600000D01*
X111818072Y-27100000D01*
X111805812Y-26975518D01*
X111769502Y-26855820D01*
X111710537Y-26745506D01*
X111631185Y-26648815D01*
X111534494Y-26569463D01*
X111424180Y-26510498D01*
X111304482Y-26474188D01*
X111180000Y-26461928D01*
X110715750Y-26465000D01*
X110557000Y-26623750D01*
X110303000Y-26623750D01*
X110144250Y-26465000D01*
X109680000Y-26461928D01*
X109555518Y-26474188D01*
X109435820Y-26510498D01*
X109325506Y-26569463D01*
X109297067Y-26592802D01*
X109259228Y-26400000D01*
X118291928Y-26400000D01*
X118295000Y-26714250D01*
X118453750Y-26873000D01*
X119903000Y-26873000D01*
X119903000Y-25923750D01*
X120157000Y-25923750D01*
X120157000Y-26873000D01*
X121606250Y-26873000D01*
X121765000Y-26714250D01*
X121768072Y-26400000D01*
X121755812Y-26275518D01*
X121719502Y-26155820D01*
X121660537Y-26045506D01*
X121581185Y-25948815D01*
X121484494Y-25869463D01*
X121374180Y-25810498D01*
X121254482Y-25774188D01*
X121130000Y-25761928D01*
X120315750Y-25765000D01*
X120157000Y-25923750D01*
X119903000Y-25923750D01*
X119744250Y-25765000D01*
X118930000Y-25761928D01*
X118805518Y-25774188D01*
X118685820Y-25810498D01*
X118575506Y-25869463D01*
X118478815Y-25948815D01*
X118399463Y-26045506D01*
X118340498Y-26155820D01*
X118304188Y-26275518D01*
X118291928Y-26400000D01*
X109259228Y-26400000D01*
X109204636Y-26121841D01*
X109204622Y-26118954D01*
X109189764Y-26046067D01*
X109182878Y-26010980D01*
X109182051Y-26008229D01*
X109173736Y-25967438D01*
X109159844Y-25934347D01*
X109149521Y-25900001D01*
X109129997Y-25863249D01*
X109113882Y-25824861D01*
X109093808Y-25795126D01*
X109076977Y-25763442D01*
X109050649Y-25731194D01*
X109027363Y-25696700D01*
X109001878Y-25671456D01*
X108979185Y-25643660D01*
X108947077Y-25617173D01*
X108945033Y-25615148D01*
X108917256Y-25592572D01*
X108859904Y-25545260D01*
X108857362Y-25543893D01*
X108432245Y-25198377D01*
X108425677Y-25190847D01*
X108372338Y-25149688D01*
X108350087Y-25131603D01*
X108341800Y-25126122D01*
X108303256Y-25096380D01*
X108277449Y-25083566D01*
X108253428Y-25067681D01*
X108208369Y-25049267D01*
X108164757Y-25027613D01*
X108136954Y-25020082D01*
X108110288Y-25009185D01*
X108062489Y-24999913D01*
X108015504Y-24987187D01*
X107986769Y-24985225D01*
X107958486Y-24979739D01*
X107909802Y-24979971D01*
X107899889Y-24979294D01*
X107871233Y-24980154D01*
X107803858Y-24980475D01*
X107794066Y-24982471D01*
X106322242Y-25026659D01*
X106291185Y-24988815D01*
X106194494Y-24909463D01*
X106084180Y-24850498D01*
X105964482Y-24814188D01*
X105840000Y-24801928D01*
X104940000Y-24801928D01*
X104815518Y-24814188D01*
X104695820Y-24850498D01*
X104585506Y-24909463D01*
X104488815Y-24988815D01*
X104409463Y-25085506D01*
X104395652Y-25111344D01*
X104298802Y-25116960D01*
X104182275Y-25021329D01*
X104034142Y-24942150D01*
X103873408Y-24893392D01*
X103706250Y-24876928D01*
X103193750Y-24876928D01*
X103026592Y-24893392D01*
X102865858Y-24942150D01*
X102717725Y-25021329D01*
X102587885Y-25127885D01*
X102481329Y-25257725D01*
X102402150Y-25405858D01*
X102353392Y-25566592D01*
X102336928Y-25733750D01*
X102336928Y-26171250D01*
X102339083Y-26193125D01*
X101678072Y-25719981D01*
X101678072Y-25310000D01*
X101665812Y-25185518D01*
X101629502Y-25065820D01*
X101570537Y-24955506D01*
X101491185Y-24858815D01*
X101394494Y-24779463D01*
X101284180Y-24720498D01*
X101164482Y-24684188D01*
X101040000Y-24671928D01*
X98530000Y-24671928D01*
X98405518Y-24684188D01*
X98285820Y-24720498D01*
X98175506Y-24779463D01*
X98078815Y-24858815D01*
X97999463Y-24955506D01*
X97965679Y-25018711D01*
X96907589Y-25015057D01*
X95795344Y-24969032D01*
X95498563Y-24649422D01*
X94563188Y-23616613D01*
X94289268Y-23260000D01*
X125970001Y-23260000D01*
X125970000Y-51940000D01*
X47290000Y-51940000D01*
X47290000Y-31855000D01*
X48946928Y-31855000D01*
X48959188Y-31979482D01*
X48995498Y-32099180D01*
X49054463Y-32209494D01*
X49133815Y-32306185D01*
X49230506Y-32385537D01*
X49340820Y-32444502D01*
X49460518Y-32480812D01*
X49585000Y-32493072D01*
X50174250Y-32490000D01*
X50333000Y-32331250D01*
X50333000Y-31357000D01*
X50587000Y-31357000D01*
X50587000Y-32331250D01*
X50745750Y-32490000D01*
X51335000Y-32493072D01*
X51459482Y-32480812D01*
X51579180Y-32444502D01*
X51689494Y-32385537D01*
X51786185Y-32306185D01*
X51865537Y-32209494D01*
X51924502Y-32099180D01*
X51960812Y-31979482D01*
X51973072Y-31855000D01*
X51970763Y-31600000D01*
X56221928Y-31600000D01*
X56234188Y-31724482D01*
X56270498Y-31844180D01*
X56329463Y-31954494D01*
X56408815Y-32051185D01*
X56505506Y-32130537D01*
X56615820Y-32189502D01*
X56735518Y-32225812D01*
X56860000Y-32238072D01*
X57829250Y-32235000D01*
X57988000Y-32076250D01*
X57988000Y-31227000D01*
X58242000Y-31227000D01*
X58242000Y-32076250D01*
X58400750Y-32235000D01*
X59370000Y-32238072D01*
X59494482Y-32225812D01*
X59614180Y-32189502D01*
X59724494Y-32130537D01*
X59821185Y-32051185D01*
X59900537Y-31954494D01*
X59959502Y-31844180D01*
X59995812Y-31724482D01*
X60008072Y-31600000D01*
X60005000Y-31385750D01*
X59846250Y-31227000D01*
X58242000Y-31227000D01*
X57988000Y-31227000D01*
X56383750Y-31227000D01*
X56225000Y-31385750D01*
X56221928Y-31600000D01*
X51970763Y-31600000D01*
X51970000Y-31515750D01*
X51811250Y-31357000D01*
X50587000Y-31357000D01*
X50333000Y-31357000D01*
X49108750Y-31357000D01*
X48950000Y-31515750D01*
X48946928Y-31855000D01*
X47290000Y-31855000D01*
X47290000Y-23260000D01*
X52136414Y-23260000D01*
X52124774Y-23288102D01*
G37*
X52124774Y-23288102D02*
X52085000Y-23488061D01*
X52085000Y-23691939D01*
X52124774Y-23891898D01*
X52202795Y-24080256D01*
X52243586Y-24141303D01*
X49050425Y-26084232D01*
X48992004Y-26117785D01*
X48955318Y-26149810D01*
X48916396Y-26179081D01*
X48897204Y-26200542D01*
X48875514Y-26219476D01*
X48845780Y-26258044D01*
X48813317Y-26294344D01*
X48779063Y-26352366D01*
X48352565Y-27034762D01*
X48326734Y-27069009D01*
X48294903Y-27134924D01*
X48262394Y-27200468D01*
X48261305Y-27204496D01*
X48259490Y-27208254D01*
X48241136Y-27279087D01*
X48222033Y-27349738D01*
X48219130Y-27392534D01*
X48100985Y-28146843D01*
X48091864Y-28180752D01*
X48089051Y-28223035D01*
X48088489Y-28226626D01*
X48086489Y-28261557D01*
X48081601Y-28335042D01*
X48082074Y-28338665D01*
X48081865Y-28342320D01*
X48092088Y-28415304D01*
X48096614Y-28449949D01*
X48097436Y-28453490D01*
X48103314Y-28495456D01*
X48114875Y-28528612D01*
X48218844Y-28976477D01*
X48219032Y-28980859D01*
X48236302Y-29051681D01*
X48244054Y-29085073D01*
X48245454Y-29089210D01*
X48255666Y-29131088D01*
X48270174Y-29162265D01*
X48281197Y-29194843D01*
X48302713Y-29232194D01*
X48304556Y-29236154D01*
X48322004Y-29265682D01*
X48358383Y-29328833D01*
X48361270Y-29332131D01*
X48691221Y-29890511D01*
X48704315Y-29919919D01*
X48730455Y-29956905D01*
X48733790Y-29962550D01*
X48752729Y-29988422D01*
X48793560Y-30046197D01*
X48798341Y-30050734D01*
X48802239Y-30056059D01*
X48854381Y-30103915D01*
X48877619Y-30125967D01*
X48882794Y-30129992D01*
X48916162Y-30160617D01*
X48943669Y-30177339D01*
X49049553Y-30259693D01*
X48995498Y-30360820D01*
X48959188Y-30480518D01*
X48946928Y-30605000D01*
X48950000Y-30944250D01*
X49108750Y-31103000D01*
X50333000Y-31103000D01*
X50333000Y-31083000D01*
X50587000Y-31083000D01*
X50587000Y-31103000D01*
X51811250Y-31103000D01*
X51970000Y-30944250D01*
X51972290Y-30691337D01*
X52002905Y-30693038D01*
X52027751Y-30695284D01*
X52041360Y-30695175D01*
X52054957Y-30695930D01*
X52079896Y-30694865D01*
X56222811Y-30661562D01*
X56225000Y-30814250D01*
X56383750Y-30973000D01*
X57988000Y-30973000D01*
X57988000Y-30953000D01*
X58242000Y-30953000D01*
X58242000Y-30973000D01*
X59837295Y-30973000D01*
X60255014Y-31218009D01*
X60834732Y-31912239D01*
X60985995Y-32963113D01*
X61008946Y-34259863D01*
X60925506Y-34304463D01*
X60828815Y-34383815D01*
X60749463Y-34480506D01*
X60690498Y-34590820D01*
X60654188Y-34710518D01*
X60641928Y-34835000D01*
X60641928Y-35485000D01*
X60654188Y-35609482D01*
X60661929Y-35635000D01*
X60654188Y-35660518D01*
X60641928Y-35785000D01*
X60645000Y-35824250D01*
X60803750Y-35983000D01*
X60885859Y-35983000D01*
X60925506Y-36015537D01*
X61035820Y-36074502D01*
X61152841Y-36110000D01*
X61035820Y-36145498D01*
X60925506Y-36204463D01*
X60885859Y-36237000D01*
X60803750Y-36237000D01*
X60645000Y-36395750D01*
X60642463Y-36428165D01*
X58515159Y-36916768D01*
X58451185Y-36838815D01*
X58354494Y-36759463D01*
X58244180Y-36700498D01*
X58124482Y-36664188D01*
X58000000Y-36651928D01*
X54850000Y-36651928D01*
X54725518Y-36664188D01*
X54605820Y-36700498D01*
X54495506Y-36759463D01*
X54398815Y-36838815D01*
X54319463Y-36935506D01*
X54260498Y-37045820D01*
X54224188Y-37165518D01*
X54211928Y-37290000D01*
X54211928Y-37589999D01*
X54062622Y-37426696D01*
X54046452Y-37403815D01*
X54010561Y-37369754D01*
X54003332Y-37361848D01*
X53982617Y-37343236D01*
X53934288Y-37297372D01*
X53925162Y-37291614D01*
X53917131Y-37284398D01*
X53859831Y-37250391D01*
X53803514Y-37214856D01*
X53793440Y-37210989D01*
X53784155Y-37205478D01*
X53721319Y-37183302D01*
X53695328Y-37173324D01*
X53684997Y-37170483D01*
X53638338Y-37154016D01*
X53610607Y-37150026D01*
X53567518Y-37138176D01*
X53539502Y-37045820D01*
X53480537Y-36935506D01*
X53401185Y-36838815D01*
X53304494Y-36759463D01*
X53194180Y-36700498D01*
X53074482Y-36664188D01*
X52950000Y-36651928D01*
X49800000Y-36651928D01*
X49675518Y-36664188D01*
X49555820Y-36700498D01*
X49445506Y-36759463D01*
X49348815Y-36838815D01*
X49269463Y-36935506D01*
X49210498Y-37045820D01*
X49174188Y-37165518D01*
X49161928Y-37290000D01*
X49161928Y-38290000D01*
X49174188Y-38414482D01*
X49210498Y-38534180D01*
X49269463Y-38644494D01*
X49348815Y-38741185D01*
X49445506Y-38820537D01*
X49555820Y-38879502D01*
X49675518Y-38915812D01*
X49800000Y-38928072D01*
X52950000Y-38928072D01*
X53074482Y-38915812D01*
X53077439Y-38914915D01*
X53115217Y-39153209D01*
X53115440Y-39216612D01*
X53074482Y-39204188D01*
X52950000Y-39191928D01*
X49800000Y-39191928D01*
X49675518Y-39204188D01*
X49555820Y-39240498D01*
X49445506Y-39299463D01*
X49348815Y-39378815D01*
X49269463Y-39475506D01*
X49210498Y-39585820D01*
X49174188Y-39705518D01*
X49161928Y-39830000D01*
X49161928Y-40830000D01*
X49174188Y-40954482D01*
X49210498Y-41074180D01*
X49269463Y-41184494D01*
X49348815Y-41281185D01*
X49445506Y-41360537D01*
X49555820Y-41419502D01*
X49675518Y-41455812D01*
X49800000Y-41468072D01*
X52593157Y-41468072D01*
X52588722Y-41731928D01*
X49800000Y-41731928D01*
X49675518Y-41744188D01*
X49555820Y-41780498D01*
X49445506Y-41839463D01*
X49348815Y-41918815D01*
X49269463Y-42015506D01*
X49210498Y-42125820D01*
X49174188Y-42245518D01*
X49161928Y-42370000D01*
X49161928Y-43370000D01*
X49174188Y-43494482D01*
X49210498Y-43614180D01*
X49269463Y-43724494D01*
X49348815Y-43821185D01*
X49445506Y-43900537D01*
X49555820Y-43959502D01*
X49675518Y-43995812D01*
X49800000Y-44008072D01*
X50609105Y-44008072D01*
X50624344Y-44472828D01*
X50622079Y-44517172D01*
X50632460Y-44588106D01*
X50641818Y-44659156D01*
X50643647Y-44664543D01*
X50644471Y-44670174D01*
X50668490Y-44737715D01*
X50691530Y-44805578D01*
X50713732Y-44844029D01*
X50846379Y-45125905D01*
X50862575Y-45168927D01*
X50899590Y-45228443D01*
X50935520Y-45288653D01*
X50966328Y-45322777D01*
X51261371Y-45707228D01*
X51289784Y-45749837D01*
X51335609Y-45795748D01*
X51379953Y-45843086D01*
X51390152Y-45850394D01*
X51399022Y-45859280D01*
X51452932Y-45895375D01*
X51505651Y-45933147D01*
X51552308Y-45954283D01*
X51741534Y-46055655D01*
X51741865Y-46055926D01*
X51809118Y-46091860D01*
X51843298Y-46110171D01*
X51843700Y-46110338D01*
X51878249Y-46128798D01*
X51914921Y-46139916D01*
X51950318Y-46154617D01*
X51983829Y-46161315D01*
X52053829Y-46292275D01*
X52160385Y-46422115D01*
X52290225Y-46528671D01*
X52320025Y-46544599D01*
X52353050Y-46700291D01*
X52356359Y-46733886D01*
X52369053Y-46775732D01*
X52370088Y-46780612D01*
X52380245Y-46812629D01*
X52401246Y-46881859D01*
X52403614Y-46886289D01*
X52405131Y-46891071D01*
X52440022Y-46954403D01*
X52474139Y-47018232D01*
X52477324Y-47022114D01*
X52479746Y-47026509D01*
X52526359Y-47081863D01*
X52547655Y-47107812D01*
X52551175Y-47111332D01*
X52579349Y-47144789D01*
X52605720Y-47165877D01*
X53111828Y-47671986D01*
X53113072Y-47673825D01*
X53166368Y-47726525D01*
X53192187Y-47752345D01*
X53193902Y-47753752D01*
X53195473Y-47755306D01*
X53223726Y-47778228D01*
X53281767Y-47825861D01*
X53283728Y-47826909D01*
X54273392Y-48629844D01*
X54319772Y-48670617D01*
X54366752Y-48697817D01*
X54412077Y-48727735D01*
X54469284Y-48751055D01*
X56712380Y-49770645D01*
X56728603Y-49781137D01*
X56782619Y-49802571D01*
X56800269Y-49810594D01*
X56818457Y-49816792D01*
X56836316Y-49823879D01*
X56854950Y-49829229D01*
X56909958Y-49847975D01*
X56929110Y-49850520D01*
X59902681Y-50704223D01*
X59906028Y-50705908D01*
X59976819Y-50725508D01*
X60010443Y-50735161D01*
X60014124Y-50735836D01*
X60017710Y-50736829D01*
X60052002Y-50742783D01*
X60124426Y-50756067D01*
X60128179Y-50756011D01*
X64164079Y-51456805D01*
X64166063Y-51459774D01*
X64310226Y-51603937D01*
X64479744Y-51717205D01*
X64668102Y-51795226D01*
X64868061Y-51835000D01*
X65071939Y-51835000D01*
X65271898Y-51795226D01*
X65460256Y-51717205D01*
X65629774Y-51603937D01*
X65773937Y-51459774D01*
X65887205Y-51290256D01*
X65965226Y-51101898D01*
X66005000Y-50901939D01*
X66005000Y-50726849D01*
X66311825Y-50819085D01*
X66342399Y-50832161D01*
X66385679Y-50841286D01*
X66390937Y-50842867D01*
X66423403Y-50849240D01*
X66455790Y-50856069D01*
X66461249Y-50856670D01*
X66504651Y-50865190D01*
X66537905Y-50865107D01*
X69673525Y-51210222D01*
X69710931Y-51214413D01*
X69711696Y-51214423D01*
X69712448Y-51214506D01*
X69749726Y-51214933D01*
X74191872Y-51274426D01*
X74192804Y-51274528D01*
X74230351Y-51274941D01*
X74268045Y-51275446D01*
X74268983Y-51275366D01*
X81497514Y-51354909D01*
X81532225Y-51355632D01*
X81536073Y-51355334D01*
X81539920Y-51355376D01*
X81574408Y-51352362D01*
X82797139Y-51257576D01*
X82810680Y-51258725D01*
X82874101Y-51251610D01*
X82899116Y-51249671D01*
X82912419Y-51247311D01*
X82964347Y-51241486D01*
X82988383Y-51233838D01*
X83013219Y-51229433D01*
X83061896Y-51210447D01*
X83074776Y-51206349D01*
X83097837Y-51196429D01*
X83157280Y-51173244D01*
X83168732Y-51165932D01*
X84870535Y-50433872D01*
X84913192Y-50419547D01*
X84974818Y-50384235D01*
X85037072Y-50349868D01*
X85071477Y-50320844D01*
X86653841Y-49194745D01*
X86694036Y-49170000D01*
X94581928Y-49170000D01*
X94594188Y-49294482D01*
X94630498Y-49414180D01*
X94689463Y-49524494D01*
X94768815Y-49621185D01*
X94865506Y-49700537D01*
X94975820Y-49759502D01*
X95095518Y-49795812D01*
X95220000Y-49808072D01*
X96189250Y-49805000D01*
X96348000Y-49646250D01*
X96348000Y-48797000D01*
X96602000Y-48797000D01*
X96602000Y-49646250D01*
X96760750Y-49805000D01*
X97730000Y-49808072D01*
X97854482Y-49795812D01*
X97974180Y-49759502D01*
X98084494Y-49700537D01*
X98181185Y-49621185D01*
X98260537Y-49524494D01*
X98319502Y-49414180D01*
X98355812Y-49294482D01*
X98368072Y-49170000D01*
X98365000Y-48955750D01*
X98206250Y-48797000D01*
X96602000Y-48797000D01*
X96348000Y-48797000D01*
X94743750Y-48797000D01*
X94585000Y-48955750D01*
X94581928Y-49170000D01*
X86694036Y-49170000D01*
X86697373Y-49167946D01*
X86744958Y-49123777D01*
X86793950Y-49081094D01*
X86825216Y-49040622D01*
X87347891Y-48450000D01*
X88281928Y-48450000D01*
X88294188Y-48574482D01*
X88330498Y-48694180D01*
X88389463Y-48804494D01*
X88468815Y-48901185D01*
X88565506Y-48980537D01*
X88675820Y-49039502D01*
X88795518Y-49075812D01*
X88920000Y-49088072D01*
X89884250Y-49085000D01*
X90043000Y-48926250D01*
X90043000Y-47327000D01*
X90297000Y-47327000D01*
X90297000Y-48926250D01*
X90455750Y-49085000D01*
X91420000Y-49088072D01*
X91544482Y-49075812D01*
X91664180Y-49039502D01*
X91774494Y-48980537D01*
X91871185Y-48901185D01*
X91950537Y-48804494D01*
X92009502Y-48694180D01*
X92027454Y-48635000D01*
X117586202Y-48635000D01*
X117601359Y-48788887D01*
X117646246Y-48936860D01*
X117719138Y-49073233D01*
X117817236Y-49192764D01*
X117936767Y-49290862D01*
X118073140Y-49363754D01*
X118221113Y-49408641D01*
X118234992Y-49410008D01*
X118236359Y-49423886D01*
X118281246Y-49571859D01*
X118354138Y-49708232D01*
X118452236Y-49827764D01*
X118482188Y-49852345D01*
X119062653Y-50432810D01*
X119087236Y-50462764D01*
X119206767Y-50560862D01*
X119331000Y-50627265D01*
X119343140Y-50633754D01*
X119491113Y-50678642D01*
X119566026Y-50686020D01*
X119606439Y-50690000D01*
X119606444Y-50690000D01*
X119645000Y-50693797D01*
X119683556Y-50690000D01*
X120241440Y-50690000D01*
X120280000Y-50693798D01*
X120433887Y-50678641D01*
X120581860Y-50633754D01*
X120718233Y-50560862D01*
X120837764Y-50462764D01*
X120935862Y-50343233D01*
X121008754Y-50206860D01*
X121053641Y-50058887D01*
X121065000Y-49943561D01*
X121068798Y-49905000D01*
X121065000Y-49866439D01*
X121065000Y-49308556D01*
X121068797Y-49270000D01*
X121065000Y-49231440D01*
X121065000Y-49231439D01*
X121058775Y-49168233D01*
X121053642Y-49116113D01*
X121008754Y-48968140D01*
X121008265Y-48967226D01*
X120935862Y-48831767D01*
X120837764Y-48712236D01*
X120807811Y-48687654D01*
X120227345Y-48107188D01*
X120202764Y-48077236D01*
X120083233Y-47979138D01*
X119946860Y-47906246D01*
X119798887Y-47861359D01*
X119785009Y-47859992D01*
X119783642Y-47846113D01*
X119747691Y-47727601D01*
X119738754Y-47698140D01*
X119665862Y-47561767D01*
X119567764Y-47442236D01*
X119448233Y-47344138D01*
X119311860Y-47271246D01*
X119255624Y-47254187D01*
X119163887Y-47226358D01*
X119086943Y-47218780D01*
X119010000Y-47211202D01*
X118939743Y-47218122D01*
X118856113Y-47226358D01*
X118708140Y-47271246D01*
X118660638Y-47296636D01*
X118571768Y-47344138D01*
X118517346Y-47388802D01*
X118482188Y-47417655D01*
X118482185Y-47417658D01*
X118452237Y-47442236D01*
X118427659Y-47472184D01*
X117847190Y-48052653D01*
X117817236Y-48077236D01*
X117719138Y-48196767D01*
X117646246Y-48333140D01*
X117601359Y-48481113D01*
X117586202Y-48635000D01*
X92027454Y-48635000D01*
X92045812Y-48574482D01*
X92058072Y-48450000D01*
X92055000Y-47485750D01*
X91896250Y-47327000D01*
X90297000Y-47327000D01*
X90043000Y-47327000D01*
X88443750Y-47327000D01*
X88285000Y-47485750D01*
X88281928Y-48450000D01*
X87347891Y-48450000D01*
X87757297Y-47987373D01*
X87758092Y-47986765D01*
X87808151Y-47929907D01*
X87833418Y-47901356D01*
X87834013Y-47900533D01*
X87860274Y-47870706D01*
X87879209Y-47838057D01*
X87901340Y-47807464D01*
X87917910Y-47771325D01*
X87918412Y-47770460D01*
X87934003Y-47736227D01*
X87965789Y-47666904D01*
X87966022Y-47665926D01*
X88301057Y-46930307D01*
X88443750Y-47073000D01*
X90043000Y-47073000D01*
X90043000Y-45473750D01*
X90297000Y-45473750D01*
X90297000Y-47073000D01*
X91896250Y-47073000D01*
X92055000Y-46914250D01*
X92058072Y-45950000D01*
X92045812Y-45825518D01*
X92009502Y-45705820D01*
X91950537Y-45595506D01*
X91871185Y-45498815D01*
X91774494Y-45419463D01*
X91664180Y-45360498D01*
X91544482Y-45324188D01*
X91420000Y-45311928D01*
X90455750Y-45315000D01*
X90297000Y-45473750D01*
X90043000Y-45473750D01*
X89884250Y-45315000D01*
X88920000Y-45311928D01*
X88795518Y-45324188D01*
X88675820Y-45360498D01*
X88581668Y-45410824D01*
X88599728Y-45250869D01*
X88603976Y-45215613D01*
X88604040Y-45212677D01*
X88604370Y-45209753D01*
X88604877Y-45174161D01*
X88624396Y-44276304D01*
X88625761Y-44257047D01*
X88625233Y-44237779D01*
X88625652Y-44218510D01*
X88624178Y-44199265D01*
X88620109Y-44050742D01*
X88620850Y-44051391D01*
X88627729Y-44055358D01*
X88633804Y-44060469D01*
X88694643Y-44093948D01*
X88754802Y-44128642D01*
X88798971Y-44143612D01*
X88992904Y-44226727D01*
X89005031Y-44234414D01*
X89063861Y-44257137D01*
X89069299Y-44259468D01*
X89087885Y-44282115D01*
X89217725Y-44388671D01*
X89365858Y-44467850D01*
X89526592Y-44516608D01*
X89693750Y-44533072D01*
X90206250Y-44533072D01*
X90373408Y-44516608D01*
X90534142Y-44467850D01*
X90682275Y-44388671D01*
X90812115Y-44282115D01*
X90918671Y-44152275D01*
X90997850Y-44004142D01*
X91034339Y-43883852D01*
X91446362Y-44342696D01*
X91452028Y-44350040D01*
X91472106Y-44371365D01*
X91491685Y-44393169D01*
X91498533Y-44399434D01*
X93079742Y-46078855D01*
X93122415Y-46127237D01*
X93163378Y-46158486D01*
X93202220Y-46192370D01*
X93258209Y-46224500D01*
X95325737Y-47502077D01*
X95347846Y-47519882D01*
X95371813Y-47532409D01*
X95220000Y-47531928D01*
X95095518Y-47544188D01*
X94975820Y-47580498D01*
X94865506Y-47639463D01*
X94768815Y-47718815D01*
X94689463Y-47815506D01*
X94630498Y-47925820D01*
X94594188Y-48045518D01*
X94581928Y-48170000D01*
X94585000Y-48384250D01*
X94743750Y-48543000D01*
X96348000Y-48543000D01*
X96348000Y-48523000D01*
X96602000Y-48523000D01*
X96602000Y-48543000D01*
X98206250Y-48543000D01*
X98365000Y-48384250D01*
X98366485Y-48280686D01*
X98555261Y-48292485D01*
X98577888Y-48294817D01*
X98593720Y-48294889D01*
X98609518Y-48295876D01*
X98632245Y-48295063D01*
X100799379Y-48304869D01*
X100810828Y-48305712D01*
X100837907Y-48305043D01*
X100865008Y-48305166D01*
X100876444Y-48304092D01*
X101625819Y-48285588D01*
X101669488Y-48288246D01*
X101741193Y-48278465D01*
X101812936Y-48269606D01*
X101854464Y-48255880D01*
X103023167Y-47977618D01*
X103040117Y-47976252D01*
X103098230Y-47959746D01*
X103119334Y-47954721D01*
X103135324Y-47949210D01*
X103151592Y-47944589D01*
X103171775Y-47936646D01*
X103228893Y-47916959D01*
X103243583Y-47908386D01*
X104651974Y-47354116D01*
X105242441Y-47269764D01*
X106000506Y-47334423D01*
X108657774Y-47580743D01*
X108686256Y-47584106D01*
X108696109Y-47584297D01*
X108705940Y-47585208D01*
X108734663Y-47585043D01*
X110222438Y-47613839D01*
X110247070Y-47617628D01*
X110299555Y-47615332D01*
X110313362Y-47615599D01*
X110338087Y-47613646D01*
X110362842Y-47612563D01*
X110376500Y-47610612D01*
X110428886Y-47606474D01*
X110452874Y-47599701D01*
X111952505Y-47385468D01*
X111970721Y-47385621D01*
X112028919Y-47374552D01*
X112049189Y-47371656D01*
X112066768Y-47367353D01*
X112122629Y-47356728D01*
X112141734Y-47349002D01*
X112161750Y-47344102D01*
X112213273Y-47320071D01*
X112265982Y-47298755D01*
X112283212Y-47287450D01*
X112301887Y-47278740D01*
X112347743Y-47245111D01*
X112362873Y-47235184D01*
X112378807Y-47222330D01*
X112426581Y-47187294D01*
X112438887Y-47173862D01*
X113568657Y-46262452D01*
X113616238Y-46227600D01*
X113654816Y-46185542D01*
X113695525Y-46145510D01*
X113706987Y-46128663D01*
X113720762Y-46113646D01*
X113750399Y-46064860D01*
X113782510Y-46017665D01*
X113805548Y-45963341D01*
X114494663Y-44528473D01*
X114495365Y-44527533D01*
X114527982Y-44459098D01*
X114544317Y-44425085D01*
X114544721Y-44423976D01*
X114561894Y-44387945D01*
X114571133Y-44351520D01*
X114584005Y-44316209D01*
X114590097Y-44276757D01*
X114590386Y-44275618D01*
X114596014Y-44238436D01*
X114607603Y-44163389D01*
X114607552Y-44162216D01*
X114768346Y-43100000D01*
X118291928Y-43100000D01*
X118304188Y-43224482D01*
X118340498Y-43344180D01*
X118399463Y-43454494D01*
X118478815Y-43551185D01*
X118575506Y-43630537D01*
X118685820Y-43689502D01*
X118805518Y-43725812D01*
X118930000Y-43738072D01*
X119744250Y-43735000D01*
X119903000Y-43576250D01*
X119903000Y-42627000D01*
X120157000Y-42627000D01*
X120157000Y-43576250D01*
X120315750Y-43735000D01*
X121130000Y-43738072D01*
X121254482Y-43725812D01*
X121374180Y-43689502D01*
X121484494Y-43630537D01*
X121581185Y-43551185D01*
X121660537Y-43454494D01*
X121719502Y-43344180D01*
X121755812Y-43224482D01*
X121768072Y-43100000D01*
X121765000Y-42785750D01*
X121606250Y-42627000D01*
X120157000Y-42627000D01*
X119903000Y-42627000D01*
X118453750Y-42627000D01*
X118295000Y-42785750D01*
X118291928Y-43100000D01*
X114768346Y-43100000D01*
X114917316Y-42115897D01*
X114922713Y-42098480D01*
X114928865Y-42039603D01*
X114931929Y-42019365D01*
X114932873Y-42001257D01*
X114934757Y-41983223D01*
X114934879Y-41962757D01*
X114937959Y-41903638D01*
X114937431Y-41900000D01*
X118291928Y-41900000D01*
X118295000Y-42214250D01*
X118453750Y-42373000D01*
X119903000Y-42373000D01*
X119903000Y-41423750D01*
X120157000Y-41423750D01*
X120157000Y-42373000D01*
X121606250Y-42373000D01*
X121765000Y-42214250D01*
X121768072Y-41900000D01*
X121755812Y-41775518D01*
X121719502Y-41655820D01*
X121660537Y-41545506D01*
X121581185Y-41448815D01*
X121484494Y-41369463D01*
X121374180Y-41310498D01*
X121254482Y-41274188D01*
X121130000Y-41261928D01*
X120315750Y-41265000D01*
X120157000Y-41423750D01*
X119903000Y-41423750D01*
X119744250Y-41265000D01*
X118930000Y-41261928D01*
X118805518Y-41274188D01*
X118685820Y-41310498D01*
X118575506Y-41369463D01*
X118478815Y-41448815D01*
X118399463Y-41545506D01*
X118340498Y-41655820D01*
X118304188Y-41775518D01*
X118291928Y-41900000D01*
X114937431Y-41900000D01*
X114935337Y-41885593D01*
X114949043Y-39578363D01*
X119195000Y-39578363D01*
X119195000Y-39821637D01*
X119242460Y-40060236D01*
X119335557Y-40284992D01*
X119470713Y-40487267D01*
X119642733Y-40659287D01*
X119845008Y-40794443D01*
X120069764Y-40887540D01*
X120308363Y-40935000D01*
X120551637Y-40935000D01*
X120790236Y-40887540D01*
X121014992Y-40794443D01*
X121217267Y-40659287D01*
X121389287Y-40487267D01*
X121524443Y-40284992D01*
X121617540Y-40060236D01*
X121665000Y-39821637D01*
X121665000Y-39578363D01*
X121617540Y-39339764D01*
X121524443Y-39115008D01*
X121389287Y-38912733D01*
X121217267Y-38740713D01*
X121014992Y-38605557D01*
X120790236Y-38512460D01*
X120551637Y-38465000D01*
X120308363Y-38465000D01*
X120069764Y-38512460D01*
X119845008Y-38605557D01*
X119642733Y-38740713D01*
X119470713Y-38912733D01*
X119335557Y-39115008D01*
X119242460Y-39339764D01*
X119195000Y-39578363D01*
X114949043Y-39578363D01*
X114964554Y-36967292D01*
X114965440Y-36962699D01*
X114965013Y-36890073D01*
X114965215Y-36856104D01*
X114964786Y-36851470D01*
X114964759Y-36846817D01*
X114961230Y-36813026D01*
X114954541Y-36740712D01*
X114953210Y-36736230D01*
X114637950Y-33717373D01*
X114638527Y-33709376D01*
X114629932Y-33640591D01*
X114626749Y-33610114D01*
X114625147Y-33602301D01*
X114624158Y-33594386D01*
X114617398Y-33564508D01*
X114603473Y-33496591D01*
X114600360Y-33489199D01*
X114168044Y-31578363D01*
X119195000Y-31578363D01*
X119195000Y-31821637D01*
X119242460Y-32060236D01*
X119335557Y-32284992D01*
X119470713Y-32487267D01*
X119642733Y-32659287D01*
X119845008Y-32794443D01*
X120069764Y-32887540D01*
X120308363Y-32935000D01*
X120551637Y-32935000D01*
X120790236Y-32887540D01*
X121014992Y-32794443D01*
X121217267Y-32659287D01*
X121389287Y-32487267D01*
X121524443Y-32284992D01*
X121617540Y-32060236D01*
X121665000Y-31821637D01*
X121665000Y-31578363D01*
X121617540Y-31339764D01*
X121524443Y-31115008D01*
X121389287Y-30912733D01*
X121217267Y-30740713D01*
X121014992Y-30605557D01*
X120790236Y-30512460D01*
X120551637Y-30465000D01*
X120308363Y-30465000D01*
X120069764Y-30512460D01*
X119845008Y-30605557D01*
X119642733Y-30740713D01*
X119470713Y-30912733D01*
X119335557Y-31115008D01*
X119242460Y-31339764D01*
X119195000Y-31578363D01*
X114168044Y-31578363D01*
X114119686Y-31364622D01*
X114109360Y-31306521D01*
X114088600Y-31253350D01*
X114070612Y-31199190D01*
X114041451Y-31147907D01*
X113473654Y-30031239D01*
X113465552Y-30008053D01*
X113438674Y-29962444D01*
X113432259Y-29949829D01*
X113419130Y-29929282D01*
X113387043Y-29874835D01*
X113377539Y-29864191D01*
X113369863Y-29852178D01*
X113326144Y-29806631D01*
X113284053Y-29759492D01*
X113272655Y-29750907D01*
X113262783Y-29740622D01*
X113211004Y-29704470D01*
X113191490Y-29689771D01*
X113179384Y-29682392D01*
X113135997Y-29652099D01*
X113113512Y-29642242D01*
X112156288Y-29058791D01*
X112139763Y-29045165D01*
X112090407Y-29018635D01*
X112075636Y-29009632D01*
X112056447Y-29000381D01*
X112003561Y-28971954D01*
X111986923Y-28966864D01*
X111971249Y-28959308D01*
X111913119Y-28944287D01*
X111892746Y-28938055D01*
X111875783Y-28934640D01*
X111821535Y-28920622D01*
X111800152Y-28919412D01*
X111778347Y-28915022D01*
X111805812Y-28824482D01*
X111818072Y-28700000D01*
X111815000Y-28185750D01*
X111656250Y-28027000D01*
X110557000Y-28027000D01*
X110557000Y-28047000D01*
X110303000Y-28047000D01*
X110303000Y-28027000D01*
X110283000Y-28027000D01*
X110283000Y-27773000D01*
X110303000Y-27773000D01*
X110303000Y-26623750D01*
X110557000Y-26623750D01*
X110557000Y-27773000D01*
X111656250Y-27773000D01*
X111815000Y-27614250D01*
X111815085Y-27600000D01*
X118291928Y-27600000D01*
X118304188Y-27724482D01*
X118340498Y-27844180D01*
X118399463Y-27954494D01*
X118478815Y-28051185D01*
X118575506Y-28130537D01*
X118685820Y-28189502D01*
X118805518Y-28225812D01*
X118930000Y-28238072D01*
X119744250Y-28235000D01*
X119903000Y-28076250D01*
X119903000Y-27127000D01*
X120157000Y-27127000D01*
X120157000Y-28076250D01*
X120315750Y-28235000D01*
X121130000Y-28238072D01*
X121254482Y-28225812D01*
X121374180Y-28189502D01*
X121484494Y-28130537D01*
X121581185Y-28051185D01*
X121660537Y-27954494D01*
X121719502Y-27844180D01*
X121755812Y-27724482D01*
X121768072Y-27600000D01*
X121765000Y-27285750D01*
X121606250Y-27127000D01*
X120157000Y-27127000D01*
X119903000Y-27127000D01*
X118453750Y-27127000D01*
X118295000Y-27285750D01*
X118291928Y-27600000D01*
X111815085Y-27600000D01*
X111818072Y-27100000D01*
X111805812Y-26975518D01*
X111769502Y-26855820D01*
X111710537Y-26745506D01*
X111631185Y-26648815D01*
X111534494Y-26569463D01*
X111424180Y-26510498D01*
X111304482Y-26474188D01*
X111180000Y-26461928D01*
X110715750Y-26465000D01*
X110557000Y-26623750D01*
X110303000Y-26623750D01*
X110144250Y-26465000D01*
X109680000Y-26461928D01*
X109555518Y-26474188D01*
X109435820Y-26510498D01*
X109325506Y-26569463D01*
X109297067Y-26592802D01*
X109259228Y-26400000D01*
X118291928Y-26400000D01*
X118295000Y-26714250D01*
X118453750Y-26873000D01*
X119903000Y-26873000D01*
X119903000Y-25923750D01*
X120157000Y-25923750D01*
X120157000Y-26873000D01*
X121606250Y-26873000D01*
X121765000Y-26714250D01*
X121768072Y-26400000D01*
X121755812Y-26275518D01*
X121719502Y-26155820D01*
X121660537Y-26045506D01*
X121581185Y-25948815D01*
X121484494Y-25869463D01*
X121374180Y-25810498D01*
X121254482Y-25774188D01*
X121130000Y-25761928D01*
X120315750Y-25765000D01*
X120157000Y-25923750D01*
X119903000Y-25923750D01*
X119744250Y-25765000D01*
X118930000Y-25761928D01*
X118805518Y-25774188D01*
X118685820Y-25810498D01*
X118575506Y-25869463D01*
X118478815Y-25948815D01*
X118399463Y-26045506D01*
X118340498Y-26155820D01*
X118304188Y-26275518D01*
X118291928Y-26400000D01*
X109259228Y-26400000D01*
X109204636Y-26121841D01*
X109204622Y-26118954D01*
X109189764Y-26046067D01*
X109182878Y-26010980D01*
X109182051Y-26008229D01*
X109173736Y-25967438D01*
X109159844Y-25934347D01*
X109149521Y-25900001D01*
X109129997Y-25863249D01*
X109113882Y-25824861D01*
X109093808Y-25795126D01*
X109076977Y-25763442D01*
X109050649Y-25731194D01*
X109027363Y-25696700D01*
X109001878Y-25671456D01*
X108979185Y-25643660D01*
X108947077Y-25617173D01*
X108945033Y-25615148D01*
X108917256Y-25592572D01*
X108859904Y-25545260D01*
X108857362Y-25543893D01*
X108432245Y-25198377D01*
X108425677Y-25190847D01*
X108372338Y-25149688D01*
X108350087Y-25131603D01*
X108341800Y-25126122D01*
X108303256Y-25096380D01*
X108277449Y-25083566D01*
X108253428Y-25067681D01*
X108208369Y-25049267D01*
X108164757Y-25027613D01*
X108136954Y-25020082D01*
X108110288Y-25009185D01*
X108062489Y-24999913D01*
X108015504Y-24987187D01*
X107986769Y-24985225D01*
X107958486Y-24979739D01*
X107909802Y-24979971D01*
X107899889Y-24979294D01*
X107871233Y-24980154D01*
X107803858Y-24980475D01*
X107794066Y-24982471D01*
X106322242Y-25026659D01*
X106291185Y-24988815D01*
X106194494Y-24909463D01*
X106084180Y-24850498D01*
X105964482Y-24814188D01*
X105840000Y-24801928D01*
X104940000Y-24801928D01*
X104815518Y-24814188D01*
X104695820Y-24850498D01*
X104585506Y-24909463D01*
X104488815Y-24988815D01*
X104409463Y-25085506D01*
X104395652Y-25111344D01*
X104298802Y-25116960D01*
X104182275Y-25021329D01*
X104034142Y-24942150D01*
X103873408Y-24893392D01*
X103706250Y-24876928D01*
X103193750Y-24876928D01*
X103026592Y-24893392D01*
X102865858Y-24942150D01*
X102717725Y-25021329D01*
X102587885Y-25127885D01*
X102481329Y-25257725D01*
X102402150Y-25405858D01*
X102353392Y-25566592D01*
X102336928Y-25733750D01*
X102336928Y-26171250D01*
X102339083Y-26193125D01*
X101678072Y-25719981D01*
X101678072Y-25310000D01*
X101665812Y-25185518D01*
X101629502Y-25065820D01*
X101570537Y-24955506D01*
X101491185Y-24858815D01*
X101394494Y-24779463D01*
X101284180Y-24720498D01*
X101164482Y-24684188D01*
X101040000Y-24671928D01*
X98530000Y-24671928D01*
X98405518Y-24684188D01*
X98285820Y-24720498D01*
X98175506Y-24779463D01*
X98078815Y-24858815D01*
X97999463Y-24955506D01*
X97965679Y-25018711D01*
X96907589Y-25015057D01*
X95795344Y-24969032D01*
X95498563Y-24649422D01*
X94563188Y-23616613D01*
X94289268Y-23260000D01*
X125970001Y-23260000D01*
X125970000Y-51940000D01*
X47290000Y-51940000D01*
X47290000Y-31855000D01*
X48946928Y-31855000D01*
X48959188Y-31979482D01*
X48995498Y-32099180D01*
X49054463Y-32209494D01*
X49133815Y-32306185D01*
X49230506Y-32385537D01*
X49340820Y-32444502D01*
X49460518Y-32480812D01*
X49585000Y-32493072D01*
X50174250Y-32490000D01*
X50333000Y-32331250D01*
X50333000Y-31357000D01*
X50587000Y-31357000D01*
X50587000Y-32331250D01*
X50745750Y-32490000D01*
X51335000Y-32493072D01*
X51459482Y-32480812D01*
X51579180Y-32444502D01*
X51689494Y-32385537D01*
X51786185Y-32306185D01*
X51865537Y-32209494D01*
X51924502Y-32099180D01*
X51960812Y-31979482D01*
X51973072Y-31855000D01*
X51970763Y-31600000D01*
X56221928Y-31600000D01*
X56234188Y-31724482D01*
X56270498Y-31844180D01*
X56329463Y-31954494D01*
X56408815Y-32051185D01*
X56505506Y-32130537D01*
X56615820Y-32189502D01*
X56735518Y-32225812D01*
X56860000Y-32238072D01*
X57829250Y-32235000D01*
X57988000Y-32076250D01*
X57988000Y-31227000D01*
X58242000Y-31227000D01*
X58242000Y-32076250D01*
X58400750Y-32235000D01*
X59370000Y-32238072D01*
X59494482Y-32225812D01*
X59614180Y-32189502D01*
X59724494Y-32130537D01*
X59821185Y-32051185D01*
X59900537Y-31954494D01*
X59959502Y-31844180D01*
X59995812Y-31724482D01*
X60008072Y-31600000D01*
X60005000Y-31385750D01*
X59846250Y-31227000D01*
X58242000Y-31227000D01*
X57988000Y-31227000D01*
X56383750Y-31227000D01*
X56225000Y-31385750D01*
X56221928Y-31600000D01*
X51970763Y-31600000D01*
X51970000Y-31515750D01*
X51811250Y-31357000D01*
X50587000Y-31357000D01*
X50333000Y-31357000D01*
X49108750Y-31357000D01*
X48950000Y-31515750D01*
X48946928Y-31855000D01*
X47290000Y-31855000D01*
X47290000Y-23260000D01*
X52136414Y-23260000D01*
X52124774Y-23288102D01*
G36*
X60784701Y-45314630D02*
G01*
X61219845Y-45576997D01*
X61576397Y-46035421D01*
X61934090Y-46723981D01*
X62226996Y-47366482D01*
X62233398Y-47382788D01*
X62242983Y-47401549D01*
X62251719Y-47420713D01*
X62260511Y-47435861D01*
X62690984Y-48278489D01*
X62694426Y-48289424D01*
X62726108Y-48347241D01*
X62738484Y-48371467D01*
X62744639Y-48381059D01*
X62750114Y-48391051D01*
X62765460Y-48413508D01*
X62801066Y-48469000D01*
X62809020Y-48477255D01*
X63169257Y-49004433D01*
X63197614Y-49051474D01*
X63238784Y-49096670D01*
X63278070Y-49143536D01*
X63320897Y-49177944D01*
X64061075Y-49845428D01*
X60365983Y-49203812D01*
X57362197Y-48341436D01*
X55196444Y-47357003D01*
X54308033Y-46636217D01*
X54433000Y-46511250D01*
X54433000Y-45687000D01*
X54687000Y-45687000D01*
X54687000Y-46511250D01*
X54845750Y-46670000D01*
X54997500Y-46673072D01*
X55121982Y-46660812D01*
X55241680Y-46624502D01*
X55351994Y-46565537D01*
X55448685Y-46486185D01*
X55528037Y-46389494D01*
X55587002Y-46279180D01*
X55623312Y-46159482D01*
X55635572Y-46035000D01*
X55632500Y-45845750D01*
X55473750Y-45687000D01*
X54687000Y-45687000D01*
X54433000Y-45687000D01*
X54413000Y-45687000D01*
X54413000Y-45433000D01*
X54433000Y-45433000D01*
X54433000Y-45413000D01*
X54687000Y-45413000D01*
X54687000Y-45433000D01*
X55473750Y-45433000D01*
X55622564Y-45284186D01*
X60527017Y-45265286D01*
X60784701Y-45314630D01*
G37*
X60784701Y-45314630D02*
X61219845Y-45576997D01*
X61576397Y-46035421D01*
X61934090Y-46723981D01*
X62226996Y-47366482D01*
X62233398Y-47382788D01*
X62242983Y-47401549D01*
X62251719Y-47420713D01*
X62260511Y-47435861D01*
X62690984Y-48278489D01*
X62694426Y-48289424D01*
X62726108Y-48347241D01*
X62738484Y-48371467D01*
X62744639Y-48381059D01*
X62750114Y-48391051D01*
X62765460Y-48413508D01*
X62801066Y-48469000D01*
X62809020Y-48477255D01*
X63169257Y-49004433D01*
X63197614Y-49051474D01*
X63238784Y-49096670D01*
X63278070Y-49143536D01*
X63320897Y-49177944D01*
X64061075Y-49845428D01*
X60365983Y-49203812D01*
X57362197Y-48341436D01*
X55196444Y-47357003D01*
X54308033Y-46636217D01*
X54433000Y-46511250D01*
X54433000Y-45687000D01*
X54687000Y-45687000D01*
X54687000Y-46511250D01*
X54845750Y-46670000D01*
X54997500Y-46673072D01*
X55121982Y-46660812D01*
X55241680Y-46624502D01*
X55351994Y-46565537D01*
X55448685Y-46486185D01*
X55528037Y-46389494D01*
X55587002Y-46279180D01*
X55623312Y-46159482D01*
X55635572Y-46035000D01*
X55632500Y-45845750D01*
X55473750Y-45687000D01*
X54687000Y-45687000D01*
X54433000Y-45687000D01*
X54413000Y-45687000D01*
X54413000Y-45433000D01*
X54433000Y-45433000D01*
X54433000Y-45413000D01*
X54687000Y-45413000D01*
X54687000Y-45433000D01*
X55473750Y-45433000D01*
X55622564Y-45284186D01*
X60527017Y-45265286D01*
X60784701Y-45314630D01*
G36*
X71687000Y-46730500D02*
G01*
X71707000Y-46730500D01*
X71707000Y-46865000D01*
X71413000Y-46865000D01*
X71413000Y-46730500D01*
X71433000Y-46730500D01*
X71433000Y-46710500D01*
X71687000Y-46710500D01*
X71687000Y-46730500D01*
G37*
X71687000Y-46730500D02*
X71707000Y-46730500D01*
X71707000Y-46865000D01*
X71413000Y-46865000D01*
X71413000Y-46730500D01*
X71433000Y-46730500D01*
X71433000Y-46710500D01*
X71687000Y-46710500D01*
X71687000Y-46730500D01*
G36*
X74221928Y-33910198D02*
G01*
X74048102Y-33944774D01*
X73859744Y-34022795D01*
X73690226Y-34136063D01*
X73546063Y-34280226D01*
X73432795Y-34449744D01*
X73354774Y-34638102D01*
X73346554Y-34679428D01*
X73303750Y-34679428D01*
X73136592Y-34695892D01*
X72975858Y-34744650D01*
X72827725Y-34823829D01*
X72697885Y-34930385D01*
X72591329Y-35060225D01*
X72512150Y-35208358D01*
X72463392Y-35369092D01*
X72446928Y-35536250D01*
X72446928Y-35973750D01*
X72463392Y-36140908D01*
X72512150Y-36301642D01*
X72591329Y-36449775D01*
X72609100Y-36471430D01*
X72554463Y-36538006D01*
X72495498Y-36648320D01*
X72459188Y-36768018D01*
X72446928Y-36892500D01*
X72450000Y-37044250D01*
X72608750Y-37203000D01*
X73433000Y-37203000D01*
X73433000Y-37183000D01*
X73687000Y-37183000D01*
X73687000Y-37203000D01*
X73707000Y-37203000D01*
X73707000Y-37457000D01*
X73687000Y-37457000D01*
X73687000Y-38243750D01*
X73845750Y-38402500D01*
X73849042Y-38402553D01*
X73864832Y-38926244D01*
X73863978Y-38986120D01*
X73874159Y-39041408D01*
X73881349Y-39097132D01*
X73888129Y-39117277D01*
X73891981Y-39138194D01*
X73912751Y-39190430D01*
X73930675Y-39243685D01*
X73941257Y-39262124D01*
X73949114Y-39281884D01*
X73979665Y-39329049D01*
X74007643Y-39377799D01*
X74047011Y-39422923D01*
X74538468Y-40039478D01*
X74538844Y-40040203D01*
X74586647Y-40099921D01*
X74610187Y-40129453D01*
X74610753Y-40130035D01*
X74635477Y-40160922D01*
X74664506Y-40185344D01*
X74690952Y-40212555D01*
X74723537Y-40235006D01*
X74753804Y-40260469D01*
X74787037Y-40278757D01*
X74818286Y-40300287D01*
X74854628Y-40315951D01*
X74855331Y-40316338D01*
X74889624Y-40331035D01*
X74960289Y-40361493D01*
X74961094Y-40361665D01*
X75401859Y-40550565D01*
X75422516Y-40562955D01*
X75472759Y-40580951D01*
X75486216Y-40586718D01*
X75509066Y-40593955D01*
X75568091Y-40615096D01*
X75582654Y-40617261D01*
X75596692Y-40621707D01*
X75659018Y-40628614D01*
X75682715Y-40632137D01*
X75697329Y-40632860D01*
X75750382Y-40638739D01*
X75774385Y-40636670D01*
X76327020Y-40663998D01*
X76328815Y-40666185D01*
X76418759Y-40740000D01*
X76328815Y-40813815D01*
X76249463Y-40910506D01*
X76237083Y-40933667D01*
X76145000Y-41025750D01*
X76154533Y-41139380D01*
X76154188Y-41140518D01*
X76141928Y-41265000D01*
X76141928Y-41512212D01*
X75633978Y-41445124D01*
X75129934Y-41237983D01*
X74686957Y-40826647D01*
X74672167Y-40811633D01*
X74658722Y-40800429D01*
X74645896Y-40788519D01*
X74629120Y-40775760D01*
X74127308Y-40357584D01*
X74122801Y-40353153D01*
X74097703Y-40332912D01*
X74072921Y-40312261D01*
X74067690Y-40308709D01*
X73811363Y-40101994D01*
X73782271Y-40073663D01*
X73718903Y-40032529D01*
X73655867Y-39991185D01*
X73654135Y-39990485D01*
X73652570Y-39989469D01*
X73582484Y-39961523D01*
X73512505Y-39933236D01*
X73510671Y-39932888D01*
X73508937Y-39932196D01*
X73434794Y-39918468D01*
X73360592Y-39904367D01*
X73319988Y-39904715D01*
X73109808Y-39886827D01*
X73109502Y-39885820D01*
X73050537Y-39775506D01*
X72971185Y-39678815D01*
X72874494Y-39599463D01*
X72764180Y-39540498D01*
X72644482Y-39504188D01*
X72520000Y-39491928D01*
X70720000Y-39491928D01*
X70595518Y-39504188D01*
X70475820Y-39540498D01*
X70365506Y-39599463D01*
X70268815Y-39678815D01*
X70189463Y-39775506D01*
X70130498Y-39885820D01*
X70094188Y-40005518D01*
X70081928Y-40130000D01*
X70081928Y-41073250D01*
X69947181Y-41066834D01*
X69928561Y-41065000D01*
X69908667Y-41065000D01*
X69888822Y-41064055D01*
X69870158Y-41065000D01*
X69123214Y-41065000D01*
X69107920Y-41064094D01*
X69084704Y-41065000D01*
X69061439Y-41065000D01*
X69046173Y-41066504D01*
X68934873Y-41070847D01*
X68899615Y-41027885D01*
X68769775Y-40921329D01*
X68621642Y-40842150D01*
X68460908Y-40793392D01*
X68293750Y-40776928D01*
X67856250Y-40776928D01*
X67689092Y-40793392D01*
X67528358Y-40842150D01*
X67380225Y-40921329D01*
X67358570Y-40939100D01*
X67291994Y-40884463D01*
X67181680Y-40825498D01*
X67061982Y-40789188D01*
X66937500Y-40776928D01*
X66785750Y-40780000D01*
X66627000Y-40938750D01*
X66627000Y-41763000D01*
X66647000Y-41763000D01*
X66647000Y-42017000D01*
X66627000Y-42017000D01*
X66627000Y-42841250D01*
X66785750Y-43000000D01*
X66937500Y-43003072D01*
X67061982Y-42990812D01*
X67181680Y-42954502D01*
X67291994Y-42895537D01*
X67358570Y-42840900D01*
X67380225Y-42858671D01*
X67528358Y-42937850D01*
X67689092Y-42986608D01*
X67856250Y-43003072D01*
X68293750Y-43003072D01*
X68460908Y-42986608D01*
X68621642Y-42937850D01*
X68769775Y-42858671D01*
X68899615Y-42752115D01*
X68991772Y-42639821D01*
X69115304Y-42635000D01*
X69871328Y-42635000D01*
X70081928Y-42645029D01*
X70081928Y-43630000D01*
X70094188Y-43754482D01*
X70130498Y-43874180D01*
X70189463Y-43984494D01*
X70268815Y-44081185D01*
X70365506Y-44160537D01*
X70475820Y-44219502D01*
X70595518Y-44255812D01*
X70720000Y-44268072D01*
X70802973Y-44268072D01*
X70800018Y-44374067D01*
X70697885Y-44457885D01*
X70591329Y-44587725D01*
X70512150Y-44735858D01*
X70463392Y-44896592D01*
X70446928Y-45063750D01*
X70446928Y-45501250D01*
X70463392Y-45668408D01*
X70512150Y-45829142D01*
X70591329Y-45977275D01*
X70609100Y-45998930D01*
X70554463Y-46065506D01*
X70495498Y-46175820D01*
X70459188Y-46295518D01*
X70446928Y-46420000D01*
X70450000Y-46571750D01*
X70608748Y-46730498D01*
X70548839Y-46730498D01*
X68737367Y-46029765D01*
X67201598Y-44651064D01*
X66383957Y-42928800D01*
X66373000Y-42838257D01*
X66373000Y-42017000D01*
X66353000Y-42017000D01*
X66353000Y-41763000D01*
X66373000Y-41763000D01*
X66373000Y-40938750D01*
X66225378Y-40791128D01*
X66232350Y-40257807D01*
X66601489Y-39591909D01*
X68273864Y-37767500D01*
X72446928Y-37767500D01*
X72459188Y-37891982D01*
X72495498Y-38011680D01*
X72554463Y-38121994D01*
X72633815Y-38218685D01*
X72730506Y-38298037D01*
X72840820Y-38357002D01*
X72960518Y-38393312D01*
X73085000Y-38405572D01*
X73274250Y-38402500D01*
X73433000Y-38243750D01*
X73433000Y-37457000D01*
X72608750Y-37457000D01*
X72450000Y-37615750D01*
X72446928Y-37767500D01*
X68273864Y-37767500D01*
X68374079Y-37658175D01*
X74221928Y-32746352D01*
X74221928Y-33910198D01*
G37*
X74221928Y-33910198D02*
X74048102Y-33944774D01*
X73859744Y-34022795D01*
X73690226Y-34136063D01*
X73546063Y-34280226D01*
X73432795Y-34449744D01*
X73354774Y-34638102D01*
X73346554Y-34679428D01*
X73303750Y-34679428D01*
X73136592Y-34695892D01*
X72975858Y-34744650D01*
X72827725Y-34823829D01*
X72697885Y-34930385D01*
X72591329Y-35060225D01*
X72512150Y-35208358D01*
X72463392Y-35369092D01*
X72446928Y-35536250D01*
X72446928Y-35973750D01*
X72463392Y-36140908D01*
X72512150Y-36301642D01*
X72591329Y-36449775D01*
X72609100Y-36471430D01*
X72554463Y-36538006D01*
X72495498Y-36648320D01*
X72459188Y-36768018D01*
X72446928Y-36892500D01*
X72450000Y-37044250D01*
X72608750Y-37203000D01*
X73433000Y-37203000D01*
X73433000Y-37183000D01*
X73687000Y-37183000D01*
X73687000Y-37203000D01*
X73707000Y-37203000D01*
X73707000Y-37457000D01*
X73687000Y-37457000D01*
X73687000Y-38243750D01*
X73845750Y-38402500D01*
X73849042Y-38402553D01*
X73864832Y-38926244D01*
X73863978Y-38986120D01*
X73874159Y-39041408D01*
X73881349Y-39097132D01*
X73888129Y-39117277D01*
X73891981Y-39138194D01*
X73912751Y-39190430D01*
X73930675Y-39243685D01*
X73941257Y-39262124D01*
X73949114Y-39281884D01*
X73979665Y-39329049D01*
X74007643Y-39377799D01*
X74047011Y-39422923D01*
X74538468Y-40039478D01*
X74538844Y-40040203D01*
X74586647Y-40099921D01*
X74610187Y-40129453D01*
X74610753Y-40130035D01*
X74635477Y-40160922D01*
X74664506Y-40185344D01*
X74690952Y-40212555D01*
X74723537Y-40235006D01*
X74753804Y-40260469D01*
X74787037Y-40278757D01*
X74818286Y-40300287D01*
X74854628Y-40315951D01*
X74855331Y-40316338D01*
X74889624Y-40331035D01*
X74960289Y-40361493D01*
X74961094Y-40361665D01*
X75401859Y-40550565D01*
X75422516Y-40562955D01*
X75472759Y-40580951D01*
X75486216Y-40586718D01*
X75509066Y-40593955D01*
X75568091Y-40615096D01*
X75582654Y-40617261D01*
X75596692Y-40621707D01*
X75659018Y-40628614D01*
X75682715Y-40632137D01*
X75697329Y-40632860D01*
X75750382Y-40638739D01*
X75774385Y-40636670D01*
X76327020Y-40663998D01*
X76328815Y-40666185D01*
X76418759Y-40740000D01*
X76328815Y-40813815D01*
X76249463Y-40910506D01*
X76237083Y-40933667D01*
X76145000Y-41025750D01*
X76154533Y-41139380D01*
X76154188Y-41140518D01*
X76141928Y-41265000D01*
X76141928Y-41512212D01*
X75633978Y-41445124D01*
X75129934Y-41237983D01*
X74686957Y-40826647D01*
X74672167Y-40811633D01*
X74658722Y-40800429D01*
X74645896Y-40788519D01*
X74629120Y-40775760D01*
X74127308Y-40357584D01*
X74122801Y-40353153D01*
X74097703Y-40332912D01*
X74072921Y-40312261D01*
X74067690Y-40308709D01*
X73811363Y-40101994D01*
X73782271Y-40073663D01*
X73718903Y-40032529D01*
X73655867Y-39991185D01*
X73654135Y-39990485D01*
X73652570Y-39989469D01*
X73582484Y-39961523D01*
X73512505Y-39933236D01*
X73510671Y-39932888D01*
X73508937Y-39932196D01*
X73434794Y-39918468D01*
X73360592Y-39904367D01*
X73319988Y-39904715D01*
X73109808Y-39886827D01*
X73109502Y-39885820D01*
X73050537Y-39775506D01*
X72971185Y-39678815D01*
X72874494Y-39599463D01*
X72764180Y-39540498D01*
X72644482Y-39504188D01*
X72520000Y-39491928D01*
X70720000Y-39491928D01*
X70595518Y-39504188D01*
X70475820Y-39540498D01*
X70365506Y-39599463D01*
X70268815Y-39678815D01*
X70189463Y-39775506D01*
X70130498Y-39885820D01*
X70094188Y-40005518D01*
X70081928Y-40130000D01*
X70081928Y-41073250D01*
X69947181Y-41066834D01*
X69928561Y-41065000D01*
X69908667Y-41065000D01*
X69888822Y-41064055D01*
X69870158Y-41065000D01*
X69123214Y-41065000D01*
X69107920Y-41064094D01*
X69084704Y-41065000D01*
X69061439Y-41065000D01*
X69046173Y-41066504D01*
X68934873Y-41070847D01*
X68899615Y-41027885D01*
X68769775Y-40921329D01*
X68621642Y-40842150D01*
X68460908Y-40793392D01*
X68293750Y-40776928D01*
X67856250Y-40776928D01*
X67689092Y-40793392D01*
X67528358Y-40842150D01*
X67380225Y-40921329D01*
X67358570Y-40939100D01*
X67291994Y-40884463D01*
X67181680Y-40825498D01*
X67061982Y-40789188D01*
X66937500Y-40776928D01*
X66785750Y-40780000D01*
X66627000Y-40938750D01*
X66627000Y-41763000D01*
X66647000Y-41763000D01*
X66647000Y-42017000D01*
X66627000Y-42017000D01*
X66627000Y-42841250D01*
X66785750Y-43000000D01*
X66937500Y-43003072D01*
X67061982Y-42990812D01*
X67181680Y-42954502D01*
X67291994Y-42895537D01*
X67358570Y-42840900D01*
X67380225Y-42858671D01*
X67528358Y-42937850D01*
X67689092Y-42986608D01*
X67856250Y-43003072D01*
X68293750Y-43003072D01*
X68460908Y-42986608D01*
X68621642Y-42937850D01*
X68769775Y-42858671D01*
X68899615Y-42752115D01*
X68991772Y-42639821D01*
X69115304Y-42635000D01*
X69871328Y-42635000D01*
X70081928Y-42645029D01*
X70081928Y-43630000D01*
X70094188Y-43754482D01*
X70130498Y-43874180D01*
X70189463Y-43984494D01*
X70268815Y-44081185D01*
X70365506Y-44160537D01*
X70475820Y-44219502D01*
X70595518Y-44255812D01*
X70720000Y-44268072D01*
X70802973Y-44268072D01*
X70800018Y-44374067D01*
X70697885Y-44457885D01*
X70591329Y-44587725D01*
X70512150Y-44735858D01*
X70463392Y-44896592D01*
X70446928Y-45063750D01*
X70446928Y-45501250D01*
X70463392Y-45668408D01*
X70512150Y-45829142D01*
X70591329Y-45977275D01*
X70609100Y-45998930D01*
X70554463Y-46065506D01*
X70495498Y-46175820D01*
X70459188Y-46295518D01*
X70446928Y-46420000D01*
X70450000Y-46571750D01*
X70608748Y-46730498D01*
X70548839Y-46730498D01*
X68737367Y-46029765D01*
X67201598Y-44651064D01*
X66383957Y-42928800D01*
X66373000Y-42838257D01*
X66373000Y-42017000D01*
X66353000Y-42017000D01*
X66353000Y-41763000D01*
X66373000Y-41763000D01*
X66373000Y-40938750D01*
X66225378Y-40791128D01*
X66232350Y-40257807D01*
X66601489Y-39591909D01*
X68273864Y-37767500D01*
X72446928Y-37767500D01*
X72459188Y-37891982D01*
X72495498Y-38011680D01*
X72554463Y-38121994D01*
X72633815Y-38218685D01*
X72730506Y-38298037D01*
X72840820Y-38357002D01*
X72960518Y-38393312D01*
X73085000Y-38405572D01*
X73274250Y-38402500D01*
X73433000Y-38243750D01*
X73433000Y-37457000D01*
X72608750Y-37457000D01*
X72450000Y-37615750D01*
X72446928Y-37767500D01*
X68273864Y-37767500D01*
X68374079Y-37658175D01*
X74221928Y-32746352D01*
X74221928Y-33910198D01*
G36*
X113394757Y-36928552D02*
G01*
X113365351Y-41878604D01*
X113061449Y-43886196D01*
X112459131Y-45140341D01*
X111575197Y-45853431D01*
X110241770Y-46043920D01*
X108783874Y-46015702D01*
X106177966Y-45774143D01*
X106175134Y-45773618D01*
X106139680Y-45770594D01*
X106104059Y-45767292D01*
X106101163Y-45767309D01*
X105313124Y-45700093D01*
X105262930Y-45692372D01*
X105197714Y-45695225D01*
X105132419Y-45696080D01*
X105082739Y-45706640D01*
X104389057Y-45805736D01*
X105895721Y-44255402D01*
X106854464Y-43505496D01*
X107405938Y-43100000D01*
X109041928Y-43100000D01*
X109054188Y-43224482D01*
X109090498Y-43344180D01*
X109149463Y-43454494D01*
X109228815Y-43551185D01*
X109325506Y-43630537D01*
X109435820Y-43689502D01*
X109555518Y-43725812D01*
X109680000Y-43738072D01*
X110144250Y-43735000D01*
X110303000Y-43576250D01*
X110303000Y-42627000D01*
X110557000Y-42627000D01*
X110557000Y-43576250D01*
X110715750Y-43735000D01*
X111180000Y-43738072D01*
X111304482Y-43725812D01*
X111424180Y-43689502D01*
X111534494Y-43630537D01*
X111631185Y-43551185D01*
X111710537Y-43454494D01*
X111769502Y-43344180D01*
X111805812Y-43224482D01*
X111818072Y-43100000D01*
X111815000Y-42785750D01*
X111656250Y-42627000D01*
X110557000Y-42627000D01*
X110303000Y-42627000D01*
X109203750Y-42627000D01*
X109045000Y-42785750D01*
X109041928Y-43100000D01*
X107405938Y-43100000D01*
X108157652Y-42547270D01*
X108592026Y-42318653D01*
X108714348Y-42288072D01*
X109118822Y-42288072D01*
X109203750Y-42373000D01*
X110303000Y-42373000D01*
X110303000Y-42353000D01*
X110557000Y-42353000D01*
X110557000Y-42373000D01*
X111656250Y-42373000D01*
X111815000Y-42214250D01*
X111818072Y-41900000D01*
X111805812Y-41775518D01*
X111769502Y-41655820D01*
X111710537Y-41545506D01*
X111631185Y-41448815D01*
X111534494Y-41369463D01*
X111424180Y-41310498D01*
X111304482Y-41274188D01*
X111180000Y-41261928D01*
X110868072Y-41263992D01*
X110868072Y-41020000D01*
X110854467Y-40881862D01*
X110814466Y-40750000D01*
X110854467Y-40618138D01*
X110868072Y-40480000D01*
X110868072Y-39920000D01*
X110854467Y-39781862D01*
X110814466Y-39650000D01*
X110854467Y-39518138D01*
X110868072Y-39380000D01*
X110868072Y-38820000D01*
X110854467Y-38681862D01*
X110823685Y-38580390D01*
X110855812Y-38474482D01*
X110868072Y-38350000D01*
X110865000Y-38285750D01*
X110706250Y-38127000D01*
X110302974Y-38127000D01*
X110298138Y-38125533D01*
X110160000Y-38111928D01*
X108700000Y-38111928D01*
X108561862Y-38125533D01*
X108557026Y-38127000D01*
X108202541Y-38127000D01*
X108091939Y-38105000D01*
X107888061Y-38105000D01*
X107688102Y-38144774D01*
X107499744Y-38222795D01*
X107330226Y-38336063D01*
X107186063Y-38480226D01*
X107072795Y-38649744D01*
X106994774Y-38838102D01*
X106955000Y-39038061D01*
X106955000Y-39241939D01*
X106994774Y-39441898D01*
X107072795Y-39630256D01*
X107092646Y-39659965D01*
X105698130Y-40097298D01*
X105735000Y-39911939D01*
X105735000Y-39708061D01*
X105695226Y-39508102D01*
X105617205Y-39319744D01*
X105503937Y-39150226D01*
X105359774Y-39006063D01*
X105190256Y-38892795D01*
X105146197Y-38874545D01*
X105209482Y-38868312D01*
X105329180Y-38832002D01*
X105439494Y-38773037D01*
X105536185Y-38693685D01*
X105615537Y-38596994D01*
X105674502Y-38486680D01*
X105710812Y-38366982D01*
X105723072Y-38242500D01*
X105720000Y-38090750D01*
X105561250Y-37932000D01*
X104737000Y-37932000D01*
X104737000Y-37952000D01*
X104483000Y-37952000D01*
X104483000Y-37932000D01*
X103658750Y-37932000D01*
X103500000Y-38090750D01*
X103496928Y-38242500D01*
X103509188Y-38366982D01*
X103545498Y-38486680D01*
X103604463Y-38596994D01*
X103683815Y-38693685D01*
X103780506Y-38773037D01*
X103890820Y-38832002D01*
X104010518Y-38868312D01*
X104135000Y-38880572D01*
X104243505Y-38878811D01*
X104209744Y-38892795D01*
X104040226Y-39006063D01*
X103896063Y-39150226D01*
X103782795Y-39319744D01*
X103704774Y-39508102D01*
X103697614Y-39544100D01*
X103314937Y-39805533D01*
X102377942Y-40191838D01*
X101587257Y-40226786D01*
X101570537Y-40195506D01*
X101491185Y-40098815D01*
X101394494Y-40019463D01*
X101284180Y-39960498D01*
X101164482Y-39924188D01*
X101040000Y-39911928D01*
X98530000Y-39911928D01*
X98405518Y-39924188D01*
X98285820Y-39960498D01*
X98175506Y-40019463D01*
X98078815Y-40098815D01*
X98040467Y-40145542D01*
X96954607Y-40072296D01*
X95453506Y-39648072D01*
X97730000Y-39648072D01*
X97854482Y-39635812D01*
X97974180Y-39599502D01*
X98084494Y-39540537D01*
X98181185Y-39461185D01*
X98260537Y-39364494D01*
X98288410Y-39312347D01*
X98559103Y-39314931D01*
X98594161Y-39315575D01*
X98597611Y-39315299D01*
X98601065Y-39315332D01*
X98635946Y-39312232D01*
X100327799Y-39176883D01*
X100350103Y-39178223D01*
X100404719Y-39170730D01*
X100421038Y-39169424D01*
X100442898Y-39165491D01*
X100503299Y-39157204D01*
X100518872Y-39151823D01*
X100535091Y-39148905D01*
X100591839Y-39126610D01*
X100612829Y-39119357D01*
X100627705Y-39112519D01*
X100679013Y-39092361D01*
X100697816Y-39080291D01*
X101269511Y-38817495D01*
X101458061Y-38855000D01*
X101661939Y-38855000D01*
X101861898Y-38815226D01*
X102050256Y-38737205D01*
X102219774Y-38623937D01*
X102363937Y-38479774D01*
X102477205Y-38310256D01*
X102555226Y-38121898D01*
X102595000Y-37921939D01*
X102595000Y-37718061D01*
X102555226Y-37518102D01*
X102498982Y-37382318D01*
X103339645Y-37737984D01*
X103450283Y-37772458D01*
X103604051Y-37788775D01*
X103758047Y-37774780D01*
X103797542Y-37763124D01*
X104186554Y-37769398D01*
X104192667Y-37770000D01*
X104223886Y-37770000D01*
X104255072Y-37770503D01*
X104261189Y-37770000D01*
X105289431Y-37770000D01*
X105404306Y-37794128D01*
X105520182Y-37795366D01*
X106116228Y-37743081D01*
X107507900Y-37665225D01*
X107992895Y-37670225D01*
X107995000Y-37714250D01*
X108153750Y-37873000D01*
X108557026Y-37873000D01*
X108561862Y-37874467D01*
X108700000Y-37888072D01*
X110160000Y-37888072D01*
X110298138Y-37874467D01*
X110302974Y-37873000D01*
X110706250Y-37873000D01*
X110865000Y-37714250D01*
X110868072Y-37650000D01*
X110855812Y-37525518D01*
X110823685Y-37419610D01*
X110854467Y-37318138D01*
X110868072Y-37180000D01*
X110868072Y-36620000D01*
X110854467Y-36481862D01*
X110836576Y-36422885D01*
X111032207Y-36399565D01*
X111108733Y-36390540D01*
X111146070Y-36378425D01*
X111184379Y-36369986D01*
X111219416Y-36354626D01*
X111255815Y-36342815D01*
X111290060Y-36323655D01*
X111325998Y-36307900D01*
X111357372Y-36285995D01*
X111390761Y-36267314D01*
X111420605Y-36241846D01*
X111452785Y-36219378D01*
X111505945Y-36163995D01*
X112492525Y-35138726D01*
X112515427Y-35120091D01*
X112545994Y-35083160D01*
X112552386Y-35076518D01*
X112570607Y-35053424D01*
X112589317Y-35030819D01*
X112594458Y-35023194D01*
X112624166Y-34985541D01*
X112637586Y-34959229D01*
X113115135Y-34250955D01*
X113394757Y-36928552D01*
G37*
X113394757Y-36928552D02*
X113365351Y-41878604D01*
X113061449Y-43886196D01*
X112459131Y-45140341D01*
X111575197Y-45853431D01*
X110241770Y-46043920D01*
X108783874Y-46015702D01*
X106177966Y-45774143D01*
X106175134Y-45773618D01*
X106139680Y-45770594D01*
X106104059Y-45767292D01*
X106101163Y-45767309D01*
X105313124Y-45700093D01*
X105262930Y-45692372D01*
X105197714Y-45695225D01*
X105132419Y-45696080D01*
X105082739Y-45706640D01*
X104389057Y-45805736D01*
X105895721Y-44255402D01*
X106854464Y-43505496D01*
X107405938Y-43100000D01*
X109041928Y-43100000D01*
X109054188Y-43224482D01*
X109090498Y-43344180D01*
X109149463Y-43454494D01*
X109228815Y-43551185D01*
X109325506Y-43630537D01*
X109435820Y-43689502D01*
X109555518Y-43725812D01*
X109680000Y-43738072D01*
X110144250Y-43735000D01*
X110303000Y-43576250D01*
X110303000Y-42627000D01*
X110557000Y-42627000D01*
X110557000Y-43576250D01*
X110715750Y-43735000D01*
X111180000Y-43738072D01*
X111304482Y-43725812D01*
X111424180Y-43689502D01*
X111534494Y-43630537D01*
X111631185Y-43551185D01*
X111710537Y-43454494D01*
X111769502Y-43344180D01*
X111805812Y-43224482D01*
X111818072Y-43100000D01*
X111815000Y-42785750D01*
X111656250Y-42627000D01*
X110557000Y-42627000D01*
X110303000Y-42627000D01*
X109203750Y-42627000D01*
X109045000Y-42785750D01*
X109041928Y-43100000D01*
X107405938Y-43100000D01*
X108157652Y-42547270D01*
X108592026Y-42318653D01*
X108714348Y-42288072D01*
X109118822Y-42288072D01*
X109203750Y-42373000D01*
X110303000Y-42373000D01*
X110303000Y-42353000D01*
X110557000Y-42353000D01*
X110557000Y-42373000D01*
X111656250Y-42373000D01*
X111815000Y-42214250D01*
X111818072Y-41900000D01*
X111805812Y-41775518D01*
X111769502Y-41655820D01*
X111710537Y-41545506D01*
X111631185Y-41448815D01*
X111534494Y-41369463D01*
X111424180Y-41310498D01*
X111304482Y-41274188D01*
X111180000Y-41261928D01*
X110868072Y-41263992D01*
X110868072Y-41020000D01*
X110854467Y-40881862D01*
X110814466Y-40750000D01*
X110854467Y-40618138D01*
X110868072Y-40480000D01*
X110868072Y-39920000D01*
X110854467Y-39781862D01*
X110814466Y-39650000D01*
X110854467Y-39518138D01*
X110868072Y-39380000D01*
X110868072Y-38820000D01*
X110854467Y-38681862D01*
X110823685Y-38580390D01*
X110855812Y-38474482D01*
X110868072Y-38350000D01*
X110865000Y-38285750D01*
X110706250Y-38127000D01*
X110302974Y-38127000D01*
X110298138Y-38125533D01*
X110160000Y-38111928D01*
X108700000Y-38111928D01*
X108561862Y-38125533D01*
X108557026Y-38127000D01*
X108202541Y-38127000D01*
X108091939Y-38105000D01*
X107888061Y-38105000D01*
X107688102Y-38144774D01*
X107499744Y-38222795D01*
X107330226Y-38336063D01*
X107186063Y-38480226D01*
X107072795Y-38649744D01*
X106994774Y-38838102D01*
X106955000Y-39038061D01*
X106955000Y-39241939D01*
X106994774Y-39441898D01*
X107072795Y-39630256D01*
X107092646Y-39659965D01*
X105698130Y-40097298D01*
X105735000Y-39911939D01*
X105735000Y-39708061D01*
X105695226Y-39508102D01*
X105617205Y-39319744D01*
X105503937Y-39150226D01*
X105359774Y-39006063D01*
X105190256Y-38892795D01*
X105146197Y-38874545D01*
X105209482Y-38868312D01*
X105329180Y-38832002D01*
X105439494Y-38773037D01*
X105536185Y-38693685D01*
X105615537Y-38596994D01*
X105674502Y-38486680D01*
X105710812Y-38366982D01*
X105723072Y-38242500D01*
X105720000Y-38090750D01*
X105561250Y-37932000D01*
X104737000Y-37932000D01*
X104737000Y-37952000D01*
X104483000Y-37952000D01*
X104483000Y-37932000D01*
X103658750Y-37932000D01*
X103500000Y-38090750D01*
X103496928Y-38242500D01*
X103509188Y-38366982D01*
X103545498Y-38486680D01*
X103604463Y-38596994D01*
X103683815Y-38693685D01*
X103780506Y-38773037D01*
X103890820Y-38832002D01*
X104010518Y-38868312D01*
X104135000Y-38880572D01*
X104243505Y-38878811D01*
X104209744Y-38892795D01*
X104040226Y-39006063D01*
X103896063Y-39150226D01*
X103782795Y-39319744D01*
X103704774Y-39508102D01*
X103697614Y-39544100D01*
X103314937Y-39805533D01*
X102377942Y-40191838D01*
X101587257Y-40226786D01*
X101570537Y-40195506D01*
X101491185Y-40098815D01*
X101394494Y-40019463D01*
X101284180Y-39960498D01*
X101164482Y-39924188D01*
X101040000Y-39911928D01*
X98530000Y-39911928D01*
X98405518Y-39924188D01*
X98285820Y-39960498D01*
X98175506Y-40019463D01*
X98078815Y-40098815D01*
X98040467Y-40145542D01*
X96954607Y-40072296D01*
X95453506Y-39648072D01*
X97730000Y-39648072D01*
X97854482Y-39635812D01*
X97974180Y-39599502D01*
X98084494Y-39540537D01*
X98181185Y-39461185D01*
X98260537Y-39364494D01*
X98288410Y-39312347D01*
X98559103Y-39314931D01*
X98594161Y-39315575D01*
X98597611Y-39315299D01*
X98601065Y-39315332D01*
X98635946Y-39312232D01*
X100327799Y-39176883D01*
X100350103Y-39178223D01*
X100404719Y-39170730D01*
X100421038Y-39169424D01*
X100442898Y-39165491D01*
X100503299Y-39157204D01*
X100518872Y-39151823D01*
X100535091Y-39148905D01*
X100591839Y-39126610D01*
X100612829Y-39119357D01*
X100627705Y-39112519D01*
X100679013Y-39092361D01*
X100697816Y-39080291D01*
X101269511Y-38817495D01*
X101458061Y-38855000D01*
X101661939Y-38855000D01*
X101861898Y-38815226D01*
X102050256Y-38737205D01*
X102219774Y-38623937D01*
X102363937Y-38479774D01*
X102477205Y-38310256D01*
X102555226Y-38121898D01*
X102595000Y-37921939D01*
X102595000Y-37718061D01*
X102555226Y-37518102D01*
X102498982Y-37382318D01*
X103339645Y-37737984D01*
X103450283Y-37772458D01*
X103604051Y-37788775D01*
X103758047Y-37774780D01*
X103797542Y-37763124D01*
X104186554Y-37769398D01*
X104192667Y-37770000D01*
X104223886Y-37770000D01*
X104255072Y-37770503D01*
X104261189Y-37770000D01*
X105289431Y-37770000D01*
X105404306Y-37794128D01*
X105520182Y-37795366D01*
X106116228Y-37743081D01*
X107507900Y-37665225D01*
X107992895Y-37670225D01*
X107995000Y-37714250D01*
X108153750Y-37873000D01*
X108557026Y-37873000D01*
X108561862Y-37874467D01*
X108700000Y-37888072D01*
X110160000Y-37888072D01*
X110298138Y-37874467D01*
X110302974Y-37873000D01*
X110706250Y-37873000D01*
X110865000Y-37714250D01*
X110868072Y-37650000D01*
X110855812Y-37525518D01*
X110823685Y-37419610D01*
X110854467Y-37318138D01*
X110868072Y-37180000D01*
X110868072Y-36620000D01*
X110854467Y-36481862D01*
X110836576Y-36422885D01*
X111032207Y-36399565D01*
X111108733Y-36390540D01*
X111146070Y-36378425D01*
X111184379Y-36369986D01*
X111219416Y-36354626D01*
X111255815Y-36342815D01*
X111290060Y-36323655D01*
X111325998Y-36307900D01*
X111357372Y-36285995D01*
X111390761Y-36267314D01*
X111420605Y-36241846D01*
X111452785Y-36219378D01*
X111505945Y-36163995D01*
X112492525Y-35138726D01*
X112515427Y-35120091D01*
X112545994Y-35083160D01*
X112552386Y-35076518D01*
X112570607Y-35053424D01*
X112589317Y-35030819D01*
X112594458Y-35023194D01*
X112624166Y-34985541D01*
X112637586Y-34959229D01*
X113115135Y-34250955D01*
X113394757Y-36928552D01*
G36*
X59880406Y-41179664D02*
G01*
X60449013Y-41384364D01*
X60998729Y-41761781D01*
X61824367Y-42479728D01*
X62487115Y-43349048D01*
X62752840Y-43966678D01*
X62696844Y-43899774D01*
X62693170Y-43893346D01*
X62647303Y-43840582D01*
X62627230Y-43816599D01*
X62621967Y-43811436D01*
X62591722Y-43776644D01*
X62566909Y-43757431D01*
X62544500Y-43735451D01*
X62505917Y-43710206D01*
X62500094Y-43705697D01*
X62473634Y-43689083D01*
X62415106Y-43650787D01*
X62408236Y-43648019D01*
X62089027Y-43447585D01*
X62076655Y-43436830D01*
X62023676Y-43406550D01*
X62004781Y-43394686D01*
X61990184Y-43387408D01*
X61942404Y-43360100D01*
X61921144Y-43352986D01*
X61901072Y-43342979D01*
X61847967Y-43328501D01*
X61832509Y-43323329D01*
X61810761Y-43318358D01*
X61751885Y-43302307D01*
X61735535Y-43301164D01*
X61114027Y-43159104D01*
X61058509Y-43143459D01*
X61000297Y-43138889D01*
X60942368Y-43131520D01*
X60884827Y-43135544D01*
X58635350Y-43180176D01*
X58635000Y-43155750D01*
X58476250Y-42997000D01*
X56552000Y-42997000D01*
X56552000Y-43017000D01*
X56298000Y-43017000D01*
X56298000Y-42997000D01*
X56278000Y-42997000D01*
X56278000Y-42743000D01*
X56298000Y-42743000D01*
X56298000Y-41893750D01*
X56552000Y-41893750D01*
X56552000Y-42743000D01*
X58476250Y-42743000D01*
X58635000Y-42584250D01*
X58638072Y-42370000D01*
X58625812Y-42245518D01*
X58589502Y-42125820D01*
X58530537Y-42015506D01*
X58451185Y-41918815D01*
X58354494Y-41839463D01*
X58244180Y-41780498D01*
X58124482Y-41744188D01*
X58000000Y-41731928D01*
X56710750Y-41735000D01*
X56552000Y-41893750D01*
X56298000Y-41893750D01*
X56139250Y-41735000D01*
X54850000Y-41731928D01*
X54725518Y-41744188D01*
X54694350Y-41753643D01*
X54693271Y-41446030D01*
X54725518Y-41455812D01*
X54850000Y-41468072D01*
X58000000Y-41468072D01*
X58124482Y-41455812D01*
X58244180Y-41419502D01*
X58354494Y-41360537D01*
X58451185Y-41281185D01*
X58530537Y-41184494D01*
X58580627Y-41090784D01*
X59050040Y-41085499D01*
X59880406Y-41179664D01*
G37*
X59880406Y-41179664D02*
X60449013Y-41384364D01*
X60998729Y-41761781D01*
X61824367Y-42479728D01*
X62487115Y-43349048D01*
X62752840Y-43966678D01*
X62696844Y-43899774D01*
X62693170Y-43893346D01*
X62647303Y-43840582D01*
X62627230Y-43816599D01*
X62621967Y-43811436D01*
X62591722Y-43776644D01*
X62566909Y-43757431D01*
X62544500Y-43735451D01*
X62505917Y-43710206D01*
X62500094Y-43705697D01*
X62473634Y-43689083D01*
X62415106Y-43650787D01*
X62408236Y-43648019D01*
X62089027Y-43447585D01*
X62076655Y-43436830D01*
X62023676Y-43406550D01*
X62004781Y-43394686D01*
X61990184Y-43387408D01*
X61942404Y-43360100D01*
X61921144Y-43352986D01*
X61901072Y-43342979D01*
X61847967Y-43328501D01*
X61832509Y-43323329D01*
X61810761Y-43318358D01*
X61751885Y-43302307D01*
X61735535Y-43301164D01*
X61114027Y-43159104D01*
X61058509Y-43143459D01*
X61000297Y-43138889D01*
X60942368Y-43131520D01*
X60884827Y-43135544D01*
X58635350Y-43180176D01*
X58635000Y-43155750D01*
X58476250Y-42997000D01*
X56552000Y-42997000D01*
X56552000Y-43017000D01*
X56298000Y-43017000D01*
X56298000Y-42997000D01*
X56278000Y-42997000D01*
X56278000Y-42743000D01*
X56298000Y-42743000D01*
X56298000Y-41893750D01*
X56552000Y-41893750D01*
X56552000Y-42743000D01*
X58476250Y-42743000D01*
X58635000Y-42584250D01*
X58638072Y-42370000D01*
X58625812Y-42245518D01*
X58589502Y-42125820D01*
X58530537Y-42015506D01*
X58451185Y-41918815D01*
X58354494Y-41839463D01*
X58244180Y-41780498D01*
X58124482Y-41744188D01*
X58000000Y-41731928D01*
X56710750Y-41735000D01*
X56552000Y-41893750D01*
X56298000Y-41893750D01*
X56139250Y-41735000D01*
X54850000Y-41731928D01*
X54725518Y-41744188D01*
X54694350Y-41753643D01*
X54693271Y-41446030D01*
X54725518Y-41455812D01*
X54850000Y-41468072D01*
X58000000Y-41468072D01*
X58124482Y-41455812D01*
X58244180Y-41419502D01*
X58354494Y-41360537D01*
X58451185Y-41281185D01*
X58530537Y-41184494D01*
X58580627Y-41090784D01*
X59050040Y-41085499D01*
X59880406Y-41179664D01*
G36*
X84230518Y-37515812D02*
G01*
X84355000Y-37528072D01*
X84641928Y-37528072D01*
X84641928Y-37815000D01*
X84654188Y-37939482D01*
X84654345Y-37940000D01*
X84654188Y-37940518D01*
X84641928Y-38065000D01*
X84641928Y-38615000D01*
X84654188Y-38739482D01*
X84654345Y-38740000D01*
X84654188Y-38740518D01*
X84641928Y-38865000D01*
X84641928Y-39415000D01*
X84654188Y-39539482D01*
X84654533Y-39540620D01*
X84645000Y-39654250D01*
X84737083Y-39746333D01*
X84749463Y-39769494D01*
X84828815Y-39866185D01*
X84918759Y-39940000D01*
X84828815Y-40013815D01*
X84749463Y-40110506D01*
X84737083Y-40133667D01*
X84645000Y-40225750D01*
X84654533Y-40339380D01*
X84654188Y-40340518D01*
X84641928Y-40465000D01*
X84641928Y-41015000D01*
X84654188Y-41139482D01*
X84654345Y-41140000D01*
X84654188Y-41140518D01*
X84643433Y-41249722D01*
X84609774Y-41216063D01*
X84440256Y-41102795D01*
X84251898Y-41024774D01*
X84051939Y-40985000D01*
X83848061Y-40985000D01*
X83648102Y-41024774D01*
X83459744Y-41102795D01*
X83290226Y-41216063D01*
X83146063Y-41360226D01*
X83032795Y-41529744D01*
X82954774Y-41718102D01*
X82915000Y-41918061D01*
X82915000Y-42121939D01*
X82954774Y-42321898D01*
X83032795Y-42510256D01*
X83146063Y-42679774D01*
X83290226Y-42823937D01*
X83459744Y-42937205D01*
X83648102Y-43015226D01*
X83848061Y-43055000D01*
X84051939Y-43055000D01*
X84251898Y-43015226D01*
X84262148Y-43010980D01*
X84278562Y-43020332D01*
X84320159Y-43034188D01*
X84324850Y-43036209D01*
X84356770Y-43046384D01*
X84425268Y-43069201D01*
X84430364Y-43069842D01*
X84435260Y-43071403D01*
X84507029Y-43079491D01*
X84540245Y-43083671D01*
X84545348Y-43083809D01*
X84588919Y-43088719D01*
X84622441Y-43085893D01*
X84641928Y-43086419D01*
X84641928Y-43151928D01*
X84355000Y-43151928D01*
X84230518Y-43164188D01*
X84230000Y-43164345D01*
X84229482Y-43164188D01*
X84105000Y-43151928D01*
X83555000Y-43151928D01*
X83430518Y-43164188D01*
X83429380Y-43164533D01*
X83315750Y-43155000D01*
X83223667Y-43247083D01*
X83200506Y-43259463D01*
X83103815Y-43338815D01*
X83030000Y-43428759D01*
X82956185Y-43338815D01*
X82859494Y-43259463D01*
X82836333Y-43247083D01*
X82744250Y-43155000D01*
X82630620Y-43164533D01*
X82629482Y-43164188D01*
X82505000Y-43151928D01*
X81955000Y-43151928D01*
X81830518Y-43164188D01*
X81830000Y-43164345D01*
X81829482Y-43164188D01*
X81705000Y-43151928D01*
X81155000Y-43151928D01*
X81030518Y-43164188D01*
X81030000Y-43164345D01*
X81029482Y-43164188D01*
X80905000Y-43151928D01*
X80355000Y-43151928D01*
X80230518Y-43164188D01*
X80230000Y-43164345D01*
X80229482Y-43164188D01*
X80192590Y-43160555D01*
X80299774Y-43088937D01*
X80443937Y-42944774D01*
X80557205Y-42775256D01*
X80635226Y-42586898D01*
X80675000Y-42386939D01*
X80675000Y-42183061D01*
X80635226Y-41983102D01*
X80557205Y-41794744D01*
X80443937Y-41625226D01*
X80299774Y-41481063D01*
X80130256Y-41367795D01*
X79941898Y-41289774D01*
X79741939Y-41250000D01*
X79715157Y-41250000D01*
X79608828Y-41143671D01*
X79604037Y-41136819D01*
X79554240Y-41089083D01*
X79532812Y-41067655D01*
X79526383Y-41062379D01*
X79492410Y-41029812D01*
X79466753Y-41013442D01*
X79443232Y-40994139D01*
X79401730Y-40971956D01*
X79362052Y-40946640D01*
X79333697Y-40935591D01*
X79306859Y-40921246D01*
X79261818Y-40907583D01*
X79217972Y-40890498D01*
X79188011Y-40885194D01*
X79158886Y-40876359D01*
X79112048Y-40871746D01*
X79103863Y-40870297D01*
X79073675Y-40867967D01*
X79015000Y-40862188D01*
X79015000Y-40742886D01*
X79162952Y-40744724D01*
X79184153Y-40745924D01*
X79201467Y-40745203D01*
X79218807Y-40745418D01*
X79239977Y-40743598D01*
X81115325Y-40665459D01*
X81126486Y-40665773D01*
X81153810Y-40663856D01*
X81181207Y-40662714D01*
X81192275Y-40661156D01*
X81629899Y-40630446D01*
X81759744Y-40717205D01*
X81948102Y-40795226D01*
X82148061Y-40835000D01*
X82351939Y-40835000D01*
X82551898Y-40795226D01*
X82740256Y-40717205D01*
X82909774Y-40603937D01*
X83053937Y-40459774D01*
X83167205Y-40290256D01*
X83245226Y-40101898D01*
X83285000Y-39901939D01*
X83285000Y-39698061D01*
X83245226Y-39498102D01*
X83167205Y-39309744D01*
X83053937Y-39140226D01*
X82909774Y-38996063D01*
X82740256Y-38882795D01*
X82551898Y-38804774D01*
X82351939Y-38765000D01*
X82148061Y-38765000D01*
X82008860Y-38792689D01*
X82038232Y-38752743D01*
X82048657Y-38730464D01*
X82061975Y-38709768D01*
X82081370Y-38660558D01*
X82103771Y-38612687D01*
X82109649Y-38588805D01*
X82118674Y-38565907D01*
X82128092Y-38513877D01*
X82131468Y-38500162D01*
X82134960Y-38475937D01*
X82146217Y-38413748D01*
X82145972Y-38399543D01*
X82271589Y-37528072D01*
X82505000Y-37528072D01*
X82629482Y-37515812D01*
X82630000Y-37515655D01*
X82630518Y-37515812D01*
X82755000Y-37528072D01*
X83305000Y-37528072D01*
X83429482Y-37515812D01*
X83430000Y-37515655D01*
X83430518Y-37515812D01*
X83555000Y-37528072D01*
X84105000Y-37528072D01*
X84229482Y-37515812D01*
X84230000Y-37515655D01*
X84230518Y-37515812D01*
G37*
X84230518Y-37515812D02*
X84355000Y-37528072D01*
X84641928Y-37528072D01*
X84641928Y-37815000D01*
X84654188Y-37939482D01*
X84654345Y-37940000D01*
X84654188Y-37940518D01*
X84641928Y-38065000D01*
X84641928Y-38615000D01*
X84654188Y-38739482D01*
X84654345Y-38740000D01*
X84654188Y-38740518D01*
X84641928Y-38865000D01*
X84641928Y-39415000D01*
X84654188Y-39539482D01*
X84654533Y-39540620D01*
X84645000Y-39654250D01*
X84737083Y-39746333D01*
X84749463Y-39769494D01*
X84828815Y-39866185D01*
X84918759Y-39940000D01*
X84828815Y-40013815D01*
X84749463Y-40110506D01*
X84737083Y-40133667D01*
X84645000Y-40225750D01*
X84654533Y-40339380D01*
X84654188Y-40340518D01*
X84641928Y-40465000D01*
X84641928Y-41015000D01*
X84654188Y-41139482D01*
X84654345Y-41140000D01*
X84654188Y-41140518D01*
X84643433Y-41249722D01*
X84609774Y-41216063D01*
X84440256Y-41102795D01*
X84251898Y-41024774D01*
X84051939Y-40985000D01*
X83848061Y-40985000D01*
X83648102Y-41024774D01*
X83459744Y-41102795D01*
X83290226Y-41216063D01*
X83146063Y-41360226D01*
X83032795Y-41529744D01*
X82954774Y-41718102D01*
X82915000Y-41918061D01*
X82915000Y-42121939D01*
X82954774Y-42321898D01*
X83032795Y-42510256D01*
X83146063Y-42679774D01*
X83290226Y-42823937D01*
X83459744Y-42937205D01*
X83648102Y-43015226D01*
X83848061Y-43055000D01*
X84051939Y-43055000D01*
X84251898Y-43015226D01*
X84262148Y-43010980D01*
X84278562Y-43020332D01*
X84320159Y-43034188D01*
X84324850Y-43036209D01*
X84356770Y-43046384D01*
X84425268Y-43069201D01*
X84430364Y-43069842D01*
X84435260Y-43071403D01*
X84507029Y-43079491D01*
X84540245Y-43083671D01*
X84545348Y-43083809D01*
X84588919Y-43088719D01*
X84622441Y-43085893D01*
X84641928Y-43086419D01*
X84641928Y-43151928D01*
X84355000Y-43151928D01*
X84230518Y-43164188D01*
X84230000Y-43164345D01*
X84229482Y-43164188D01*
X84105000Y-43151928D01*
X83555000Y-43151928D01*
X83430518Y-43164188D01*
X83429380Y-43164533D01*
X83315750Y-43155000D01*
X83223667Y-43247083D01*
X83200506Y-43259463D01*
X83103815Y-43338815D01*
X83030000Y-43428759D01*
X82956185Y-43338815D01*
X82859494Y-43259463D01*
X82836333Y-43247083D01*
X82744250Y-43155000D01*
X82630620Y-43164533D01*
X82629482Y-43164188D01*
X82505000Y-43151928D01*
X81955000Y-43151928D01*
X81830518Y-43164188D01*
X81830000Y-43164345D01*
X81829482Y-43164188D01*
X81705000Y-43151928D01*
X81155000Y-43151928D01*
X81030518Y-43164188D01*
X81030000Y-43164345D01*
X81029482Y-43164188D01*
X80905000Y-43151928D01*
X80355000Y-43151928D01*
X80230518Y-43164188D01*
X80230000Y-43164345D01*
X80229482Y-43164188D01*
X80192590Y-43160555D01*
X80299774Y-43088937D01*
X80443937Y-42944774D01*
X80557205Y-42775256D01*
X80635226Y-42586898D01*
X80675000Y-42386939D01*
X80675000Y-42183061D01*
X80635226Y-41983102D01*
X80557205Y-41794744D01*
X80443937Y-41625226D01*
X80299774Y-41481063D01*
X80130256Y-41367795D01*
X79941898Y-41289774D01*
X79741939Y-41250000D01*
X79715157Y-41250000D01*
X79608828Y-41143671D01*
X79604037Y-41136819D01*
X79554240Y-41089083D01*
X79532812Y-41067655D01*
X79526383Y-41062379D01*
X79492410Y-41029812D01*
X79466753Y-41013442D01*
X79443232Y-40994139D01*
X79401730Y-40971956D01*
X79362052Y-40946640D01*
X79333697Y-40935591D01*
X79306859Y-40921246D01*
X79261818Y-40907583D01*
X79217972Y-40890498D01*
X79188011Y-40885194D01*
X79158886Y-40876359D01*
X79112048Y-40871746D01*
X79103863Y-40870297D01*
X79073675Y-40867967D01*
X79015000Y-40862188D01*
X79015000Y-40742886D01*
X79162952Y-40744724D01*
X79184153Y-40745924D01*
X79201467Y-40745203D01*
X79218807Y-40745418D01*
X79239977Y-40743598D01*
X81115325Y-40665459D01*
X81126486Y-40665773D01*
X81153810Y-40663856D01*
X81181207Y-40662714D01*
X81192275Y-40661156D01*
X81629899Y-40630446D01*
X81759744Y-40717205D01*
X81948102Y-40795226D01*
X82148061Y-40835000D01*
X82351939Y-40835000D01*
X82551898Y-40795226D01*
X82740256Y-40717205D01*
X82909774Y-40603937D01*
X83053937Y-40459774D01*
X83167205Y-40290256D01*
X83245226Y-40101898D01*
X83285000Y-39901939D01*
X83285000Y-39698061D01*
X83245226Y-39498102D01*
X83167205Y-39309744D01*
X83053937Y-39140226D01*
X82909774Y-38996063D01*
X82740256Y-38882795D01*
X82551898Y-38804774D01*
X82351939Y-38765000D01*
X82148061Y-38765000D01*
X82008860Y-38792689D01*
X82038232Y-38752743D01*
X82048657Y-38730464D01*
X82061975Y-38709768D01*
X82081370Y-38660558D01*
X82103771Y-38612687D01*
X82109649Y-38588805D01*
X82118674Y-38565907D01*
X82128092Y-38513877D01*
X82131468Y-38500162D01*
X82134960Y-38475937D01*
X82146217Y-38413748D01*
X82145972Y-38399543D01*
X82271589Y-37528072D01*
X82505000Y-37528072D01*
X82629482Y-37515812D01*
X82630000Y-37515655D01*
X82630518Y-37515812D01*
X82755000Y-37528072D01*
X83305000Y-37528072D01*
X83429482Y-37515812D01*
X83430000Y-37515655D01*
X83430518Y-37515812D01*
X83555000Y-37528072D01*
X84105000Y-37528072D01*
X84229482Y-37515812D01*
X84230000Y-37515655D01*
X84230518Y-37515812D01*
G36*
X88458362Y-39993554D02*
G01*
X88971786Y-40059802D01*
X89400270Y-40193265D01*
X89894567Y-40538597D01*
X90125732Y-40920018D01*
X90077000Y-40968750D01*
X90077000Y-41755500D01*
X90097000Y-41755500D01*
X90097000Y-41905354D01*
X89803000Y-41902656D01*
X89803000Y-41755500D01*
X89823000Y-41755500D01*
X89823000Y-40968750D01*
X89664250Y-40810000D01*
X89475000Y-40806928D01*
X89350518Y-40819188D01*
X89230820Y-40855498D01*
X89120506Y-40914463D01*
X89023815Y-40993815D01*
X88944463Y-41090506D01*
X88885498Y-41200820D01*
X88850689Y-41315571D01*
X88728601Y-41232551D01*
X88683628Y-41198351D01*
X88630082Y-41172233D01*
X88577772Y-41143724D01*
X88523843Y-41126885D01*
X87899293Y-40894909D01*
X87883907Y-40886354D01*
X87826959Y-40868042D01*
X87807178Y-40860695D01*
X87790241Y-40856235D01*
X87773586Y-40850880D01*
X87752982Y-40846425D01*
X87695113Y-40831188D01*
X87677537Y-40830113D01*
X87518072Y-40795633D01*
X87518072Y-40465000D01*
X87505812Y-40340518D01*
X87505467Y-40339380D01*
X87515000Y-40225750D01*
X87422917Y-40133667D01*
X87410537Y-40110506D01*
X87374834Y-40067002D01*
X87515000Y-40067002D01*
X87515000Y-39966491D01*
X88458362Y-39993554D01*
G37*
X88458362Y-39993554D02*
X88971786Y-40059802D01*
X89400270Y-40193265D01*
X89894567Y-40538597D01*
X90125732Y-40920018D01*
X90077000Y-40968750D01*
X90077000Y-41755500D01*
X90097000Y-41755500D01*
X90097000Y-41905354D01*
X89803000Y-41902656D01*
X89803000Y-41755500D01*
X89823000Y-41755500D01*
X89823000Y-40968750D01*
X89664250Y-40810000D01*
X89475000Y-40806928D01*
X89350518Y-40819188D01*
X89230820Y-40855498D01*
X89120506Y-40914463D01*
X89023815Y-40993815D01*
X88944463Y-41090506D01*
X88885498Y-41200820D01*
X88850689Y-41315571D01*
X88728601Y-41232551D01*
X88683628Y-41198351D01*
X88630082Y-41172233D01*
X88577772Y-41143724D01*
X88523843Y-41126885D01*
X87899293Y-40894909D01*
X87883907Y-40886354D01*
X87826959Y-40868042D01*
X87807178Y-40860695D01*
X87790241Y-40856235D01*
X87773586Y-40850880D01*
X87752982Y-40846425D01*
X87695113Y-40831188D01*
X87677537Y-40830113D01*
X87518072Y-40795633D01*
X87518072Y-40465000D01*
X87505812Y-40340518D01*
X87505467Y-40339380D01*
X87515000Y-40225750D01*
X87422917Y-40133667D01*
X87410537Y-40110506D01*
X87374834Y-40067002D01*
X87515000Y-40067002D01*
X87515000Y-39966491D01*
X88458362Y-39993554D01*
G36*
X97891928Y-31390000D02*
G01*
X97904188Y-31514482D01*
X97940498Y-31634180D01*
X97999463Y-31744494D01*
X98078815Y-31841185D01*
X98175506Y-31920537D01*
X98285820Y-31979502D01*
X98405518Y-32015812D01*
X98530000Y-32028072D01*
X101040000Y-32028072D01*
X101164482Y-32015812D01*
X101284180Y-31979502D01*
X101394494Y-31920537D01*
X101491185Y-31841185D01*
X101570537Y-31744494D01*
X101594743Y-31699209D01*
X102309390Y-31742963D01*
X102670961Y-31938097D01*
X103201553Y-32516204D01*
X103610808Y-33177309D01*
X103815381Y-34134713D01*
X103820935Y-35345435D01*
X103747885Y-35405385D01*
X103641329Y-35535225D01*
X103562150Y-35683358D01*
X103513392Y-35844092D01*
X103496928Y-36011250D01*
X103496928Y-36099798D01*
X102635241Y-35735238D01*
X101863779Y-35358914D01*
X101825684Y-35336195D01*
X101758090Y-35312177D01*
X101690873Y-35287209D01*
X101685302Y-35286314D01*
X101679978Y-35284422D01*
X101645762Y-35279424D01*
X101629502Y-35225820D01*
X101570537Y-35115506D01*
X101491185Y-35018815D01*
X101394494Y-34939463D01*
X101284180Y-34880498D01*
X101164482Y-34844188D01*
X101040000Y-34831928D01*
X98530000Y-34831928D01*
X98405518Y-34844188D01*
X98285820Y-34880498D01*
X98175506Y-34939463D01*
X98078815Y-35018815D01*
X97999463Y-35115506D01*
X97976111Y-35159195D01*
X94634388Y-35111668D01*
X94657905Y-35092010D01*
X94683836Y-35075083D01*
X94717091Y-35042534D01*
X94752786Y-35012696D01*
X94772209Y-34988588D01*
X94794345Y-34966922D01*
X94820613Y-34928508D01*
X94825489Y-34922455D01*
X94842370Y-34896689D01*
X94881627Y-34839279D01*
X94884699Y-34832081D01*
X95017297Y-34629695D01*
X95043398Y-34596736D01*
X95068555Y-34547633D01*
X95095518Y-34555812D01*
X95220000Y-34568072D01*
X97730000Y-34568072D01*
X97854482Y-34555812D01*
X97974180Y-34519502D01*
X98084494Y-34460537D01*
X98181185Y-34381185D01*
X98260537Y-34284494D01*
X98319502Y-34174180D01*
X98355812Y-34054482D01*
X98368072Y-33930000D01*
X98368072Y-32930000D01*
X98355812Y-32805518D01*
X98319502Y-32685820D01*
X98260537Y-32575506D01*
X98181185Y-32478815D01*
X98084494Y-32399463D01*
X97974180Y-32340498D01*
X97854482Y-32304188D01*
X97730000Y-32291928D01*
X97404426Y-32291928D01*
X97553285Y-31193213D01*
X97684294Y-30891894D01*
X97891928Y-30804739D01*
X97891928Y-31390000D01*
G37*
X97891928Y-31390000D02*
X97904188Y-31514482D01*
X97940498Y-31634180D01*
X97999463Y-31744494D01*
X98078815Y-31841185D01*
X98175506Y-31920537D01*
X98285820Y-31979502D01*
X98405518Y-32015812D01*
X98530000Y-32028072D01*
X101040000Y-32028072D01*
X101164482Y-32015812D01*
X101284180Y-31979502D01*
X101394494Y-31920537D01*
X101491185Y-31841185D01*
X101570537Y-31744494D01*
X101594743Y-31699209D01*
X102309390Y-31742963D01*
X102670961Y-31938097D01*
X103201553Y-32516204D01*
X103610808Y-33177309D01*
X103815381Y-34134713D01*
X103820935Y-35345435D01*
X103747885Y-35405385D01*
X103641329Y-35535225D01*
X103562150Y-35683358D01*
X103513392Y-35844092D01*
X103496928Y-36011250D01*
X103496928Y-36099798D01*
X102635241Y-35735238D01*
X101863779Y-35358914D01*
X101825684Y-35336195D01*
X101758090Y-35312177D01*
X101690873Y-35287209D01*
X101685302Y-35286314D01*
X101679978Y-35284422D01*
X101645762Y-35279424D01*
X101629502Y-35225820D01*
X101570537Y-35115506D01*
X101491185Y-35018815D01*
X101394494Y-34939463D01*
X101284180Y-34880498D01*
X101164482Y-34844188D01*
X101040000Y-34831928D01*
X98530000Y-34831928D01*
X98405518Y-34844188D01*
X98285820Y-34880498D01*
X98175506Y-34939463D01*
X98078815Y-35018815D01*
X97999463Y-35115506D01*
X97976111Y-35159195D01*
X94634388Y-35111668D01*
X94657905Y-35092010D01*
X94683836Y-35075083D01*
X94717091Y-35042534D01*
X94752786Y-35012696D01*
X94772209Y-34988588D01*
X94794345Y-34966922D01*
X94820613Y-34928508D01*
X94825489Y-34922455D01*
X94842370Y-34896689D01*
X94881627Y-34839279D01*
X94884699Y-34832081D01*
X95017297Y-34629695D01*
X95043398Y-34596736D01*
X95068555Y-34547633D01*
X95095518Y-34555812D01*
X95220000Y-34568072D01*
X97730000Y-34568072D01*
X97854482Y-34555812D01*
X97974180Y-34519502D01*
X98084494Y-34460537D01*
X98181185Y-34381185D01*
X98260537Y-34284494D01*
X98319502Y-34174180D01*
X98355812Y-34054482D01*
X98368072Y-33930000D01*
X98368072Y-32930000D01*
X98355812Y-32805518D01*
X98319502Y-32685820D01*
X98260537Y-32575506D01*
X98181185Y-32478815D01*
X98084494Y-32399463D01*
X97974180Y-32340498D01*
X97854482Y-32304188D01*
X97730000Y-32291928D01*
X97404426Y-32291928D01*
X97553285Y-31193213D01*
X97684294Y-30891894D01*
X97891928Y-30804739D01*
X97891928Y-31390000D01*
G36*
X93013268Y-27510818D02*
G01*
X93035273Y-27563570D01*
X93046577Y-27580397D01*
X93460441Y-28444912D01*
X93479160Y-28491972D01*
X93514751Y-28546903D01*
X93548646Y-28602855D01*
X93556725Y-28611685D01*
X93563243Y-28621745D01*
X93608882Y-28668691D01*
X93653027Y-28716941D01*
X93662678Y-28724029D01*
X93671029Y-28732619D01*
X93724903Y-28769728D01*
X93777657Y-28808471D01*
X93788515Y-28813544D01*
X93798374Y-28820335D01*
X93858464Y-28846226D01*
X93917752Y-28873926D01*
X93966932Y-28886000D01*
X94563209Y-29076118D01*
X94568140Y-29078754D01*
X94632725Y-29098345D01*
X94689463Y-29204494D01*
X94768815Y-29301185D01*
X94865506Y-29380537D01*
X94975820Y-29439502D01*
X95095518Y-29475812D01*
X95220000Y-29488072D01*
X96972256Y-29488072D01*
X96829766Y-29547883D01*
X96800886Y-29556097D01*
X96758657Y-29577731D01*
X96750619Y-29581105D01*
X96724338Y-29595313D01*
X96663264Y-29626601D01*
X96656386Y-29632048D01*
X96648678Y-29636215D01*
X96595858Y-29679982D01*
X96542041Y-29722601D01*
X96536361Y-29729281D01*
X96529610Y-29734875D01*
X96486311Y-29788145D01*
X96441876Y-29840405D01*
X96437612Y-29848059D01*
X96432078Y-29854867D01*
X96400000Y-29915569D01*
X96385476Y-29941638D01*
X96382006Y-29949619D01*
X96359830Y-29991583D01*
X96351248Y-30020363D01*
X96073070Y-30660169D01*
X96044024Y-30723640D01*
X96033353Y-30768639D01*
X96019159Y-30812655D01*
X96011107Y-30881994D01*
X95820083Y-32291928D01*
X95220000Y-32291928D01*
X95095518Y-32304188D01*
X94975820Y-32340498D01*
X94865506Y-32399463D01*
X94768815Y-32478815D01*
X94689463Y-32575506D01*
X94630498Y-32685820D01*
X94609141Y-32756226D01*
X94605176Y-32758302D01*
X94584097Y-32775305D01*
X94398072Y-32889601D01*
X94398072Y-31590000D01*
X94385812Y-31465518D01*
X94349502Y-31345820D01*
X94290537Y-31235506D01*
X94211185Y-31138815D01*
X94114494Y-31059463D01*
X94004180Y-31000498D01*
X93884482Y-30964188D01*
X93760000Y-30951928D01*
X91260000Y-30951928D01*
X91135518Y-30964188D01*
X91055130Y-30988574D01*
X91069257Y-30956608D01*
X91071058Y-30948546D01*
X91074240Y-30940920D01*
X91087906Y-30873132D01*
X91094523Y-30843511D01*
X91095518Y-30835373D01*
X91104798Y-30789338D01*
X91104876Y-30758801D01*
X91198773Y-29990557D01*
X91573803Y-28929496D01*
X92024109Y-27828072D01*
X92450000Y-27828072D01*
X92574482Y-27815812D01*
X92694180Y-27779502D01*
X92804494Y-27720537D01*
X92901185Y-27641185D01*
X92980537Y-27544494D01*
X93006308Y-27496280D01*
X93013268Y-27510818D01*
G37*
X93013268Y-27510818D02*
X93035273Y-27563570D01*
X93046577Y-27580397D01*
X93460441Y-28444912D01*
X93479160Y-28491972D01*
X93514751Y-28546903D01*
X93548646Y-28602855D01*
X93556725Y-28611685D01*
X93563243Y-28621745D01*
X93608882Y-28668691D01*
X93653027Y-28716941D01*
X93662678Y-28724029D01*
X93671029Y-28732619D01*
X93724903Y-28769728D01*
X93777657Y-28808471D01*
X93788515Y-28813544D01*
X93798374Y-28820335D01*
X93858464Y-28846226D01*
X93917752Y-28873926D01*
X93966932Y-28886000D01*
X94563209Y-29076118D01*
X94568140Y-29078754D01*
X94632725Y-29098345D01*
X94689463Y-29204494D01*
X94768815Y-29301185D01*
X94865506Y-29380537D01*
X94975820Y-29439502D01*
X95095518Y-29475812D01*
X95220000Y-29488072D01*
X96972256Y-29488072D01*
X96829766Y-29547883D01*
X96800886Y-29556097D01*
X96758657Y-29577731D01*
X96750619Y-29581105D01*
X96724338Y-29595313D01*
X96663264Y-29626601D01*
X96656386Y-29632048D01*
X96648678Y-29636215D01*
X96595858Y-29679982D01*
X96542041Y-29722601D01*
X96536361Y-29729281D01*
X96529610Y-29734875D01*
X96486311Y-29788145D01*
X96441876Y-29840405D01*
X96437612Y-29848059D01*
X96432078Y-29854867D01*
X96400000Y-29915569D01*
X96385476Y-29941638D01*
X96382006Y-29949619D01*
X96359830Y-29991583D01*
X96351248Y-30020363D01*
X96073070Y-30660169D01*
X96044024Y-30723640D01*
X96033353Y-30768639D01*
X96019159Y-30812655D01*
X96011107Y-30881994D01*
X95820083Y-32291928D01*
X95220000Y-32291928D01*
X95095518Y-32304188D01*
X94975820Y-32340498D01*
X94865506Y-32399463D01*
X94768815Y-32478815D01*
X94689463Y-32575506D01*
X94630498Y-32685820D01*
X94609141Y-32756226D01*
X94605176Y-32758302D01*
X94584097Y-32775305D01*
X94398072Y-32889601D01*
X94398072Y-31590000D01*
X94385812Y-31465518D01*
X94349502Y-31345820D01*
X94290537Y-31235506D01*
X94211185Y-31138815D01*
X94114494Y-31059463D01*
X94004180Y-31000498D01*
X93884482Y-30964188D01*
X93760000Y-30951928D01*
X91260000Y-30951928D01*
X91135518Y-30964188D01*
X91055130Y-30988574D01*
X91069257Y-30956608D01*
X91071058Y-30948546D01*
X91074240Y-30940920D01*
X91087906Y-30873132D01*
X91094523Y-30843511D01*
X91095518Y-30835373D01*
X91104798Y-30789338D01*
X91104876Y-30758801D01*
X91198773Y-29990557D01*
X91573803Y-28929496D01*
X92024109Y-27828072D01*
X92450000Y-27828072D01*
X92574482Y-27815812D01*
X92694180Y-27779502D01*
X92804494Y-27720537D01*
X92901185Y-27641185D01*
X92980537Y-27544494D01*
X93006308Y-27496280D01*
X93013268Y-27510818D01*
G36*
X94341340Y-25710473D02*
G01*
X94364039Y-25735536D01*
X94367679Y-25738838D01*
X94837358Y-26244646D01*
X94859653Y-26274226D01*
X94889835Y-26301160D01*
X94890997Y-26302411D01*
X94918623Y-26326849D01*
X94975026Y-26377182D01*
X94976506Y-26378054D01*
X94977793Y-26379192D01*
X95043202Y-26417331D01*
X95108269Y-26455650D01*
X95109887Y-26456215D01*
X95111374Y-26457082D01*
X95183095Y-26481773D01*
X95254260Y-26506617D01*
X95255954Y-26506855D01*
X95257584Y-26507416D01*
X95332642Y-26517625D01*
X95369017Y-26522734D01*
X95370718Y-26522804D01*
X95410805Y-26528257D01*
X95447779Y-26525993D01*
X96833910Y-26583351D01*
X96848728Y-26584862D01*
X96872409Y-26584944D01*
X96896073Y-26585923D01*
X96910945Y-26585077D01*
X97958948Y-26588697D01*
X97999463Y-26664494D01*
X98078815Y-26761185D01*
X98175506Y-26840537D01*
X98285820Y-26899502D01*
X98405518Y-26935812D01*
X98530000Y-26948072D01*
X100696414Y-26948072D01*
X101491781Y-27517387D01*
X102372074Y-28153155D01*
X102414504Y-28187682D01*
X102468758Y-28216391D01*
X102483586Y-28225025D01*
X102587885Y-28352115D01*
X102717725Y-28458671D01*
X102865858Y-28537850D01*
X103026592Y-28586608D01*
X103193750Y-28603072D01*
X103706250Y-28603072D01*
X103873408Y-28586608D01*
X104034142Y-28537850D01*
X104182275Y-28458671D01*
X104248138Y-28404619D01*
X104368469Y-28417800D01*
X104409463Y-28494494D01*
X104488815Y-28591185D01*
X104585506Y-28670537D01*
X104695820Y-28729502D01*
X104815518Y-28765812D01*
X104940000Y-28778072D01*
X105840000Y-28778072D01*
X105964482Y-28765812D01*
X106084180Y-28729502D01*
X106194494Y-28670537D01*
X106291185Y-28591185D01*
X106370537Y-28494494D01*
X106429502Y-28384180D01*
X106465812Y-28264482D01*
X106478072Y-28140000D01*
X106478072Y-27628095D01*
X106488815Y-27641185D01*
X106585506Y-27720537D01*
X106695820Y-27779502D01*
X106815518Y-27815812D01*
X106940000Y-27828072D01*
X107094496Y-27828072D01*
X108004702Y-29356663D01*
X108020075Y-29389879D01*
X108044149Y-29422910D01*
X108045247Y-29424754D01*
X108066956Y-29454202D01*
X108088330Y-29483529D01*
X108089747Y-29485118D01*
X108114010Y-29518032D01*
X108141069Y-29542700D01*
X108921182Y-30417950D01*
X108957613Y-30463101D01*
X109002155Y-30500281D01*
X109044858Y-30539636D01*
X109061427Y-30549755D01*
X109076324Y-30562190D01*
X109127278Y-30589973D01*
X109176824Y-30620233D01*
X109231313Y-30640243D01*
X110452447Y-31158005D01*
X111003264Y-31411813D01*
X110938102Y-31424774D01*
X110749744Y-31502795D01*
X110580226Y-31616063D01*
X110559780Y-31636509D01*
X110553384Y-31631260D01*
X110430967Y-31565827D01*
X110298138Y-31525533D01*
X110160000Y-31511928D01*
X108700000Y-31511928D01*
X108561862Y-31525533D01*
X108429033Y-31565827D01*
X108306616Y-31631260D01*
X108199317Y-31719317D01*
X108111260Y-31826616D01*
X108045827Y-31949033D01*
X108005533Y-32081862D01*
X107991928Y-32220000D01*
X107991928Y-32780000D01*
X107998180Y-32843480D01*
X107095250Y-32861539D01*
X107089774Y-32856063D01*
X106920256Y-32742795D01*
X106731898Y-32664774D01*
X106531939Y-32625000D01*
X106328061Y-32625000D01*
X106128102Y-32664774D01*
X105939744Y-32742795D01*
X105921538Y-32754960D01*
X105721564Y-31755092D01*
X105709799Y-31688088D01*
X105692425Y-31643317D01*
X105678437Y-31597378D01*
X105646300Y-31537405D01*
X105234558Y-30723497D01*
X105217077Y-30680832D01*
X105178395Y-30622456D01*
X105140867Y-30563457D01*
X105109022Y-30530144D01*
X104587625Y-29889832D01*
X104570698Y-29863241D01*
X104538929Y-29830030D01*
X104534368Y-29824429D01*
X104512269Y-29802160D01*
X104463810Y-29751502D01*
X104457857Y-29747330D01*
X104452740Y-29742174D01*
X104394628Y-29703021D01*
X104368908Y-29684998D01*
X104362610Y-29681450D01*
X104324499Y-29655773D01*
X104295424Y-29643599D01*
X103641847Y-29275387D01*
X103592489Y-29244343D01*
X103538529Y-29223718D01*
X103485663Y-29200433D01*
X103428742Y-29187792D01*
X102172342Y-28844245D01*
X102103419Y-28824351D01*
X102059281Y-28820605D01*
X102015613Y-28813166D01*
X101943923Y-28815146D01*
X99002439Y-28854896D01*
X98938265Y-28853623D01*
X98887220Y-28862728D01*
X98835674Y-28868509D01*
X98774489Y-28887976D01*
X98345368Y-29008910D01*
X98355812Y-28974482D01*
X98368072Y-28850000D01*
X98368072Y-27850000D01*
X98355812Y-27725518D01*
X98319502Y-27605820D01*
X98260537Y-27495506D01*
X98181185Y-27398815D01*
X98084494Y-27319463D01*
X97974180Y-27260498D01*
X97854482Y-27224188D01*
X97730000Y-27211928D01*
X95220000Y-27211928D01*
X95095518Y-27224188D01*
X94975820Y-27260498D01*
X94865506Y-27319463D01*
X94768815Y-27398815D01*
X94725530Y-27451559D01*
X94497247Y-26974703D01*
X94411227Y-26123105D01*
X94407784Y-26087027D01*
X94407368Y-26084903D01*
X94407150Y-26082743D01*
X94399974Y-26047131D01*
X94332124Y-25700548D01*
X94341340Y-25710473D01*
G37*
X94341340Y-25710473D02*
X94364039Y-25735536D01*
X94367679Y-25738838D01*
X94837358Y-26244646D01*
X94859653Y-26274226D01*
X94889835Y-26301160D01*
X94890997Y-26302411D01*
X94918623Y-26326849D01*
X94975026Y-26377182D01*
X94976506Y-26378054D01*
X94977793Y-26379192D01*
X95043202Y-26417331D01*
X95108269Y-26455650D01*
X95109887Y-26456215D01*
X95111374Y-26457082D01*
X95183095Y-26481773D01*
X95254260Y-26506617D01*
X95255954Y-26506855D01*
X95257584Y-26507416D01*
X95332642Y-26517625D01*
X95369017Y-26522734D01*
X95370718Y-26522804D01*
X95410805Y-26528257D01*
X95447779Y-26525993D01*
X96833910Y-26583351D01*
X96848728Y-26584862D01*
X96872409Y-26584944D01*
X96896073Y-26585923D01*
X96910945Y-26585077D01*
X97958948Y-26588697D01*
X97999463Y-26664494D01*
X98078815Y-26761185D01*
X98175506Y-26840537D01*
X98285820Y-26899502D01*
X98405518Y-26935812D01*
X98530000Y-26948072D01*
X100696414Y-26948072D01*
X101491781Y-27517387D01*
X102372074Y-28153155D01*
X102414504Y-28187682D01*
X102468758Y-28216391D01*
X102483586Y-28225025D01*
X102587885Y-28352115D01*
X102717725Y-28458671D01*
X102865858Y-28537850D01*
X103026592Y-28586608D01*
X103193750Y-28603072D01*
X103706250Y-28603072D01*
X103873408Y-28586608D01*
X104034142Y-28537850D01*
X104182275Y-28458671D01*
X104248138Y-28404619D01*
X104368469Y-28417800D01*
X104409463Y-28494494D01*
X104488815Y-28591185D01*
X104585506Y-28670537D01*
X104695820Y-28729502D01*
X104815518Y-28765812D01*
X104940000Y-28778072D01*
X105840000Y-28778072D01*
X105964482Y-28765812D01*
X106084180Y-28729502D01*
X106194494Y-28670537D01*
X106291185Y-28591185D01*
X106370537Y-28494494D01*
X106429502Y-28384180D01*
X106465812Y-28264482D01*
X106478072Y-28140000D01*
X106478072Y-27628095D01*
X106488815Y-27641185D01*
X106585506Y-27720537D01*
X106695820Y-27779502D01*
X106815518Y-27815812D01*
X106940000Y-27828072D01*
X107094496Y-27828072D01*
X108004702Y-29356663D01*
X108020075Y-29389879D01*
X108044149Y-29422910D01*
X108045247Y-29424754D01*
X108066956Y-29454202D01*
X108088330Y-29483529D01*
X108089747Y-29485118D01*
X108114010Y-29518032D01*
X108141069Y-29542700D01*
X108921182Y-30417950D01*
X108957613Y-30463101D01*
X109002155Y-30500281D01*
X109044858Y-30539636D01*
X109061427Y-30549755D01*
X109076324Y-30562190D01*
X109127278Y-30589973D01*
X109176824Y-30620233D01*
X109231313Y-30640243D01*
X110452447Y-31158005D01*
X111003264Y-31411813D01*
X110938102Y-31424774D01*
X110749744Y-31502795D01*
X110580226Y-31616063D01*
X110559780Y-31636509D01*
X110553384Y-31631260D01*
X110430967Y-31565827D01*
X110298138Y-31525533D01*
X110160000Y-31511928D01*
X108700000Y-31511928D01*
X108561862Y-31525533D01*
X108429033Y-31565827D01*
X108306616Y-31631260D01*
X108199317Y-31719317D01*
X108111260Y-31826616D01*
X108045827Y-31949033D01*
X108005533Y-32081862D01*
X107991928Y-32220000D01*
X107991928Y-32780000D01*
X107998180Y-32843480D01*
X107095250Y-32861539D01*
X107089774Y-32856063D01*
X106920256Y-32742795D01*
X106731898Y-32664774D01*
X106531939Y-32625000D01*
X106328061Y-32625000D01*
X106128102Y-32664774D01*
X105939744Y-32742795D01*
X105921538Y-32754960D01*
X105721564Y-31755092D01*
X105709799Y-31688088D01*
X105692425Y-31643317D01*
X105678437Y-31597378D01*
X105646300Y-31537405D01*
X105234558Y-30723497D01*
X105217077Y-30680832D01*
X105178395Y-30622456D01*
X105140867Y-30563457D01*
X105109022Y-30530144D01*
X104587625Y-29889832D01*
X104570698Y-29863241D01*
X104538929Y-29830030D01*
X104534368Y-29824429D01*
X104512269Y-29802160D01*
X104463810Y-29751502D01*
X104457857Y-29747330D01*
X104452740Y-29742174D01*
X104394628Y-29703021D01*
X104368908Y-29684998D01*
X104362610Y-29681450D01*
X104324499Y-29655773D01*
X104295424Y-29643599D01*
X103641847Y-29275387D01*
X103592489Y-29244343D01*
X103538529Y-29223718D01*
X103485663Y-29200433D01*
X103428742Y-29187792D01*
X102172342Y-28844245D01*
X102103419Y-28824351D01*
X102059281Y-28820605D01*
X102015613Y-28813166D01*
X101943923Y-28815146D01*
X99002439Y-28854896D01*
X98938265Y-28853623D01*
X98887220Y-28862728D01*
X98835674Y-28868509D01*
X98774489Y-28887976D01*
X98345368Y-29008910D01*
X98355812Y-28974482D01*
X98368072Y-28850000D01*
X98368072Y-27850000D01*
X98355812Y-27725518D01*
X98319502Y-27605820D01*
X98260537Y-27495506D01*
X98181185Y-27398815D01*
X98084494Y-27319463D01*
X97974180Y-27260498D01*
X97854482Y-27224188D01*
X97730000Y-27211928D01*
X95220000Y-27211928D01*
X95095518Y-27224188D01*
X94975820Y-27260498D01*
X94865506Y-27319463D01*
X94768815Y-27398815D01*
X94725530Y-27451559D01*
X94497247Y-26974703D01*
X94411227Y-26123105D01*
X94407784Y-26087027D01*
X94407368Y-26084903D01*
X94407150Y-26082743D01*
X94399974Y-26047131D01*
X94332124Y-25700548D01*
X94341340Y-25710473D01*
G36*
X85772521Y-24462117D02*
G01*
X85744188Y-24555518D01*
X85731928Y-24680000D01*
X85731928Y-27190000D01*
X85744188Y-27314482D01*
X85780498Y-27434180D01*
X85839463Y-27544494D01*
X85918815Y-27641185D01*
X85921059Y-27643027D01*
X85873896Y-27776971D01*
X85468072Y-28817999D01*
X85468072Y-27990000D01*
X85455812Y-27865518D01*
X85419502Y-27745820D01*
X85360537Y-27635506D01*
X85281185Y-27538815D01*
X85184494Y-27459463D01*
X85074180Y-27400498D01*
X84954482Y-27364188D01*
X84830000Y-27351928D01*
X83830000Y-27351928D01*
X83705518Y-27364188D01*
X83585820Y-27400498D01*
X83475506Y-27459463D01*
X83378815Y-27538815D01*
X83299463Y-27635506D01*
X83240498Y-27745820D01*
X83204188Y-27865518D01*
X83191928Y-27990000D01*
X83191928Y-30279368D01*
X81545080Y-30977715D01*
X81734546Y-30794170D01*
X81750241Y-30782917D01*
X81789962Y-30740486D01*
X81803895Y-30726988D01*
X81816319Y-30712330D01*
X81855917Y-30670030D01*
X81866210Y-30653468D01*
X81878823Y-30638587D01*
X81906955Y-30587908D01*
X81937539Y-30538696D01*
X81944403Y-30520444D01*
X81953871Y-30503388D01*
X81971576Y-30448193D01*
X81978332Y-30430229D01*
X81983342Y-30411513D01*
X82001102Y-30356146D01*
X82003301Y-30336950D01*
X82513624Y-28430461D01*
X82531544Y-28374074D01*
X82537867Y-28317531D01*
X82547121Y-28261390D01*
X82545170Y-28202249D01*
X82550862Y-27770585D01*
X82644494Y-27720537D01*
X82741185Y-27641185D01*
X82820537Y-27544494D01*
X82879502Y-27434180D01*
X82915812Y-27314482D01*
X82928072Y-27190000D01*
X82928072Y-24680000D01*
X82915812Y-24555518D01*
X82885379Y-24455196D01*
X85772521Y-24462117D01*
G37*
X85772521Y-24462117D02*
X85744188Y-24555518D01*
X85731928Y-24680000D01*
X85731928Y-27190000D01*
X85744188Y-27314482D01*
X85780498Y-27434180D01*
X85839463Y-27544494D01*
X85918815Y-27641185D01*
X85921059Y-27643027D01*
X85873896Y-27776971D01*
X85468072Y-28817999D01*
X85468072Y-27990000D01*
X85455812Y-27865518D01*
X85419502Y-27745820D01*
X85360537Y-27635506D01*
X85281185Y-27538815D01*
X85184494Y-27459463D01*
X85074180Y-27400498D01*
X84954482Y-27364188D01*
X84830000Y-27351928D01*
X83830000Y-27351928D01*
X83705518Y-27364188D01*
X83585820Y-27400498D01*
X83475506Y-27459463D01*
X83378815Y-27538815D01*
X83299463Y-27635506D01*
X83240498Y-27745820D01*
X83204188Y-27865518D01*
X83191928Y-27990000D01*
X83191928Y-30279368D01*
X81545080Y-30977715D01*
X81734546Y-30794170D01*
X81750241Y-30782917D01*
X81789962Y-30740486D01*
X81803895Y-30726988D01*
X81816319Y-30712330D01*
X81855917Y-30670030D01*
X81866210Y-30653468D01*
X81878823Y-30638587D01*
X81906955Y-30587908D01*
X81937539Y-30538696D01*
X81944403Y-30520444D01*
X81953871Y-30503388D01*
X81971576Y-30448193D01*
X81978332Y-30430229D01*
X81983342Y-30411513D01*
X82001102Y-30356146D01*
X82003301Y-30336950D01*
X82513624Y-28430461D01*
X82531544Y-28374074D01*
X82537867Y-28317531D01*
X82547121Y-28261390D01*
X82545170Y-28202249D01*
X82550862Y-27770585D01*
X82644494Y-27720537D01*
X82741185Y-27641185D01*
X82820537Y-27544494D01*
X82879502Y-27434180D01*
X82915812Y-27314482D01*
X82928072Y-27190000D01*
X82928072Y-24680000D01*
X82915812Y-24555518D01*
X82885379Y-24455196D01*
X85772521Y-24462117D01*
G36*
X75619904Y-24437779D02*
G01*
X75584188Y-24555518D01*
X75571928Y-24680000D01*
X75575000Y-25649250D01*
X75733750Y-25808000D01*
X76583000Y-25808000D01*
X76583000Y-25788000D01*
X76837000Y-25788000D01*
X76837000Y-25808000D01*
X77686250Y-25808000D01*
X77845000Y-25649250D01*
X77848072Y-24680000D01*
X77835812Y-24555518D01*
X77801683Y-24443009D01*
X80696212Y-24449948D01*
X80664188Y-24555518D01*
X80651928Y-24680000D01*
X80651928Y-27190000D01*
X80664188Y-27314482D01*
X80700498Y-27434180D01*
X80759463Y-27544494D01*
X80838815Y-27641185D01*
X80935506Y-27720537D01*
X80981065Y-27744889D01*
X80976360Y-28101675D01*
X80527844Y-29777264D01*
X80388072Y-29912668D01*
X80388072Y-27990000D01*
X80375812Y-27865518D01*
X80339502Y-27745820D01*
X80280537Y-27635506D01*
X80201185Y-27538815D01*
X80104494Y-27459463D01*
X79994180Y-27400498D01*
X79874482Y-27364188D01*
X79750000Y-27351928D01*
X78750000Y-27351928D01*
X78625518Y-27364188D01*
X78505820Y-27400498D01*
X78395506Y-27459463D01*
X78298815Y-27538815D01*
X78219463Y-27635506D01*
X78160498Y-27745820D01*
X78124188Y-27865518D01*
X78111928Y-27990000D01*
X78111928Y-28433185D01*
X78088686Y-28431825D01*
X78036149Y-28439115D01*
X77983263Y-28443145D01*
X77959730Y-28449719D01*
X77935522Y-28453078D01*
X77885409Y-28470480D01*
X77834333Y-28484748D01*
X77778104Y-28513222D01*
X77061998Y-28843733D01*
X77041693Y-28849785D01*
X76991928Y-28876073D01*
X76976028Y-28883412D01*
X76957878Y-28894060D01*
X76939227Y-28903913D01*
X76924588Y-28913592D01*
X76876077Y-28942053D01*
X76860252Y-28956128D01*
X75760242Y-29683409D01*
X75308072Y-29870234D01*
X75308072Y-27990000D01*
X75295812Y-27865518D01*
X75259502Y-27745820D01*
X75200537Y-27635506D01*
X75121185Y-27538815D01*
X75024494Y-27459463D01*
X74914180Y-27400498D01*
X74794482Y-27364188D01*
X74670000Y-27351928D01*
X73670000Y-27351928D01*
X73545518Y-27364188D01*
X73425820Y-27400498D01*
X73315506Y-27459463D01*
X73218815Y-27538815D01*
X73139463Y-27635506D01*
X73080498Y-27745820D01*
X73044188Y-27865518D01*
X73031928Y-27990000D01*
X73031928Y-28601999D01*
X72975685Y-28609346D01*
X72954689Y-28611141D01*
X72937444Y-28614341D01*
X72920083Y-28616609D01*
X72899591Y-28621365D01*
X71991894Y-28789804D01*
X71960552Y-28791897D01*
X71916068Y-28803875D01*
X71908862Y-28805212D01*
X71878844Y-28813898D01*
X71848653Y-28822027D01*
X71841794Y-28824618D01*
X71797544Y-28837422D01*
X71769655Y-28851871D01*
X71394187Y-28993714D01*
X71352299Y-29005541D01*
X71287631Y-29038514D01*
X71222638Y-29070665D01*
X71218831Y-29073594D01*
X71214541Y-29075781D01*
X71157523Y-29120757D01*
X71100077Y-29164949D01*
X71071424Y-29197702D01*
X70352834Y-29889004D01*
X70342928Y-29895782D01*
X70297187Y-29942539D01*
X70277978Y-29961018D01*
X70270238Y-29970086D01*
X70261890Y-29978619D01*
X70245186Y-29999434D01*
X70202742Y-30049159D01*
X70196883Y-30059627D01*
X69878072Y-30456915D01*
X69878072Y-29820000D01*
X69865812Y-29695518D01*
X69829502Y-29575820D01*
X69770537Y-29465506D01*
X69691185Y-29368815D01*
X69594494Y-29289463D01*
X69484180Y-29230498D01*
X69457352Y-29222360D01*
X69223178Y-27852014D01*
X69231171Y-27842275D01*
X69310350Y-27694142D01*
X69359108Y-27533408D01*
X69375572Y-27366250D01*
X69375572Y-27190000D01*
X75571928Y-27190000D01*
X75584188Y-27314482D01*
X75620498Y-27434180D01*
X75679463Y-27544494D01*
X75758815Y-27641185D01*
X75855506Y-27720537D01*
X75965820Y-27779502D01*
X76085518Y-27815812D01*
X76210000Y-27828072D01*
X76424250Y-27825000D01*
X76583000Y-27666250D01*
X76583000Y-26062000D01*
X76837000Y-26062000D01*
X76837000Y-27666250D01*
X76995750Y-27825000D01*
X77210000Y-27828072D01*
X77334482Y-27815812D01*
X77454180Y-27779502D01*
X77564494Y-27720537D01*
X77661185Y-27641185D01*
X77740537Y-27544494D01*
X77799502Y-27434180D01*
X77835812Y-27314482D01*
X77848072Y-27190000D01*
X77845000Y-26220750D01*
X77686250Y-26062000D01*
X76837000Y-26062000D01*
X76583000Y-26062000D01*
X75733750Y-26062000D01*
X75575000Y-26220750D01*
X75571928Y-27190000D01*
X69375572Y-27190000D01*
X69375572Y-26853750D01*
X69359108Y-26686592D01*
X69310350Y-26525858D01*
X69231171Y-26377725D01*
X69124615Y-26247885D01*
X68994775Y-26141329D01*
X68846642Y-26062150D01*
X68685908Y-26013392D01*
X68518750Y-25996928D01*
X68081250Y-25996928D01*
X67914092Y-26013392D01*
X67753358Y-26062150D01*
X67605225Y-26141329D01*
X67512500Y-26217426D01*
X67419775Y-26141329D01*
X67271642Y-26062150D01*
X67110908Y-26013392D01*
X66943750Y-25996928D01*
X66506250Y-25996928D01*
X66339092Y-26013392D01*
X66178358Y-26062150D01*
X66030225Y-26141329D01*
X65900385Y-26247885D01*
X65793829Y-26377725D01*
X65714650Y-26525858D01*
X65665892Y-26686592D01*
X65649428Y-26853750D01*
X65649428Y-27366250D01*
X65665892Y-27533408D01*
X65714650Y-27694142D01*
X65793829Y-27842275D01*
X65900385Y-27972115D01*
X66002547Y-28055956D01*
X66091710Y-29366440D01*
X66088815Y-29368815D01*
X66009463Y-29465506D01*
X65989902Y-29502101D01*
X65974008Y-29506375D01*
X65956691Y-29508294D01*
X65899489Y-29526411D01*
X65878927Y-29531939D01*
X65862706Y-29538060D01*
X65809276Y-29554982D01*
X65790537Y-29565294D01*
X65327623Y-29739978D01*
X65269238Y-29759366D01*
X65221794Y-29786339D01*
X65172884Y-29810512D01*
X65154729Y-29824467D01*
X65134812Y-29835791D01*
X65093538Y-29871505D01*
X65050288Y-29904751D01*
X65009776Y-29951026D01*
X64860954Y-30107821D01*
X64153572Y-29754130D01*
X64151677Y-29752952D01*
X64118948Y-29736818D01*
X64086572Y-29720630D01*
X64084505Y-29719839D01*
X61993871Y-28689246D01*
X61966381Y-28675027D01*
X61959322Y-28672214D01*
X61952503Y-28668853D01*
X61923530Y-28657954D01*
X60661562Y-28155138D01*
X60601550Y-28129098D01*
X60552050Y-28118389D01*
X60503397Y-28104347D01*
X60438226Y-28098818D01*
X58634858Y-27890737D01*
X58601652Y-27886476D01*
X58596655Y-27886329D01*
X58591673Y-27885754D01*
X58558098Y-27885193D01*
X56653531Y-27829102D01*
X56649502Y-27815820D01*
X56590537Y-27705506D01*
X56511185Y-27608815D01*
X56414494Y-27529463D01*
X56304180Y-27470498D01*
X56184482Y-27434188D01*
X56060000Y-27421928D01*
X53744384Y-27421928D01*
X53677205Y-27259744D01*
X53563937Y-27090226D01*
X53419774Y-26946063D01*
X53250256Y-26832795D01*
X53061898Y-26754774D01*
X52861939Y-26715000D01*
X52658061Y-26715000D01*
X52458102Y-26754774D01*
X52269744Y-26832795D01*
X52100226Y-26946063D01*
X51956063Y-27090226D01*
X51842795Y-27259744D01*
X51764774Y-27448102D01*
X51758038Y-27481964D01*
X51712962Y-27427038D01*
X51578386Y-27316595D01*
X51424850Y-27234528D01*
X51258254Y-27183992D01*
X51085000Y-27166928D01*
X50291407Y-27166928D01*
X53570004Y-25172016D01*
X55017190Y-24652965D01*
X70294913Y-24425014D01*
X75619904Y-24437779D01*
G37*
X75619904Y-24437779D02*
X75584188Y-24555518D01*
X75571928Y-24680000D01*
X75575000Y-25649250D01*
X75733750Y-25808000D01*
X76583000Y-25808000D01*
X76583000Y-25788000D01*
X76837000Y-25788000D01*
X76837000Y-25808000D01*
X77686250Y-25808000D01*
X77845000Y-25649250D01*
X77848072Y-24680000D01*
X77835812Y-24555518D01*
X77801683Y-24443009D01*
X80696212Y-24449948D01*
X80664188Y-24555518D01*
X80651928Y-24680000D01*
X80651928Y-27190000D01*
X80664188Y-27314482D01*
X80700498Y-27434180D01*
X80759463Y-27544494D01*
X80838815Y-27641185D01*
X80935506Y-27720537D01*
X80981065Y-27744889D01*
X80976360Y-28101675D01*
X80527844Y-29777264D01*
X80388072Y-29912668D01*
X80388072Y-27990000D01*
X80375812Y-27865518D01*
X80339502Y-27745820D01*
X80280537Y-27635506D01*
X80201185Y-27538815D01*
X80104494Y-27459463D01*
X79994180Y-27400498D01*
X79874482Y-27364188D01*
X79750000Y-27351928D01*
X78750000Y-27351928D01*
X78625518Y-27364188D01*
X78505820Y-27400498D01*
X78395506Y-27459463D01*
X78298815Y-27538815D01*
X78219463Y-27635506D01*
X78160498Y-27745820D01*
X78124188Y-27865518D01*
X78111928Y-27990000D01*
X78111928Y-28433185D01*
X78088686Y-28431825D01*
X78036149Y-28439115D01*
X77983263Y-28443145D01*
X77959730Y-28449719D01*
X77935522Y-28453078D01*
X77885409Y-28470480D01*
X77834333Y-28484748D01*
X77778104Y-28513222D01*
X77061998Y-28843733D01*
X77041693Y-28849785D01*
X76991928Y-28876073D01*
X76976028Y-28883412D01*
X76957878Y-28894060D01*
X76939227Y-28903913D01*
X76924588Y-28913592D01*
X76876077Y-28942053D01*
X76860252Y-28956128D01*
X75760242Y-29683409D01*
X75308072Y-29870234D01*
X75308072Y-27990000D01*
X75295812Y-27865518D01*
X75259502Y-27745820D01*
X75200537Y-27635506D01*
X75121185Y-27538815D01*
X75024494Y-27459463D01*
X74914180Y-27400498D01*
X74794482Y-27364188D01*
X74670000Y-27351928D01*
X73670000Y-27351928D01*
X73545518Y-27364188D01*
X73425820Y-27400498D01*
X73315506Y-27459463D01*
X73218815Y-27538815D01*
X73139463Y-27635506D01*
X73080498Y-27745820D01*
X73044188Y-27865518D01*
X73031928Y-27990000D01*
X73031928Y-28601999D01*
X72975685Y-28609346D01*
X72954689Y-28611141D01*
X72937444Y-28614341D01*
X72920083Y-28616609D01*
X72899591Y-28621365D01*
X71991894Y-28789804D01*
X71960552Y-28791897D01*
X71916068Y-28803875D01*
X71908862Y-28805212D01*
X71878844Y-28813898D01*
X71848653Y-28822027D01*
X71841794Y-28824618D01*
X71797544Y-28837422D01*
X71769655Y-28851871D01*
X71394187Y-28993714D01*
X71352299Y-29005541D01*
X71287631Y-29038514D01*
X71222638Y-29070665D01*
X71218831Y-29073594D01*
X71214541Y-29075781D01*
X71157523Y-29120757D01*
X71100077Y-29164949D01*
X71071424Y-29197702D01*
X70352834Y-29889004D01*
X70342928Y-29895782D01*
X70297187Y-29942539D01*
X70277978Y-29961018D01*
X70270238Y-29970086D01*
X70261890Y-29978619D01*
X70245186Y-29999434D01*
X70202742Y-30049159D01*
X70196883Y-30059627D01*
X69878072Y-30456915D01*
X69878072Y-29820000D01*
X69865812Y-29695518D01*
X69829502Y-29575820D01*
X69770537Y-29465506D01*
X69691185Y-29368815D01*
X69594494Y-29289463D01*
X69484180Y-29230498D01*
X69457352Y-29222360D01*
X69223178Y-27852014D01*
X69231171Y-27842275D01*
X69310350Y-27694142D01*
X69359108Y-27533408D01*
X69375572Y-27366250D01*
X69375572Y-27190000D01*
X75571928Y-27190000D01*
X75584188Y-27314482D01*
X75620498Y-27434180D01*
X75679463Y-27544494D01*
X75758815Y-27641185D01*
X75855506Y-27720537D01*
X75965820Y-27779502D01*
X76085518Y-27815812D01*
X76210000Y-27828072D01*
X76424250Y-27825000D01*
X76583000Y-27666250D01*
X76583000Y-26062000D01*
X76837000Y-26062000D01*
X76837000Y-27666250D01*
X76995750Y-27825000D01*
X77210000Y-27828072D01*
X77334482Y-27815812D01*
X77454180Y-27779502D01*
X77564494Y-27720537D01*
X77661185Y-27641185D01*
X77740537Y-27544494D01*
X77799502Y-27434180D01*
X77835812Y-27314482D01*
X77848072Y-27190000D01*
X77845000Y-26220750D01*
X77686250Y-26062000D01*
X76837000Y-26062000D01*
X76583000Y-26062000D01*
X75733750Y-26062000D01*
X75575000Y-26220750D01*
X75571928Y-27190000D01*
X69375572Y-27190000D01*
X69375572Y-26853750D01*
X69359108Y-26686592D01*
X69310350Y-26525858D01*
X69231171Y-26377725D01*
X69124615Y-26247885D01*
X68994775Y-26141329D01*
X68846642Y-26062150D01*
X68685908Y-26013392D01*
X68518750Y-25996928D01*
X68081250Y-25996928D01*
X67914092Y-26013392D01*
X67753358Y-26062150D01*
X67605225Y-26141329D01*
X67512500Y-26217426D01*
X67419775Y-26141329D01*
X67271642Y-26062150D01*
X67110908Y-26013392D01*
X66943750Y-25996928D01*
X66506250Y-25996928D01*
X66339092Y-26013392D01*
X66178358Y-26062150D01*
X66030225Y-26141329D01*
X65900385Y-26247885D01*
X65793829Y-26377725D01*
X65714650Y-26525858D01*
X65665892Y-26686592D01*
X65649428Y-26853750D01*
X65649428Y-27366250D01*
X65665892Y-27533408D01*
X65714650Y-27694142D01*
X65793829Y-27842275D01*
X65900385Y-27972115D01*
X66002547Y-28055956D01*
X66091710Y-29366440D01*
X66088815Y-29368815D01*
X66009463Y-29465506D01*
X65989902Y-29502101D01*
X65974008Y-29506375D01*
X65956691Y-29508294D01*
X65899489Y-29526411D01*
X65878927Y-29531939D01*
X65862706Y-29538060D01*
X65809276Y-29554982D01*
X65790537Y-29565294D01*
X65327623Y-29739978D01*
X65269238Y-29759366D01*
X65221794Y-29786339D01*
X65172884Y-29810512D01*
X65154729Y-29824467D01*
X65134812Y-29835791D01*
X65093538Y-29871505D01*
X65050288Y-29904751D01*
X65009776Y-29951026D01*
X64860954Y-30107821D01*
X64153572Y-29754130D01*
X64151677Y-29752952D01*
X64118948Y-29736818D01*
X64086572Y-29720630D01*
X64084505Y-29719839D01*
X61993871Y-28689246D01*
X61966381Y-28675027D01*
X61959322Y-28672214D01*
X61952503Y-28668853D01*
X61923530Y-28657954D01*
X60661562Y-28155138D01*
X60601550Y-28129098D01*
X60552050Y-28118389D01*
X60503397Y-28104347D01*
X60438226Y-28098818D01*
X58634858Y-27890737D01*
X58601652Y-27886476D01*
X58596655Y-27886329D01*
X58591673Y-27885754D01*
X58558098Y-27885193D01*
X56653531Y-27829102D01*
X56649502Y-27815820D01*
X56590537Y-27705506D01*
X56511185Y-27608815D01*
X56414494Y-27529463D01*
X56304180Y-27470498D01*
X56184482Y-27434188D01*
X56060000Y-27421928D01*
X53744384Y-27421928D01*
X53677205Y-27259744D01*
X53563937Y-27090226D01*
X53419774Y-26946063D01*
X53250256Y-26832795D01*
X53061898Y-26754774D01*
X52861939Y-26715000D01*
X52658061Y-26715000D01*
X52458102Y-26754774D01*
X52269744Y-26832795D01*
X52100226Y-26946063D01*
X51956063Y-27090226D01*
X51842795Y-27259744D01*
X51764774Y-27448102D01*
X51758038Y-27481964D01*
X51712962Y-27427038D01*
X51578386Y-27316595D01*
X51424850Y-27234528D01*
X51258254Y-27183992D01*
X51085000Y-27166928D01*
X50291407Y-27166928D01*
X53570004Y-25172016D01*
X55017190Y-24652965D01*
X70294913Y-24425014D01*
X75619904Y-24437779D01*
G36*
X90848830Y-24474285D02*
G01*
X90824188Y-24555518D01*
X90811928Y-24680000D01*
X90811928Y-26644322D01*
X90417947Y-27607980D01*
X90361185Y-27538815D01*
X90264494Y-27459463D01*
X90154180Y-27400498D01*
X90034482Y-27364188D01*
X89910000Y-27351928D01*
X88910000Y-27351928D01*
X88785518Y-27364188D01*
X88665820Y-27400498D01*
X88555506Y-27459463D01*
X88458815Y-27538815D01*
X88379463Y-27635506D01*
X88320498Y-27745820D01*
X88284188Y-27865518D01*
X88271928Y-27990000D01*
X88271928Y-30227460D01*
X87815570Y-30311068D01*
X86528165Y-30421220D01*
X87332124Y-28358889D01*
X87337632Y-28347090D01*
X87346110Y-28323014D01*
X87355396Y-28299192D01*
X87358919Y-28286635D01*
X87528316Y-27805549D01*
X87614180Y-27779502D01*
X87724494Y-27720537D01*
X87821185Y-27641185D01*
X87900537Y-27544494D01*
X87959502Y-27434180D01*
X87995812Y-27314482D01*
X88008072Y-27190000D01*
X88008072Y-24680000D01*
X87995812Y-24555518D01*
X87969076Y-24467382D01*
X90848830Y-24474285D01*
G37*
X90848830Y-24474285D02*
X90824188Y-24555518D01*
X90811928Y-24680000D01*
X90811928Y-26644322D01*
X90417947Y-27607980D01*
X90361185Y-27538815D01*
X90264494Y-27459463D01*
X90154180Y-27400498D01*
X90034482Y-27364188D01*
X89910000Y-27351928D01*
X88910000Y-27351928D01*
X88785518Y-27364188D01*
X88665820Y-27400498D01*
X88555506Y-27459463D01*
X88458815Y-27538815D01*
X88379463Y-27635506D01*
X88320498Y-27745820D01*
X88284188Y-27865518D01*
X88271928Y-27990000D01*
X88271928Y-30227460D01*
X87815570Y-30311068D01*
X86528165Y-30421220D01*
X87332124Y-28358889D01*
X87337632Y-28347090D01*
X87346110Y-28323014D01*
X87355396Y-28299192D01*
X87358919Y-28286635D01*
X87528316Y-27805549D01*
X87614180Y-27779502D01*
X87724494Y-27720537D01*
X87821185Y-27641185D01*
X87900537Y-27544494D01*
X87959502Y-27434180D01*
X87995812Y-27314482D01*
X88008072Y-27190000D01*
X88008072Y-24680000D01*
X87995812Y-24555518D01*
X87969076Y-24467382D01*
X90848830Y-24474285D01*
%TD*%
M02*
