%TF.GenerationSoftware,KiCad,Pcbnew,5.1.6-c6e7f7d~87~ubuntu18.04.1*%
%TF.CreationDate,2020-08-08T15:28:18-04:00*%
%TF.ProjectId,atmega168_tb2,61746d65-6761-4313-9638-5f7462322e6b,rev?*%
%TF.SameCoordinates,Original*%
%TF.FileFunction,Soldermask,Top*%
%TF.FilePolarity,Negative*%
%FSLAX46Y46*%
G04 Gerber Fmt 4.6, Leading zero omitted, Abs format (unit mm)*
G04 Created by KiCad (PCBNEW 5.1.6-c6e7f7d~87~ubuntu18.04.1) date 2020-08-08 15:28:18*
%MOMM*%
%LPD*%
G01*
G04 APERTURE LIST*
%ADD10R,2.540000X2.540000*%
%ADD11R,0.840000X0.940000*%
%ADD12R,3.190000X1.040000*%
%ADD13R,1.100000X0.690000*%
%ADD14R,1.640000X0.590000*%
%ADD15R,0.590000X1.640000*%
%ADD16R,1.840000X1.040000*%
%ADD17R,1.040000X2.550000*%
%ADD18R,2.550000X1.040000*%
%ADD19R,0.940000X0.840000*%
%ADD20C,1.240000*%
G04 APERTURE END LIST*
D10*
%TO.C,J7*%
X76110000Y-33150000D03*
%TD*%
D11*
%TO.C,Q1*%
X68840000Y-30270000D03*
X66940000Y-30270000D03*
X67890000Y-32270000D03*
%TD*%
%TO.C,C1*%
G36*
G01*
X49823000Y-27785000D02*
X51097000Y-27785000D01*
G75*
G02*
X51355000Y-28043000I0J-258000D01*
G01*
X51355000Y-28817000D01*
G75*
G02*
X51097000Y-29075000I-258000J0D01*
G01*
X49823000Y-29075000D01*
G75*
G02*
X49565000Y-28817000I0J258000D01*
G01*
X49565000Y-28043000D01*
G75*
G02*
X49823000Y-27785000I258000J0D01*
G01*
G37*
G36*
G01*
X49823000Y-30585000D02*
X51097000Y-30585000D01*
G75*
G02*
X51355000Y-30843000I0J-258000D01*
G01*
X51355000Y-31617000D01*
G75*
G02*
X51097000Y-31875000I-258000J0D01*
G01*
X49823000Y-31875000D01*
G75*
G02*
X49565000Y-31617000I0J258000D01*
G01*
X49565000Y-30843000D01*
G75*
G02*
X49823000Y-30585000I258000J0D01*
G01*
G37*
%TD*%
%TO.C,C2*%
G36*
G01*
X71293750Y-46400000D02*
X71826250Y-46400000D01*
G75*
G02*
X72055000Y-46628750I0J-228750D01*
G01*
X72055000Y-47086250D01*
G75*
G02*
X71826250Y-47315000I-228750J0D01*
G01*
X71293750Y-47315000D01*
G75*
G02*
X71065000Y-47086250I0J228750D01*
G01*
X71065000Y-46628750D01*
G75*
G02*
X71293750Y-46400000I228750J0D01*
G01*
G37*
G36*
G01*
X71293750Y-44825000D02*
X71826250Y-44825000D01*
G75*
G02*
X72055000Y-45053750I0J-228750D01*
G01*
X72055000Y-45511250D01*
G75*
G02*
X71826250Y-45740000I-228750J0D01*
G01*
X71293750Y-45740000D01*
G75*
G02*
X71065000Y-45511250I0J228750D01*
G01*
X71065000Y-45053750D01*
G75*
G02*
X71293750Y-44825000I228750J0D01*
G01*
G37*
%TD*%
%TO.C,C3*%
G36*
G01*
X73293750Y-36872500D02*
X73826250Y-36872500D01*
G75*
G02*
X74055000Y-37101250I0J-228750D01*
G01*
X74055000Y-37558750D01*
G75*
G02*
X73826250Y-37787500I-228750J0D01*
G01*
X73293750Y-37787500D01*
G75*
G02*
X73065000Y-37558750I0J228750D01*
G01*
X73065000Y-37101250D01*
G75*
G02*
X73293750Y-36872500I228750J0D01*
G01*
G37*
G36*
G01*
X73293750Y-35297500D02*
X73826250Y-35297500D01*
G75*
G02*
X74055000Y-35526250I0J-228750D01*
G01*
X74055000Y-35983750D01*
G75*
G02*
X73826250Y-36212500I-228750J0D01*
G01*
X73293750Y-36212500D01*
G75*
G02*
X73065000Y-35983750I0J228750D01*
G01*
X73065000Y-35526250D01*
G75*
G02*
X73293750Y-35297500I228750J0D01*
G01*
G37*
%TD*%
%TO.C,C4*%
G36*
G01*
X52527500Y-45826250D02*
X52527500Y-45293750D01*
G75*
G02*
X52756250Y-45065000I228750J0D01*
G01*
X53213750Y-45065000D01*
G75*
G02*
X53442500Y-45293750I0J-228750D01*
G01*
X53442500Y-45826250D01*
G75*
G02*
X53213750Y-46055000I-228750J0D01*
G01*
X52756250Y-46055000D01*
G75*
G02*
X52527500Y-45826250I0J228750D01*
G01*
G37*
G36*
G01*
X54102500Y-45826250D02*
X54102500Y-45293750D01*
G75*
G02*
X54331250Y-45065000I228750J0D01*
G01*
X54788750Y-45065000D01*
G75*
G02*
X55017500Y-45293750I0J-228750D01*
G01*
X55017500Y-45826250D01*
G75*
G02*
X54788750Y-46055000I-228750J0D01*
G01*
X54331250Y-46055000D01*
G75*
G02*
X54102500Y-45826250I0J228750D01*
G01*
G37*
%TD*%
%TO.C,C5*%
G36*
G01*
X68532500Y-41623750D02*
X68532500Y-42156250D01*
G75*
G02*
X68303750Y-42385000I-228750J0D01*
G01*
X67846250Y-42385000D01*
G75*
G02*
X67617500Y-42156250I0J228750D01*
G01*
X67617500Y-41623750D01*
G75*
G02*
X67846250Y-41395000I228750J0D01*
G01*
X68303750Y-41395000D01*
G75*
G02*
X68532500Y-41623750I0J-228750D01*
G01*
G37*
G36*
G01*
X66957500Y-41623750D02*
X66957500Y-42156250D01*
G75*
G02*
X66728750Y-42385000I-228750J0D01*
G01*
X66271250Y-42385000D01*
G75*
G02*
X66042500Y-42156250I0J228750D01*
G01*
X66042500Y-41623750D01*
G75*
G02*
X66271250Y-41395000I228750J0D01*
G01*
X66728750Y-41395000D01*
G75*
G02*
X66957500Y-41623750I0J-228750D01*
G01*
G37*
%TD*%
%TO.C,C6*%
G36*
G01*
X90216250Y-43915000D02*
X89683750Y-43915000D01*
G75*
G02*
X89455000Y-43686250I0J228750D01*
G01*
X89455000Y-43228750D01*
G75*
G02*
X89683750Y-43000000I228750J0D01*
G01*
X90216250Y-43000000D01*
G75*
G02*
X90445000Y-43228750I0J-228750D01*
G01*
X90445000Y-43686250D01*
G75*
G02*
X90216250Y-43915000I-228750J0D01*
G01*
G37*
G36*
G01*
X90216250Y-42340000D02*
X89683750Y-42340000D01*
G75*
G02*
X89455000Y-42111250I0J228750D01*
G01*
X89455000Y-41653750D01*
G75*
G02*
X89683750Y-41425000I228750J0D01*
G01*
X90216250Y-41425000D01*
G75*
G02*
X90445000Y-41653750I0J-228750D01*
G01*
X90445000Y-42111250D01*
G75*
G02*
X90216250Y-42340000I-228750J0D01*
G01*
G37*
%TD*%
%TO.C,C7*%
G36*
G01*
X104343750Y-37347500D02*
X104876250Y-37347500D01*
G75*
G02*
X105105000Y-37576250I0J-228750D01*
G01*
X105105000Y-38033750D01*
G75*
G02*
X104876250Y-38262500I-228750J0D01*
G01*
X104343750Y-38262500D01*
G75*
G02*
X104115000Y-38033750I0J228750D01*
G01*
X104115000Y-37576250D01*
G75*
G02*
X104343750Y-37347500I228750J0D01*
G01*
G37*
G36*
G01*
X104343750Y-35772500D02*
X104876250Y-35772500D01*
G75*
G02*
X105105000Y-36001250I0J-228750D01*
G01*
X105105000Y-36458750D01*
G75*
G02*
X104876250Y-36687500I-228750J0D01*
G01*
X104343750Y-36687500D01*
G75*
G02*
X104115000Y-36458750I0J228750D01*
G01*
X104115000Y-36001250D01*
G75*
G02*
X104343750Y-35772500I228750J0D01*
G01*
G37*
%TD*%
D12*
%TO.C,J1*%
X51375000Y-37790000D03*
X56425000Y-37790000D03*
X51375000Y-40330000D03*
X56425000Y-40330000D03*
X51375000Y-42870000D03*
X56425000Y-42870000D03*
%TD*%
D13*
%TO.C,U1*%
X61810000Y-35160000D03*
X61810000Y-36110000D03*
X61810000Y-37060000D03*
X64010000Y-37060000D03*
X64010000Y-35160000D03*
%TD*%
D14*
%TO.C,U2*%
X77580000Y-37540000D03*
X77580000Y-38340000D03*
X77580000Y-39140000D03*
X77580000Y-39940000D03*
X77580000Y-40740000D03*
X77580000Y-41540000D03*
X77580000Y-42340000D03*
X77580000Y-43140000D03*
D15*
X79030000Y-44590000D03*
X79830000Y-44590000D03*
X80630000Y-44590000D03*
X81430000Y-44590000D03*
X82230000Y-44590000D03*
X83030000Y-44590000D03*
X83830000Y-44590000D03*
X84630000Y-44590000D03*
D14*
X86080000Y-43140000D03*
X86080000Y-42340000D03*
X86080000Y-41540000D03*
X86080000Y-40740000D03*
X86080000Y-39940000D03*
X86080000Y-39140000D03*
X86080000Y-38340000D03*
X86080000Y-37540000D03*
D15*
X84630000Y-36090000D03*
X83830000Y-36090000D03*
X83030000Y-36090000D03*
X82230000Y-36090000D03*
X81430000Y-36090000D03*
X80630000Y-36090000D03*
X79830000Y-36090000D03*
X79030000Y-36090000D03*
%TD*%
D16*
%TO.C,Y1*%
X71620000Y-40630000D03*
X71620000Y-43130000D03*
%TD*%
D17*
%TO.C,J2*%
X91950000Y-25935000D03*
X86870000Y-25935000D03*
X81790000Y-25935000D03*
X76710000Y-25935000D03*
X89410000Y-29245000D03*
X84330000Y-29245000D03*
X79250000Y-29245000D03*
X74170000Y-29245000D03*
%TD*%
D18*
%TO.C,J3*%
X96475000Y-28350000D03*
X96475000Y-33430000D03*
X96475000Y-38510000D03*
X96475000Y-43590000D03*
X96475000Y-48670000D03*
X99785000Y-25810000D03*
X99785000Y-30890000D03*
X99785000Y-35970000D03*
X99785000Y-41050000D03*
X99785000Y-46130000D03*
%TD*%
D19*
%TO.C,Q2*%
X107390000Y-26790000D03*
X105390000Y-27740000D03*
X105390000Y-25840000D03*
%TD*%
%TO.C,R1*%
G36*
G01*
X103716250Y-26410000D02*
X103183750Y-26410000D01*
G75*
G02*
X102955000Y-26181250I0J228750D01*
G01*
X102955000Y-25723750D01*
G75*
G02*
X103183750Y-25495000I228750J0D01*
G01*
X103716250Y-25495000D01*
G75*
G02*
X103945000Y-25723750I0J-228750D01*
G01*
X103945000Y-26181250D01*
G75*
G02*
X103716250Y-26410000I-228750J0D01*
G01*
G37*
G36*
G01*
X103716250Y-27985000D02*
X103183750Y-27985000D01*
G75*
G02*
X102955000Y-27756250I0J228750D01*
G01*
X102955000Y-27298750D01*
G75*
G02*
X103183750Y-27070000I228750J0D01*
G01*
X103716250Y-27070000D01*
G75*
G02*
X103945000Y-27298750I0J-228750D01*
G01*
X103945000Y-27756250D01*
G75*
G02*
X103716250Y-27985000I-228750J0D01*
G01*
G37*
%TD*%
%TO.C,R2*%
G36*
G01*
X66267500Y-27376250D02*
X66267500Y-26843750D01*
G75*
G02*
X66496250Y-26615000I228750J0D01*
G01*
X66953750Y-26615000D01*
G75*
G02*
X67182500Y-26843750I0J-228750D01*
G01*
X67182500Y-27376250D01*
G75*
G02*
X66953750Y-27605000I-228750J0D01*
G01*
X66496250Y-27605000D01*
G75*
G02*
X66267500Y-27376250I0J228750D01*
G01*
G37*
G36*
G01*
X67842500Y-27376250D02*
X67842500Y-26843750D01*
G75*
G02*
X68071250Y-26615000I228750J0D01*
G01*
X68528750Y-26615000D01*
G75*
G02*
X68757500Y-26843750I0J-228750D01*
G01*
X68757500Y-27376250D01*
G75*
G02*
X68528750Y-27605000I-228750J0D01*
G01*
X68071250Y-27605000D01*
G75*
G02*
X67842500Y-27376250I0J228750D01*
G01*
G37*
%TD*%
%TO.C,J4*%
G36*
G01*
X110176000Y-32870000D02*
X108684000Y-32870000D01*
G75*
G02*
X108610000Y-32796000I0J74000D01*
G01*
X108610000Y-32204000D01*
G75*
G02*
X108684000Y-32130000I74000J0D01*
G01*
X110176000Y-32130000D01*
G75*
G02*
X110250000Y-32204000I0J-74000D01*
G01*
X110250000Y-32796000D01*
G75*
G02*
X110176000Y-32870000I-74000J0D01*
G01*
G37*
G36*
G01*
X110176000Y-33970000D02*
X108684000Y-33970000D01*
G75*
G02*
X108610000Y-33896000I0J74000D01*
G01*
X108610000Y-33304000D01*
G75*
G02*
X108684000Y-33230000I74000J0D01*
G01*
X110176000Y-33230000D01*
G75*
G02*
X110250000Y-33304000I0J-74000D01*
G01*
X110250000Y-33896000D01*
G75*
G02*
X110176000Y-33970000I-74000J0D01*
G01*
G37*
G36*
G01*
X110176000Y-35070000D02*
X108684000Y-35070000D01*
G75*
G02*
X108610000Y-34996000I0J74000D01*
G01*
X108610000Y-34404000D01*
G75*
G02*
X108684000Y-34330000I74000J0D01*
G01*
X110176000Y-34330000D01*
G75*
G02*
X110250000Y-34404000I0J-74000D01*
G01*
X110250000Y-34996000D01*
G75*
G02*
X110176000Y-35070000I-74000J0D01*
G01*
G37*
G36*
G01*
X110176000Y-36170000D02*
X108684000Y-36170000D01*
G75*
G02*
X108610000Y-36096000I0J74000D01*
G01*
X108610000Y-35504000D01*
G75*
G02*
X108684000Y-35430000I74000J0D01*
G01*
X110176000Y-35430000D01*
G75*
G02*
X110250000Y-35504000I0J-74000D01*
G01*
X110250000Y-36096000D01*
G75*
G02*
X110176000Y-36170000I-74000J0D01*
G01*
G37*
G36*
G01*
X110176000Y-37270000D02*
X108684000Y-37270000D01*
G75*
G02*
X108610000Y-37196000I0J74000D01*
G01*
X108610000Y-36604000D01*
G75*
G02*
X108684000Y-36530000I74000J0D01*
G01*
X110176000Y-36530000D01*
G75*
G02*
X110250000Y-36604000I0J-74000D01*
G01*
X110250000Y-37196000D01*
G75*
G02*
X110176000Y-37270000I-74000J0D01*
G01*
G37*
G36*
G01*
X110176000Y-38370000D02*
X108684000Y-38370000D01*
G75*
G02*
X108610000Y-38296000I0J74000D01*
G01*
X108610000Y-37704000D01*
G75*
G02*
X108684000Y-37630000I74000J0D01*
G01*
X110176000Y-37630000D01*
G75*
G02*
X110250000Y-37704000I0J-74000D01*
G01*
X110250000Y-38296000D01*
G75*
G02*
X110176000Y-38370000I-74000J0D01*
G01*
G37*
G36*
G01*
X110176000Y-39470000D02*
X108684000Y-39470000D01*
G75*
G02*
X108610000Y-39396000I0J74000D01*
G01*
X108610000Y-38804000D01*
G75*
G02*
X108684000Y-38730000I74000J0D01*
G01*
X110176000Y-38730000D01*
G75*
G02*
X110250000Y-38804000I0J-74000D01*
G01*
X110250000Y-39396000D01*
G75*
G02*
X110176000Y-39470000I-74000J0D01*
G01*
G37*
G36*
G01*
X110176000Y-40570000D02*
X108684000Y-40570000D01*
G75*
G02*
X108610000Y-40496000I0J74000D01*
G01*
X108610000Y-39904000D01*
G75*
G02*
X108684000Y-39830000I74000J0D01*
G01*
X110176000Y-39830000D01*
G75*
G02*
X110250000Y-39904000I0J-74000D01*
G01*
X110250000Y-40496000D01*
G75*
G02*
X110176000Y-40570000I-74000J0D01*
G01*
G37*
G36*
G01*
X110176000Y-41670000D02*
X108684000Y-41670000D01*
G75*
G02*
X108610000Y-41596000I0J74000D01*
G01*
X108610000Y-41004000D01*
G75*
G02*
X108684000Y-40930000I74000J0D01*
G01*
X110176000Y-40930000D01*
G75*
G02*
X110250000Y-41004000I0J-74000D01*
G01*
X110250000Y-41596000D01*
G75*
G02*
X110176000Y-41670000I-74000J0D01*
G01*
G37*
D20*
X120430000Y-39700000D03*
X120430000Y-31700000D03*
G36*
G01*
X121026000Y-43120000D02*
X119034000Y-43120000D01*
G75*
G02*
X118910000Y-42996000I0J124000D01*
G01*
X118910000Y-42004000D01*
G75*
G02*
X119034000Y-41880000I124000J0D01*
G01*
X121026000Y-41880000D01*
G75*
G02*
X121150000Y-42004000I0J-124000D01*
G01*
X121150000Y-42996000D01*
G75*
G02*
X121026000Y-43120000I-124000J0D01*
G01*
G37*
G36*
G01*
X111076000Y-43120000D02*
X109784000Y-43120000D01*
G75*
G02*
X109660000Y-42996000I0J124000D01*
G01*
X109660000Y-42004000D01*
G75*
G02*
X109784000Y-41880000I124000J0D01*
G01*
X111076000Y-41880000D01*
G75*
G02*
X111200000Y-42004000I0J-124000D01*
G01*
X111200000Y-42996000D01*
G75*
G02*
X111076000Y-43120000I-124000J0D01*
G01*
G37*
G36*
G01*
X111046000Y-28720000D02*
X109814000Y-28720000D01*
G75*
G02*
X109660000Y-28566000I0J154000D01*
G01*
X109660000Y-27234000D01*
G75*
G02*
X109814000Y-27080000I154000J0D01*
G01*
X111046000Y-27080000D01*
G75*
G02*
X111200000Y-27234000I0J-154000D01*
G01*
X111200000Y-28566000D01*
G75*
G02*
X111046000Y-28720000I-154000J0D01*
G01*
G37*
G36*
G01*
X121026000Y-27620000D02*
X119034000Y-27620000D01*
G75*
G02*
X118910000Y-27496000I0J124000D01*
G01*
X118910000Y-26504000D01*
G75*
G02*
X119034000Y-26380000I124000J0D01*
G01*
X121026000Y-26380000D01*
G75*
G02*
X121150000Y-26504000I0J-124000D01*
G01*
X121150000Y-27496000D01*
G75*
G02*
X121026000Y-27620000I-124000J0D01*
G01*
G37*
%TD*%
D18*
%TO.C,J5*%
X54805000Y-28560000D03*
X58115000Y-31100000D03*
%TD*%
D10*
%TO.C,J6*%
X92510000Y-32840000D03*
%TD*%
%TO.C,J8*%
X74670000Y-45430000D03*
%TD*%
%TO.C,J9*%
X90170000Y-47200000D03*
%TD*%
M02*
