M48
; DRILL file {KiCad 5.1.6-c6e7f7d~87~ubuntu18.04.1} date Sat Aug  8 15:28:17 2020
; FORMAT={-:-/ absolute / inch / decimal}
; #@! TF.CreationDate,2020-08-08T15:28:17-04:00
; #@! TF.GenerationSoftware,Kicad,Pcbnew,5.1.6-c6e7f7d~87~ubuntu18.04.1
; #@! TF.FileFunction,Plated,1,2,PTH
FMAT,2
INCH
T1C0.0157
T2C0.0394
%
G90
G05
T1
X2.0106Y-1.9252
X2.0772Y-1.0925
X2.0913Y-0.9287
X2.1992Y-1.2236
X2.2031Y-1.0209
X2.2047Y-1.7976
X2.3087Y-1.6898
X2.3803Y-1.422
X2.5579Y-2.0
X2.5673Y-1.3827
X2.6559Y-1.5571
X2.6906Y-1.7917
X2.8516Y-1.8307
X2.8685Y-1.5476
X2.8744Y-1.3382
X2.9272Y-1.3756
X3.0047Y-1.7906
X3.0065Y-1.1301
X3.1205Y-1.0213
X3.1354Y-1.6648
X3.1795Y-1.5299
X3.2185Y-1.6559
X3.2382Y-1.5669
X3.2917Y-1.5173
X3.3051Y-1.6543
X3.3177Y-1.0213
X3.5127Y-1.5905
X3.5205Y-1.0331
X3.6492Y-1.9075
X3.7295Y-1.206
X3.8831Y-1.9185
X3.9476Y-1.3264
X3.9984Y-1.489
X4.0382Y-1.561
X4.122Y-1.5673
X4.1811Y-1.6433
X4.1902Y-1.3252
X4.2075Y-1.1862
X4.2516Y-1.5409
X4.3795Y-1.2764
X4.3846Y-1.6185
X4.4173Y-1.1299
X4.6496Y-1.6768
X4.7354Y-1.1311
T2
X4.7413Y-1.248
X4.7413Y-1.563
T0
M30
