%TF.GenerationSoftware,KiCad,Pcbnew,5.1.6-c6e7f7d~87~ubuntu18.04.1*%
%TF.CreationDate,2020-07-29T15:29:24-07:00*%
%TF.ProjectId,mountingplate,6d6f756e-7469-46e6-9770-6c6174652e6b,rev?*%
%TF.SameCoordinates,Original*%
%TF.FileFunction,Copper,L1,Top*%
%TF.FilePolarity,Positive*%
%FSLAX46Y46*%
G04 Gerber Fmt 4.6, Leading zero omitted, Abs format (unit mm)*
G04 Created by KiCad (PCBNEW 5.1.6-c6e7f7d~87~ubuntu18.04.1) date 2020-07-29 15:29:24*
%MOMM*%
%LPD*%
G01*
G04 APERTURE LIST*
%TA.AperFunction,ComponentPad*%
%ADD10C,6.400000*%
%TD*%
%TA.AperFunction,ComponentPad*%
%ADD11C,0.800000*%
%TD*%
G04 APERTURE END LIST*
D10*
%TO.P,M1,1*%
%TO.N,N/C*%
X100840000Y-90048000D03*
D11*
X102781641Y-91458685D03*
X101215443Y-92418452D03*
X99429315Y-91989641D03*
X98469548Y-90423443D03*
X98898359Y-88637315D03*
X100464557Y-87677548D03*
X102250685Y-88106359D03*
X103210452Y-89672557D03*
%TD*%
%TO.P,M2,1*%
%TO.N,N/C*%
X131215443Y-87677548D03*
X129429315Y-88106359D03*
X128469548Y-89672557D03*
X128898359Y-91458685D03*
X130464557Y-92418452D03*
X132250685Y-91989641D03*
X133210452Y-90423443D03*
X132781641Y-88637315D03*
D10*
X130840000Y-90048000D03*
%TD*%
D11*
%TO.P,M3,1*%
%TO.N,N/C*%
X117537056Y-42150944D03*
X115840000Y-41448000D03*
X114142944Y-42150944D03*
X113440000Y-43848000D03*
X114142944Y-45545056D03*
X115840000Y-46248000D03*
X117537056Y-45545056D03*
X118240000Y-43848000D03*
D10*
X115840000Y-43848000D03*
%TD*%
D11*
%TO.P,M5,1*%
%TO.N,N/C*%
X138001585Y-60458423D03*
X137857464Y-62289641D03*
X139050423Y-63686415D03*
X140881641Y-63830536D03*
X142278415Y-62637577D03*
X142422536Y-60806359D03*
X141229577Y-59409585D03*
X139398359Y-59265464D03*
D10*
X140140000Y-61548000D03*
%TD*%
%TO.P,M4,1*%
%TO.N,N/C*%
X91540000Y-61548000D03*
D11*
X90798359Y-63830536D03*
X89401585Y-62637577D03*
X89257464Y-60806359D03*
X90450423Y-59409585D03*
X92281641Y-59265464D03*
X93678415Y-60458423D03*
X93822536Y-62289641D03*
X92629577Y-63686415D03*
%TD*%
M02*
