M48
; DRILL file {KiCad 5.1.6-c6e7f7d~87~ubuntu18.04.1} date Wed Jul 29 15:29:22 2020
; FORMAT={-:-/ absolute / inch / decimal}
; #@! TF.CreationDate,2020-07-29T15:29:22-07:00
; #@! TF.GenerationSoftware,Kicad,Pcbnew,5.1.6-c6e7f7d~87~ubuntu18.04.1
; #@! TF.FileFunction,Plated,1,2,PTH
FMAT,2
INCH
T1C0.0197
T2C0.1260
%
G90
G05
T1
X5.4275Y-2.4523
X5.4331Y-2.3803
X5.4744Y-2.5073
X5.4881Y-2.3333
X5.5465Y-2.513
X5.5602Y-2.339
X5.6015Y-2.466
X5.6072Y-2.394
X3.8768Y-3.56
X3.8936Y-3.4897
X3.9145Y-3.6216
X3.9553Y-3.4519
X3.9849Y-3.6385
X4.0256Y-3.4688
X4.0465Y-3.6007
X4.0634Y-3.5304
X3.5141Y-2.394
X3.5197Y-2.466
X3.561Y-2.339
X3.5747Y-2.513
X3.6331Y-2.3333
X3.6468Y-2.5073
X3.6881Y-2.3803
X3.6938Y-2.4523
X4.4661Y-1.7263
X4.4938Y-1.6595
X4.4938Y-1.7931
X4.5606Y-1.6318
X4.5606Y-1.8208
X4.6274Y-1.6595
X4.6274Y-1.7931
X4.6551Y-1.7263
X5.0579Y-3.5304
X5.0747Y-3.6007
X5.0956Y-3.4688
X5.1364Y-3.6385
X5.166Y-3.4519
X5.2067Y-3.6216
X5.2276Y-3.4897
X5.2445Y-3.56
T2
X5.5173Y-2.4231
X3.6039Y-2.4231
X4.5606Y-1.7263
X5.1512Y-3.5452
X3.9701Y-3.5452
T0
M30
