%TF.GenerationSoftware,KiCad,Pcbnew,5.1.6-c6e7f7d~87~ubuntu18.04.1*%
%TF.CreationDate,2020-07-29T15:29:24-07:00*%
%TF.ProjectId,mountingplate,6d6f756e-7469-46e6-9770-6c6174652e6b,rev?*%
%TF.SameCoordinates,Original*%
%TF.FileFunction,Legend,Top*%
%TF.FilePolarity,Positive*%
%FSLAX46Y46*%
G04 Gerber Fmt 4.6, Leading zero omitted, Abs format (unit mm)*
G04 Created by KiCad (PCBNEW 5.1.6-c6e7f7d~87~ubuntu18.04.1) date 2020-07-29 15:29:24*
%MOMM*%
%LPD*%
G01*
G04 APERTURE LIST*
%ADD10C,0.150000*%
G04 APERTURE END LIST*
%TO.C,M1*%
D10*
X102572040Y-86562255D02*
X103042269Y-85915041D01*
X102922129Y-86534079D01*
X103473744Y-86228527D01*
X103003516Y-86875740D01*
X103650730Y-87345968D02*
X103280893Y-87077267D01*
X103465812Y-87211617D02*
X103936040Y-86564404D01*
X103807225Y-86612079D01*
X103700802Y-86628935D01*
X103616771Y-86614971D01*
%TO.C,M2*%
X128060089Y-87323577D02*
X127589861Y-86676363D01*
X128141476Y-86981916D01*
X128021336Y-86362877D01*
X128491565Y-87010091D01*
X128343497Y-86222990D02*
X128351925Y-86169779D01*
X128391173Y-86094176D01*
X128545271Y-85982217D01*
X128629303Y-85968253D01*
X128682514Y-85976680D01*
X128758117Y-86015928D01*
X128802901Y-86077567D01*
X128839257Y-86192418D01*
X128738122Y-86830957D01*
X129138778Y-86539863D01*
%TO.C,M3*%
X115176380Y-48621904D02*
X115176380Y-47821904D01*
X115443047Y-48393333D01*
X115709714Y-47821904D01*
X115709714Y-48621904D01*
X116014476Y-47821904D02*
X116509714Y-47821904D01*
X116243047Y-48126666D01*
X116357333Y-48126666D01*
X116433523Y-48164761D01*
X116471619Y-48202857D01*
X116509714Y-48279047D01*
X116509714Y-48469523D01*
X116471619Y-48545714D01*
X116433523Y-48583809D01*
X116357333Y-48621904D01*
X116128761Y-48621904D01*
X116052571Y-48583809D01*
X116014476Y-48545714D01*
%TO.C,M5*%
X135601245Y-62341783D02*
X136362091Y-62094569D01*
X135901034Y-62524766D01*
X136526900Y-62601799D01*
X135766054Y-62849013D01*
X136762341Y-63326414D02*
X136644620Y-62964107D01*
X136270541Y-63045597D01*
X136318544Y-63070055D01*
X136378319Y-63130745D01*
X136437179Y-63311898D01*
X136424493Y-63396132D01*
X136400034Y-63444135D01*
X136339345Y-63503910D01*
X136158191Y-63562770D01*
X136073957Y-63550083D01*
X136025955Y-63525625D01*
X135966180Y-63464935D01*
X135907319Y-63283782D01*
X135920006Y-63199548D01*
X135944465Y-63151545D01*
%TO.C,M4*%
X95678503Y-63573628D02*
X94917658Y-63326414D01*
X95543523Y-63249380D01*
X95082467Y-62819184D01*
X95843312Y-63066397D01*
X95559751Y-62213205D02*
X96066982Y-62378014D01*
X95211045Y-62300182D02*
X95695646Y-62657916D01*
X95848683Y-62186917D01*
%TD*%
M02*
