%TF.GenerationSoftware,KiCad,Pcbnew,5.1.6-c6e7f7d~87~ubuntu18.04.1*%
%TF.CreationDate,2020-07-29T15:25:13-07:00*%
%TF.ProjectId,esp32_picod4_downpads,65737033-325f-4706-9963-6f64345f646f,rev?*%
%TF.SameCoordinates,Original*%
%TF.FileFunction,Legend,Top*%
%TF.FilePolarity,Positive*%
%FSLAX46Y46*%
G04 Gerber Fmt 4.6, Leading zero omitted, Abs format (unit mm)*
G04 Created by KiCad (PCBNEW 5.1.6-c6e7f7d~87~ubuntu18.04.1) date 2020-07-29 15:25:13*
%MOMM*%
%LPD*%
G01*
G04 APERTURE LIST*
%ADD10C,0.150000*%
%ADD11C,0.120000*%
G04 APERTURE END LIST*
D10*
X96079238Y-111988809D02*
X96003047Y-112026904D01*
X95850666Y-112026904D01*
X95774476Y-111988809D01*
X95736380Y-111912619D01*
X95736380Y-111607857D01*
X95774476Y-111531666D01*
X95850666Y-111493571D01*
X96003047Y-111493571D01*
X96079238Y-111531666D01*
X96117333Y-111607857D01*
X96117333Y-111684047D01*
X95736380Y-111760238D01*
X96422095Y-111988809D02*
X96498285Y-112026904D01*
X96650666Y-112026904D01*
X96726857Y-111988809D01*
X96764952Y-111912619D01*
X96764952Y-111874523D01*
X96726857Y-111798333D01*
X96650666Y-111760238D01*
X96536380Y-111760238D01*
X96460190Y-111722142D01*
X96422095Y-111645952D01*
X96422095Y-111607857D01*
X96460190Y-111531666D01*
X96536380Y-111493571D01*
X96650666Y-111493571D01*
X96726857Y-111531666D01*
X97107809Y-111493571D02*
X97107809Y-112293571D01*
X97107809Y-111531666D02*
X97184000Y-111493571D01*
X97336380Y-111493571D01*
X97412571Y-111531666D01*
X97450666Y-111569761D01*
X97488761Y-111645952D01*
X97488761Y-111874523D01*
X97450666Y-111950714D01*
X97412571Y-111988809D01*
X97336380Y-112026904D01*
X97184000Y-112026904D01*
X97107809Y-111988809D01*
X97755428Y-111226904D02*
X98250666Y-111226904D01*
X97984000Y-111531666D01*
X98098285Y-111531666D01*
X98174476Y-111569761D01*
X98212571Y-111607857D01*
X98250666Y-111684047D01*
X98250666Y-111874523D01*
X98212571Y-111950714D01*
X98174476Y-111988809D01*
X98098285Y-112026904D01*
X97869714Y-112026904D01*
X97793523Y-111988809D01*
X97755428Y-111950714D01*
X98555428Y-111303095D02*
X98593523Y-111265000D01*
X98669714Y-111226904D01*
X98860190Y-111226904D01*
X98936380Y-111265000D01*
X98974476Y-111303095D01*
X99012571Y-111379285D01*
X99012571Y-111455476D01*
X98974476Y-111569761D01*
X98517333Y-112026904D01*
X99012571Y-112026904D01*
X99964952Y-111493571D02*
X99964952Y-112293571D01*
X99964952Y-111531666D02*
X100041142Y-111493571D01*
X100193523Y-111493571D01*
X100269714Y-111531666D01*
X100307809Y-111569761D01*
X100345904Y-111645952D01*
X100345904Y-111874523D01*
X100307809Y-111950714D01*
X100269714Y-111988809D01*
X100193523Y-112026904D01*
X100041142Y-112026904D01*
X99964952Y-111988809D01*
X100688761Y-112026904D02*
X100688761Y-111493571D01*
X100688761Y-111226904D02*
X100650666Y-111265000D01*
X100688761Y-111303095D01*
X100726857Y-111265000D01*
X100688761Y-111226904D01*
X100688761Y-111303095D01*
X101412571Y-111988809D02*
X101336380Y-112026904D01*
X101184000Y-112026904D01*
X101107809Y-111988809D01*
X101069714Y-111950714D01*
X101031619Y-111874523D01*
X101031619Y-111645952D01*
X101069714Y-111569761D01*
X101107809Y-111531666D01*
X101184000Y-111493571D01*
X101336380Y-111493571D01*
X101412571Y-111531666D01*
X101869714Y-112026904D02*
X101793523Y-111988809D01*
X101755428Y-111950714D01*
X101717333Y-111874523D01*
X101717333Y-111645952D01*
X101755428Y-111569761D01*
X101793523Y-111531666D01*
X101869714Y-111493571D01*
X101984000Y-111493571D01*
X102060190Y-111531666D01*
X102098285Y-111569761D01*
X102136380Y-111645952D01*
X102136380Y-111874523D01*
X102098285Y-111950714D01*
X102060190Y-111988809D01*
X101984000Y-112026904D01*
X101869714Y-112026904D01*
X103431619Y-112026904D02*
X103431619Y-111226904D01*
X103431619Y-111988809D02*
X103355428Y-112026904D01*
X103203047Y-112026904D01*
X103126857Y-111988809D01*
X103088761Y-111950714D01*
X103050666Y-111874523D01*
X103050666Y-111645952D01*
X103088761Y-111569761D01*
X103126857Y-111531666D01*
X103203047Y-111493571D01*
X103355428Y-111493571D01*
X103431619Y-111531666D01*
X104155428Y-111493571D02*
X104155428Y-112026904D01*
X103964952Y-111188809D02*
X103774476Y-111760238D01*
X104269714Y-111760238D01*
X95603047Y-113376904D02*
X95603047Y-112576904D01*
X95603047Y-113338809D02*
X95526857Y-113376904D01*
X95374476Y-113376904D01*
X95298285Y-113338809D01*
X95260190Y-113300714D01*
X95222095Y-113224523D01*
X95222095Y-112995952D01*
X95260190Y-112919761D01*
X95298285Y-112881666D01*
X95374476Y-112843571D01*
X95526857Y-112843571D01*
X95603047Y-112881666D01*
X96098285Y-113376904D02*
X96022095Y-113338809D01*
X95984000Y-113300714D01*
X95945904Y-113224523D01*
X95945904Y-112995952D01*
X95984000Y-112919761D01*
X96022095Y-112881666D01*
X96098285Y-112843571D01*
X96212571Y-112843571D01*
X96288761Y-112881666D01*
X96326857Y-112919761D01*
X96364952Y-112995952D01*
X96364952Y-113224523D01*
X96326857Y-113300714D01*
X96288761Y-113338809D01*
X96212571Y-113376904D01*
X96098285Y-113376904D01*
X96631619Y-112843571D02*
X96784000Y-113376904D01*
X96936380Y-112995952D01*
X97088761Y-113376904D01*
X97241142Y-112843571D01*
X97545904Y-112843571D02*
X97545904Y-113376904D01*
X97545904Y-112919761D02*
X97584000Y-112881666D01*
X97660190Y-112843571D01*
X97774476Y-112843571D01*
X97850666Y-112881666D01*
X97888761Y-112957857D01*
X97888761Y-113376904D01*
X98269714Y-112843571D02*
X98269714Y-113643571D01*
X98269714Y-112881666D02*
X98345904Y-112843571D01*
X98498285Y-112843571D01*
X98574476Y-112881666D01*
X98612571Y-112919761D01*
X98650666Y-112995952D01*
X98650666Y-113224523D01*
X98612571Y-113300714D01*
X98574476Y-113338809D01*
X98498285Y-113376904D01*
X98345904Y-113376904D01*
X98269714Y-113338809D01*
X99336380Y-113376904D02*
X99336380Y-112957857D01*
X99298285Y-112881666D01*
X99222095Y-112843571D01*
X99069714Y-112843571D01*
X98993523Y-112881666D01*
X99336380Y-113338809D02*
X99260190Y-113376904D01*
X99069714Y-113376904D01*
X98993523Y-113338809D01*
X98955428Y-113262619D01*
X98955428Y-113186428D01*
X98993523Y-113110238D01*
X99069714Y-113072142D01*
X99260190Y-113072142D01*
X99336380Y-113034047D01*
X100060190Y-113376904D02*
X100060190Y-112576904D01*
X100060190Y-113338809D02*
X99984000Y-113376904D01*
X99831619Y-113376904D01*
X99755428Y-113338809D01*
X99717333Y-113300714D01*
X99679238Y-113224523D01*
X99679238Y-112995952D01*
X99717333Y-112919761D01*
X99755428Y-112881666D01*
X99831619Y-112843571D01*
X99984000Y-112843571D01*
X100060190Y-112881666D01*
X100403047Y-113338809D02*
X100479238Y-113376904D01*
X100631619Y-113376904D01*
X100707809Y-113338809D01*
X100745904Y-113262619D01*
X100745904Y-113224523D01*
X100707809Y-113148333D01*
X100631619Y-113110238D01*
X100517333Y-113110238D01*
X100441142Y-113072142D01*
X100403047Y-112995952D01*
X100403047Y-112957857D01*
X100441142Y-112881666D01*
X100517333Y-112843571D01*
X100631619Y-112843571D01*
X100707809Y-112881666D01*
X101698285Y-113376904D02*
X101698285Y-112843571D01*
X101698285Y-112995952D02*
X101736380Y-112919761D01*
X101774476Y-112881666D01*
X101850666Y-112843571D01*
X101926857Y-112843571D01*
X102498285Y-113338809D02*
X102422095Y-113376904D01*
X102269714Y-113376904D01*
X102193523Y-113338809D01*
X102155428Y-113262619D01*
X102155428Y-112957857D01*
X102193523Y-112881666D01*
X102269714Y-112843571D01*
X102422095Y-112843571D01*
X102498285Y-112881666D01*
X102536380Y-112957857D01*
X102536380Y-113034047D01*
X102155428Y-113110238D01*
X102803047Y-112843571D02*
X102993523Y-113376904D01*
X103184000Y-112843571D01*
X104098285Y-113072142D02*
X104707809Y-113072142D01*
D11*
X110652000Y-111832000D02*
X109636000Y-111832000D01*
X111160000Y-112340000D02*
X110652000Y-111832000D01*
X111160000Y-112848000D02*
X111160000Y-112340000D01*
X110652000Y-112848000D02*
X111160000Y-112848000D01*
X110144000Y-112340000D02*
X110652000Y-112848000D01*
X110144000Y-111324000D02*
X110144000Y-112340000D01*
X109636000Y-111832000D02*
X110144000Y-111324000D01*
X82200000Y-100350000D02*
X81025000Y-100650000D01*
X82100000Y-99950000D02*
X82200000Y-100350000D01*
X80925000Y-100250000D02*
X82100000Y-99950000D01*
X81025000Y-100650000D02*
X80925000Y-100250000D01*
X81775000Y-102575000D02*
G75*
G03*
X81775000Y-102575000I-150000J0D01*
G01*
X94576385Y-99125000D02*
G75*
G03*
X94576385Y-99125000I-226385J0D01*
G01*
X101650000Y-81050000D02*
G75*
G03*
X101650000Y-81050000I-250000J0D01*
G01*
%TO.C,J18*%
X102541058Y-88521670D02*
X105088621Y-86737847D01*
X98379766Y-91435438D02*
X101295947Y-89393506D01*
X104621705Y-87064786D02*
X105088621Y-86737847D01*
X93061379Y-91912153D02*
X93528295Y-91585214D01*
X93528295Y-91585214D02*
X92656459Y-90340103D01*
X94587092Y-94091097D02*
X97134655Y-92307274D01*
X98934699Y-87799610D02*
X101850880Y-85757678D01*
X94773407Y-90713378D02*
X97689588Y-88671446D01*
X105088621Y-86737847D02*
X103562908Y-84558903D01*
X94587092Y-94091097D02*
X93061379Y-91912153D01*
%TO.C,C1*%
X92028841Y-107530979D02*
X92220199Y-107794360D01*
X92854039Y-106931438D02*
X93045397Y-107194819D01*
%TO.C,C2*%
X93816920Y-103568539D02*
X94008278Y-103831920D01*
X92991722Y-104168080D02*
X93183080Y-104431461D01*
%TO.C,C3*%
X89545961Y-104968562D02*
X89354603Y-104705181D01*
X90371159Y-104369021D02*
X90179801Y-104105640D01*
%TO.C,C4*%
X83316920Y-105431461D02*
X83508278Y-105168080D01*
X82491722Y-104831920D02*
X82683080Y-104568539D01*
%TO.C,C5*%
X106366920Y-105618539D02*
X106558278Y-105881920D01*
X105541722Y-106218080D02*
X105733080Y-106481461D01*
%TO.C,C6*%
X94591722Y-85568080D02*
X94783080Y-85831461D01*
X95416920Y-84968539D02*
X95608278Y-85231920D01*
%TO.C,C7*%
X88313976Y-97995967D02*
X88032034Y-97833188D01*
X87803976Y-98879312D02*
X87522034Y-98716533D01*
%TO.C,C8*%
X92883080Y-77981461D02*
X92691722Y-77718080D01*
X93708278Y-77381920D02*
X93516920Y-77118539D01*
%TO.C,C9*%
X103799721Y-78340000D02*
X104125279Y-78340000D01*
X103799721Y-79360000D02*
X104125279Y-79360000D01*
%TO.C,C10*%
X103799721Y-81060000D02*
X104125279Y-81060000D01*
X103799721Y-80040000D02*
X104125279Y-80040000D01*
%TO.C,C11*%
X90414029Y-92023062D02*
X90695971Y-91860283D01*
X89904029Y-91139717D02*
X90185971Y-90976938D01*
%TO.C,C12*%
X85372034Y-99933467D02*
X85653976Y-99770688D01*
X85882034Y-100816812D02*
X86163976Y-100654033D01*
%TO.C,C13*%
X93433080Y-95431461D02*
X93241722Y-95168080D01*
X94258278Y-94831920D02*
X94066920Y-94568539D01*
%TO.C,C14*%
X101396024Y-93629312D02*
X101677966Y-93466533D01*
X100886024Y-92745967D02*
X101167966Y-92583188D01*
%TO.C,D1*%
X83441025Y-94351443D02*
X85391025Y-97728942D01*
X81708975Y-95351443D02*
X83658975Y-98728942D01*
X83441025Y-94351443D02*
X81708975Y-95351443D01*
%TO.C,J1*%
X82484014Y-113469766D02*
G75*
G03*
X82484014Y-113469766I-950000J0D01*
G01*
%TO.C,J2*%
X118450000Y-109500000D02*
G75*
G03*
X118450000Y-109500000I-950000J0D01*
G01*
%TO.C,J3*%
X123950000Y-100500000D02*
G75*
G03*
X123950000Y-100500000I-950000J0D01*
G01*
%TO.C,J4*%
X91950000Y-120000000D02*
G75*
G03*
X91950000Y-120000000I-950000J0D01*
G01*
%TO.C,J5*%
X120950000Y-102000000D02*
G75*
G03*
X120950000Y-102000000I-950000J0D01*
G01*
%TO.C,J6*%
X96450000Y-122500000D02*
G75*
G03*
X96450000Y-122500000I-950000J0D01*
G01*
%TO.C,J7*%
X80629914Y-107763427D02*
G75*
G03*
X80629914Y-107763427I-950000J0D01*
G01*
%TO.C,J9*%
X114950000Y-99500000D02*
G75*
G03*
X114950000Y-99500000I-950000J0D01*
G01*
%TO.C,J10*%
X102950000Y-120000000D02*
G75*
G03*
X102950000Y-120000000I-950000J0D01*
G01*
%TO.C,J11*%
X103950000Y-117500000D02*
G75*
G03*
X103950000Y-117500000I-950000J0D01*
G01*
%TO.C,J12*%
X110250000Y-104050000D02*
G75*
G03*
X110250000Y-104050000I-950000J0D01*
G01*
%TO.C,J13*%
X105280000Y-107400000D02*
G75*
G03*
X105280000Y-107400000I-950000J0D01*
G01*
%TO.C,J14*%
X115600000Y-88250000D02*
G75*
G03*
X115600000Y-88250000I-950000J0D01*
G01*
%TO.C,J15*%
X113050000Y-95600000D02*
G75*
G03*
X113050000Y-95600000I-950000J0D01*
G01*
%TO.C,J16*%
X116450000Y-103500000D02*
G75*
G03*
X116450000Y-103500000I-950000J0D01*
G01*
%TO.C,J17*%
X80413089Y-102608643D02*
X78986504Y-103072168D01*
X78201959Y-102275620D02*
X77120400Y-98946922D01*
X77286911Y-97841357D02*
X78713496Y-97377832D01*
X80728107Y-102769153D02*
X80413089Y-102608643D01*
X80965872Y-102691898D02*
X80728107Y-102769153D01*
X81126382Y-102376880D02*
X80965872Y-102691898D01*
X80894619Y-101663588D02*
X81126382Y-102376880D01*
X80579600Y-101503078D02*
X80894619Y-101663588D01*
X79498041Y-98174380D02*
X80579600Y-101503078D01*
%TO.C,J19*%
X90455918Y-83224791D02*
X90226682Y-82909274D01*
X90455918Y-83224791D02*
X90091861Y-83489294D01*
X85538244Y-85932443D02*
X86064105Y-85550382D01*
X84521376Y-84532843D02*
X85538244Y-85932443D01*
X89175477Y-77974746D02*
X89298912Y-78144640D01*
X83010767Y-82453670D02*
X83134202Y-82623563D01*
X90686085Y-80053920D02*
X91702954Y-81453519D01*
X91702954Y-81453519D02*
X91169002Y-81841458D01*
%TO.C,L1*%
X86747213Y-104464660D02*
X86437589Y-104565263D01*
X87062411Y-105434737D02*
X86752787Y-105535340D01*
%TO.C,Q1*%
X112634537Y-84819315D02*
X112087896Y-84066929D01*
X110777135Y-82262821D02*
X111323776Y-83015207D01*
X110777135Y-82262821D02*
X109029659Y-83532438D01*
X112634537Y-84819315D02*
X111453372Y-85677482D01*
%TO.C,Q2*%
X109708097Y-93520992D02*
X109555485Y-92068990D01*
X112850786Y-93190682D02*
X112625005Y-91042514D01*
X112850786Y-93190682D02*
X111925881Y-93287893D01*
X109708097Y-93520992D02*
X110633002Y-93423780D01*
%TO.C,Q3*%
X81640000Y-89320000D02*
X83100000Y-89320000D01*
X81640000Y-92480000D02*
X83800000Y-92480000D01*
X81640000Y-92480000D02*
X81640000Y-91550000D01*
X81640000Y-89320000D02*
X81640000Y-90250000D01*
%TO.C,Q4*%
X85640000Y-89320000D02*
X85640000Y-90250000D01*
X85640000Y-92480000D02*
X85640000Y-91550000D01*
X85640000Y-92480000D02*
X87800000Y-92480000D01*
X85640000Y-89320000D02*
X87100000Y-89320000D01*
%TO.C,R1*%
X83739717Y-108112124D02*
X83840320Y-108421748D01*
X82769640Y-108427322D02*
X82870243Y-108736946D01*
%TO.C,R2*%
X93789660Y-119897213D02*
X93890263Y-119587589D01*
X94759737Y-120212411D02*
X94860340Y-119902787D01*
%TO.C,R3*%
X107731920Y-84591722D02*
X107468539Y-84783080D01*
X108331461Y-85416920D02*
X108068080Y-85608278D01*
%TO.C,R4*%
X110390000Y-89062779D02*
X110390000Y-88737221D01*
X111410000Y-89062779D02*
X111410000Y-88737221D01*
%TO.C,R7*%
X104462715Y-92519120D02*
X104744657Y-92356341D01*
X103952715Y-91635775D02*
X104234657Y-91472996D01*
%TO.C,R8*%
X105017966Y-92833188D02*
X104736024Y-92995967D01*
X105527966Y-93716533D02*
X105246024Y-93879312D01*
%TO.C,R9*%
X92616920Y-86968539D02*
X92808278Y-87231920D01*
X91791722Y-87568080D02*
X91983080Y-87831461D01*
%TO.C,U1*%
X95341827Y-98922155D02*
X94957544Y-99201353D01*
X105042456Y-100798647D02*
X104763258Y-100414364D01*
X104658173Y-101077845D02*
X105042456Y-100798647D01*
X99201353Y-105042456D02*
X98922155Y-104658173D01*
X99585636Y-104763258D02*
X99201353Y-105042456D01*
X100798647Y-94957544D02*
X101077845Y-95341827D01*
X100414364Y-95236742D02*
X100798647Y-94957544D01*
%TO.C,U2*%
X90848320Y-95831821D02*
X90118320Y-97096218D01*
X88111680Y-94251821D02*
X87031680Y-96122436D01*
X88111680Y-94251821D02*
X88917083Y-94716821D01*
X90848320Y-95831821D02*
X90042917Y-95366821D01*
%TO.C,U3*%
X100644814Y-81239048D02*
X100882314Y-80827686D01*
X95117686Y-82372314D02*
X95529048Y-82609814D01*
X95355186Y-81960952D02*
X95117686Y-82372314D01*
X97227686Y-78717686D02*
X97639048Y-78955186D01*
X96990186Y-79129048D02*
X97227686Y-78717686D01*
X98772314Y-84482314D02*
X98360952Y-84244814D01*
X99009814Y-84070952D02*
X98772314Y-84482314D01*
%TO.C,L2*%
X87934737Y-107812411D02*
X88035340Y-107502787D01*
X86964660Y-107497213D02*
X87065263Y-107187589D01*
%TO.C,J18*%
D10*
X95987407Y-93593220D02*
X95519320Y-93920978D01*
X95403852Y-93955324D01*
X95297740Y-93936613D01*
X95200982Y-93864846D01*
X95157281Y-93802435D01*
X95790947Y-94707403D02*
X95528740Y-94332933D01*
X95659843Y-94520168D02*
X96315165Y-94061307D01*
X96177847Y-94064447D01*
X96071734Y-94045736D01*
X95996827Y-94005175D01*
X96427622Y-94819666D02*
X96415127Y-94735404D01*
X96424482Y-94682347D01*
X96465044Y-94607441D01*
X96496249Y-94585590D01*
X96580511Y-94573095D01*
X96633568Y-94582450D01*
X96708475Y-94623011D01*
X96795877Y-94747834D01*
X96808372Y-94832096D01*
X96799017Y-94885153D01*
X96758456Y-94960060D01*
X96727250Y-94981910D01*
X96642988Y-94994405D01*
X96589931Y-94985050D01*
X96515025Y-94944489D01*
X96427622Y-94819666D01*
X96352716Y-94779105D01*
X96299659Y-94769750D01*
X96215397Y-94782245D01*
X96090574Y-94869647D01*
X96050013Y-94944554D01*
X96040658Y-94997610D01*
X96053153Y-95081872D01*
X96140555Y-95206695D01*
X96215462Y-95247256D01*
X96268518Y-95256612D01*
X96352780Y-95244116D01*
X96477604Y-95156714D01*
X96518165Y-95081807D01*
X96527520Y-95028751D01*
X96515025Y-94944489D01*
X103373551Y-83175988D02*
X104028872Y-82717126D01*
X104203677Y-82966773D01*
X104216172Y-83051035D01*
X104206817Y-83104091D01*
X104166255Y-83178998D01*
X104072638Y-83244550D01*
X103988376Y-83257045D01*
X103935320Y-83247690D01*
X103860413Y-83207129D01*
X103685609Y-82957482D01*
X104696883Y-83737562D02*
X104684388Y-83653300D01*
X104618837Y-83559683D01*
X104522079Y-83487916D01*
X104415967Y-83469205D01*
X104331704Y-83481701D01*
X104185031Y-83537897D01*
X104091413Y-83603449D01*
X103988441Y-83722057D01*
X103947880Y-83796963D01*
X103929169Y-83903076D01*
X103963515Y-84018544D01*
X104007216Y-84080956D01*
X104103973Y-84152722D01*
X104157030Y-84162078D01*
X104375470Y-84009124D01*
X104288068Y-83884301D01*
X104291273Y-84486631D02*
X104946595Y-84027770D01*
X104631461Y-84573968D01*
X105252502Y-84464651D01*
X104597180Y-84923512D01*
X104644021Y-85123242D02*
X104993630Y-85622535D01*
X105165294Y-85734863D02*
X105820616Y-85276001D01*
X105929868Y-85432030D01*
X105964214Y-85547498D01*
X105945504Y-85653611D01*
X105904943Y-85728518D01*
X105801970Y-85847126D01*
X105708353Y-85912677D01*
X105561679Y-85968874D01*
X105477417Y-85981369D01*
X105371304Y-85962658D01*
X105274547Y-85890891D01*
X105165294Y-85734863D01*
X106120373Y-86368269D02*
X106154719Y-86483737D01*
X106145363Y-86536793D01*
X106104802Y-86611700D01*
X106011185Y-86677252D01*
X105926923Y-86689747D01*
X105873866Y-86680392D01*
X105798960Y-86639831D01*
X105624155Y-86390184D01*
X106279477Y-85931323D01*
X106432431Y-86149764D01*
X106444926Y-86234026D01*
X106435571Y-86287082D01*
X106395010Y-86361989D01*
X106332598Y-86405690D01*
X106248336Y-86418185D01*
X106195280Y-86408830D01*
X106120373Y-86368269D01*
X105967419Y-86149828D01*
X106947488Y-86951759D02*
X106934993Y-86867497D01*
X106869441Y-86773879D01*
X106772684Y-86702113D01*
X106666571Y-86683402D01*
X106582309Y-86695897D01*
X106435635Y-86752094D01*
X106342018Y-86817645D01*
X106239045Y-86936253D01*
X106198484Y-87011160D01*
X106179774Y-87117273D01*
X106214120Y-87232741D01*
X106257821Y-87295152D01*
X106354578Y-87366919D01*
X106407634Y-87376274D01*
X106626075Y-87223321D01*
X106538673Y-87098497D01*
X94801607Y-88826577D02*
X95129365Y-89294664D01*
X95163711Y-89410132D01*
X95145000Y-89516244D01*
X95073233Y-89613002D01*
X95010822Y-89656703D01*
X95915790Y-89023037D02*
X95541320Y-89285244D01*
X95728555Y-89154141D02*
X95269694Y-88498819D01*
X95272834Y-88636137D01*
X95254123Y-88742250D01*
X95213562Y-88817157D01*
X96028053Y-88386362D02*
X95943791Y-88398857D01*
X95890734Y-88389502D01*
X95815828Y-88348940D01*
X95793977Y-88317735D01*
X95781482Y-88233473D01*
X95790837Y-88180416D01*
X95831398Y-88105509D01*
X95956221Y-88018107D01*
X96040483Y-88005612D01*
X96093540Y-88014967D01*
X96168447Y-88055528D01*
X96190297Y-88086734D01*
X96202792Y-88170996D01*
X96193437Y-88224053D01*
X96152876Y-88298959D01*
X96028053Y-88386362D01*
X95987492Y-88461268D01*
X95978137Y-88514325D01*
X95990632Y-88598587D01*
X96078034Y-88723410D01*
X96152941Y-88763971D01*
X96205997Y-88773326D01*
X96290259Y-88760831D01*
X96415082Y-88673429D01*
X96455643Y-88598522D01*
X96464999Y-88545466D01*
X96452503Y-88461204D01*
X96365101Y-88336380D01*
X96290194Y-88295819D01*
X96237138Y-88286464D01*
X96152876Y-88298959D01*
%TO.C,C1*%
X93384493Y-106582435D02*
X93331282Y-106574007D01*
X93233287Y-106503940D01*
X93188503Y-106442301D01*
X93152147Y-106327450D01*
X93169003Y-106221027D01*
X93208251Y-106145423D01*
X93309138Y-106025036D01*
X93401597Y-105957861D01*
X93547267Y-105899113D01*
X93631299Y-105885149D01*
X93737722Y-105902005D01*
X93835717Y-105972072D01*
X93880500Y-106033712D01*
X93916856Y-106148563D01*
X93908428Y-106201774D01*
X93770690Y-107243613D02*
X93501989Y-106873776D01*
X93636339Y-107058695D02*
X94283553Y-106588466D01*
X94146310Y-106594002D01*
X94039887Y-106577147D01*
X93964284Y-106537899D01*
X90676576Y-106619233D02*
X90729787Y-106627661D01*
X90805390Y-106666908D01*
X90917350Y-106821007D01*
X90931314Y-106905038D01*
X90922886Y-106958249D01*
X90883638Y-107033853D01*
X90821999Y-107078636D01*
X90707148Y-107114992D01*
X90068610Y-107013858D01*
X90359703Y-107414514D01*
X91163660Y-107160023D02*
X91477145Y-107591499D01*
X90628405Y-107784350D01*
X91745847Y-107961335D02*
X91790631Y-108022975D01*
X91804594Y-108107006D01*
X91796167Y-108160218D01*
X91756919Y-108235821D01*
X91656032Y-108356208D01*
X91501934Y-108468167D01*
X91356263Y-108526915D01*
X91272232Y-108540878D01*
X91219020Y-108532451D01*
X91143417Y-108493203D01*
X91098633Y-108431564D01*
X91084669Y-108347532D01*
X91093097Y-108294321D01*
X91132345Y-108218718D01*
X91233232Y-108098331D01*
X91387330Y-107986372D01*
X91533001Y-107927624D01*
X91617032Y-107913660D01*
X91670244Y-107922088D01*
X91745847Y-107961335D01*
X91888378Y-108611193D02*
X91241165Y-109081421D01*
X91857558Y-108633585D02*
X91933162Y-108672833D01*
X92022729Y-108796111D01*
X92036693Y-108880143D01*
X92028265Y-108933354D01*
X91989018Y-109008958D01*
X91804099Y-109143308D01*
X91720068Y-109157272D01*
X91666857Y-109148844D01*
X91591253Y-109109597D01*
X91501686Y-108986318D01*
X91487722Y-108902287D01*
X92378106Y-109479681D02*
X92221364Y-109263943D01*
X91882347Y-109510253D02*
X92529561Y-109040025D01*
X92753479Y-109348222D01*
%TO.C,C2*%
X94347374Y-103219536D02*
X94294163Y-103211108D01*
X94196168Y-103141041D01*
X94151384Y-103079402D01*
X94115028Y-102964551D01*
X94131884Y-102858128D01*
X94171132Y-102782524D01*
X94272019Y-102662137D01*
X94364478Y-102594962D01*
X94510148Y-102536214D01*
X94594180Y-102522250D01*
X94700603Y-102539106D01*
X94798598Y-102609173D01*
X94843381Y-102670813D01*
X94879737Y-102785664D01*
X94871309Y-102838875D01*
X95050444Y-103085433D02*
X95103655Y-103093861D01*
X95179259Y-103133108D01*
X95291218Y-103287207D01*
X95305182Y-103371238D01*
X95296754Y-103424449D01*
X95257506Y-103500053D01*
X95195867Y-103544836D01*
X95081016Y-103581192D01*
X94442478Y-103480058D01*
X94733571Y-103880714D01*
X92371351Y-99265801D02*
X92424562Y-99274229D01*
X92500165Y-99313476D01*
X92612125Y-99467575D01*
X92626089Y-99551606D01*
X92617661Y-99604817D01*
X92578413Y-99680421D01*
X92516774Y-99725204D01*
X92401923Y-99761560D01*
X91763385Y-99660426D01*
X92054478Y-100061082D01*
X92858435Y-99806591D02*
X93171920Y-100238067D01*
X92323180Y-100430918D01*
X93440622Y-100607903D02*
X93485406Y-100669543D01*
X93499369Y-100753574D01*
X93490942Y-100806786D01*
X93451694Y-100882389D01*
X93350807Y-101002776D01*
X93196709Y-101114735D01*
X93051038Y-101173483D01*
X92967007Y-101187446D01*
X92913795Y-101179019D01*
X92838192Y-101139771D01*
X92793408Y-101078132D01*
X92779444Y-100994100D01*
X92787872Y-100940889D01*
X92827120Y-100865286D01*
X92928007Y-100744899D01*
X93082105Y-100632940D01*
X93227776Y-100574192D01*
X93311807Y-100560228D01*
X93365019Y-100568656D01*
X93440622Y-100607903D01*
X93583153Y-101257761D02*
X92935940Y-101727989D01*
X93552333Y-101280153D02*
X93627937Y-101319401D01*
X93717504Y-101442679D01*
X93731468Y-101526711D01*
X93723040Y-101579922D01*
X93683793Y-101655526D01*
X93498874Y-101789876D01*
X93414843Y-101803840D01*
X93361632Y-101795412D01*
X93286028Y-101756165D01*
X93196461Y-101632886D01*
X93182497Y-101548855D01*
X94072881Y-102126249D02*
X93916139Y-101910511D01*
X93577122Y-102156821D02*
X94224336Y-101686593D01*
X94448254Y-101994790D01*
%TO.C,C3*%
X88396467Y-105437703D02*
X88343256Y-105429275D01*
X88245261Y-105359208D01*
X88200477Y-105297569D01*
X88164121Y-105182718D01*
X88180977Y-105076295D01*
X88220225Y-105000691D01*
X88321112Y-104880304D01*
X88413571Y-104813129D01*
X88559241Y-104754381D01*
X88643273Y-104740417D01*
X88749696Y-104757273D01*
X88847691Y-104827340D01*
X88892474Y-104888980D01*
X88928830Y-105003831D01*
X88920402Y-105057042D01*
X89138784Y-105227997D02*
X89429878Y-105628653D01*
X89026578Y-105592049D01*
X89093753Y-105684508D01*
X89107717Y-105768540D01*
X89099289Y-105821751D01*
X89060042Y-105897354D01*
X88905943Y-106009313D01*
X88821912Y-106023277D01*
X88768700Y-106014850D01*
X88693097Y-105975602D01*
X88558746Y-105790684D01*
X88544782Y-105706653D01*
X88553210Y-105653441D01*
X89487747Y-102314197D02*
X90134961Y-101843969D01*
X89756449Y-102684033D01*
X90403663Y-102213805D01*
X90310709Y-103317283D02*
X90257497Y-103308855D01*
X90159502Y-103238788D01*
X90114718Y-103177148D01*
X90078363Y-103062297D01*
X90095218Y-102955874D01*
X90134466Y-102880271D01*
X90235353Y-102759884D01*
X90327812Y-102692709D01*
X90473483Y-102633961D01*
X90557514Y-102619997D01*
X90663937Y-102636853D01*
X90761932Y-102706920D01*
X90806716Y-102768559D01*
X90843071Y-102883410D01*
X90834643Y-102936622D01*
%TO.C,C4*%
X81995882Y-104435274D02*
X82004310Y-104488486D01*
X81967954Y-104603336D01*
X81923170Y-104664976D01*
X81825175Y-104735043D01*
X81718752Y-104751899D01*
X81634721Y-104737935D01*
X81489050Y-104679187D01*
X81396591Y-104612012D01*
X81295704Y-104491625D01*
X81256457Y-104416022D01*
X81239601Y-104309599D01*
X81275957Y-104194748D01*
X81320740Y-104133108D01*
X81418736Y-104063041D01*
X81471947Y-104054613D01*
X82029098Y-103611818D02*
X82460574Y-103925303D01*
X81670582Y-103586782D02*
X82020918Y-104076757D01*
X82312012Y-103676101D01*
X84080216Y-106561780D02*
X83433002Y-106091552D01*
X84348917Y-106191943D01*
X83701704Y-105721715D01*
X84779898Y-105469126D02*
X84788326Y-105522338D01*
X84751970Y-105637189D01*
X84707187Y-105698828D01*
X84609191Y-105768896D01*
X84502768Y-105785751D01*
X84418737Y-105771787D01*
X84273067Y-105713040D01*
X84180607Y-105645864D01*
X84079720Y-105525477D01*
X84040473Y-105449874D01*
X84023617Y-105343451D01*
X84059973Y-105228600D01*
X84104757Y-105166961D01*
X84202752Y-105096893D01*
X84255963Y-105088466D01*
%TO.C,C5*%
X106897374Y-105269536D02*
X106844163Y-105261108D01*
X106746168Y-105191041D01*
X106701384Y-105129402D01*
X106665028Y-105014551D01*
X106681884Y-104908128D01*
X106721132Y-104832524D01*
X106822019Y-104712137D01*
X106914478Y-104644962D01*
X107060148Y-104586214D01*
X107144180Y-104572250D01*
X107250603Y-104589106D01*
X107348598Y-104659173D01*
X107393381Y-104720813D01*
X107429737Y-104835664D01*
X107421309Y-104888875D01*
X107908393Y-105429666D02*
X107684475Y-105121469D01*
X107353886Y-105314567D01*
X107407098Y-105322995D01*
X107482701Y-105362243D01*
X107594660Y-105516341D01*
X107608624Y-105600373D01*
X107600196Y-105653584D01*
X107560949Y-105729187D01*
X107406850Y-105841146D01*
X107322819Y-105855110D01*
X107269607Y-105846683D01*
X107194004Y-105807435D01*
X107082045Y-105653336D01*
X107068081Y-105569305D01*
X107076509Y-105516094D01*
X107320685Y-107829577D02*
X107312257Y-107882788D01*
X107259046Y-107874360D01*
X107267473Y-107821149D01*
X107320685Y-107829577D01*
X107259046Y-107874360D01*
X107729274Y-108521574D02*
X107460572Y-108151738D01*
X107594923Y-108336656D02*
X108242136Y-107866428D01*
X108104894Y-107871964D01*
X107998471Y-107855108D01*
X107922867Y-107815860D01*
X108563802Y-108762843D02*
X108132326Y-109076329D01*
X108362276Y-108485466D02*
X108023259Y-108731776D01*
X107984012Y-108807379D01*
X107997976Y-108891410D01*
X108065151Y-108983869D01*
X108140754Y-109023117D01*
X108193966Y-109031545D01*
X108852004Y-109353953D02*
X108695261Y-109138216D01*
X108356245Y-109384526D02*
X109003458Y-108914297D01*
X109227376Y-109222494D01*
%TO.C,C6*%
X95947374Y-84619536D02*
X95894163Y-84611108D01*
X95796168Y-84541041D01*
X95751384Y-84479402D01*
X95715028Y-84364551D01*
X95731884Y-84258128D01*
X95771132Y-84182524D01*
X95872019Y-84062137D01*
X95964478Y-83994962D01*
X96110148Y-83936214D01*
X96194180Y-83922250D01*
X96300603Y-83939106D01*
X96398598Y-84009173D01*
X96443381Y-84070813D01*
X96479737Y-84185664D01*
X96471309Y-84238875D01*
X96936001Y-84748846D02*
X96846434Y-84625567D01*
X96770831Y-84586320D01*
X96717619Y-84577892D01*
X96580377Y-84583428D01*
X96434706Y-84642176D01*
X96188148Y-84821310D01*
X96148901Y-84896913D01*
X96140473Y-84950125D01*
X96154437Y-85034156D01*
X96244004Y-85157435D01*
X96319607Y-85196683D01*
X96372819Y-85205110D01*
X96456850Y-85191146D01*
X96610949Y-85079187D01*
X96650196Y-85003584D01*
X96658624Y-84950373D01*
X96644660Y-84866341D01*
X96555093Y-84743063D01*
X96479490Y-84703815D01*
X96426278Y-84695387D01*
X96342247Y-84709351D01*
X93073791Y-85530110D02*
X93065363Y-85583321D01*
X93012152Y-85574893D01*
X93020579Y-85521682D01*
X93073791Y-85530110D01*
X93012152Y-85574893D01*
X93482380Y-86222107D02*
X93213678Y-85852271D01*
X93348029Y-86037189D02*
X93995242Y-85566961D01*
X93858000Y-85572497D01*
X93751577Y-85555641D01*
X93675973Y-85516393D01*
X94316908Y-86463376D02*
X93885432Y-86776862D01*
X94115382Y-86185999D02*
X93776365Y-86432309D01*
X93737118Y-86507912D01*
X93751082Y-86591943D01*
X93818257Y-86684402D01*
X93893860Y-86723650D01*
X93947072Y-86732078D01*
X94605110Y-87054486D02*
X94448367Y-86838749D01*
X94109351Y-87085059D02*
X94756564Y-86614830D01*
X94980482Y-86923027D01*
%TO.C,C7*%
X86009672Y-97280769D02*
X85957633Y-97294712D01*
X85839611Y-97270561D01*
X85773628Y-97232466D01*
X85693702Y-97142332D01*
X85665814Y-97038253D01*
X85670918Y-96953223D01*
X85714117Y-96802210D01*
X85771260Y-96703235D01*
X85880442Y-96590317D01*
X85951528Y-96543382D01*
X86055606Y-96515494D01*
X86173628Y-96539646D01*
X86239611Y-96577741D01*
X86319538Y-96667875D01*
X86333482Y-96719914D01*
X86602517Y-96787265D02*
X87064397Y-97053931D01*
X86367474Y-97575323D01*
X88225786Y-102103656D02*
X88130740Y-102550809D01*
X88178263Y-102327233D02*
X87395745Y-102160903D01*
X87491692Y-102259190D01*
X87550377Y-102349556D01*
X87571799Y-102432002D01*
X87546233Y-101452911D02*
X87562074Y-101378385D01*
X87615178Y-101311780D01*
X87660361Y-101282438D01*
X87742807Y-101261016D01*
X87899779Y-101255435D01*
X88086093Y-101295037D01*
X88227223Y-101363982D01*
X88293828Y-101417085D01*
X88323171Y-101462268D01*
X88344592Y-101544714D01*
X88328752Y-101619240D01*
X88275648Y-101685845D01*
X88230465Y-101715187D01*
X88148019Y-101736609D01*
X87991047Y-101742190D01*
X87804733Y-101702588D01*
X87663603Y-101633643D01*
X87596998Y-101580540D01*
X87567655Y-101535357D01*
X87546233Y-101452911D01*
X88005084Y-100576785D02*
X88526763Y-100687671D01*
X87933800Y-100912150D02*
X88343690Y-100999274D01*
X88426136Y-100977853D01*
X88479240Y-100911247D01*
X88503001Y-100799459D01*
X88481579Y-100717013D01*
X88452237Y-100671830D01*
X88251520Y-99967079D02*
X88196077Y-100227918D01*
X88605967Y-100315043D02*
X87823449Y-100148714D01*
X87902654Y-99776086D01*
%TO.C,C8*%
X91733586Y-78450602D02*
X91680375Y-78442174D01*
X91582380Y-78372107D01*
X91537596Y-78310468D01*
X91501240Y-78195617D01*
X91518096Y-78089194D01*
X91557344Y-78013590D01*
X91658231Y-77893203D01*
X91750690Y-77826028D01*
X91896360Y-77767280D01*
X91980392Y-77753316D01*
X92086815Y-77770172D01*
X92184810Y-77840239D01*
X92229593Y-77901879D01*
X92265949Y-78016730D01*
X92257521Y-78069941D01*
X92310485Y-78596520D02*
X92296521Y-78512489D01*
X92304949Y-78459278D01*
X92344197Y-78383674D01*
X92375016Y-78361282D01*
X92459048Y-78347319D01*
X92512259Y-78355746D01*
X92587862Y-78394994D01*
X92677430Y-78518273D01*
X92691394Y-78602304D01*
X92682966Y-78655515D01*
X92643718Y-78731119D01*
X92612899Y-78753511D01*
X92528867Y-78767475D01*
X92475656Y-78759047D01*
X92400052Y-78719799D01*
X92310485Y-78596520D01*
X92234882Y-78557273D01*
X92181670Y-78548845D01*
X92097639Y-78562809D01*
X91974360Y-78652376D01*
X91935113Y-78727979D01*
X91926685Y-78781191D01*
X91940649Y-78865222D01*
X92030216Y-78988501D01*
X92105819Y-79027749D01*
X92159031Y-79036176D01*
X92243062Y-79022212D01*
X92366341Y-78932645D01*
X92405589Y-78857042D01*
X92414016Y-78803830D01*
X92400052Y-78719799D01*
X93560290Y-76019279D02*
X93291589Y-75649442D01*
X93425940Y-75834360D02*
X94073153Y-75364132D01*
X93935910Y-75369668D01*
X93829487Y-75352813D01*
X93753884Y-75313565D01*
X94498598Y-75949706D02*
X94543381Y-76011346D01*
X94557345Y-76095377D01*
X94548917Y-76148589D01*
X94509670Y-76224192D01*
X94408783Y-76344579D01*
X94254684Y-76456538D01*
X94109014Y-76515286D01*
X94024983Y-76529250D01*
X93971771Y-76520822D01*
X93896168Y-76481574D01*
X93851384Y-76419935D01*
X93837420Y-76335903D01*
X93845848Y-76282692D01*
X93885096Y-76207089D01*
X93985983Y-76086702D01*
X94140081Y-75974743D01*
X94285752Y-75915995D01*
X94369783Y-75902031D01*
X94422994Y-75910459D01*
X94498598Y-75949706D01*
X94842655Y-76876942D02*
X94411180Y-77190427D01*
X94641129Y-76599564D02*
X94302112Y-76845874D01*
X94262865Y-76921478D01*
X94276829Y-77005509D01*
X94344004Y-77097968D01*
X94419607Y-77137216D01*
X94472819Y-77145643D01*
X95130857Y-77468052D02*
X94974114Y-77252314D01*
X94635098Y-77498624D02*
X95282311Y-77028396D01*
X95506230Y-77336593D01*
%TO.C,C9*%
X103829166Y-77705714D02*
X103791071Y-77743809D01*
X103676785Y-77781904D01*
X103600595Y-77781904D01*
X103486309Y-77743809D01*
X103410119Y-77667619D01*
X103372023Y-77591428D01*
X103333928Y-77439047D01*
X103333928Y-77324761D01*
X103372023Y-77172380D01*
X103410119Y-77096190D01*
X103486309Y-77020000D01*
X103600595Y-76981904D01*
X103676785Y-76981904D01*
X103791071Y-77020000D01*
X103829166Y-77058095D01*
X104210119Y-77781904D02*
X104362500Y-77781904D01*
X104438690Y-77743809D01*
X104476785Y-77705714D01*
X104552976Y-77591428D01*
X104591071Y-77439047D01*
X104591071Y-77134285D01*
X104552976Y-77058095D01*
X104514880Y-77020000D01*
X104438690Y-76981904D01*
X104286309Y-76981904D01*
X104210119Y-77020000D01*
X104172023Y-77058095D01*
X104133928Y-77134285D01*
X104133928Y-77324761D01*
X104172023Y-77400952D01*
X104210119Y-77439047D01*
X104286309Y-77477142D01*
X104438690Y-77477142D01*
X104514880Y-77439047D01*
X104552976Y-77400952D01*
X104591071Y-77324761D01*
X106164285Y-79035714D02*
X106202380Y-79073809D01*
X106164285Y-79111904D01*
X106126190Y-79073809D01*
X106164285Y-79035714D01*
X106164285Y-79111904D01*
X106964285Y-79111904D02*
X106507142Y-79111904D01*
X106735714Y-79111904D02*
X106735714Y-78311904D01*
X106659523Y-78426190D01*
X106583333Y-78502380D01*
X106507142Y-78540476D01*
X107650000Y-78578571D02*
X107650000Y-79111904D01*
X107307142Y-78578571D02*
X107307142Y-78997619D01*
X107345238Y-79073809D01*
X107421428Y-79111904D01*
X107535714Y-79111904D01*
X107611904Y-79073809D01*
X107650000Y-79035714D01*
X108297619Y-78692857D02*
X108030952Y-78692857D01*
X108030952Y-79111904D02*
X108030952Y-78311904D01*
X108411904Y-78311904D01*
%TO.C,C10*%
X101069346Y-79099175D02*
X101021343Y-79074717D01*
X100949796Y-78977797D01*
X100926252Y-78905335D01*
X100927167Y-78784871D01*
X100976084Y-78688865D01*
X101036773Y-78629090D01*
X101169924Y-78545771D01*
X101278616Y-78510455D01*
X101435311Y-78499598D01*
X101519545Y-78512284D01*
X101615550Y-78561201D01*
X101687097Y-78658121D01*
X101710642Y-78730583D01*
X101709727Y-78851047D01*
X101685268Y-78899050D01*
X101232326Y-79847334D02*
X101091061Y-79412565D01*
X101161694Y-79629950D02*
X101922539Y-79382736D01*
X101790303Y-79345591D01*
X101694297Y-79296673D01*
X101634522Y-79235984D01*
X102146208Y-80071120D02*
X102169752Y-80143581D01*
X102157066Y-80227815D01*
X102132607Y-80275818D01*
X102071918Y-80335592D01*
X101938767Y-80418911D01*
X101757613Y-80477772D01*
X101600918Y-80488629D01*
X101516685Y-80475943D01*
X101468682Y-80451484D01*
X101408907Y-80390795D01*
X101385363Y-80318333D01*
X101398050Y-80234100D01*
X101422508Y-80186097D01*
X101483198Y-80126322D01*
X101616349Y-80043003D01*
X101797502Y-79984143D01*
X101954197Y-79973285D01*
X102038431Y-79985972D01*
X102086433Y-80010430D01*
X102146208Y-80071120D01*
X106642857Y-81361904D02*
X106185714Y-81361904D01*
X106414285Y-81361904D02*
X106414285Y-80561904D01*
X106338095Y-80676190D01*
X106261904Y-80752380D01*
X106185714Y-80790476D01*
X107138095Y-80561904D02*
X107214285Y-80561904D01*
X107290476Y-80600000D01*
X107328571Y-80638095D01*
X107366666Y-80714285D01*
X107404761Y-80866666D01*
X107404761Y-81057142D01*
X107366666Y-81209523D01*
X107328571Y-81285714D01*
X107290476Y-81323809D01*
X107214285Y-81361904D01*
X107138095Y-81361904D01*
X107061904Y-81323809D01*
X107023809Y-81285714D01*
X106985714Y-81209523D01*
X106947619Y-81057142D01*
X106947619Y-80866666D01*
X106985714Y-80714285D01*
X107023809Y-80638095D01*
X107061904Y-80600000D01*
X107138095Y-80561904D01*
X108090476Y-80828571D02*
X108090476Y-81361904D01*
X107747619Y-80828571D02*
X107747619Y-81247619D01*
X107785714Y-81323809D01*
X107861904Y-81361904D01*
X107976190Y-81361904D01*
X108052380Y-81323809D01*
X108090476Y-81285714D01*
X108738095Y-80942857D02*
X108471428Y-80942857D01*
X108471428Y-81361904D02*
X108471428Y-80561904D01*
X108852380Y-80561904D01*
%TO.C,C11*%
X89282472Y-90766162D02*
X89268528Y-90818201D01*
X89188602Y-90908336D01*
X89122619Y-90946431D01*
X89004597Y-90970582D01*
X88900519Y-90942695D01*
X88829432Y-90895759D01*
X88720250Y-90782841D01*
X88663107Y-90683867D01*
X88619908Y-90532853D01*
X88614804Y-90447823D01*
X88642692Y-90343745D01*
X88722619Y-90253610D01*
X88788602Y-90215515D01*
X88906624Y-90191364D01*
X88958663Y-90205308D01*
X89980396Y-90451193D02*
X89584499Y-90679764D01*
X89782448Y-90565478D02*
X89382448Y-89872658D01*
X89373608Y-90009728D01*
X89345720Y-90113806D01*
X89298785Y-90184892D01*
X90640225Y-90070240D02*
X90244328Y-90298812D01*
X90442276Y-90184526D02*
X90042276Y-89491706D01*
X90033436Y-89628775D01*
X90005549Y-89732853D01*
X89958614Y-89803940D01*
X90453644Y-93480406D02*
X90057747Y-93708977D01*
X90255696Y-93594691D02*
X89855696Y-92901871D01*
X89846856Y-93038941D01*
X89818968Y-93143019D01*
X89772033Y-93214105D01*
X90482533Y-92539966D02*
X90548516Y-92501871D01*
X90633547Y-92496767D01*
X90685586Y-92510711D01*
X90756672Y-92557646D01*
X90865854Y-92670564D01*
X90961092Y-92835522D01*
X91004291Y-92986535D01*
X91009395Y-93071566D01*
X90995451Y-93123605D01*
X90948516Y-93194691D01*
X90882533Y-93232787D01*
X90797503Y-93237890D01*
X90745464Y-93223947D01*
X90674377Y-93177011D01*
X90565195Y-93064093D01*
X90469957Y-92899136D01*
X90426758Y-92748123D01*
X90421654Y-92663092D01*
X90435598Y-92611053D01*
X90482533Y-92539966D01*
X91440653Y-92294716D02*
X91707319Y-92756596D01*
X91143730Y-92466144D02*
X91353253Y-92829050D01*
X91424340Y-92875986D01*
X91509371Y-92870882D01*
X91608345Y-92813739D01*
X91655280Y-92742652D01*
X91669224Y-92690613D01*
X92058650Y-92069881D02*
X91827710Y-92203214D01*
X92037234Y-92566120D02*
X91637234Y-91873300D01*
X91967148Y-91682823D01*
%TO.C,C12*%
X82987472Y-102814578D02*
X82973528Y-102866617D01*
X82893602Y-102956752D01*
X82827619Y-102994847D01*
X82709597Y-103018998D01*
X82605519Y-102991111D01*
X82534432Y-102944175D01*
X82425250Y-102831257D01*
X82368107Y-102732283D01*
X82324908Y-102581269D01*
X82319804Y-102496239D01*
X82347692Y-102392161D01*
X82427619Y-102302026D01*
X82493602Y-102263931D01*
X82611624Y-102239780D01*
X82663663Y-102253724D01*
X83685396Y-102499609D02*
X83289499Y-102728180D01*
X83487448Y-102613894D02*
X83087448Y-101921074D01*
X83078608Y-102058144D01*
X83050720Y-102162222D01*
X83003785Y-102233308D01*
X83587423Y-101720390D02*
X83601367Y-101668351D01*
X83648302Y-101597265D01*
X83813259Y-101502026D01*
X83898290Y-101496923D01*
X83950329Y-101510866D01*
X84021416Y-101557802D01*
X84059511Y-101623785D01*
X84083662Y-101741807D01*
X83916336Y-102366275D01*
X84345225Y-102118656D01*
X81422600Y-101960292D02*
X81474640Y-101974236D01*
X81460696Y-102026275D01*
X81408657Y-102012332D01*
X81422600Y-101960292D01*
X81460696Y-102026275D01*
X82153516Y-101626275D02*
X81757619Y-101854847D01*
X81955567Y-101740561D02*
X81555567Y-101047741D01*
X81546727Y-101184810D01*
X81518840Y-101288888D01*
X81471904Y-101359975D01*
X82480695Y-100821538D02*
X82747362Y-101283418D01*
X82183772Y-100992967D02*
X82393296Y-101355872D01*
X82464383Y-101402808D01*
X82549413Y-101397704D01*
X82648388Y-101340561D01*
X82695323Y-101269474D01*
X82709267Y-101217435D01*
X83098693Y-100596703D02*
X82867753Y-100730036D01*
X83077276Y-101092942D02*
X82677276Y-100400122D01*
X83007191Y-100209646D01*
%TO.C,C13*%
X92059668Y-95592405D02*
X92006457Y-95583977D01*
X91908462Y-95513910D01*
X91863678Y-95452271D01*
X91827322Y-95337420D01*
X91844178Y-95230997D01*
X91883425Y-95155393D01*
X91984312Y-95035006D01*
X92076772Y-94967831D01*
X92222442Y-94909083D01*
X92306473Y-94895120D01*
X92412896Y-94911975D01*
X92510892Y-94982043D01*
X92555675Y-95043682D01*
X92592031Y-95158533D01*
X92583603Y-95211744D01*
X92445865Y-96253583D02*
X92177163Y-95883746D01*
X92311514Y-96068665D02*
X92958728Y-95598436D01*
X92821485Y-95603972D01*
X92715062Y-95587117D01*
X92639459Y-95547869D01*
X93249822Y-95999092D02*
X93540915Y-96399748D01*
X93137615Y-96363145D01*
X93204790Y-96455604D01*
X93218754Y-96539635D01*
X93210326Y-96592847D01*
X93171079Y-96668450D01*
X93016980Y-96780409D01*
X92932949Y-96794373D01*
X92879738Y-96785945D01*
X92804134Y-96746698D01*
X92669783Y-96561780D01*
X92655819Y-96477749D01*
X92664247Y-96424537D01*
X93555714Y-98107234D02*
X93603717Y-98131693D01*
X93579259Y-98179696D01*
X93531256Y-98155237D01*
X93555714Y-98107234D01*
X93579259Y-98179696D01*
X94340104Y-97932482D02*
X93905335Y-98073747D01*
X94122719Y-98003114D02*
X93875506Y-97242269D01*
X93838361Y-97374506D01*
X93789443Y-97470511D01*
X93728754Y-97530286D01*
X94827448Y-97213354D02*
X94992257Y-97720585D01*
X94501371Y-97319303D02*
X94630864Y-97717841D01*
X94690639Y-97778530D01*
X94774872Y-97791217D01*
X94883565Y-97755901D01*
X94944254Y-97696126D01*
X94968713Y-97648123D01*
X95478686Y-97121921D02*
X95225071Y-97204326D01*
X95354564Y-97602864D02*
X95107350Y-96842019D01*
X95469658Y-96724298D01*
%TO.C,C14*%
X100264467Y-92372412D02*
X100250523Y-92424451D01*
X100170597Y-92514586D01*
X100104614Y-92552681D01*
X99986592Y-92576832D01*
X99882514Y-92548945D01*
X99811427Y-92502009D01*
X99702245Y-92389091D01*
X99645102Y-92290117D01*
X99601903Y-92139103D01*
X99596799Y-92054073D01*
X99624687Y-91949995D01*
X99704614Y-91859860D01*
X99770597Y-91821765D01*
X99888619Y-91797614D01*
X99940658Y-91811558D01*
X100962391Y-92057443D02*
X100566494Y-92286014D01*
X100764443Y-92171728D02*
X100364443Y-91478908D01*
X100355603Y-91615978D01*
X100327715Y-91720056D01*
X100280780Y-91791142D01*
X101289571Y-91252705D02*
X101556237Y-91714586D01*
X100972232Y-91084012D02*
X101092989Y-91674122D01*
X101521878Y-91426503D01*
X101199595Y-95134958D02*
X101251635Y-95148902D01*
X101237691Y-95200941D01*
X101185652Y-95186998D01*
X101199595Y-95134958D01*
X101237691Y-95200941D01*
X101930511Y-94800941D02*
X101534614Y-95029513D01*
X101732562Y-94915227D02*
X101332562Y-94222407D01*
X101323722Y-94359476D01*
X101295835Y-94463554D01*
X101248899Y-94534641D01*
X102257690Y-93996204D02*
X102524357Y-94458084D01*
X101960767Y-94167633D02*
X102170291Y-94530538D01*
X102241378Y-94577474D01*
X102326408Y-94572370D01*
X102425383Y-94515227D01*
X102472318Y-94444140D01*
X102486262Y-94392101D01*
X102875688Y-93771369D02*
X102644748Y-93904702D01*
X102854271Y-94267608D02*
X102454271Y-93574788D01*
X102784186Y-93384312D01*
%TO.C,D1*%
X84823394Y-95469584D02*
X85516214Y-95069584D01*
X85611452Y-95234542D01*
X85635604Y-95352564D01*
X85607716Y-95456642D01*
X85560781Y-95527728D01*
X85447862Y-95636910D01*
X85348888Y-95694053D01*
X85197875Y-95737252D01*
X85112844Y-95742356D01*
X85008766Y-95714468D01*
X84918632Y-95634542D01*
X84823394Y-95469584D01*
X85432917Y-96525311D02*
X85204346Y-96129413D01*
X85318632Y-96327362D02*
X86011452Y-95927362D01*
X85874383Y-95918522D01*
X85770304Y-95890634D01*
X85699218Y-95843699D01*
X80777452Y-96661807D02*
X81470272Y-96261807D01*
X81565510Y-96426764D01*
X81589661Y-96544786D01*
X81561774Y-96648864D01*
X81514839Y-96719951D01*
X81401920Y-96829133D01*
X81302946Y-96886276D01*
X81151933Y-96929475D01*
X81066902Y-96934579D01*
X80962824Y-96906691D01*
X80872690Y-96826764D01*
X80777452Y-96661807D01*
X81177452Y-97354627D02*
X81870272Y-96954627D01*
X82136939Y-97416507D02*
X82213129Y-97548473D01*
X82218233Y-97633504D01*
X82190345Y-97737582D01*
X82077427Y-97846764D01*
X81846487Y-97980097D01*
X81695474Y-98023296D01*
X81591395Y-97995409D01*
X81520309Y-97948473D01*
X81444118Y-97816507D01*
X81439014Y-97731477D01*
X81466902Y-97627399D01*
X81579820Y-97518217D01*
X81810760Y-97384884D01*
X81961774Y-97341685D01*
X82065852Y-97369572D01*
X82136939Y-97416507D01*
X81786975Y-98410353D02*
X82479796Y-98010353D01*
X82575034Y-98175311D01*
X82599185Y-98293333D01*
X82571298Y-98397411D01*
X82524362Y-98468497D01*
X82411444Y-98577679D01*
X82312470Y-98634822D01*
X82161456Y-98678021D01*
X82076426Y-98683125D01*
X81972348Y-98655237D01*
X81882213Y-98575311D01*
X81786975Y-98410353D01*
X82549881Y-98893650D02*
X82683215Y-99124590D01*
X82377452Y-99433088D02*
X82186975Y-99103174D01*
X82879796Y-98703174D01*
X83070272Y-99033088D01*
%TO.C,J1*%
X83435603Y-112571512D02*
X82892142Y-112748093D01*
X82771678Y-112747178D01*
X82675673Y-112698261D01*
X82604126Y-112601341D01*
X82580581Y-112528879D01*
X82921972Y-113579570D02*
X82780707Y-113144802D01*
X82851339Y-113362186D02*
X83612184Y-113114972D01*
X83479948Y-113077827D01*
X83383943Y-113028910D01*
X83324168Y-112968221D01*
%TO.C,J2*%
X116872503Y-110568283D02*
X116695922Y-111111744D01*
X116624375Y-111208664D01*
X116528370Y-111257581D01*
X116407905Y-111258495D01*
X116335444Y-111234951D01*
X117175036Y-110746693D02*
X117223038Y-110722234D01*
X117307272Y-110709548D01*
X117488426Y-110768408D01*
X117549115Y-110828183D01*
X117573574Y-110876186D01*
X117586260Y-110960419D01*
X117562716Y-111032881D01*
X117491169Y-111129801D01*
X116915136Y-111423304D01*
X117386135Y-111576341D01*
X116260412Y-108120835D02*
X116013199Y-107359990D01*
X116303044Y-107265813D01*
X116387278Y-107278500D01*
X116435281Y-107302959D01*
X116495056Y-107363648D01*
X116530372Y-107472340D01*
X116517685Y-107556574D01*
X116493227Y-107604576D01*
X116432537Y-107664351D01*
X116142691Y-107758528D01*
X116665352Y-107148093D02*
X117100120Y-107006828D01*
X117129950Y-107838305D02*
X116882736Y-107077460D01*
X117999487Y-107555776D02*
X117564718Y-107697040D01*
X117782103Y-107626408D02*
X117534889Y-106865563D01*
X117497744Y-106997799D01*
X117448827Y-107093805D01*
X117388137Y-107153580D01*
%TO.C,J3*%
X122372503Y-101568283D02*
X122195922Y-102111744D01*
X122124375Y-102208664D01*
X122028370Y-102257581D01*
X121907905Y-102258495D01*
X121835444Y-102234951D01*
X122662349Y-101662459D02*
X123133349Y-101815496D01*
X122785557Y-102022937D01*
X122894249Y-102058254D01*
X122954938Y-102118029D01*
X122979397Y-102166031D01*
X122992084Y-102250265D01*
X122933223Y-102431419D01*
X122873448Y-102492108D01*
X122825446Y-102516567D01*
X122741212Y-102529253D01*
X122523828Y-102458621D01*
X122463138Y-102398846D01*
X122438680Y-102350843D01*
%TO.C,J4*%
X88913904Y-120266666D02*
X89485333Y-120266666D01*
X89599619Y-120304761D01*
X89675809Y-120380952D01*
X89713904Y-120495238D01*
X89713904Y-120571428D01*
X89180571Y-119542857D02*
X89713904Y-119542857D01*
X88875809Y-119733333D02*
X89447238Y-119923809D01*
X89447238Y-119428571D01*
X89810412Y-118680835D02*
X89563199Y-117919990D01*
X89853044Y-117825813D01*
X89937278Y-117838500D01*
X89985281Y-117862959D01*
X90045056Y-117923648D01*
X90080372Y-118032340D01*
X90067685Y-118116574D01*
X90043227Y-118164576D01*
X89982537Y-118224351D01*
X89692691Y-118318528D01*
X90215352Y-117708093D02*
X90650120Y-117566828D01*
X90679950Y-118398305D02*
X90432736Y-117637460D01*
X90831274Y-117507967D02*
X91302273Y-117354930D01*
X91142835Y-117727181D01*
X91251527Y-117691864D01*
X91335761Y-117704551D01*
X91383763Y-117729010D01*
X91443538Y-117789699D01*
X91502399Y-117970853D01*
X91489712Y-118055086D01*
X91465253Y-118103089D01*
X91404564Y-118162864D01*
X91187180Y-118233496D01*
X91102946Y-118220810D01*
X91054943Y-118196351D01*
%TO.C,J5*%
X120120266Y-103233092D02*
X120296847Y-103776553D01*
X120295932Y-103897017D01*
X120247015Y-103993022D01*
X120150095Y-104064569D01*
X120077633Y-104088114D01*
X120844880Y-102997650D02*
X120482573Y-103115371D01*
X120564063Y-103489450D01*
X120588521Y-103441447D01*
X120649211Y-103381673D01*
X120830364Y-103322812D01*
X120914598Y-103335499D01*
X120962601Y-103359957D01*
X121022376Y-103420647D01*
X121081236Y-103601800D01*
X121068549Y-103686034D01*
X121044091Y-103734037D01*
X120983401Y-103793812D01*
X120802248Y-103852672D01*
X120718014Y-103839985D01*
X120670012Y-103815527D01*
X118719632Y-100956486D02*
X118472419Y-100195641D01*
X118762264Y-100101464D01*
X118846498Y-100114151D01*
X118894501Y-100138610D01*
X118954276Y-100199299D01*
X118989592Y-100307991D01*
X118976905Y-100392225D01*
X118952447Y-100440227D01*
X118891757Y-100500002D01*
X118601911Y-100594179D01*
X119124572Y-99983744D02*
X119559340Y-99842479D01*
X119589170Y-100673956D02*
X119341956Y-99913111D01*
X120221436Y-99907741D02*
X120386246Y-100414971D01*
X119946106Y-99676755D02*
X119941534Y-100279076D01*
X120412533Y-100126039D01*
%TO.C,J6*%
X93413904Y-122766666D02*
X93985333Y-122766666D01*
X94099619Y-122804761D01*
X94175809Y-122880952D01*
X94213904Y-122995238D01*
X94213904Y-123071428D01*
X93413904Y-122042857D02*
X93413904Y-122195238D01*
X93452000Y-122271428D01*
X93490095Y-122309523D01*
X93604380Y-122385714D01*
X93756761Y-122423809D01*
X94061523Y-122423809D01*
X94137714Y-122385714D01*
X94175809Y-122347619D01*
X94213904Y-122271428D01*
X94213904Y-122119047D01*
X94175809Y-122042857D01*
X94137714Y-122004761D01*
X94061523Y-121966666D01*
X93871047Y-121966666D01*
X93794857Y-122004761D01*
X93756761Y-122042857D01*
X93718666Y-122119047D01*
X93718666Y-122271428D01*
X93756761Y-122347619D01*
X93794857Y-122385714D01*
X93871047Y-122423809D01*
X97611904Y-123395238D02*
X96811904Y-123395238D01*
X96811904Y-123090476D01*
X96850000Y-123014285D01*
X96888095Y-122976190D01*
X96964285Y-122938095D01*
X97078571Y-122938095D01*
X97154761Y-122976190D01*
X97192857Y-123014285D01*
X97230952Y-123090476D01*
X97230952Y-123395238D01*
X96811904Y-122709523D02*
X96811904Y-122252380D01*
X97611904Y-122480952D02*
X96811904Y-122480952D01*
X96811904Y-121604761D02*
X96811904Y-121985714D01*
X97192857Y-122023809D01*
X97154761Y-121985714D01*
X97116666Y-121909523D01*
X97116666Y-121719047D01*
X97154761Y-121642857D01*
X97192857Y-121604761D01*
X97269047Y-121566666D01*
X97459523Y-121566666D01*
X97535714Y-121604761D01*
X97573809Y-121642857D01*
X97611904Y-121719047D01*
X97611904Y-121909523D01*
X97573809Y-121985714D01*
X97535714Y-122023809D01*
%TO.C,J7*%
X81581503Y-106865173D02*
X81038042Y-107041754D01*
X80917578Y-107040839D01*
X80821573Y-106991922D01*
X80750026Y-106895002D01*
X80726481Y-106822540D01*
X81675680Y-107155018D02*
X81840489Y-107662248D01*
X80973695Y-107583386D01*
X77394729Y-107564619D02*
X78155574Y-107317406D01*
X78249751Y-107607251D01*
X78237064Y-107691485D01*
X78212605Y-107739488D01*
X78151916Y-107799263D01*
X78043224Y-107834579D01*
X77958990Y-107821892D01*
X77910988Y-107797434D01*
X77851213Y-107736744D01*
X77757036Y-107446898D01*
X78367471Y-107969559D02*
X78508736Y-108404327D01*
X77677259Y-108434157D02*
X78438104Y-108186943D01*
X78697090Y-108984019D02*
X78650001Y-108839096D01*
X78590226Y-108778407D01*
X78542224Y-108753948D01*
X78409987Y-108716803D01*
X78253292Y-108727660D01*
X77963446Y-108821837D01*
X77902757Y-108881612D01*
X77878298Y-108929615D01*
X77865612Y-109013848D01*
X77912700Y-109158771D01*
X77972475Y-109219460D01*
X78020478Y-109243919D01*
X78104711Y-109256606D01*
X78285865Y-109197745D01*
X78346554Y-109137970D01*
X78371013Y-109089968D01*
X78383700Y-109005734D01*
X78336611Y-108860811D01*
X78276836Y-108800122D01*
X78228834Y-108775663D01*
X78144600Y-108762977D01*
%TO.C,J9*%
X111913904Y-99766666D02*
X112485333Y-99766666D01*
X112599619Y-99804761D01*
X112675809Y-99880952D01*
X112713904Y-99995238D01*
X112713904Y-100071428D01*
X112713904Y-99347619D02*
X112713904Y-99195238D01*
X112675809Y-99119047D01*
X112637714Y-99080952D01*
X112523428Y-99004761D01*
X112371047Y-98966666D01*
X112066285Y-98966666D01*
X111990095Y-99004761D01*
X111952000Y-99042857D01*
X111913904Y-99119047D01*
X111913904Y-99271428D01*
X111952000Y-99347619D01*
X111990095Y-99385714D01*
X112066285Y-99423809D01*
X112256761Y-99423809D01*
X112332952Y-99385714D01*
X112371047Y-99347619D01*
X112409142Y-99271428D01*
X112409142Y-99119047D01*
X112371047Y-99042857D01*
X112332952Y-99004761D01*
X112256761Y-98966666D01*
X116111904Y-100680952D02*
X115311904Y-100680952D01*
X115311904Y-100147619D02*
X115311904Y-99995238D01*
X115350000Y-99919047D01*
X115426190Y-99842857D01*
X115578571Y-99804761D01*
X115845238Y-99804761D01*
X115997619Y-99842857D01*
X116073809Y-99919047D01*
X116111904Y-99995238D01*
X116111904Y-100147619D01*
X116073809Y-100223809D01*
X115997619Y-100300000D01*
X115845238Y-100338095D01*
X115578571Y-100338095D01*
X115426190Y-100300000D01*
X115350000Y-100223809D01*
X115311904Y-100147619D01*
X115388095Y-99500000D02*
X115350000Y-99461904D01*
X115311904Y-99385714D01*
X115311904Y-99195238D01*
X115350000Y-99119047D01*
X115388095Y-99080952D01*
X115464285Y-99042857D01*
X115540476Y-99042857D01*
X115654761Y-99080952D01*
X116111904Y-99538095D01*
X116111904Y-99042857D01*
X115311904Y-98776190D02*
X115311904Y-98280952D01*
X115616666Y-98547619D01*
X115616666Y-98433333D01*
X115654761Y-98357142D01*
X115692857Y-98319047D01*
X115769047Y-98280952D01*
X115959523Y-98280952D01*
X116035714Y-98319047D01*
X116073809Y-98357142D01*
X116111904Y-98433333D01*
X116111904Y-98661904D01*
X116073809Y-98738095D01*
X116035714Y-98776190D01*
%TO.C,J10*%
X99869578Y-119517806D02*
X100364450Y-119803521D01*
X100444377Y-119893655D01*
X100472264Y-119997733D01*
X100448113Y-120115755D01*
X100410018Y-120181738D01*
X100962399Y-119224986D02*
X100733827Y-119620883D01*
X100848113Y-119422935D02*
X100155293Y-119022935D01*
X100216172Y-119146061D01*
X100244059Y-119250139D01*
X100238956Y-119335169D01*
X100517197Y-118396097D02*
X100555293Y-118330114D01*
X100626379Y-118283179D01*
X100678418Y-118269235D01*
X100763449Y-118274339D01*
X100914462Y-118317538D01*
X101079420Y-118412776D01*
X101192338Y-118521958D01*
X101239273Y-118593045D01*
X101253217Y-118645084D01*
X101248113Y-118730114D01*
X101210018Y-118796097D01*
X101138931Y-118843033D01*
X101086892Y-118856976D01*
X101001861Y-118851873D01*
X100850848Y-118808674D01*
X100685891Y-118713436D01*
X100572973Y-118604254D01*
X100526037Y-118533167D01*
X100512094Y-118481128D01*
X100517197Y-118396097D01*
%TO.C,J11*%
X102352380Y-115413904D02*
X102352380Y-115985333D01*
X102314285Y-116099619D01*
X102238095Y-116175809D01*
X102123809Y-116213904D01*
X102047619Y-116213904D01*
X103152380Y-116213904D02*
X102695238Y-116213904D01*
X102923809Y-116213904D02*
X102923809Y-115413904D01*
X102847619Y-115528190D01*
X102771428Y-115604380D01*
X102695238Y-115642476D01*
X103914285Y-116213904D02*
X103457142Y-116213904D01*
X103685714Y-116213904D02*
X103685714Y-115413904D01*
X103609523Y-115528190D01*
X103533333Y-115604380D01*
X103457142Y-115642476D01*
%TO.C,J12*%
X109487229Y-105409494D02*
X109823106Y-105871789D01*
X109859462Y-105986640D01*
X109842606Y-106093063D01*
X109772539Y-106191058D01*
X109710899Y-106235842D01*
X110604671Y-105586479D02*
X110234834Y-105855181D01*
X110419752Y-105720830D02*
X109949524Y-105073617D01*
X109955060Y-105210859D01*
X109938205Y-105317282D01*
X109898957Y-105392886D01*
X110425784Y-104821771D02*
X110434211Y-104768559D01*
X110473459Y-104692956D01*
X110627557Y-104580997D01*
X110711589Y-104567033D01*
X110764800Y-104575461D01*
X110840404Y-104614708D01*
X110885187Y-104676348D01*
X110921543Y-104791198D01*
X110820408Y-105429737D01*
X111221064Y-105138643D01*
X107836884Y-103397235D02*
X107366656Y-102750021D01*
X107798132Y-102436536D02*
X107921410Y-102346968D01*
X108005442Y-102333005D01*
X108111865Y-102349860D01*
X108232252Y-102450747D01*
X108388994Y-102666485D01*
X108447742Y-102812156D01*
X108430886Y-102918579D01*
X108391639Y-102994182D01*
X108268360Y-103083749D01*
X108184329Y-103097713D01*
X108077906Y-103080858D01*
X107957519Y-102979971D01*
X107800776Y-102764233D01*
X107742028Y-102618562D01*
X107758884Y-102512139D01*
X107798132Y-102436536D01*
X108366850Y-102117514D02*
X108375278Y-102064303D01*
X108414526Y-101988699D01*
X108568624Y-101876740D01*
X108652655Y-101862776D01*
X108705867Y-101871204D01*
X108781470Y-101910452D01*
X108826254Y-101972091D01*
X108862610Y-102086942D01*
X108761475Y-102725480D01*
X109162131Y-102434387D01*
%TO.C,J13*%
X104517229Y-108759494D02*
X104853106Y-109221789D01*
X104889462Y-109336640D01*
X104872606Y-109443063D01*
X104802539Y-109541058D01*
X104740899Y-109585842D01*
X105634671Y-108936479D02*
X105264834Y-109205181D01*
X105449752Y-109070830D02*
X104979524Y-108423617D01*
X104985060Y-108560859D01*
X104968205Y-108667282D01*
X104928957Y-108742886D01*
X105380180Y-108132523D02*
X105780836Y-107841429D01*
X105744233Y-108244730D01*
X105836692Y-108177554D01*
X105920723Y-108163590D01*
X105973935Y-108172018D01*
X106049538Y-108211266D01*
X106161497Y-108365364D01*
X106175461Y-108449395D01*
X106167033Y-108502607D01*
X106127786Y-108578210D01*
X105942868Y-108712561D01*
X105858836Y-108726525D01*
X105805625Y-108718097D01*
X102574097Y-106959957D02*
X102103869Y-106312743D01*
X102655484Y-106618296D01*
X102535345Y-105999258D01*
X103005573Y-106646472D01*
X102751082Y-105842515D02*
X103120919Y-105573813D01*
X103406229Y-106355378D02*
X102936001Y-105708164D01*
X103806885Y-106064284D02*
X103336657Y-105417071D01*
X103490755Y-105305112D01*
X103605606Y-105268756D01*
X103712029Y-105285612D01*
X103787632Y-105324859D01*
X103908019Y-105425746D01*
X103975195Y-105518205D01*
X104033942Y-105663876D01*
X104047906Y-105747907D01*
X104031051Y-105854330D01*
X103960983Y-105952325D01*
X103806885Y-106064284D01*
X104454098Y-105594056D02*
X103983870Y-104946843D01*
%TO.C,J14*%
X114002380Y-86163904D02*
X114002380Y-86735333D01*
X113964285Y-86849619D01*
X113888095Y-86925809D01*
X113773809Y-86963904D01*
X113697619Y-86963904D01*
X114802380Y-86963904D02*
X114345238Y-86963904D01*
X114573809Y-86963904D02*
X114573809Y-86163904D01*
X114497619Y-86278190D01*
X114421428Y-86354380D01*
X114345238Y-86392476D01*
X115488095Y-86430571D02*
X115488095Y-86963904D01*
X115297619Y-86125809D02*
X115107142Y-86697238D01*
X115602380Y-86697238D01*
X114059523Y-89942857D02*
X114326190Y-89942857D01*
X114440476Y-90361904D02*
X114059523Y-90361904D01*
X114059523Y-89561904D01*
X114440476Y-89561904D01*
X114783333Y-90361904D02*
X114783333Y-89561904D01*
X115240476Y-90361904D01*
X115240476Y-89561904D01*
%TO.C,J15*%
X110829028Y-95082398D02*
X110260730Y-95142128D01*
X110143088Y-95116188D01*
X110059351Y-95048379D01*
X110009518Y-94938701D01*
X110001554Y-94862928D01*
X110117033Y-95961638D02*
X110069249Y-95506999D01*
X110093141Y-95734319D02*
X110888759Y-95650696D01*
X110767135Y-95586869D01*
X110683398Y-95519060D01*
X110637547Y-95447269D01*
X110988310Y-96597860D02*
X110948489Y-96218994D01*
X110565642Y-96220928D01*
X110607510Y-96254833D01*
X110653361Y-96326624D01*
X110673271Y-96516056D01*
X110643349Y-96595811D01*
X110609444Y-96637680D01*
X110537653Y-96683531D01*
X110348220Y-96703441D01*
X110268465Y-96673518D01*
X110226597Y-96639614D01*
X110180746Y-96567823D01*
X110160836Y-96378390D01*
X110190758Y-96298635D01*
X110224663Y-96256766D01*
X113396868Y-94659286D02*
X114192485Y-94575664D01*
X114248234Y-95106075D02*
X114264162Y-95257621D01*
X114234239Y-95337377D01*
X114166430Y-95421114D01*
X114018866Y-95474928D01*
X113753660Y-95502803D01*
X113598132Y-95480844D01*
X113514395Y-95413035D01*
X113468544Y-95341244D01*
X113452616Y-95189698D01*
X113482539Y-95109943D01*
X113550348Y-95026206D01*
X113697912Y-94972391D01*
X113963118Y-94944517D01*
X114118646Y-94966475D01*
X114202383Y-95034284D01*
X114248234Y-95106075D01*
X114335838Y-95939579D02*
X114343802Y-96015352D01*
X114313880Y-96095108D01*
X114279975Y-96136976D01*
X114208184Y-96182827D01*
X114060620Y-96236641D01*
X113871187Y-96256552D01*
X113715659Y-96234593D01*
X113635904Y-96204671D01*
X113594036Y-96170766D01*
X113548185Y-96098975D01*
X113540221Y-96023202D01*
X113570143Y-95943447D01*
X113604048Y-95901578D01*
X113675839Y-95855728D01*
X113823403Y-95801913D01*
X114012836Y-95782003D01*
X114168364Y-95803961D01*
X114248119Y-95833884D01*
X114289988Y-95867788D01*
X114335838Y-95939579D01*
%TO.C,J16*%
X113413904Y-104147619D02*
X113985333Y-104147619D01*
X114099619Y-104185714D01*
X114175809Y-104261904D01*
X114213904Y-104376190D01*
X114213904Y-104452380D01*
X114213904Y-103347619D02*
X114213904Y-103804761D01*
X114213904Y-103576190D02*
X113413904Y-103576190D01*
X113528190Y-103652380D01*
X113604380Y-103728571D01*
X113642476Y-103804761D01*
X113413904Y-102661904D02*
X113413904Y-102814285D01*
X113452000Y-102890476D01*
X113490095Y-102928571D01*
X113604380Y-103004761D01*
X113756761Y-103042857D01*
X114061523Y-103042857D01*
X114137714Y-103004761D01*
X114175809Y-102966666D01*
X114213904Y-102890476D01*
X114213904Y-102738095D01*
X114175809Y-102661904D01*
X114137714Y-102623809D01*
X114061523Y-102585714D01*
X113871047Y-102585714D01*
X113794857Y-102623809D01*
X113756761Y-102661904D01*
X113718666Y-102738095D01*
X113718666Y-102890476D01*
X113756761Y-102966666D01*
X113794857Y-103004761D01*
X113871047Y-103042857D01*
X116850000Y-104109523D02*
X116811904Y-104185714D01*
X116811904Y-104300000D01*
X116850000Y-104414285D01*
X116926190Y-104490476D01*
X117002380Y-104528571D01*
X117154761Y-104566666D01*
X117269047Y-104566666D01*
X117421428Y-104528571D01*
X117497619Y-104490476D01*
X117573809Y-104414285D01*
X117611904Y-104300000D01*
X117611904Y-104223809D01*
X117573809Y-104109523D01*
X117535714Y-104071428D01*
X117269047Y-104071428D01*
X117269047Y-104223809D01*
X117611904Y-103728571D02*
X116811904Y-103728571D01*
X117611904Y-103271428D01*
X116811904Y-103271428D01*
X117611904Y-102890476D02*
X116811904Y-102890476D01*
X116811904Y-102700000D01*
X116850000Y-102585714D01*
X116926190Y-102509523D01*
X117002380Y-102471428D01*
X117154761Y-102433333D01*
X117269047Y-102433333D01*
X117421428Y-102471428D01*
X117497619Y-102509523D01*
X117573809Y-102585714D01*
X117611904Y-102700000D01*
X117611904Y-102890476D01*
%TO.C,J17*%
X76939884Y-96442009D02*
X77116465Y-96985470D01*
X77115551Y-97105935D01*
X77066634Y-97201940D01*
X76969714Y-97273487D01*
X76897252Y-97297031D01*
X77947943Y-96955641D02*
X77513174Y-97096906D01*
X77730559Y-97026274D02*
X77483345Y-96265428D01*
X77446200Y-96397665D01*
X77397283Y-96493670D01*
X77336593Y-96553445D01*
X77954345Y-96112391D02*
X78461575Y-95947582D01*
X78382712Y-96814376D01*
X75340277Y-96030709D02*
X75388280Y-96055168D01*
X75448055Y-96115857D01*
X75506915Y-96297011D01*
X75494229Y-96381244D01*
X75469770Y-96429247D01*
X75409081Y-96489022D01*
X75336619Y-96512566D01*
X75216155Y-96511652D01*
X74640122Y-96218148D01*
X74793159Y-96689147D01*
X75512286Y-97176491D02*
X75005056Y-97341300D01*
X75743271Y-96901161D02*
X75140950Y-96896589D01*
X75293987Y-97367588D01*
X76013115Y-97854932D02*
X75895394Y-97492625D01*
X75521315Y-97574115D01*
X75569317Y-97598573D01*
X75629092Y-97659263D01*
X75687953Y-97840416D01*
X75675266Y-97924650D01*
X75650807Y-97972653D01*
X75590118Y-98032428D01*
X75408964Y-98091288D01*
X75324731Y-98078601D01*
X75276728Y-98054143D01*
X75216953Y-97993453D01*
X75158093Y-97812300D01*
X75170779Y-97728066D01*
X75195238Y-97680063D01*
X76177924Y-98362162D02*
X76201468Y-98434624D01*
X76188781Y-98518857D01*
X76164323Y-98566860D01*
X76103633Y-98626635D01*
X75970482Y-98709954D01*
X75789329Y-98768814D01*
X75632634Y-98779672D01*
X75548400Y-98766985D01*
X75500398Y-98742527D01*
X75440623Y-98681837D01*
X75417079Y-98609376D01*
X75429765Y-98525142D01*
X75454224Y-98477139D01*
X75514913Y-98417364D01*
X75648064Y-98334045D01*
X75829218Y-98275185D01*
X75985913Y-98264327D01*
X76070146Y-98277014D01*
X76118149Y-98301473D01*
X76177924Y-98362162D01*
X75811044Y-99082204D02*
X75928765Y-99444511D01*
X75570116Y-99080375D02*
X76413365Y-99086777D01*
X75734925Y-99587605D01*
X76542858Y-99485315D02*
X76684123Y-99920083D01*
X75852645Y-99949912D02*
X76613491Y-99702699D01*
X76618861Y-100582179D02*
X76111631Y-100746988D01*
X76849847Y-100306849D02*
X76247525Y-100302277D01*
X76400562Y-100773276D01*
X76917736Y-100885626D02*
X76965738Y-100910085D01*
X77025513Y-100970774D01*
X77084374Y-101151928D01*
X77071687Y-101236161D01*
X77047228Y-101284164D01*
X76986539Y-101343939D01*
X76914078Y-101367483D01*
X76793613Y-101366569D01*
X76217580Y-101073065D01*
X76370617Y-101544064D01*
X76875103Y-101740648D02*
X76957508Y-101994263D01*
X76594286Y-102232448D02*
X76476565Y-101870141D01*
X77237411Y-101622927D01*
X77355131Y-101985235D01*
X77508168Y-102456234D02*
X77531712Y-102528695D01*
X77519026Y-102612929D01*
X77494567Y-102660932D01*
X77433878Y-102720707D01*
X77300727Y-102804026D01*
X77119573Y-102862886D01*
X76962878Y-102873744D01*
X76878645Y-102861057D01*
X76830642Y-102836598D01*
X76770867Y-102775909D01*
X76747323Y-102703448D01*
X76760010Y-102619214D01*
X76784468Y-102571211D01*
X76845158Y-102511436D01*
X76978309Y-102428117D01*
X77159462Y-102369257D01*
X77316157Y-102358399D01*
X77400391Y-102371086D01*
X77448393Y-102395545D01*
X77508168Y-102456234D01*
X77065169Y-103681677D02*
X76923904Y-103246908D01*
X76994537Y-103464293D02*
X77755382Y-103217079D01*
X77623146Y-103179934D01*
X77527140Y-103131017D01*
X77467365Y-103070327D01*
X77979051Y-103905463D02*
X78002596Y-103977924D01*
X77989909Y-104062158D01*
X77965450Y-104110161D01*
X77904761Y-104169936D01*
X77771610Y-104253255D01*
X77590456Y-104312115D01*
X77433762Y-104322973D01*
X77349528Y-104310286D01*
X77301525Y-104285827D01*
X77241750Y-104225138D01*
X77218206Y-104152677D01*
X77230893Y-104068443D01*
X77255351Y-104020440D01*
X77316041Y-103960665D01*
X77449192Y-103877346D01*
X77630345Y-103818486D01*
X77787040Y-103807628D01*
X77871274Y-103820315D01*
X77919276Y-103844774D01*
X77979051Y-103905463D01*
X78214493Y-104630077D02*
X78238037Y-104702539D01*
X78225350Y-104786772D01*
X78200892Y-104834775D01*
X78140202Y-104894550D01*
X78007052Y-104977869D01*
X77825898Y-105036729D01*
X77669203Y-105047587D01*
X77584970Y-105034900D01*
X77536967Y-105010442D01*
X77477192Y-104949752D01*
X77453648Y-104877291D01*
X77466334Y-104793057D01*
X77490793Y-104745055D01*
X77551482Y-104685280D01*
X77684633Y-104601961D01*
X77865787Y-104543100D01*
X78022482Y-104532243D01*
X78106715Y-104544929D01*
X78154718Y-104569388D01*
X78214493Y-104630077D01*
X78040539Y-105327490D02*
X78122943Y-105581105D01*
X77759722Y-105819290D02*
X77642001Y-105456983D01*
X78402846Y-105209769D01*
X78520567Y-105572076D01*
%TO.C,J19*%
X88773736Y-85005552D02*
X89109613Y-85467847D01*
X89145969Y-85582698D01*
X89129113Y-85689121D01*
X89059046Y-85787116D01*
X88997406Y-85831900D01*
X89891178Y-85182537D02*
X89521341Y-85451239D01*
X89706259Y-85316888D02*
X89236031Y-84669675D01*
X89241567Y-84806917D01*
X89224712Y-84913340D01*
X89185464Y-84988944D01*
X90199375Y-84958619D02*
X90322653Y-84869052D01*
X90361901Y-84793449D01*
X90370329Y-84740237D01*
X90364793Y-84602994D01*
X90306045Y-84457324D01*
X90126911Y-84210766D01*
X90051307Y-84171519D01*
X89998096Y-84163091D01*
X89914064Y-84177055D01*
X89790786Y-84266622D01*
X89751538Y-84342225D01*
X89743110Y-84395437D01*
X89757074Y-84479468D01*
X89869033Y-84633566D01*
X89944637Y-84672814D01*
X89997848Y-84681242D01*
X90081879Y-84667278D01*
X90205158Y-84577711D01*
X90244406Y-84502107D01*
X90252834Y-84448896D01*
X90238870Y-84364865D01*
%TO.C,L1*%
X83985027Y-104385394D02*
X83622719Y-104503114D01*
X83375506Y-103742269D01*
X84637180Y-104173496D02*
X84202411Y-104314761D01*
X84419795Y-104244129D02*
X84172582Y-103483284D01*
X84135437Y-103615520D01*
X84086519Y-103711525D01*
X84025830Y-103771300D01*
X85466227Y-103452891D02*
X85642809Y-103996352D01*
X85641894Y-104116816D01*
X85592977Y-104212821D01*
X85496057Y-104284368D01*
X85423595Y-104307912D01*
X86075748Y-104096015D02*
X85828535Y-103335170D01*
X86258731Y-103796226D01*
X86335765Y-103170361D01*
X86582978Y-103931206D01*
X86945286Y-103813485D02*
X86698072Y-103052640D01*
X86987918Y-102958463D01*
X87072151Y-102971150D01*
X87120154Y-102995609D01*
X87179929Y-103056298D01*
X87215245Y-103164990D01*
X87202559Y-103249224D01*
X87178100Y-103297227D01*
X87117411Y-103357001D01*
X86827565Y-103451178D01*
%TO.C,M1*%
X86732040Y-117114255D02*
X87202269Y-116467041D01*
X87082129Y-117086079D01*
X87633744Y-116780527D01*
X87163516Y-117427740D01*
X87810730Y-117897968D02*
X87440893Y-117629267D01*
X87625812Y-117763617D02*
X88096040Y-117116404D01*
X87967225Y-117164079D01*
X87860802Y-117180935D01*
X87776771Y-117166971D01*
%TO.C,M2*%
X112220089Y-117875577D02*
X111749861Y-117228363D01*
X112301476Y-117533916D01*
X112181336Y-116914877D01*
X112651565Y-117562091D01*
X112503497Y-116774990D02*
X112511925Y-116721779D01*
X112551173Y-116646176D01*
X112705271Y-116534217D01*
X112789303Y-116520253D01*
X112842514Y-116528680D01*
X112918117Y-116567928D01*
X112962901Y-116629567D01*
X112999257Y-116744418D01*
X112898122Y-117382957D01*
X113298778Y-117091863D01*
%TO.C,M4*%
X79838503Y-94125628D02*
X79077658Y-93878414D01*
X79703523Y-93801380D01*
X79242467Y-93371184D01*
X80003312Y-93618397D01*
X79719751Y-92765205D02*
X80226982Y-92930014D01*
X79371045Y-92852182D02*
X79855646Y-93209916D01*
X80008683Y-92738917D01*
%TO.C,M5*%
X119761245Y-92893783D02*
X120522091Y-92646569D01*
X120061034Y-93076766D01*
X120686900Y-93153799D01*
X119926054Y-93401013D01*
X120922341Y-93878414D02*
X120804620Y-93516107D01*
X120430541Y-93597597D01*
X120478544Y-93622055D01*
X120538319Y-93682745D01*
X120597179Y-93863898D01*
X120584493Y-93948132D01*
X120560034Y-93996135D01*
X120499345Y-94055910D01*
X120318191Y-94114770D01*
X120233957Y-94102083D01*
X120185955Y-94077625D01*
X120126180Y-94016935D01*
X120067319Y-93835782D01*
X120080006Y-93751548D01*
X120104465Y-93703545D01*
%TO.C,Q1*%
X109817386Y-82364453D02*
X109733355Y-82378417D01*
X109626932Y-82361561D01*
X109467297Y-82336277D01*
X109383266Y-82350241D01*
X109321627Y-82395025D01*
X109464405Y-82526731D02*
X109380374Y-82540695D01*
X109273951Y-82523840D01*
X109153564Y-82422953D01*
X108996821Y-82207215D01*
X108938074Y-82061544D01*
X108954930Y-81955121D01*
X108994177Y-81879518D01*
X109117456Y-81789951D01*
X109201487Y-81775987D01*
X109307910Y-81792842D01*
X109428297Y-81893729D01*
X109585040Y-82109467D01*
X109643788Y-82255138D01*
X109626932Y-82361561D01*
X109587684Y-82437164D01*
X109464405Y-82526731D01*
X110358177Y-81877369D02*
X109988340Y-82146071D01*
X110173258Y-82011720D02*
X109703030Y-81364506D01*
X109708566Y-81501749D01*
X109691711Y-81608172D01*
X109652463Y-81683775D01*
X113032802Y-81071142D02*
X113031888Y-81191606D01*
X113090748Y-81372759D01*
X113150523Y-81433449D01*
X113198526Y-81457907D01*
X113282759Y-81470594D01*
X113355221Y-81447050D01*
X113415910Y-81387275D01*
X113440369Y-81339272D01*
X113453055Y-81255039D01*
X113442198Y-81098344D01*
X113454884Y-81014110D01*
X113479343Y-80966107D01*
X113540032Y-80906333D01*
X113612494Y-80882788D01*
X113696727Y-80895475D01*
X113744730Y-80919934D01*
X113804505Y-80980623D01*
X113863365Y-81161777D01*
X113862451Y-81282241D01*
X113268244Y-81795756D02*
X113267329Y-81916220D01*
X113326189Y-82097374D01*
X113385964Y-82158063D01*
X113433967Y-82182522D01*
X113518201Y-82195209D01*
X113590662Y-82171664D01*
X113651352Y-82111890D01*
X113675810Y-82063887D01*
X113688497Y-81979653D01*
X113677639Y-81822958D01*
X113690326Y-81738725D01*
X113714784Y-81690722D01*
X113775474Y-81630947D01*
X113847935Y-81607403D01*
X113932169Y-81620089D01*
X113980172Y-81644548D01*
X114039946Y-81705237D01*
X114098807Y-81886391D01*
X114097892Y-82006855D01*
X113949311Y-82535801D02*
X113961998Y-82451567D01*
X113986457Y-82403564D01*
X114047146Y-82343789D01*
X114083377Y-82332017D01*
X114167610Y-82344704D01*
X114215613Y-82369163D01*
X114275388Y-82429852D01*
X114322476Y-82574775D01*
X114309790Y-82659008D01*
X114285331Y-82707011D01*
X114224642Y-82766786D01*
X114188411Y-82778558D01*
X114104177Y-82765872D01*
X114056175Y-82741413D01*
X113996400Y-82680724D01*
X113949311Y-82535801D01*
X113889537Y-82475111D01*
X113841534Y-82450653D01*
X113757300Y-82437966D01*
X113612377Y-82485054D01*
X113551688Y-82544829D01*
X113527229Y-82592832D01*
X113514543Y-82677066D01*
X113561631Y-82821988D01*
X113621406Y-82882678D01*
X113669409Y-82907136D01*
X113753642Y-82919823D01*
X113898565Y-82872735D01*
X113959254Y-82812960D01*
X113983713Y-82764957D01*
X113996400Y-82680724D01*
X114522602Y-83190697D02*
X114546146Y-83263159D01*
X114533459Y-83347392D01*
X114509000Y-83395395D01*
X114448311Y-83455170D01*
X114315160Y-83538489D01*
X114134007Y-83597349D01*
X113977312Y-83608207D01*
X113893078Y-83595520D01*
X113845075Y-83571062D01*
X113785300Y-83510372D01*
X113761756Y-83437911D01*
X113774443Y-83353677D01*
X113798902Y-83305674D01*
X113859591Y-83245900D01*
X113992742Y-83162581D01*
X114173895Y-83103720D01*
X114330590Y-83092863D01*
X114414824Y-83105549D01*
X114462827Y-83130008D01*
X114522602Y-83190697D01*
X114828675Y-84132696D02*
X114710955Y-83770389D01*
X114336875Y-83851879D01*
X114384878Y-83876337D01*
X114444653Y-83937027D01*
X114503513Y-84118180D01*
X114490827Y-84202414D01*
X114466368Y-84250417D01*
X114405679Y-84310192D01*
X114224525Y-84369052D01*
X114140292Y-84356365D01*
X114092289Y-84331907D01*
X114032514Y-84271217D01*
X113973654Y-84090064D01*
X113986340Y-84005830D01*
X114010799Y-83957827D01*
X114993485Y-84639926D02*
X115017029Y-84712388D01*
X115004342Y-84796621D01*
X114979883Y-84844624D01*
X114919194Y-84904399D01*
X114786043Y-84987718D01*
X114604890Y-85046578D01*
X114448195Y-85057436D01*
X114363961Y-85044749D01*
X114315958Y-85020291D01*
X114256183Y-84959601D01*
X114232639Y-84887140D01*
X114245326Y-84802906D01*
X114269785Y-84754903D01*
X114330474Y-84695129D01*
X114463625Y-84611809D01*
X114644778Y-84552949D01*
X114801473Y-84542092D01*
X114885707Y-84554778D01*
X114933710Y-84579237D01*
X114993485Y-84639926D01*
%TO.C,Q2*%
X113242645Y-92308699D02*
X113272568Y-92228944D01*
X113340377Y-92145207D01*
X113442090Y-92019601D01*
X113472013Y-91939846D01*
X113464049Y-91864073D01*
X113278598Y-91921869D02*
X113308520Y-91842114D01*
X113376329Y-91758377D01*
X113523894Y-91704562D01*
X113789099Y-91676688D01*
X113944628Y-91698646D01*
X114028365Y-91766455D01*
X114074215Y-91838246D01*
X114090144Y-91989793D01*
X114060221Y-92069548D01*
X113992412Y-92153285D01*
X113844848Y-92207100D01*
X113579642Y-92234974D01*
X113424114Y-92213016D01*
X113340377Y-92145207D01*
X113294526Y-92073415D01*
X113278598Y-91921869D01*
X114066137Y-92490282D02*
X114108005Y-92524186D01*
X114153856Y-92595977D01*
X114173766Y-92785410D01*
X114143844Y-92865165D01*
X114109939Y-92907034D01*
X114038148Y-92952885D01*
X113962375Y-92960849D01*
X113844733Y-92934908D01*
X113342310Y-92528054D01*
X113394077Y-93020579D01*
X108168665Y-90773521D02*
X108142724Y-90891163D01*
X108162635Y-91080596D01*
X108208485Y-91152387D01*
X108250354Y-91186291D01*
X108330109Y-91216214D01*
X108405882Y-91208249D01*
X108477673Y-91162399D01*
X108511578Y-91120530D01*
X108541500Y-91040775D01*
X108563458Y-90885247D01*
X108593381Y-90805492D01*
X108627285Y-90763623D01*
X108699076Y-90717773D01*
X108774850Y-90709809D01*
X108854605Y-90739731D01*
X108896473Y-90773636D01*
X108942324Y-90845427D01*
X108962234Y-91034859D01*
X108936294Y-91152501D01*
X108248306Y-91531252D02*
X108222365Y-91648894D01*
X108242275Y-91838326D01*
X108288126Y-91910118D01*
X108329994Y-91944022D01*
X108409750Y-91973945D01*
X108485523Y-91965980D01*
X108557314Y-91920130D01*
X108591218Y-91878261D01*
X108621141Y-91798506D01*
X108643099Y-91642978D01*
X108673022Y-91563223D01*
X108706926Y-91521354D01*
X108778717Y-91475504D01*
X108854490Y-91467539D01*
X108934245Y-91497462D01*
X108976114Y-91531366D01*
X109021965Y-91603158D01*
X109041875Y-91792590D01*
X109015934Y-91910232D01*
X108760626Y-92396727D02*
X108790549Y-92316972D01*
X108824453Y-92275103D01*
X108896244Y-92229252D01*
X108934131Y-92225270D01*
X109013886Y-92255193D01*
X109055755Y-92289097D01*
X109101605Y-92360888D01*
X109117534Y-92512435D01*
X109087611Y-92592190D01*
X109053707Y-92634058D01*
X108981915Y-92679909D01*
X108944029Y-92683891D01*
X108864274Y-92653969D01*
X108822405Y-92620064D01*
X108776555Y-92548273D01*
X108760626Y-92396727D01*
X108714776Y-92324936D01*
X108672907Y-92291031D01*
X108593152Y-92261109D01*
X108441606Y-92277037D01*
X108369815Y-92322888D01*
X108335910Y-92364756D01*
X108305988Y-92444511D01*
X108321916Y-92596057D01*
X108367767Y-92667849D01*
X108409635Y-92701753D01*
X108489390Y-92731676D01*
X108640937Y-92715747D01*
X108712728Y-92669897D01*
X108746632Y-92628028D01*
X108776555Y-92548273D01*
X109185228Y-93156506D02*
X109193192Y-93232279D01*
X109163270Y-93312034D01*
X109129365Y-93353903D01*
X109057574Y-93399753D01*
X108910010Y-93453568D01*
X108720577Y-93473478D01*
X108565049Y-93451520D01*
X108485294Y-93421597D01*
X108443425Y-93387693D01*
X108397575Y-93315902D01*
X108389611Y-93240129D01*
X108419533Y-93160374D01*
X108453438Y-93118505D01*
X108525229Y-93072654D01*
X108672793Y-93018840D01*
X108862226Y-92998930D01*
X109017754Y-93020888D01*
X109097509Y-93050810D01*
X109139378Y-93084715D01*
X109185228Y-93156506D01*
X109288761Y-94141556D02*
X109248941Y-93762691D01*
X108866093Y-93764625D01*
X108907962Y-93798529D01*
X108953812Y-93870320D01*
X108973723Y-94059753D01*
X108943800Y-94139508D01*
X108909896Y-94181377D01*
X108838105Y-94227227D01*
X108648672Y-94247137D01*
X108568917Y-94217215D01*
X108527048Y-94183310D01*
X108481197Y-94111519D01*
X108461287Y-93922087D01*
X108491210Y-93842332D01*
X108525114Y-93800463D01*
X109344510Y-94671968D02*
X109352474Y-94747741D01*
X109322551Y-94827496D01*
X109288647Y-94869365D01*
X109216856Y-94915215D01*
X109069291Y-94969030D01*
X108879859Y-94988940D01*
X108724331Y-94966982D01*
X108644575Y-94937059D01*
X108602707Y-94903155D01*
X108556856Y-94831364D01*
X108548892Y-94755591D01*
X108578815Y-94675836D01*
X108612719Y-94633967D01*
X108684510Y-94588116D01*
X108832074Y-94534302D01*
X109021507Y-94514392D01*
X109177035Y-94536350D01*
X109256790Y-94566272D01*
X109298659Y-94600177D01*
X109344510Y-94671968D01*
%TO.C,Q3*%
X82323809Y-93838095D02*
X82247619Y-93800000D01*
X82171428Y-93723809D01*
X82057142Y-93609523D01*
X81980952Y-93571428D01*
X81904761Y-93571428D01*
X81942857Y-93761904D02*
X81866666Y-93723809D01*
X81790476Y-93647619D01*
X81752380Y-93495238D01*
X81752380Y-93228571D01*
X81790476Y-93076190D01*
X81866666Y-93000000D01*
X81942857Y-92961904D01*
X82095238Y-92961904D01*
X82171428Y-93000000D01*
X82247619Y-93076190D01*
X82285714Y-93228571D01*
X82285714Y-93495238D01*
X82247619Y-93647619D01*
X82171428Y-93723809D01*
X82095238Y-93761904D01*
X81942857Y-93761904D01*
X82552380Y-92961904D02*
X83047619Y-92961904D01*
X82780952Y-93266666D01*
X82895238Y-93266666D01*
X82971428Y-93304761D01*
X83009523Y-93342857D01*
X83047619Y-93419047D01*
X83047619Y-93609523D01*
X83009523Y-93685714D01*
X82971428Y-93723809D01*
X82895238Y-93761904D01*
X82666666Y-93761904D01*
X82590476Y-93723809D01*
X82552380Y-93685714D01*
X80431855Y-89919715D02*
X79671010Y-89672502D01*
X79765187Y-89382656D01*
X79824962Y-89321967D01*
X79872965Y-89297508D01*
X79957198Y-89284821D01*
X80065890Y-89320138D01*
X80126580Y-89379912D01*
X80151038Y-89427915D01*
X80163725Y-89512149D01*
X80069548Y-89801995D01*
X80679069Y-89158870D02*
X79918224Y-88911657D01*
X80544089Y-88834623D01*
X80083033Y-88404426D01*
X80843878Y-88651640D01*
X80247842Y-87897196D02*
X80294930Y-87752273D01*
X80354705Y-87691584D01*
X80450711Y-87642667D01*
X80607406Y-87653524D01*
X80861021Y-87735929D01*
X80994172Y-87819248D01*
X81043089Y-87915253D01*
X81055776Y-87999487D01*
X81008687Y-88144410D01*
X80948912Y-88205099D01*
X80852907Y-88254017D01*
X80696212Y-88243159D01*
X80442597Y-88160754D01*
X80309446Y-88077435D01*
X80260529Y-87981430D01*
X80247842Y-87897196D01*
X81172582Y-87516715D02*
X81244129Y-87419795D01*
X81302989Y-87238642D01*
X81290303Y-87154408D01*
X81265844Y-87106405D01*
X81205155Y-87046631D01*
X81132693Y-87023086D01*
X81048460Y-87035773D01*
X81000457Y-87060232D01*
X80940682Y-87120921D01*
X80857363Y-87254072D01*
X80797588Y-87314761D01*
X80749585Y-87339220D01*
X80665352Y-87351906D01*
X80592890Y-87328362D01*
X80532201Y-87268587D01*
X80507742Y-87220585D01*
X80495056Y-87136351D01*
X80553916Y-86955197D01*
X80625463Y-86858277D01*
X81469627Y-86972340D02*
X81657980Y-86392649D01*
X81049258Y-85553971D02*
X80989483Y-85614661D01*
X80954167Y-85723353D01*
X80955081Y-85843817D01*
X81003998Y-85939823D01*
X81064688Y-85999598D01*
X81197839Y-86082917D01*
X81306531Y-86118233D01*
X81463226Y-86129090D01*
X81547459Y-86116404D01*
X81643465Y-86067486D01*
X81715012Y-85970566D01*
X81738556Y-85898105D01*
X81737641Y-85777641D01*
X81713183Y-85729638D01*
X81459568Y-85647233D01*
X81412479Y-85792156D01*
X81843590Y-85451564D02*
X81915137Y-85354644D01*
X81973997Y-85173490D01*
X81961311Y-85089257D01*
X81936852Y-85041254D01*
X81876163Y-84981479D01*
X81803701Y-84957935D01*
X81719468Y-84970622D01*
X81671465Y-84995080D01*
X81611690Y-85055770D01*
X81528371Y-85188921D01*
X81468596Y-85249610D01*
X81420593Y-85274069D01*
X81336360Y-85286755D01*
X81263899Y-85263211D01*
X81203209Y-85203436D01*
X81178751Y-85155433D01*
X81166064Y-85071200D01*
X81224924Y-84890046D01*
X81296471Y-84793126D01*
X82127034Y-84702491D02*
X81366189Y-84455277D01*
X81425050Y-84274124D01*
X81496597Y-84177204D01*
X81592602Y-84128286D01*
X81676836Y-84115600D01*
X81833531Y-84126457D01*
X81942223Y-84161774D01*
X82075374Y-84245093D01*
X82136063Y-84304868D01*
X82184980Y-84400873D01*
X82185895Y-84521337D01*
X82127034Y-84702491D01*
%TO.C,Q4*%
X86323809Y-93838095D02*
X86247619Y-93800000D01*
X86171428Y-93723809D01*
X86057142Y-93609523D01*
X85980952Y-93571428D01*
X85904761Y-93571428D01*
X85942857Y-93761904D02*
X85866666Y-93723809D01*
X85790476Y-93647619D01*
X85752380Y-93495238D01*
X85752380Y-93228571D01*
X85790476Y-93076190D01*
X85866666Y-93000000D01*
X85942857Y-92961904D01*
X86095238Y-92961904D01*
X86171428Y-93000000D01*
X86247619Y-93076190D01*
X86285714Y-93228571D01*
X86285714Y-93495238D01*
X86247619Y-93647619D01*
X86171428Y-93723809D01*
X86095238Y-93761904D01*
X85942857Y-93761904D01*
X86971428Y-93228571D02*
X86971428Y-93761904D01*
X86780952Y-92923809D02*
X86590476Y-93495238D01*
X87085714Y-93495238D01*
X83447619Y-88761904D02*
X83447619Y-87961904D01*
X83752380Y-87961904D01*
X83828571Y-88000000D01*
X83866666Y-88038095D01*
X83904761Y-88114285D01*
X83904761Y-88228571D01*
X83866666Y-88304761D01*
X83828571Y-88342857D01*
X83752380Y-88380952D01*
X83447619Y-88380952D01*
X84247619Y-88761904D02*
X84247619Y-87961904D01*
X84514285Y-88533333D01*
X84780952Y-87961904D01*
X84780952Y-88761904D01*
X85314285Y-87961904D02*
X85466666Y-87961904D01*
X85542857Y-88000000D01*
X85619047Y-88076190D01*
X85657142Y-88228571D01*
X85657142Y-88495238D01*
X85619047Y-88647619D01*
X85542857Y-88723809D01*
X85466666Y-88761904D01*
X85314285Y-88761904D01*
X85238095Y-88723809D01*
X85161904Y-88647619D01*
X85123809Y-88495238D01*
X85123809Y-88228571D01*
X85161904Y-88076190D01*
X85238095Y-88000000D01*
X85314285Y-87961904D01*
X85961904Y-88723809D02*
X86076190Y-88761904D01*
X86266666Y-88761904D01*
X86342857Y-88723809D01*
X86380952Y-88685714D01*
X86419047Y-88609523D01*
X86419047Y-88533333D01*
X86380952Y-88457142D01*
X86342857Y-88419047D01*
X86266666Y-88380952D01*
X86114285Y-88342857D01*
X86038095Y-88304761D01*
X86000000Y-88266666D01*
X85961904Y-88190476D01*
X85961904Y-88114285D01*
X86000000Y-88038095D01*
X86038095Y-88000000D01*
X86114285Y-87961904D01*
X86304761Y-87961904D01*
X86419047Y-88000000D01*
X86571428Y-88838095D02*
X87180952Y-88838095D01*
X87790476Y-88000000D02*
X87714285Y-87961904D01*
X87600000Y-87961904D01*
X87485714Y-88000000D01*
X87409523Y-88076190D01*
X87371428Y-88152380D01*
X87333333Y-88304761D01*
X87333333Y-88419047D01*
X87371428Y-88571428D01*
X87409523Y-88647619D01*
X87485714Y-88723809D01*
X87600000Y-88761904D01*
X87676190Y-88761904D01*
X87790476Y-88723809D01*
X87828571Y-88685714D01*
X87828571Y-88419047D01*
X87676190Y-88419047D01*
X88133333Y-88723809D02*
X88247619Y-88761904D01*
X88438095Y-88761904D01*
X88514285Y-88723809D01*
X88552380Y-88685714D01*
X88590476Y-88609523D01*
X88590476Y-88533333D01*
X88552380Y-88457142D01*
X88514285Y-88419047D01*
X88438095Y-88380952D01*
X88285714Y-88342857D01*
X88209523Y-88304761D01*
X88171428Y-88266666D01*
X88133333Y-88190476D01*
X88133333Y-88114285D01*
X88171428Y-88038095D01*
X88209523Y-88000000D01*
X88285714Y-87961904D01*
X88476190Y-87961904D01*
X88590476Y-88000000D01*
X88933333Y-88761904D02*
X88933333Y-87961904D01*
X89123809Y-87961904D01*
X89238095Y-88000000D01*
X89314285Y-88076190D01*
X89352380Y-88152380D01*
X89390476Y-88304761D01*
X89390476Y-88419047D01*
X89352380Y-88571428D01*
X89314285Y-88647619D01*
X89238095Y-88723809D01*
X89123809Y-88761904D01*
X88933333Y-88761904D01*
%TO.C,R1*%
X84279596Y-107967668D02*
X84559499Y-107596332D01*
X84138331Y-107532899D02*
X84899177Y-107285685D01*
X84993353Y-107575531D01*
X84980667Y-107659765D01*
X84956208Y-107707768D01*
X84895519Y-107767542D01*
X84786826Y-107802859D01*
X84702593Y-107790172D01*
X84654590Y-107765713D01*
X84594815Y-107705024D01*
X84500639Y-107415178D01*
X84515038Y-108692282D02*
X84373773Y-108257513D01*
X84444405Y-108474898D02*
X85205251Y-108227684D01*
X85073014Y-108190539D01*
X84977009Y-108141622D01*
X84917234Y-108080932D01*
%TO.C,R2*%
X93267978Y-119696748D02*
X92823266Y-119832642D01*
X93126713Y-120131516D02*
X92365868Y-119884303D01*
X92460045Y-119594457D01*
X92519819Y-119533768D01*
X92567822Y-119509309D01*
X92652056Y-119496622D01*
X92760748Y-119531939D01*
X92821437Y-119591714D01*
X92845896Y-119639716D01*
X92858583Y-119723950D01*
X92764406Y-120013796D01*
X92673771Y-119183233D02*
X92649312Y-119135230D01*
X92636626Y-119050996D01*
X92695486Y-118869843D01*
X92755261Y-118809153D01*
X92803264Y-118784695D01*
X92887497Y-118772008D01*
X92959959Y-118795552D01*
X93056879Y-118867099D01*
X93350383Y-119443133D01*
X93503420Y-118972133D01*
X95834963Y-121051535D02*
X95074118Y-120804322D01*
X95976228Y-120616766D01*
X95215383Y-120369553D01*
X96162752Y-119796146D02*
X96187211Y-119844149D01*
X96188125Y-119964613D01*
X96164581Y-120037075D01*
X96093034Y-120133995D01*
X95997029Y-120182912D01*
X95912795Y-120195599D01*
X95756100Y-120184741D01*
X95647408Y-120149425D01*
X95514257Y-120066106D01*
X95453568Y-120006331D01*
X95404651Y-119910326D01*
X95403736Y-119789861D01*
X95427280Y-119717400D01*
X95498827Y-119620480D01*
X95546830Y-119596021D01*
%TO.C,R3*%
X108845386Y-86628052D02*
X108405730Y-86476598D01*
X108475550Y-86896754D02*
X108005321Y-86249540D01*
X108251879Y-86070406D01*
X108335910Y-86056442D01*
X108389122Y-86064870D01*
X108464725Y-86104117D01*
X108531900Y-86196576D01*
X108545864Y-86280607D01*
X108537436Y-86333819D01*
X108498189Y-86409422D01*
X108251631Y-86588557D01*
X108590896Y-85824096D02*
X108991552Y-85533002D01*
X108954948Y-85936302D01*
X109047407Y-85869127D01*
X109131439Y-85855163D01*
X109184650Y-85863591D01*
X109260253Y-85902838D01*
X109372212Y-86056937D01*
X109386176Y-86140968D01*
X109377749Y-86194180D01*
X109338501Y-86269783D01*
X109153583Y-86404134D01*
X109069552Y-86418098D01*
X109016340Y-86409670D01*
X106886943Y-84515790D02*
X106517106Y-84784492D01*
X106702024Y-84650141D02*
X106231796Y-84002928D01*
X106237332Y-84140170D01*
X106220477Y-84246593D01*
X106181229Y-84322197D01*
X106708056Y-83751082D02*
X106716483Y-83697870D01*
X106755731Y-83622267D01*
X106909830Y-83510308D01*
X106993861Y-83496344D01*
X107047072Y-83504772D01*
X107122676Y-83544019D01*
X107167459Y-83605659D01*
X107203815Y-83720509D01*
X107102680Y-84359048D01*
X107503336Y-84067954D01*
X107780714Y-83866428D02*
X107310486Y-83219214D01*
X107663219Y-83575086D02*
X108027271Y-83687293D01*
X107713786Y-83255817D02*
X107646363Y-83681509D01*
%TO.C,R4*%
X109831904Y-89033333D02*
X109450952Y-89300000D01*
X109831904Y-89490476D02*
X109031904Y-89490476D01*
X109031904Y-89185714D01*
X109070000Y-89109523D01*
X109108095Y-89071428D01*
X109184285Y-89033333D01*
X109298571Y-89033333D01*
X109374761Y-89071428D01*
X109412857Y-89109523D01*
X109450952Y-89185714D01*
X109450952Y-89490476D01*
X109298571Y-88347619D02*
X109831904Y-88347619D01*
X108993809Y-88538095D02*
X109565238Y-88728571D01*
X109565238Y-88233333D01*
X112691904Y-89376190D02*
X112691904Y-89833333D01*
X112691904Y-89604761D02*
X111891904Y-89604761D01*
X112006190Y-89680952D01*
X112082380Y-89757142D01*
X112120476Y-89833333D01*
X111968095Y-89071428D02*
X111930000Y-89033333D01*
X111891904Y-88957142D01*
X111891904Y-88766666D01*
X111930000Y-88690476D01*
X111968095Y-88652380D01*
X112044285Y-88614285D01*
X112120476Y-88614285D01*
X112234761Y-88652380D01*
X112691904Y-89109523D01*
X112691904Y-88614285D01*
X112691904Y-88271428D02*
X111891904Y-88271428D01*
X112387142Y-88195238D02*
X112691904Y-87966666D01*
X112158571Y-87966666D02*
X112463333Y-88271428D01*
%TO.C,R7*%
X103699168Y-91137727D02*
X103277752Y-90941146D01*
X103303270Y-91366298D02*
X102903270Y-90673478D01*
X103167202Y-90521097D01*
X103252233Y-90515993D01*
X103304272Y-90529937D01*
X103375358Y-90576872D01*
X103432501Y-90675847D01*
X103437605Y-90760877D01*
X103423661Y-90812916D01*
X103376726Y-90884003D01*
X103112794Y-91036384D01*
X103530108Y-90311573D02*
X103991988Y-90044907D01*
X104095065Y-90909155D01*
%TO.C,R8*%
X105912477Y-94974751D02*
X105491061Y-94778170D01*
X105516579Y-95203322D02*
X105116579Y-94510502D01*
X105380511Y-94358121D01*
X105465542Y-94353017D01*
X105517581Y-94366961D01*
X105588667Y-94413896D01*
X105645810Y-94512871D01*
X105650914Y-94597901D01*
X105636970Y-94649940D01*
X105590035Y-94721027D01*
X105326103Y-94873408D01*
X106079803Y-94350282D02*
X105994772Y-94355386D01*
X105942733Y-94341442D01*
X105871646Y-94294507D01*
X105852599Y-94261515D01*
X105847495Y-94176485D01*
X105861439Y-94124446D01*
X105908374Y-94053359D01*
X106040340Y-93977169D01*
X106125370Y-93972065D01*
X106177410Y-93986009D01*
X106248496Y-94032944D01*
X106267544Y-94065935D01*
X106272648Y-94150966D01*
X106258704Y-94203005D01*
X106211769Y-94274092D01*
X106079803Y-94350282D01*
X106032867Y-94421369D01*
X106018924Y-94473408D01*
X106024027Y-94558438D01*
X106100218Y-94690404D01*
X106171305Y-94737339D01*
X106223344Y-94751283D01*
X106308374Y-94746179D01*
X106440340Y-94669989D01*
X106487275Y-94598902D01*
X106501219Y-94546863D01*
X106496115Y-94461833D01*
X106419925Y-94329867D01*
X106348838Y-94282932D01*
X106296799Y-94268988D01*
X106211769Y-94274092D01*
%TO.C,R9*%
X91128841Y-85104853D02*
X91280295Y-84665197D01*
X90860139Y-84735017D02*
X91507353Y-84264788D01*
X91686487Y-84511346D01*
X91700451Y-84595377D01*
X91692023Y-84648589D01*
X91652776Y-84724192D01*
X91560317Y-84791367D01*
X91476286Y-84805331D01*
X91423074Y-84796903D01*
X91347471Y-84757656D01*
X91168336Y-84511098D01*
X91352759Y-85413050D02*
X91442326Y-85536329D01*
X91517930Y-85575576D01*
X91571141Y-85584004D01*
X91708384Y-85578468D01*
X91854055Y-85519720D01*
X92100612Y-85340586D01*
X92139860Y-85264982D01*
X92148288Y-85211771D01*
X92134324Y-85127740D01*
X92044756Y-85004461D01*
X91969153Y-84965213D01*
X91915942Y-84956786D01*
X91831910Y-84970749D01*
X91677812Y-85082709D01*
X91638564Y-85158312D01*
X91630136Y-85211523D01*
X91644100Y-85295555D01*
X91733668Y-85418833D01*
X91809271Y-85458081D01*
X91862483Y-85466509D01*
X91946514Y-85452545D01*
X90570421Y-88068009D02*
X90301719Y-87698172D01*
X90436070Y-87883090D02*
X91083283Y-87412862D01*
X90946041Y-87418398D01*
X90839618Y-87401543D01*
X90764014Y-87362295D01*
X91335129Y-87889122D02*
X91388341Y-87897549D01*
X91463944Y-87936797D01*
X91575903Y-88090896D01*
X91589867Y-88174927D01*
X91581439Y-88228138D01*
X91542192Y-88303742D01*
X91480552Y-88348525D01*
X91365702Y-88384881D01*
X90727163Y-88283746D01*
X91018257Y-88684402D01*
X91219783Y-88961780D02*
X91866997Y-88491552D01*
X91511125Y-88844285D02*
X91398918Y-89208337D01*
X91830394Y-88894852D02*
X91404702Y-88827429D01*
%TO.C,U1*%
X96428009Y-96120560D02*
X96808670Y-96644495D01*
X96884274Y-96683742D01*
X96937485Y-96692170D01*
X97021516Y-96678206D01*
X97144795Y-96588639D01*
X97184043Y-96513036D01*
X97192471Y-96459824D01*
X97178507Y-96375793D01*
X96797846Y-95851858D01*
X97915288Y-96028844D02*
X97545451Y-96297546D01*
X97730369Y-96163195D02*
X97260141Y-95515981D01*
X97265677Y-95653224D01*
X97248822Y-95759647D01*
X97209574Y-95835250D01*
X98827450Y-106714401D02*
X99043188Y-106557658D01*
X99381957Y-106829499D02*
X99073760Y-107053417D01*
X98603532Y-106406204D01*
X98911729Y-106182286D01*
X99606123Y-106619545D02*
X99720974Y-106583189D01*
X99875072Y-106471230D01*
X99914320Y-106395627D01*
X99922747Y-106342415D01*
X99908784Y-106258384D01*
X99864000Y-106196745D01*
X99788397Y-106157497D01*
X99735185Y-106149069D01*
X99651154Y-106163033D01*
X99505483Y-106221781D01*
X99421452Y-106235745D01*
X99368241Y-106227317D01*
X99292637Y-106188069D01*
X99247854Y-106126430D01*
X99233890Y-106042399D01*
X99242317Y-105989187D01*
X99281565Y-105913584D01*
X99435664Y-105801625D01*
X99550514Y-105765269D01*
X100275728Y-106180136D02*
X99805500Y-105532923D01*
X100052057Y-105353788D01*
X100136089Y-105339824D01*
X100189300Y-105348252D01*
X100264903Y-105387500D01*
X100332079Y-105479959D01*
X100346043Y-105563990D01*
X100337615Y-105617202D01*
X100298367Y-105692805D01*
X100051810Y-105871939D01*
X100391074Y-105107478D02*
X100791730Y-104816385D01*
X100755127Y-105219685D01*
X100847586Y-105152509D01*
X100931617Y-105138546D01*
X100984829Y-105146973D01*
X101060432Y-105186221D01*
X101172391Y-105340319D01*
X101186355Y-105424351D01*
X101177927Y-105477562D01*
X101138680Y-105553165D01*
X100953761Y-105687516D01*
X100869730Y-105701480D01*
X100816519Y-105693052D01*
X101083071Y-104698889D02*
X101091499Y-104645678D01*
X101130747Y-104570075D01*
X101284845Y-104458116D01*
X101368876Y-104444152D01*
X101422088Y-104452579D01*
X101497691Y-104491827D01*
X101542475Y-104553466D01*
X101578831Y-104668317D01*
X101477696Y-105306855D01*
X101878352Y-105015762D01*
X101976595Y-104567678D02*
X102469710Y-104209409D01*
X102957042Y-104232048D02*
X102486813Y-103584835D01*
X102733371Y-103405700D01*
X102817402Y-103391736D01*
X102870614Y-103400164D01*
X102946217Y-103439412D01*
X103013392Y-103531871D01*
X103027356Y-103615902D01*
X103018928Y-103669113D01*
X102979681Y-103744717D01*
X102733123Y-103923851D01*
X103604255Y-103761820D02*
X103134027Y-103114606D01*
X104237505Y-103207561D02*
X104229077Y-103260772D01*
X104159010Y-103358767D01*
X104097370Y-103403551D01*
X103982519Y-103439907D01*
X103876096Y-103423051D01*
X103800493Y-103383803D01*
X103680106Y-103282916D01*
X103612931Y-103190457D01*
X103554183Y-103044787D01*
X103540219Y-102960755D01*
X103557075Y-102854332D01*
X103627142Y-102756337D01*
X103688781Y-102711554D01*
X103803632Y-102675198D01*
X103856844Y-102683626D01*
X104212716Y-102330893D02*
X104335995Y-102241325D01*
X104420026Y-102227361D01*
X104526449Y-102244217D01*
X104646836Y-102345104D01*
X104803579Y-102560842D01*
X104862327Y-102706513D01*
X104845471Y-102812936D01*
X104806223Y-102888539D01*
X104682944Y-102978106D01*
X104598913Y-102992070D01*
X104492490Y-102975214D01*
X104372103Y-102874328D01*
X104215361Y-102658590D01*
X104156613Y-102512919D01*
X104173469Y-102406496D01*
X104212716Y-102330893D01*
X105058564Y-102328496D02*
X105551680Y-101970227D01*
X106039011Y-101992866D02*
X105568783Y-101345653D01*
X105722881Y-101233694D01*
X105837732Y-101197338D01*
X105944155Y-101214194D01*
X106019759Y-101253441D01*
X106140146Y-101354328D01*
X106207321Y-101446787D01*
X106266069Y-101592458D01*
X106280033Y-101676489D01*
X106263177Y-101782912D01*
X106193110Y-101880907D01*
X106039011Y-101992866D01*
X106650116Y-100889636D02*
X106963602Y-101321112D01*
X106316883Y-100755037D02*
X106498662Y-101329292D01*
X106899318Y-101038198D01*
%TO.C,U2*%
X86250772Y-94758815D02*
X86811627Y-95082625D01*
X86896657Y-95087728D01*
X86948696Y-95073784D01*
X87019783Y-95026849D01*
X87095973Y-94894883D01*
X87101077Y-94809853D01*
X87087133Y-94757814D01*
X87040198Y-94686727D01*
X86479343Y-94362918D01*
X86716755Y-94104090D02*
X86702811Y-94052051D01*
X86707915Y-93967020D01*
X86803153Y-93802063D01*
X86874240Y-93755128D01*
X86926279Y-93741184D01*
X87011309Y-93746288D01*
X87077292Y-93784383D01*
X87157219Y-93874517D01*
X87324545Y-94498986D01*
X87572164Y-94070097D01*
X89099169Y-100419926D02*
X89346788Y-99991037D01*
X89477387Y-100374358D01*
X89534529Y-100275384D01*
X89605616Y-100228448D01*
X89657655Y-100214505D01*
X89742686Y-100219608D01*
X89907643Y-100314846D01*
X89954578Y-100385933D01*
X89968522Y-100437972D01*
X89963418Y-100523003D01*
X89849133Y-100720951D01*
X89778046Y-100767887D01*
X89726007Y-100781830D01*
X90145054Y-100056019D02*
X90197093Y-100042075D01*
X90211037Y-100094114D01*
X90158998Y-100108058D01*
X90145054Y-100056019D01*
X90211037Y-100094114D01*
X89670598Y-99430182D02*
X89918217Y-99001294D01*
X90048815Y-99384615D01*
X90105958Y-99285640D01*
X90177045Y-99238705D01*
X90229084Y-99224761D01*
X90314114Y-99229865D01*
X90479071Y-99325103D01*
X90526007Y-99396190D01*
X90539951Y-99448229D01*
X90534847Y-99533259D01*
X90420561Y-99731208D01*
X90349474Y-99778143D01*
X90297435Y-99792087D01*
X90032503Y-98803345D02*
X90858656Y-98972405D01*
X90299169Y-98341465D01*
X91353894Y-98114627D02*
X90890647Y-98155091D01*
X91125323Y-98510525D02*
X90432503Y-98110525D01*
X90584884Y-97846593D01*
X90655970Y-97799658D01*
X90708009Y-97785714D01*
X90793040Y-97790818D01*
X90892014Y-97847961D01*
X90938949Y-97919047D01*
X90952893Y-97971086D01*
X90947789Y-98056117D01*
X90795409Y-98320048D01*
X91162417Y-97608180D02*
X91295750Y-97377240D01*
X91715799Y-97487790D02*
X91525323Y-97817704D01*
X90832503Y-97417704D01*
X91022979Y-97087790D01*
X91436923Y-96447009D02*
X91365836Y-96493944D01*
X91308693Y-96592918D01*
X91284542Y-96710940D01*
X91312429Y-96815018D01*
X91359365Y-96886105D01*
X91472283Y-96995287D01*
X91571257Y-97052430D01*
X91722271Y-97095629D01*
X91807301Y-97100733D01*
X91911379Y-97072845D01*
X92001513Y-96992918D01*
X92039609Y-96926935D01*
X92063760Y-96808913D01*
X92049816Y-96756874D01*
X91818876Y-96623541D01*
X91742686Y-96755507D01*
%TO.C,U3*%
X100173720Y-83558815D02*
X100734575Y-83882625D01*
X100819605Y-83887728D01*
X100871644Y-83873784D01*
X100942731Y-83826849D01*
X101018921Y-83694883D01*
X101024025Y-83609853D01*
X101010081Y-83557814D01*
X100963146Y-83486727D01*
X100402291Y-83162918D01*
X100554672Y-82898986D02*
X100802291Y-82470097D01*
X100932890Y-82853418D01*
X100990032Y-82754444D01*
X101061119Y-82707509D01*
X101113158Y-82693565D01*
X101198189Y-82698669D01*
X101363146Y-82793907D01*
X101410081Y-82864994D01*
X101424025Y-82917033D01*
X101418921Y-83002063D01*
X101304636Y-83200012D01*
X101233549Y-83246947D01*
X101181510Y-83260891D01*
X94551456Y-81544480D02*
X94565400Y-81596519D01*
X94541249Y-81714541D01*
X94503153Y-81780524D01*
X94413019Y-81860451D01*
X94308941Y-81888338D01*
X94223910Y-81883235D01*
X94072897Y-81840036D01*
X93973923Y-81782893D01*
X93861004Y-81673711D01*
X93814069Y-81602624D01*
X93786182Y-81498546D01*
X93810333Y-81380524D01*
X93848428Y-81314541D01*
X93938562Y-81234614D01*
X93990602Y-81220671D01*
X94788868Y-81285652D02*
X94096047Y-80885652D01*
X94248428Y-80621721D01*
X94319515Y-80574786D01*
X94371554Y-80560842D01*
X94456584Y-80565946D01*
X94555559Y-80623088D01*
X94602494Y-80694175D01*
X94616438Y-80746214D01*
X94611334Y-80831245D01*
X94458953Y-81095176D01*
X94542982Y-80263919D02*
X94529039Y-80211880D01*
X94534142Y-80126849D01*
X94629381Y-79961892D01*
X94700467Y-79914957D01*
X94752506Y-79901013D01*
X94837537Y-79906117D01*
X94903520Y-79944212D01*
X94983446Y-80034346D01*
X95150772Y-80658815D01*
X95398391Y-80229926D01*
X95779344Y-79570097D02*
X95550772Y-79965995D01*
X95665058Y-79768046D02*
X94972238Y-79368046D01*
X95033117Y-79491172D01*
X95061004Y-79595250D01*
X95055901Y-79680280D01*
X95334142Y-78741209D02*
X95372238Y-78675226D01*
X95443324Y-78628290D01*
X95495363Y-78614347D01*
X95580394Y-78619450D01*
X95731407Y-78662649D01*
X95896365Y-78757888D01*
X96009283Y-78867069D01*
X96056218Y-78938156D01*
X96070162Y-78990195D01*
X96065058Y-79075226D01*
X96026963Y-79141209D01*
X95955876Y-79188144D01*
X95903837Y-79202088D01*
X95818807Y-79196984D01*
X95667793Y-79153785D01*
X95502836Y-79058547D01*
X95389918Y-78949365D01*
X95342982Y-78878278D01*
X95329039Y-78826239D01*
X95334142Y-78741209D01*
X96041273Y-78049756D02*
X96503153Y-78316422D01*
X95682103Y-78062332D02*
X96081737Y-78513004D01*
X96329356Y-78084115D01*
%TO.C,M3*%
X99352380Y-70561904D02*
X99352380Y-69761904D01*
X99619047Y-70333333D01*
X99885714Y-69761904D01*
X99885714Y-70561904D01*
X100190476Y-69761904D02*
X100685714Y-69761904D01*
X100419047Y-70066666D01*
X100533333Y-70066666D01*
X100609523Y-70104761D01*
X100647619Y-70142857D01*
X100685714Y-70219047D01*
X100685714Y-70409523D01*
X100647619Y-70485714D01*
X100609523Y-70523809D01*
X100533333Y-70561904D01*
X100304761Y-70561904D01*
X100228571Y-70523809D01*
X100190476Y-70485714D01*
%TO.C,L2*%
X86442978Y-107296748D02*
X86325257Y-107659055D01*
X85564412Y-107411841D01*
X85825227Y-106855694D02*
X85800768Y-106807691D01*
X85788082Y-106723458D01*
X85846942Y-106542304D01*
X85906717Y-106481615D01*
X85954720Y-106457156D01*
X86038953Y-106444469D01*
X86111415Y-106468014D01*
X86208335Y-106539561D01*
X86501838Y-107115594D01*
X86654875Y-106644595D01*
X89009963Y-108651535D02*
X88249118Y-108404322D01*
X89151228Y-108216766D01*
X88390383Y-107969553D01*
X89337752Y-107396146D02*
X89362211Y-107444149D01*
X89363125Y-107564613D01*
X89339581Y-107637075D01*
X89268034Y-107733995D01*
X89172029Y-107782912D01*
X89087795Y-107795599D01*
X88931100Y-107784741D01*
X88822408Y-107749425D01*
X88689257Y-107666106D01*
X88628568Y-107606331D01*
X88579651Y-107510326D01*
X88578736Y-107389861D01*
X88602280Y-107317400D01*
X88673827Y-107220480D01*
X88721830Y-107196021D01*
%TD*%
M02*
