M48
; DRILL file {KiCad 5.1.6-c6e7f7d~87~ubuntu18.04.1} date Wed Jul 29 15:25:12 2020
; FORMAT={-:-/ absolute / inch / decimal}
; #@! TF.CreationDate,2020-07-29T15:25:12-07:00
; #@! TF.GenerationSoftware,Kicad,Pcbnew,5.1.6-c6e7f7d~87~ubuntu18.04.1
; #@! TF.FileFunction,Plated,1,2,PTH
FMAT,2
INCH
T1C0.0118
T2C0.0177
T3C0.0197
T4C0.1260
%
G90
G05
T1
X3.1005Y-4.1303
X3.137Y-4.2427
X3.1693Y-4.3504
X3.21Y-4.4673
X3.248Y-4.5866
X3.3268Y-4.311
X3.3455Y-4.1988
X3.378Y-4.0394
X3.4016Y-3.8209
X3.4744Y-3.6122
X3.4783Y-4.4104
X3.5079Y-4.1831
X3.5413Y-3.3268
X3.5433Y-4.8228
X3.5472Y-3.3642
X3.5689Y-3.9685
X3.5787Y-3.4488
X3.5827Y-4.7244
X3.5984Y-4.1181
X3.6043Y-3.9114
X3.622Y-4.626
X3.6344Y-3.6609
X3.6457Y-3.9724
X3.6545Y-4.4124
X3.6752Y-3.8602
X3.6919Y-4.0285
X3.7106Y-3.1535
X3.7133Y-3.9442
X3.7402Y-4.311
X3.7539Y-3.9961
X3.7598Y-4.8228
X3.763Y-4.1811
X3.7707Y-3.0354
X3.7992Y-4.7244
X3.8189Y-3.3642
X3.8268Y-3.7894
X3.8307Y-3.9173
X3.8386Y-4.626
X3.8406Y-3.0807
X3.8524Y-3.6969
X3.8583Y-3.2126
X3.875Y-4.4272
X3.8819Y-4.1772
X3.9035Y-3.7402
X3.913Y-3.0961
X3.9193Y-4.0394
X3.9242Y-3.6594
X3.9378Y-3.9319
X3.9449Y-3.6181
X3.9469Y-3.4272
X3.9507Y-3.116
X3.9528Y-3.8327
X3.9646Y-3.2815
X3.9744Y-3.3681
X3.9764Y-4.8228
X4.0059Y-3.0965
X4.0157Y-4.7244
X4.0211Y-3.3317
X4.0472Y-3.9547
X4.0551Y-3.6831
X4.0551Y-4.626
X4.0752Y-4.1051
X4.0827Y-3.5965
X4.0866Y-3.3327
X4.1201Y-3.5472
X4.1331Y-4.1063
X4.1476Y-4.1925
X4.1496Y-3.5236
X4.1516Y-3.4724
X4.1516Y-3.8386
X4.1575Y-4.4203
X4.1575Y-4.4203
X4.165Y-3.415
X4.1937Y-4.8228
X4.2035Y-4.1661
X4.2205Y-3.9764
X4.2303Y-3.7352
X4.2307Y-4.7248
X4.2311Y-4.2799
X4.2441Y-3.2047
X4.2717Y-4.626
X4.2795Y-3.4045
X4.3055Y-4.2358
X4.311Y-4.5276
X4.3287Y-3.8868
X4.3386Y-3.8346
X4.348Y-4.211
X4.3947Y-3.9892
X4.4193Y-3.4163
X4.438Y-4.3445
X4.4882Y-3.9173
X4.498Y-4.2254
X4.5134Y-3.5862
X4.5423Y-3.75
X4.5472Y-4.0748
X4.56Y-3.3327
X4.56Y-3.3327
X4.5862Y-4.4551
X4.6345Y-4.3053
X4.6366Y-4.052
X4.6551Y-4.5604
X4.6831Y-4.1556
X4.7063Y-4.4142
X4.7318Y-4.0058
X4.7524Y-4.2609
X4.7805Y-3.856
X4.8035Y-4.1126
X4.8497Y-3.9613
T3
X3.2531Y-4.7628
X3.27Y-4.6925
X3.2909Y-4.8245
X3.3317Y-4.6547
X3.3612Y-4.8414
X3.402Y-4.6716
X3.4229Y-4.8036
X3.4398Y-4.7333
X4.4342Y-4.7333
X4.4511Y-4.8036
X4.472Y-4.6716
X4.5128Y-4.8414
X4.5423Y-4.6547
X4.5831Y-4.8245
X4.604Y-4.6925
X4.6209Y-4.7628
X3.8425Y-2.9291
X3.8702Y-2.8623
X3.8702Y-2.9959
X3.937Y-2.8346
X3.937Y-3.0236
X4.0038Y-2.8623
X4.0038Y-2.9959
X4.0315Y-2.9291
X4.8038Y-3.6552
X4.8095Y-3.5831
X4.8508Y-3.7102
X4.8645Y-3.5361
X4.9229Y-3.7158
X4.9366Y-3.5418
X4.9779Y-3.6689
X4.9836Y-3.5968
X2.8905Y-3.5968
X2.8961Y-3.6689
X2.9374Y-3.5418
X2.9511Y-3.7158
X3.0095Y-3.5361
X3.0232Y-3.7102
X3.0645Y-3.5831
X3.0702Y-3.6552
T4
X3.3465Y-4.748
X4.5276Y-4.748
X3.937Y-2.9291
X4.8937Y-3.626
X2.9803Y-3.626
T2
G00X3.317Y-3.2978
M15
G01X3.2985Y-3.2723
M16
G05
G00X3.5263Y-3.1068
M15
G01X3.5448Y-3.1323
M16
G05
T0
M30
