%TF.GenerationSoftware,KiCad,Pcbnew,5.1.6-c6e7f7d~87~ubuntu18.04.1*%
%TF.CreationDate,2020-07-29T15:25:13-07:00*%
%TF.ProjectId,esp32_picod4_downpads,65737033-325f-4706-9963-6f64345f646f,rev?*%
%TF.SameCoordinates,Original*%
%TF.FileFunction,Soldermask,Bot*%
%TF.FilePolarity,Negative*%
%FSLAX46Y46*%
G04 Gerber Fmt 4.6, Leading zero omitted, Abs format (unit mm)*
G04 Created by KiCad (PCBNEW 5.1.6-c6e7f7d~87~ubuntu18.04.1) date 2020-07-29 15:25:13*
%MOMM*%
%LPD*%
G01*
G04 APERTURE LIST*
%ADD10C,1.600000*%
%ADD11C,0.900000*%
%ADD12C,6.500000*%
G04 APERTURE END LIST*
D10*
%TO.C,K13*%
X97500000Y-117500000D03*
%TD*%
%TO.C,K3*%
X92000000Y-117500000D03*
%TD*%
%TO.C,K5*%
X96500000Y-120000000D03*
%TD*%
%TO.C,J19*%
G36*
G01*
X89587003Y-79919218D02*
X89087385Y-79231554D01*
G75*
G02*
X89214593Y-78428392I465185J337977D01*
G01*
X89214593Y-78428392D01*
G75*
G02*
X90017755Y-78555600I337977J-465185D01*
G01*
X90517373Y-79243264D01*
G75*
G02*
X90390165Y-80046426I-465185J-337977D01*
G01*
X90390165Y-80046426D01*
G75*
G02*
X89587003Y-79919218I-337977J465185D01*
G01*
G37*
G36*
G01*
X84233284Y-82758265D02*
X84732902Y-83445929D01*
G75*
G02*
X84605694Y-84249091I-465185J-337977D01*
G01*
X84605694Y-84249091D01*
G75*
G02*
X83802532Y-84121883I-337977J465185D01*
G01*
X83302914Y-83434219D01*
G75*
G02*
X83430122Y-82631057I465185J337977D01*
G01*
X83430122Y-82631057D01*
G75*
G02*
X84233284Y-82758265I337977J-465185D01*
G01*
G37*
%TD*%
%TO.C,K1*%
X90000000Y-122500000D03*
%TD*%
%TO.C,K2*%
X81534014Y-113469766D03*
%TD*%
%TO.C,K4*%
X80606964Y-110616596D03*
%TD*%
%TO.C,K6*%
X121423620Y-97942862D03*
%TD*%
%TO.C,K7*%
X119475023Y-112030196D03*
%TD*%
%TO.C,K8*%
X118951484Y-105551314D03*
%TD*%
%TO.C,K9*%
X108500000Y-117500000D03*
%TD*%
%TO.C,K10*%
X107500000Y-120000000D03*
%TD*%
%TO.C,K11*%
X106500000Y-122500000D03*
%TD*%
%TO.C,K12*%
X101000000Y-122500000D03*
%TD*%
%TO.C,K14*%
X116479348Y-113159766D03*
%TD*%
%TO.C,K15*%
X117715416Y-109355540D03*
%TD*%
%TO.C,K16*%
X123183227Y-100617517D03*
%TD*%
%TO.C,K17*%
X91000000Y-120000000D03*
%TD*%
%TO.C,K18*%
X120187552Y-101747088D03*
%TD*%
%TO.C,K19*%
X120711091Y-108225969D03*
%TD*%
%TO.C,K20*%
X118238955Y-115834422D03*
%TD*%
%TO.C,K21*%
X95500000Y-122500000D03*
%TD*%
%TO.C,K23*%
X121947159Y-104421743D03*
%TD*%
%TO.C,K24*%
X102000000Y-120000000D03*
%TD*%
%TO.C,K25*%
X103000000Y-117500000D03*
%TD*%
%TO.C,K26*%
X79679914Y-107763427D03*
%TD*%
%TO.C,K27*%
X109500000Y-115000000D03*
%TD*%
D11*
%TO.C,M1*%
X87370452Y-120224557D03*
X86410685Y-118658359D03*
X84624557Y-118229548D03*
X83058359Y-119189315D03*
X82629548Y-120975443D03*
X83589315Y-122541641D03*
X85375443Y-122970452D03*
X86941641Y-122010685D03*
D12*
X85000000Y-120600000D03*
%TD*%
%TO.C,M2*%
X115000000Y-120600000D03*
D11*
X116941641Y-119189315D03*
X117370452Y-120975443D03*
X116410685Y-122541641D03*
X114624557Y-122970452D03*
X113058359Y-122010685D03*
X112629548Y-120224557D03*
X113589315Y-118658359D03*
X115375443Y-118229548D03*
%TD*%
%TO.C,M4*%
X76789577Y-94238415D03*
X77982536Y-92841641D03*
X77838415Y-91010423D03*
X76441641Y-89817464D03*
X74610423Y-89961585D03*
X73417464Y-91358359D03*
X73561585Y-93189577D03*
X74958359Y-94382536D03*
D12*
X75700000Y-92100000D03*
%TD*%
%TO.C,M5*%
X124300000Y-92100000D03*
D11*
X123558359Y-89817464D03*
X125389577Y-89961585D03*
X126582536Y-91358359D03*
X126438415Y-93189577D03*
X125041641Y-94382536D03*
X123210423Y-94238415D03*
X122017464Y-92841641D03*
X122161585Y-91010423D03*
%TD*%
D12*
%TO.C,M3*%
X100000000Y-74400000D03*
D11*
X102400000Y-74400000D03*
X101697056Y-76097056D03*
X100000000Y-76800000D03*
X98302944Y-76097056D03*
X97600000Y-74400000D03*
X98302944Y-72702944D03*
X100000000Y-72000000D03*
X101697056Y-72702944D03*
%TD*%
D10*
%TO.C,K22*%
X82461066Y-116322936D03*
%TD*%
%TO.C,K28*%
X78752863Y-104910257D03*
%TD*%
M02*
