%TF.GenerationSoftware,KiCad,Pcbnew,5.1.6-c6e7f7d~87~ubuntu18.04.1*%
%TF.CreationDate,2020-07-29T15:25:13-07:00*%
%TF.ProjectId,esp32_picod4_downpads,65737033-325f-4706-9963-6f64345f646f,rev?*%
%TF.SameCoordinates,Original*%
%TF.FileFunction,Paste,Top*%
%TF.FilePolarity,Positive*%
%FSLAX46Y46*%
G04 Gerber Fmt 4.6, Leading zero omitted, Abs format (unit mm)*
G04 Created by KiCad (PCBNEW 5.1.6-c6e7f7d~87~ubuntu18.04.1) date 2020-07-29 15:25:13*
%MOMM*%
%LPD*%
G01*
G04 APERTURE LIST*
%ADD10C,0.100000*%
%ADD11R,0.900000X0.800000*%
G04 APERTURE END LIST*
D10*
%TO.C,J18*%
G36*
X99073037Y-92878829D02*
G01*
X98253885Y-93452405D01*
X96814209Y-91396333D01*
X97633361Y-90822757D01*
X99073037Y-92878829D01*
G37*
G36*
X103234329Y-89965060D02*
G01*
X102415177Y-90538636D01*
X100975501Y-88482564D01*
X101794653Y-87908988D01*
X103234329Y-89965060D01*
G37*
G36*
X95093853Y-91624320D02*
G01*
X94274701Y-92197896D01*
X92835025Y-90141824D01*
X93654177Y-89568248D01*
X95093853Y-91624320D01*
G37*
G36*
X99255145Y-88710551D02*
G01*
X98435993Y-89284127D01*
X96996317Y-87228055D01*
X97815469Y-86654479D01*
X99255145Y-88710551D01*
G37*
G36*
X103416437Y-85796783D02*
G01*
X102597285Y-86370359D01*
X101157609Y-84314287D01*
X101976761Y-83740711D01*
X103416437Y-85796783D01*
G37*
%TD*%
%TO.C,C1*%
G36*
G01*
X91609771Y-106522473D02*
X92024393Y-106221234D01*
G75*
G02*
X92329943Y-106269628I128578J-176972D01*
G01*
X92587099Y-106623572D01*
G75*
G02*
X92538705Y-106929122I-176972J-128578D01*
G01*
X92124083Y-107230362D01*
G75*
G02*
X91818533Y-107181968I-128578J176972D01*
G01*
X91561377Y-106828024D01*
G75*
G02*
X91609771Y-106522474I176972J128578D01*
G01*
G37*
G36*
G01*
X92535533Y-107796675D02*
X92950155Y-107495436D01*
G75*
G02*
X93255705Y-107543830I128578J-176972D01*
G01*
X93512861Y-107897774D01*
G75*
G02*
X93464467Y-108203324I-176972J-128578D01*
G01*
X93049845Y-108504564D01*
G75*
G02*
X92744295Y-108456170I-128578J176972D01*
G01*
X92487139Y-108102226D01*
G75*
G02*
X92535533Y-107796676I176972J128578D01*
G01*
G37*
%TD*%
%TO.C,C2*%
G36*
G01*
X93498414Y-104433776D02*
X93913036Y-104132537D01*
G75*
G02*
X94218586Y-104180931I128578J-176972D01*
G01*
X94475742Y-104534875D01*
G75*
G02*
X94427348Y-104840425I-176972J-128578D01*
G01*
X94012726Y-105141665D01*
G75*
G02*
X93707176Y-105093271I-128578J176972D01*
G01*
X93450020Y-104739327D01*
G75*
G02*
X93498414Y-104433777I176972J128578D01*
G01*
G37*
G36*
G01*
X92572652Y-103159574D02*
X92987274Y-102858335D01*
G75*
G02*
X93292824Y-102906729I128578J-176972D01*
G01*
X93549980Y-103260673D01*
G75*
G02*
X93501586Y-103566223I-176972J-128578D01*
G01*
X93086964Y-103867463D01*
G75*
G02*
X92781414Y-103819069I-128578J176972D01*
G01*
X92524258Y-103465125D01*
G75*
G02*
X92572652Y-103159575I176972J128578D01*
G01*
G37*
%TD*%
%TO.C,C3*%
G36*
G01*
X89864467Y-104103325D02*
X89449845Y-104404564D01*
G75*
G02*
X89144295Y-104356170I-128578J176972D01*
G01*
X88887139Y-104002226D01*
G75*
G02*
X88935533Y-103696676I176972J128578D01*
G01*
X89350155Y-103395436D01*
G75*
G02*
X89655705Y-103443830I128578J-176972D01*
G01*
X89912861Y-103797774D01*
G75*
G02*
X89864467Y-104103324I-176972J-128578D01*
G01*
G37*
G36*
G01*
X90790229Y-105377527D02*
X90375607Y-105678766D01*
G75*
G02*
X90070057Y-105630372I-128578J176972D01*
G01*
X89812901Y-105276428D01*
G75*
G02*
X89861295Y-104970878I176972J128578D01*
G01*
X90275917Y-104669638D01*
G75*
G02*
X90581467Y-104718032I128578J-176972D01*
G01*
X90838623Y-105071976D01*
G75*
G02*
X90790229Y-105377526I-176972J-128578D01*
G01*
G37*
%TD*%
%TO.C,C4*%
G36*
G01*
X82487274Y-106141666D02*
X82072652Y-105840425D01*
G75*
G02*
X82024258Y-105534875I128578J176972D01*
G01*
X82281414Y-105180931D01*
G75*
G02*
X82586964Y-105132537I176972J-128578D01*
G01*
X83001586Y-105433777D01*
G75*
G02*
X83049980Y-105739327I-128578J-176972D01*
G01*
X82792824Y-106093271D01*
G75*
G02*
X82487274Y-106141665I-176972J128578D01*
G01*
G37*
G36*
G01*
X83413036Y-104867464D02*
X82998414Y-104566223D01*
G75*
G02*
X82950020Y-104260673I128578J176972D01*
G01*
X83207176Y-103906729D01*
G75*
G02*
X83512726Y-103858335I176972J-128578D01*
G01*
X83927348Y-104159575D01*
G75*
G02*
X83975742Y-104465125I-128578J-176972D01*
G01*
X83718586Y-104819069D01*
G75*
G02*
X83413036Y-104867463I-176972J128578D01*
G01*
G37*
%TD*%
%TO.C,C5*%
G36*
G01*
X106048414Y-106483776D02*
X106463036Y-106182537D01*
G75*
G02*
X106768586Y-106230931I128578J-176972D01*
G01*
X107025742Y-106584875D01*
G75*
G02*
X106977348Y-106890425I-176972J-128578D01*
G01*
X106562726Y-107191665D01*
G75*
G02*
X106257176Y-107143271I-128578J176972D01*
G01*
X106000020Y-106789327D01*
G75*
G02*
X106048414Y-106483777I176972J128578D01*
G01*
G37*
G36*
G01*
X105122652Y-105209574D02*
X105537274Y-104908335D01*
G75*
G02*
X105842824Y-104956729I128578J-176972D01*
G01*
X106099980Y-105310673D01*
G75*
G02*
X106051586Y-105616223I-176972J-128578D01*
G01*
X105636964Y-105917463D01*
G75*
G02*
X105331414Y-105869069I-128578J176972D01*
G01*
X105074258Y-105515125D01*
G75*
G02*
X105122652Y-105209575I176972J128578D01*
G01*
G37*
%TD*%
%TO.C,C6*%
G36*
G01*
X94172652Y-84559574D02*
X94587274Y-84258335D01*
G75*
G02*
X94892824Y-84306729I128578J-176972D01*
G01*
X95149980Y-84660673D01*
G75*
G02*
X95101586Y-84966223I-176972J-128578D01*
G01*
X94686964Y-85267463D01*
G75*
G02*
X94381414Y-85219069I-128578J176972D01*
G01*
X94124258Y-84865125D01*
G75*
G02*
X94172652Y-84559575I176972J128578D01*
G01*
G37*
G36*
G01*
X95098414Y-85833776D02*
X95513036Y-85532537D01*
G75*
G02*
X95818586Y-85580931I128578J-176972D01*
G01*
X96075742Y-85934875D01*
G75*
G02*
X96027348Y-86240425I-176972J-128578D01*
G01*
X95612726Y-86541665D01*
G75*
G02*
X95307176Y-86493271I-128578J176972D01*
G01*
X95050020Y-86139327D01*
G75*
G02*
X95098414Y-85833777I176972J128578D01*
G01*
G37*
%TD*%
%TO.C,C7*%
G36*
G01*
X89107011Y-98746831D02*
X88850761Y-99190669D01*
G75*
G02*
X88551943Y-99270737I-189443J109375D01*
G01*
X88173057Y-99051987D01*
G75*
G02*
X88092989Y-98753169I109375J189443D01*
G01*
X88349239Y-98309331D01*
G75*
G02*
X88648057Y-98229263I189443J-109375D01*
G01*
X89026943Y-98448013D01*
G75*
G02*
X89107011Y-98746831I-109375J-189443D01*
G01*
G37*
G36*
G01*
X87743021Y-97959331D02*
X87486771Y-98403169D01*
G75*
G02*
X87187953Y-98483237I-189443J109375D01*
G01*
X86809067Y-98264487D01*
G75*
G02*
X86728999Y-97965669I109375J189443D01*
G01*
X86985249Y-97521831D01*
G75*
G02*
X87284067Y-97441763I189443J-109375D01*
G01*
X87662953Y-97660513D01*
G75*
G02*
X87743021Y-97959331I-109375J-189443D01*
G01*
G37*
%TD*%
%TO.C,C8*%
G36*
G01*
X93201586Y-77116224D02*
X92786964Y-77417463D01*
G75*
G02*
X92481414Y-77369069I-128578J176972D01*
G01*
X92224258Y-77015125D01*
G75*
G02*
X92272652Y-76709575I176972J128578D01*
G01*
X92687274Y-76408335D01*
G75*
G02*
X92992824Y-76456729I128578J-176972D01*
G01*
X93249980Y-76810673D01*
G75*
G02*
X93201586Y-77116223I-176972J-128578D01*
G01*
G37*
G36*
G01*
X94127348Y-78390426D02*
X93712726Y-78691665D01*
G75*
G02*
X93407176Y-78643271I-128578J176972D01*
G01*
X93150020Y-78289327D01*
G75*
G02*
X93198414Y-77983777I176972J128578D01*
G01*
X93613036Y-77682537D01*
G75*
G02*
X93918586Y-77730931I128578J-176972D01*
G01*
X94175742Y-78084875D01*
G75*
G02*
X94127348Y-78390425I-176972J-128578D01*
G01*
G37*
%TD*%
%TO.C,C9*%
G36*
G01*
X104312500Y-79106250D02*
X104312500Y-78593750D01*
G75*
G02*
X104531250Y-78375000I218750J0D01*
G01*
X104968750Y-78375000D01*
G75*
G02*
X105187500Y-78593750I0J-218750D01*
G01*
X105187500Y-79106250D01*
G75*
G02*
X104968750Y-79325000I-218750J0D01*
G01*
X104531250Y-79325000D01*
G75*
G02*
X104312500Y-79106250I0J218750D01*
G01*
G37*
G36*
G01*
X102737500Y-79106250D02*
X102737500Y-78593750D01*
G75*
G02*
X102956250Y-78375000I218750J0D01*
G01*
X103393750Y-78375000D01*
G75*
G02*
X103612500Y-78593750I0J-218750D01*
G01*
X103612500Y-79106250D01*
G75*
G02*
X103393750Y-79325000I-218750J0D01*
G01*
X102956250Y-79325000D01*
G75*
G02*
X102737500Y-79106250I0J218750D01*
G01*
G37*
%TD*%
%TO.C,C10*%
G36*
G01*
X102737500Y-80806250D02*
X102737500Y-80293750D01*
G75*
G02*
X102956250Y-80075000I218750J0D01*
G01*
X103393750Y-80075000D01*
G75*
G02*
X103612500Y-80293750I0J-218750D01*
G01*
X103612500Y-80806250D01*
G75*
G02*
X103393750Y-81025000I-218750J0D01*
G01*
X102956250Y-81025000D01*
G75*
G02*
X102737500Y-80806250I0J218750D01*
G01*
G37*
G36*
G01*
X104312500Y-80806250D02*
X104312500Y-80293750D01*
G75*
G02*
X104531250Y-80075000I218750J0D01*
G01*
X104968750Y-80075000D01*
G75*
G02*
X105187500Y-80293750I0J-218750D01*
G01*
X105187500Y-80806250D01*
G75*
G02*
X104968750Y-81025000I-218750J0D01*
G01*
X104531250Y-81025000D01*
G75*
G02*
X104312500Y-80806250I0J218750D01*
G01*
G37*
%TD*%
%TO.C,C11*%
G36*
G01*
X89367244Y-92334419D02*
X89110994Y-91890581D01*
G75*
G02*
X89191062Y-91591763I189443J109375D01*
G01*
X89569948Y-91373013D01*
G75*
G02*
X89868766Y-91453081I109375J-189443D01*
G01*
X90125016Y-91896919D01*
G75*
G02*
X90044948Y-92195737I-189443J-109375D01*
G01*
X89666062Y-92414487D01*
G75*
G02*
X89367244Y-92334419I-109375J189443D01*
G01*
G37*
G36*
G01*
X90731234Y-91546919D02*
X90474984Y-91103081D01*
G75*
G02*
X90555052Y-90804263I189443J109375D01*
G01*
X90933938Y-90585513D01*
G75*
G02*
X91232756Y-90665581I109375J-189443D01*
G01*
X91489006Y-91109419D01*
G75*
G02*
X91408938Y-91408237I-189443J-109375D01*
G01*
X91030052Y-91626987D01*
G75*
G02*
X90731234Y-91546919I-109375J189443D01*
G01*
G37*
%TD*%
%TO.C,C12*%
G36*
G01*
X86199239Y-100340669D02*
X85942989Y-99896831D01*
G75*
G02*
X86023057Y-99598013I189443J109375D01*
G01*
X86401943Y-99379263D01*
G75*
G02*
X86700761Y-99459331I109375J-189443D01*
G01*
X86957011Y-99903169D01*
G75*
G02*
X86876943Y-100201987I-189443J-109375D01*
G01*
X86498057Y-100420737D01*
G75*
G02*
X86199239Y-100340669I-109375J189443D01*
G01*
G37*
G36*
G01*
X84835249Y-101128169D02*
X84578999Y-100684331D01*
G75*
G02*
X84659067Y-100385513I189443J109375D01*
G01*
X85037953Y-100166763D01*
G75*
G02*
X85336771Y-100246831I109375J-189443D01*
G01*
X85593021Y-100690669D01*
G75*
G02*
X85512953Y-100989487I-189443J-109375D01*
G01*
X85134067Y-101208237D01*
G75*
G02*
X84835249Y-101128169I-109375J189443D01*
G01*
G37*
%TD*%
%TO.C,C13*%
G36*
G01*
X93751586Y-94566224D02*
X93336964Y-94867463D01*
G75*
G02*
X93031414Y-94819069I-128578J176972D01*
G01*
X92774258Y-94465125D01*
G75*
G02*
X92822652Y-94159575I176972J128578D01*
G01*
X93237274Y-93858335D01*
G75*
G02*
X93542824Y-93906729I128578J-176972D01*
G01*
X93799980Y-94260673D01*
G75*
G02*
X93751586Y-94566223I-176972J-128578D01*
G01*
G37*
G36*
G01*
X94677348Y-95840426D02*
X94262726Y-96141665D01*
G75*
G02*
X93957176Y-96093271I-128578J176972D01*
G01*
X93700020Y-95739327D01*
G75*
G02*
X93748414Y-95433777I176972J128578D01*
G01*
X94163036Y-95132537D01*
G75*
G02*
X94468586Y-95180931I128578J-176972D01*
G01*
X94725742Y-95534875D01*
G75*
G02*
X94677348Y-95840425I-176972J-128578D01*
G01*
G37*
%TD*%
%TO.C,C14*%
G36*
G01*
X100349239Y-93940669D02*
X100092989Y-93496831D01*
G75*
G02*
X100173057Y-93198013I189443J109375D01*
G01*
X100551943Y-92979263D01*
G75*
G02*
X100850761Y-93059331I109375J-189443D01*
G01*
X101107011Y-93503169D01*
G75*
G02*
X101026943Y-93801987I-189443J-109375D01*
G01*
X100648057Y-94020737D01*
G75*
G02*
X100349239Y-93940669I-109375J189443D01*
G01*
G37*
G36*
G01*
X101713229Y-93153169D02*
X101456979Y-92709331D01*
G75*
G02*
X101537047Y-92410513I189443J109375D01*
G01*
X101915933Y-92191763D01*
G75*
G02*
X102214751Y-92271831I109375J-189443D01*
G01*
X102471001Y-92715669D01*
G75*
G02*
X102390933Y-93014487I-189443J-109375D01*
G01*
X102012047Y-93233237D01*
G75*
G02*
X101713229Y-93153169I-109375J189443D01*
G01*
G37*
%TD*%
%TO.C,D1*%
G36*
X82130385Y-95281347D02*
G01*
X83169615Y-94681347D01*
X83619615Y-95460769D01*
X82580385Y-96060769D01*
X82130385Y-95281347D01*
G37*
G36*
X83780385Y-98139231D02*
G01*
X84819615Y-97539231D01*
X85269615Y-98318653D01*
X84230385Y-98918653D01*
X83780385Y-98139231D01*
G37*
%TD*%
%TO.C,J17*%
G36*
X80578401Y-101661187D02*
G01*
X80825614Y-102422032D01*
X80445191Y-102545639D01*
X80197978Y-101784794D01*
X80578401Y-101661187D01*
G37*
G36*
X79156922Y-97286327D02*
G01*
X79404135Y-98047172D01*
X79023712Y-98170779D01*
X78776499Y-97409934D01*
X79156922Y-97286327D01*
G37*
G36*
X77254809Y-97904361D02*
G01*
X77502022Y-98665206D01*
X77121599Y-98788813D01*
X76874386Y-98027968D01*
X77254809Y-97904361D01*
G37*
G36*
X78676288Y-102279221D02*
G01*
X78923501Y-103040066D01*
X78543078Y-103163673D01*
X78295865Y-102402828D01*
X78676288Y-102279221D01*
G37*
%TD*%
%TO.C,J19*%
G36*
X86149494Y-80717122D02*
G01*
X87266286Y-82254254D01*
X85850506Y-83282878D01*
X84733714Y-81745746D01*
X86149494Y-80717122D01*
G37*
G36*
X88743990Y-82416707D02*
G01*
X89566889Y-83549331D01*
X89243282Y-83784445D01*
X88420383Y-82651821D01*
X88743990Y-82416707D01*
G37*
G36*
X89269851Y-82034647D02*
G01*
X90092750Y-83167271D01*
X89769143Y-83402385D01*
X88946244Y-82269761D01*
X89269851Y-82034647D01*
G37*
G36*
X87166407Y-83562888D02*
G01*
X87989306Y-84695512D01*
X87665699Y-84930626D01*
X86842800Y-83798002D01*
X87166407Y-83562888D01*
G37*
G36*
X87692268Y-83180828D02*
G01*
X88515167Y-84313452D01*
X88191560Y-84548566D01*
X87368661Y-83415942D01*
X87692268Y-83180828D01*
G37*
G36*
X88218129Y-82798768D02*
G01*
X89041028Y-83931392D01*
X88717421Y-84166506D01*
X87894522Y-83033882D01*
X88218129Y-82798768D01*
G37*
G36*
X87969782Y-79394605D02*
G01*
X89086574Y-80931737D01*
X87670794Y-81960361D01*
X86554002Y-80423229D01*
X87969782Y-79394605D01*
G37*
G36*
X86383025Y-83581997D02*
G01*
X87235314Y-84755072D01*
X86304945Y-85431025D01*
X85452656Y-84257950D01*
X86383025Y-83581997D01*
G37*
G36*
X90136864Y-80854674D02*
G01*
X90989153Y-82027749D01*
X90058784Y-82703702D01*
X89206495Y-81530627D01*
X90136864Y-80854674D01*
G37*
%TD*%
%TO.C,L1*%
G36*
G01*
X87835859Y-104377746D02*
X87994230Y-104865163D01*
G75*
G02*
X87853783Y-105140804I-208044J-67597D01*
G01*
X87437696Y-105275999D01*
G75*
G02*
X87162055Y-105135552I-67597J208044D01*
G01*
X87003684Y-104648135D01*
G75*
G02*
X87144131Y-104372494I208044J67597D01*
G01*
X87560218Y-104237299D01*
G75*
G02*
X87835859Y-104377746I67597J-208044D01*
G01*
G37*
G36*
G01*
X86337945Y-104864448D02*
X86496316Y-105351865D01*
G75*
G02*
X86355869Y-105627506I-208044J-67597D01*
G01*
X85939782Y-105762701D01*
G75*
G02*
X85664141Y-105622254I-67597J208044D01*
G01*
X85505770Y-105134837D01*
G75*
G02*
X85646217Y-104859196I208044J67597D01*
G01*
X86062304Y-104724001D01*
G75*
G02*
X86337945Y-104864448I67597J-208044D01*
G01*
G37*
%TD*%
%TO.C,Q1*%
G36*
X111771056Y-83988110D02*
G01*
X111300828Y-83340897D01*
X112028944Y-82811890D01*
X112499172Y-83459103D01*
X111771056Y-83988110D01*
G37*
G36*
X110711418Y-85932246D02*
G01*
X110241190Y-85285033D01*
X110969306Y-84756026D01*
X111439534Y-85403239D01*
X110711418Y-85932246D01*
G37*
G36*
X109594626Y-84395114D02*
G01*
X109124398Y-83747901D01*
X109852514Y-83218894D01*
X110322742Y-83866107D01*
X109594626Y-84395114D01*
G37*
%TD*%
%TO.C,Q2*%
G36*
X111595420Y-91100453D02*
G01*
X112391038Y-91016830D01*
X112485114Y-91911899D01*
X111689496Y-91995522D01*
X111595420Y-91100453D01*
G37*
G36*
X109705829Y-91299057D02*
G01*
X110501447Y-91215434D01*
X110595523Y-92110503D01*
X109799905Y-92194126D01*
X109705829Y-91299057D01*
G37*
G36*
X110859681Y-93188799D02*
G01*
X111655299Y-93105176D01*
X111749375Y-94000245D01*
X110953757Y-94083868D01*
X110859681Y-93188799D01*
G37*
%TD*%
D11*
%TO.C,Q3*%
X83400000Y-91850000D03*
X83400000Y-89950000D03*
X81400000Y-90900000D03*
%TD*%
%TO.C,Q4*%
X85400000Y-90900000D03*
X87400000Y-89950000D03*
X87400000Y-91850000D03*
%TD*%
%TO.C,R1*%
G36*
G01*
X83169428Y-108836590D02*
X83656845Y-108678219D01*
G75*
G02*
X83932486Y-108818666I67597J-208044D01*
G01*
X84067681Y-109234753D01*
G75*
G02*
X83927234Y-109510394I-208044J-67597D01*
G01*
X83439817Y-109668765D01*
G75*
G02*
X83164176Y-109528318I-67597J208044D01*
G01*
X83028981Y-109112231D01*
G75*
G02*
X83169428Y-108836590I208044J67597D01*
G01*
G37*
G36*
G01*
X82682726Y-107338676D02*
X83170143Y-107180305D01*
G75*
G02*
X83445784Y-107320752I67597J-208044D01*
G01*
X83580979Y-107736839D01*
G75*
G02*
X83440532Y-108012480I-208044J-67597D01*
G01*
X82953115Y-108170851D01*
G75*
G02*
X82677474Y-108030404I-67597J208044D01*
G01*
X82542279Y-107614317D01*
G75*
G02*
X82682726Y-107338676I208044J67597D01*
G01*
G37*
%TD*%
%TO.C,R2*%
G36*
G01*
X94676864Y-119646316D02*
X94189448Y-119487945D01*
G75*
G02*
X94049001Y-119212304I67597J208044D01*
G01*
X94184196Y-118796217D01*
G75*
G02*
X94459837Y-118655770I208044J-67597D01*
G01*
X94947254Y-118814141D01*
G75*
G02*
X95087701Y-119089782I-67597J-208044D01*
G01*
X94952506Y-119505869D01*
G75*
G02*
X94676865Y-119646316I-208044J67597D01*
G01*
G37*
G36*
G01*
X94190162Y-121144230D02*
X93702746Y-120985859D01*
G75*
G02*
X93562299Y-120710218I67597J208044D01*
G01*
X93697494Y-120294131D01*
G75*
G02*
X93973135Y-120153684I208044J-67597D01*
G01*
X94460552Y-120312055D01*
G75*
G02*
X94600999Y-120587696I-67597J-208044D01*
G01*
X94465804Y-121003783D01*
G75*
G02*
X94190163Y-121144230I-208044J67597D01*
G01*
G37*
%TD*%
%TO.C,R3*%
G36*
G01*
X108740426Y-84172652D02*
X109041665Y-84587274D01*
G75*
G02*
X108993271Y-84892824I-176972J-128578D01*
G01*
X108639327Y-85149980D01*
G75*
G02*
X108333777Y-85101586I-128578J176972D01*
G01*
X108032537Y-84686964D01*
G75*
G02*
X108080931Y-84381414I176972J128578D01*
G01*
X108434875Y-84124258D01*
G75*
G02*
X108740425Y-84172652I128578J-176972D01*
G01*
G37*
G36*
G01*
X107466224Y-85098414D02*
X107767463Y-85513036D01*
G75*
G02*
X107719069Y-85818586I-176972J-128578D01*
G01*
X107365125Y-86075742D01*
G75*
G02*
X107059575Y-86027348I-128578J176972D01*
G01*
X106758335Y-85612726D01*
G75*
G02*
X106806729Y-85307176I176972J128578D01*
G01*
X107160673Y-85050020D01*
G75*
G02*
X107466223Y-85098414I128578J-176972D01*
G01*
G37*
%TD*%
%TO.C,R4*%
G36*
G01*
X111156250Y-88550000D02*
X110643750Y-88550000D01*
G75*
G02*
X110425000Y-88331250I0J218750D01*
G01*
X110425000Y-87893750D01*
G75*
G02*
X110643750Y-87675000I218750J0D01*
G01*
X111156250Y-87675000D01*
G75*
G02*
X111375000Y-87893750I0J-218750D01*
G01*
X111375000Y-88331250D01*
G75*
G02*
X111156250Y-88550000I-218750J0D01*
G01*
G37*
G36*
G01*
X111156250Y-90125000D02*
X110643750Y-90125000D01*
G75*
G02*
X110425000Y-89906250I0J218750D01*
G01*
X110425000Y-89468750D01*
G75*
G02*
X110643750Y-89250000I218750J0D01*
G01*
X111156250Y-89250000D01*
G75*
G02*
X111375000Y-89468750I0J-218750D01*
G01*
X111375000Y-89906250D01*
G75*
G02*
X111156250Y-90125000I-218750J0D01*
G01*
G37*
%TD*%
%TO.C,R7*%
G36*
G01*
X103415930Y-92830477D02*
X103159680Y-92386639D01*
G75*
G02*
X103239748Y-92087821I189443J109375D01*
G01*
X103618634Y-91869071D01*
G75*
G02*
X103917452Y-91949139I109375J-189443D01*
G01*
X104173702Y-92392977D01*
G75*
G02*
X104093634Y-92691795I-189443J-109375D01*
G01*
X103714748Y-92910545D01*
G75*
G02*
X103415930Y-92830477I-109375J189443D01*
G01*
G37*
G36*
G01*
X104779920Y-92042977D02*
X104523670Y-91599139D01*
G75*
G02*
X104603738Y-91300321I189443J109375D01*
G01*
X104982624Y-91081571D01*
G75*
G02*
X105281442Y-91161639I109375J-189443D01*
G01*
X105537692Y-91605477D01*
G75*
G02*
X105457624Y-91904295I-189443J-109375D01*
G01*
X105078738Y-92123045D01*
G75*
G02*
X104779920Y-92042977I-109375J189443D01*
G01*
G37*
%TD*%
%TO.C,R8*%
G36*
G01*
X106064751Y-92521831D02*
X106321001Y-92965669D01*
G75*
G02*
X106240933Y-93264487I-189443J-109375D01*
G01*
X105862047Y-93483237D01*
G75*
G02*
X105563229Y-93403169I-109375J189443D01*
G01*
X105306979Y-92959331D01*
G75*
G02*
X105387047Y-92660513I189443J109375D01*
G01*
X105765933Y-92441763D01*
G75*
G02*
X106064751Y-92521831I109375J-189443D01*
G01*
G37*
G36*
G01*
X104700761Y-93309331D02*
X104957011Y-93753169D01*
G75*
G02*
X104876943Y-94051987I-189443J-109375D01*
G01*
X104498057Y-94270737D01*
G75*
G02*
X104199239Y-94190669I-109375J189443D01*
G01*
X103942989Y-93746831D01*
G75*
G02*
X104023057Y-93448013I189443J109375D01*
G01*
X104401943Y-93229263D01*
G75*
G02*
X104700761Y-93309331I109375J-189443D01*
G01*
G37*
%TD*%
%TO.C,R9*%
G36*
G01*
X92298414Y-87833776D02*
X92713036Y-87532537D01*
G75*
G02*
X93018586Y-87580931I128578J-176972D01*
G01*
X93275742Y-87934875D01*
G75*
G02*
X93227348Y-88240425I-176972J-128578D01*
G01*
X92812726Y-88541665D01*
G75*
G02*
X92507176Y-88493271I-128578J176972D01*
G01*
X92250020Y-88139327D01*
G75*
G02*
X92298414Y-87833777I176972J128578D01*
G01*
G37*
G36*
G01*
X91372652Y-86559574D02*
X91787274Y-86258335D01*
G75*
G02*
X92092824Y-86306729I128578J-176972D01*
G01*
X92349980Y-86660673D01*
G75*
G02*
X92301586Y-86966223I-176972J-128578D01*
G01*
X91886964Y-87267463D01*
G75*
G02*
X91581414Y-87219069I-128578J176972D01*
G01*
X91324258Y-86865125D01*
G75*
G02*
X91372652Y-86559575I176972J128578D01*
G01*
G37*
%TD*%
%TO.C,U1*%
G36*
G01*
X95305612Y-100088740D02*
X95232138Y-99987613D01*
G75*
G02*
X95245965Y-99900312I50564J36737D01*
G01*
X95792052Y-99503557D01*
G75*
G02*
X95879353Y-99517384I36737J-50564D01*
G01*
X95952826Y-99618511D01*
G75*
G02*
X95938999Y-99705812I-50564J-36737D01*
G01*
X95392912Y-100102567D01*
G75*
G02*
X95305611Y-100088740I-36737J50564D01*
G01*
G37*
G36*
G01*
X95599505Y-100493249D02*
X95526031Y-100392122D01*
G75*
G02*
X95539858Y-100304821I50564J36737D01*
G01*
X96085945Y-99908066D01*
G75*
G02*
X96173246Y-99921893I36737J-50564D01*
G01*
X96246719Y-100023020D01*
G75*
G02*
X96232892Y-100110321I-50564J-36737D01*
G01*
X95686805Y-100507076D01*
G75*
G02*
X95599504Y-100493249I-36737J50564D01*
G01*
G37*
G36*
G01*
X95893397Y-100897757D02*
X95819923Y-100796630D01*
G75*
G02*
X95833750Y-100709329I50564J36737D01*
G01*
X96379837Y-100312574D01*
G75*
G02*
X96467138Y-100326401I36737J-50564D01*
G01*
X96540611Y-100427528D01*
G75*
G02*
X96526784Y-100514829I-50564J-36737D01*
G01*
X95980697Y-100911584D01*
G75*
G02*
X95893396Y-100897757I-36737J50564D01*
G01*
G37*
G36*
G01*
X96187290Y-101302266D02*
X96113816Y-101201139D01*
G75*
G02*
X96127643Y-101113838I50564J36737D01*
G01*
X96673730Y-100717083D01*
G75*
G02*
X96761031Y-100730910I36737J-50564D01*
G01*
X96834504Y-100832037D01*
G75*
G02*
X96820677Y-100919338I-50564J-36737D01*
G01*
X96274590Y-101316093D01*
G75*
G02*
X96187289Y-101302266I-36737J50564D01*
G01*
G37*
G36*
G01*
X96481182Y-101706774D02*
X96407708Y-101605647D01*
G75*
G02*
X96421535Y-101518346I50564J36737D01*
G01*
X96967622Y-101121591D01*
G75*
G02*
X97054923Y-101135418I36737J-50564D01*
G01*
X97128396Y-101236545D01*
G75*
G02*
X97114569Y-101323846I-50564J-36737D01*
G01*
X96568482Y-101720601D01*
G75*
G02*
X96481181Y-101706774I-36737J50564D01*
G01*
G37*
G36*
G01*
X96775075Y-102111283D02*
X96701601Y-102010156D01*
G75*
G02*
X96715428Y-101922855I50564J36737D01*
G01*
X97261515Y-101526100D01*
G75*
G02*
X97348816Y-101539927I36737J-50564D01*
G01*
X97422289Y-101641054D01*
G75*
G02*
X97408462Y-101728355I-50564J-36737D01*
G01*
X96862375Y-102125110D01*
G75*
G02*
X96775074Y-102111283I-36737J50564D01*
G01*
G37*
G36*
G01*
X97068968Y-102515791D02*
X96995494Y-102414664D01*
G75*
G02*
X97009321Y-102327363I50564J36737D01*
G01*
X97555408Y-101930608D01*
G75*
G02*
X97642709Y-101944435I36737J-50564D01*
G01*
X97716182Y-102045562D01*
G75*
G02*
X97702355Y-102132863I-50564J-36737D01*
G01*
X97156268Y-102529618D01*
G75*
G02*
X97068967Y-102515791I-36737J50564D01*
G01*
G37*
G36*
G01*
X97362860Y-102920300D02*
X97289386Y-102819173D01*
G75*
G02*
X97303213Y-102731872I50564J36737D01*
G01*
X97849300Y-102335117D01*
G75*
G02*
X97936601Y-102348944I36737J-50564D01*
G01*
X98010074Y-102450071D01*
G75*
G02*
X97996247Y-102537372I-50564J-36737D01*
G01*
X97450160Y-102934127D01*
G75*
G02*
X97362859Y-102920300I-36737J50564D01*
G01*
G37*
G36*
G01*
X97656753Y-103324808D02*
X97583279Y-103223681D01*
G75*
G02*
X97597106Y-103136380I50564J36737D01*
G01*
X98143193Y-102739625D01*
G75*
G02*
X98230494Y-102753452I36737J-50564D01*
G01*
X98303967Y-102854579D01*
G75*
G02*
X98290140Y-102941880I-50564J-36737D01*
G01*
X97744053Y-103338635D01*
G75*
G02*
X97656752Y-103324808I-36737J50564D01*
G01*
G37*
G36*
G01*
X97950646Y-103729317D02*
X97877172Y-103628190D01*
G75*
G02*
X97890999Y-103540889I50564J36737D01*
G01*
X98437086Y-103144134D01*
G75*
G02*
X98524387Y-103157961I36737J-50564D01*
G01*
X98597860Y-103259088D01*
G75*
G02*
X98584033Y-103346389I-50564J-36737D01*
G01*
X98037946Y-103743144D01*
G75*
G02*
X97950645Y-103729317I-36737J50564D01*
G01*
G37*
G36*
G01*
X98244538Y-104133825D02*
X98171064Y-104032698D01*
G75*
G02*
X98184891Y-103945397I50564J36737D01*
G01*
X98730978Y-103548642D01*
G75*
G02*
X98818279Y-103562469I36737J-50564D01*
G01*
X98891752Y-103663596D01*
G75*
G02*
X98877925Y-103750897I-50564J-36737D01*
G01*
X98331838Y-104147652D01*
G75*
G02*
X98244537Y-104133825I-36737J50564D01*
G01*
G37*
G36*
G01*
X98538431Y-104538334D02*
X98464957Y-104437207D01*
G75*
G02*
X98478784Y-104349906I50564J36737D01*
G01*
X99024871Y-103953151D01*
G75*
G02*
X99112172Y-103966978I36737J-50564D01*
G01*
X99185645Y-104068105D01*
G75*
G02*
X99171818Y-104155406I-50564J-36737D01*
G01*
X98625731Y-104552161D01*
G75*
G02*
X98538430Y-104538334I-36737J50564D01*
G01*
G37*
G36*
G01*
X99900312Y-104754034D02*
X99503557Y-104207948D01*
G75*
G02*
X99517384Y-104120647I50564J36737D01*
G01*
X99618511Y-104047174D01*
G75*
G02*
X99705812Y-104061001I36737J-50564D01*
G01*
X100102567Y-104607088D01*
G75*
G02*
X100088740Y-104694389I-50564J-36737D01*
G01*
X99987613Y-104767862D01*
G75*
G02*
X99900312Y-104754035I-36737J50564D01*
G01*
G37*
G36*
G01*
X100304821Y-104460141D02*
X99908066Y-103914055D01*
G75*
G02*
X99921893Y-103826754I50564J36737D01*
G01*
X100023020Y-103753281D01*
G75*
G02*
X100110321Y-103767108I36737J-50564D01*
G01*
X100507076Y-104313195D01*
G75*
G02*
X100493249Y-104400496I-50564J-36737D01*
G01*
X100392122Y-104473969D01*
G75*
G02*
X100304821Y-104460142I-36737J50564D01*
G01*
G37*
G36*
G01*
X100709329Y-104166249D02*
X100312574Y-103620163D01*
G75*
G02*
X100326401Y-103532862I50564J36737D01*
G01*
X100427528Y-103459389D01*
G75*
G02*
X100514829Y-103473216I36737J-50564D01*
G01*
X100911584Y-104019303D01*
G75*
G02*
X100897757Y-104106604I-50564J-36737D01*
G01*
X100796630Y-104180077D01*
G75*
G02*
X100709329Y-104166250I-36737J50564D01*
G01*
G37*
G36*
G01*
X101113838Y-103872356D02*
X100717083Y-103326270D01*
G75*
G02*
X100730910Y-103238969I50564J36737D01*
G01*
X100832037Y-103165496D01*
G75*
G02*
X100919338Y-103179323I36737J-50564D01*
G01*
X101316093Y-103725410D01*
G75*
G02*
X101302266Y-103812711I-50564J-36737D01*
G01*
X101201139Y-103886184D01*
G75*
G02*
X101113838Y-103872357I-36737J50564D01*
G01*
G37*
G36*
G01*
X101518346Y-103578464D02*
X101121591Y-103032378D01*
G75*
G02*
X101135418Y-102945077I50564J36737D01*
G01*
X101236545Y-102871604D01*
G75*
G02*
X101323846Y-102885431I36737J-50564D01*
G01*
X101720601Y-103431518D01*
G75*
G02*
X101706774Y-103518819I-50564J-36737D01*
G01*
X101605647Y-103592292D01*
G75*
G02*
X101518346Y-103578465I-36737J50564D01*
G01*
G37*
G36*
G01*
X101922855Y-103284571D02*
X101526100Y-102738485D01*
G75*
G02*
X101539927Y-102651184I50564J36737D01*
G01*
X101641054Y-102577711D01*
G75*
G02*
X101728355Y-102591538I36737J-50564D01*
G01*
X102125110Y-103137625D01*
G75*
G02*
X102111283Y-103224926I-50564J-36737D01*
G01*
X102010156Y-103298399D01*
G75*
G02*
X101922855Y-103284572I-36737J50564D01*
G01*
G37*
G36*
G01*
X102327363Y-102990678D02*
X101930608Y-102444592D01*
G75*
G02*
X101944435Y-102357291I50564J36737D01*
G01*
X102045562Y-102283818D01*
G75*
G02*
X102132863Y-102297645I36737J-50564D01*
G01*
X102529618Y-102843732D01*
G75*
G02*
X102515791Y-102931033I-50564J-36737D01*
G01*
X102414664Y-103004506D01*
G75*
G02*
X102327363Y-102990679I-36737J50564D01*
G01*
G37*
G36*
G01*
X102731872Y-102696786D02*
X102335117Y-102150700D01*
G75*
G02*
X102348944Y-102063399I50564J36737D01*
G01*
X102450071Y-101989926D01*
G75*
G02*
X102537372Y-102003753I36737J-50564D01*
G01*
X102934127Y-102549840D01*
G75*
G02*
X102920300Y-102637141I-50564J-36737D01*
G01*
X102819173Y-102710614D01*
G75*
G02*
X102731872Y-102696787I-36737J50564D01*
G01*
G37*
G36*
G01*
X103136380Y-102402893D02*
X102739625Y-101856807D01*
G75*
G02*
X102753452Y-101769506I50564J36737D01*
G01*
X102854579Y-101696033D01*
G75*
G02*
X102941880Y-101709860I36737J-50564D01*
G01*
X103338635Y-102255947D01*
G75*
G02*
X103324808Y-102343248I-50564J-36737D01*
G01*
X103223681Y-102416721D01*
G75*
G02*
X103136380Y-102402894I-36737J50564D01*
G01*
G37*
G36*
G01*
X103540889Y-102109000D02*
X103144134Y-101562914D01*
G75*
G02*
X103157961Y-101475613I50564J36737D01*
G01*
X103259088Y-101402140D01*
G75*
G02*
X103346389Y-101415967I36737J-50564D01*
G01*
X103743144Y-101962054D01*
G75*
G02*
X103729317Y-102049355I-50564J-36737D01*
G01*
X103628190Y-102122828D01*
G75*
G02*
X103540889Y-102109001I-36737J50564D01*
G01*
G37*
G36*
G01*
X103945397Y-101815108D02*
X103548642Y-101269022D01*
G75*
G02*
X103562469Y-101181721I50564J36737D01*
G01*
X103663596Y-101108248D01*
G75*
G02*
X103750897Y-101122075I36737J-50564D01*
G01*
X104147652Y-101668162D01*
G75*
G02*
X104133825Y-101755463I-50564J-36737D01*
G01*
X104032698Y-101828936D01*
G75*
G02*
X103945397Y-101815109I-36737J50564D01*
G01*
G37*
G36*
G01*
X104349906Y-101521215D02*
X103953151Y-100975129D01*
G75*
G02*
X103966978Y-100887828I50564J36737D01*
G01*
X104068105Y-100814355D01*
G75*
G02*
X104155406Y-100828182I36737J-50564D01*
G01*
X104552161Y-101374269D01*
G75*
G02*
X104538334Y-101461570I-50564J-36737D01*
G01*
X104437207Y-101535043D01*
G75*
G02*
X104349906Y-101521216I-36737J50564D01*
G01*
G37*
G36*
G01*
X104120648Y-100482616D02*
X104047174Y-100381489D01*
G75*
G02*
X104061001Y-100294188I50564J36737D01*
G01*
X104607088Y-99897433D01*
G75*
G02*
X104694389Y-99911260I36737J-50564D01*
G01*
X104767862Y-100012387D01*
G75*
G02*
X104754035Y-100099688I-50564J-36737D01*
G01*
X104207948Y-100496443D01*
G75*
G02*
X104120647Y-100482616I-36737J50564D01*
G01*
G37*
G36*
G01*
X103826755Y-100078107D02*
X103753281Y-99976980D01*
G75*
G02*
X103767108Y-99889679I50564J36737D01*
G01*
X104313195Y-99492924D01*
G75*
G02*
X104400496Y-99506751I36737J-50564D01*
G01*
X104473969Y-99607878D01*
G75*
G02*
X104460142Y-99695179I-50564J-36737D01*
G01*
X103914055Y-100091934D01*
G75*
G02*
X103826754Y-100078107I-36737J50564D01*
G01*
G37*
G36*
G01*
X103532863Y-99673599D02*
X103459389Y-99572472D01*
G75*
G02*
X103473216Y-99485171I50564J36737D01*
G01*
X104019303Y-99088416D01*
G75*
G02*
X104106604Y-99102243I36737J-50564D01*
G01*
X104180077Y-99203370D01*
G75*
G02*
X104166250Y-99290671I-50564J-36737D01*
G01*
X103620163Y-99687426D01*
G75*
G02*
X103532862Y-99673599I-36737J50564D01*
G01*
G37*
G36*
G01*
X103238970Y-99269090D02*
X103165496Y-99167963D01*
G75*
G02*
X103179323Y-99080662I50564J36737D01*
G01*
X103725410Y-98683907D01*
G75*
G02*
X103812711Y-98697734I36737J-50564D01*
G01*
X103886184Y-98798861D01*
G75*
G02*
X103872357Y-98886162I-50564J-36737D01*
G01*
X103326270Y-99282917D01*
G75*
G02*
X103238969Y-99269090I-36737J50564D01*
G01*
G37*
G36*
G01*
X102945078Y-98864582D02*
X102871604Y-98763455D01*
G75*
G02*
X102885431Y-98676154I50564J36737D01*
G01*
X103431518Y-98279399D01*
G75*
G02*
X103518819Y-98293226I36737J-50564D01*
G01*
X103592292Y-98394353D01*
G75*
G02*
X103578465Y-98481654I-50564J-36737D01*
G01*
X103032378Y-98878409D01*
G75*
G02*
X102945077Y-98864582I-36737J50564D01*
G01*
G37*
G36*
G01*
X102651185Y-98460073D02*
X102577711Y-98358946D01*
G75*
G02*
X102591538Y-98271645I50564J36737D01*
G01*
X103137625Y-97874890D01*
G75*
G02*
X103224926Y-97888717I36737J-50564D01*
G01*
X103298399Y-97989844D01*
G75*
G02*
X103284572Y-98077145I-50564J-36737D01*
G01*
X102738485Y-98473900D01*
G75*
G02*
X102651184Y-98460073I-36737J50564D01*
G01*
G37*
G36*
G01*
X102357292Y-98055565D02*
X102283818Y-97954438D01*
G75*
G02*
X102297645Y-97867137I50564J36737D01*
G01*
X102843732Y-97470382D01*
G75*
G02*
X102931033Y-97484209I36737J-50564D01*
G01*
X103004506Y-97585336D01*
G75*
G02*
X102990679Y-97672637I-50564J-36737D01*
G01*
X102444592Y-98069392D01*
G75*
G02*
X102357291Y-98055565I-36737J50564D01*
G01*
G37*
G36*
G01*
X102063400Y-97651056D02*
X101989926Y-97549929D01*
G75*
G02*
X102003753Y-97462628I50564J36737D01*
G01*
X102549840Y-97065873D01*
G75*
G02*
X102637141Y-97079700I36737J-50564D01*
G01*
X102710614Y-97180827D01*
G75*
G02*
X102696787Y-97268128I-50564J-36737D01*
G01*
X102150700Y-97664883D01*
G75*
G02*
X102063399Y-97651056I-36737J50564D01*
G01*
G37*
G36*
G01*
X101769507Y-97246548D02*
X101696033Y-97145421D01*
G75*
G02*
X101709860Y-97058120I50564J36737D01*
G01*
X102255947Y-96661365D01*
G75*
G02*
X102343248Y-96675192I36737J-50564D01*
G01*
X102416721Y-96776319D01*
G75*
G02*
X102402894Y-96863620I-50564J-36737D01*
G01*
X101856807Y-97260375D01*
G75*
G02*
X101769506Y-97246548I-36737J50564D01*
G01*
G37*
G36*
G01*
X101475614Y-96842039D02*
X101402140Y-96740912D01*
G75*
G02*
X101415967Y-96653611I50564J36737D01*
G01*
X101962054Y-96256856D01*
G75*
G02*
X102049355Y-96270683I36737J-50564D01*
G01*
X102122828Y-96371810D01*
G75*
G02*
X102109001Y-96459111I-50564J-36737D01*
G01*
X101562914Y-96855866D01*
G75*
G02*
X101475613Y-96842039I-36737J50564D01*
G01*
G37*
G36*
G01*
X101181722Y-96437531D02*
X101108248Y-96336404D01*
G75*
G02*
X101122075Y-96249103I50564J36737D01*
G01*
X101668162Y-95852348D01*
G75*
G02*
X101755463Y-95866175I36737J-50564D01*
G01*
X101828936Y-95967302D01*
G75*
G02*
X101815109Y-96054603I-50564J-36737D01*
G01*
X101269022Y-96451358D01*
G75*
G02*
X101181721Y-96437531I-36737J50564D01*
G01*
G37*
G36*
G01*
X100887829Y-96033022D02*
X100814355Y-95931895D01*
G75*
G02*
X100828182Y-95844594I50564J36737D01*
G01*
X101374269Y-95447839D01*
G75*
G02*
X101461570Y-95461666I36737J-50564D01*
G01*
X101535043Y-95562793D01*
G75*
G02*
X101521216Y-95650094I-50564J-36737D01*
G01*
X100975129Y-96046849D01*
G75*
G02*
X100887828Y-96033022I-36737J50564D01*
G01*
G37*
G36*
G01*
X100294188Y-95938998D02*
X99897433Y-95392912D01*
G75*
G02*
X99911260Y-95305611I50564J36737D01*
G01*
X100012387Y-95232138D01*
G75*
G02*
X100099688Y-95245965I36737J-50564D01*
G01*
X100496443Y-95792052D01*
G75*
G02*
X100482616Y-95879353I-50564J-36737D01*
G01*
X100381489Y-95952826D01*
G75*
G02*
X100294188Y-95938999I-36737J50564D01*
G01*
G37*
G36*
G01*
X99889679Y-96232891D02*
X99492924Y-95686805D01*
G75*
G02*
X99506751Y-95599504I50564J36737D01*
G01*
X99607878Y-95526031D01*
G75*
G02*
X99695179Y-95539858I36737J-50564D01*
G01*
X100091934Y-96085945D01*
G75*
G02*
X100078107Y-96173246I-50564J-36737D01*
G01*
X99976980Y-96246719D01*
G75*
G02*
X99889679Y-96232892I-36737J50564D01*
G01*
G37*
G36*
G01*
X99485171Y-96526783D02*
X99088416Y-95980697D01*
G75*
G02*
X99102243Y-95893396I50564J36737D01*
G01*
X99203370Y-95819923D01*
G75*
G02*
X99290671Y-95833750I36737J-50564D01*
G01*
X99687426Y-96379837D01*
G75*
G02*
X99673599Y-96467138I-50564J-36737D01*
G01*
X99572472Y-96540611D01*
G75*
G02*
X99485171Y-96526784I-36737J50564D01*
G01*
G37*
G36*
G01*
X99080662Y-96820676D02*
X98683907Y-96274590D01*
G75*
G02*
X98697734Y-96187289I50564J36737D01*
G01*
X98798861Y-96113816D01*
G75*
G02*
X98886162Y-96127643I36737J-50564D01*
G01*
X99282917Y-96673730D01*
G75*
G02*
X99269090Y-96761031I-50564J-36737D01*
G01*
X99167963Y-96834504D01*
G75*
G02*
X99080662Y-96820677I-36737J50564D01*
G01*
G37*
G36*
G01*
X98676154Y-97114568D02*
X98279399Y-96568482D01*
G75*
G02*
X98293226Y-96481181I50564J36737D01*
G01*
X98394353Y-96407708D01*
G75*
G02*
X98481654Y-96421535I36737J-50564D01*
G01*
X98878409Y-96967622D01*
G75*
G02*
X98864582Y-97054923I-50564J-36737D01*
G01*
X98763455Y-97128396D01*
G75*
G02*
X98676154Y-97114569I-36737J50564D01*
G01*
G37*
G36*
G01*
X98271645Y-97408461D02*
X97874890Y-96862375D01*
G75*
G02*
X97888717Y-96775074I50564J36737D01*
G01*
X97989844Y-96701601D01*
G75*
G02*
X98077145Y-96715428I36737J-50564D01*
G01*
X98473900Y-97261515D01*
G75*
G02*
X98460073Y-97348816I-50564J-36737D01*
G01*
X98358946Y-97422289D01*
G75*
G02*
X98271645Y-97408462I-36737J50564D01*
G01*
G37*
G36*
G01*
X97867137Y-97702354D02*
X97470382Y-97156268D01*
G75*
G02*
X97484209Y-97068967I50564J36737D01*
G01*
X97585336Y-96995494D01*
G75*
G02*
X97672637Y-97009321I36737J-50564D01*
G01*
X98069392Y-97555408D01*
G75*
G02*
X98055565Y-97642709I-50564J-36737D01*
G01*
X97954438Y-97716182D01*
G75*
G02*
X97867137Y-97702355I-36737J50564D01*
G01*
G37*
G36*
G01*
X97462628Y-97996246D02*
X97065873Y-97450160D01*
G75*
G02*
X97079700Y-97362859I50564J36737D01*
G01*
X97180827Y-97289386D01*
G75*
G02*
X97268128Y-97303213I36737J-50564D01*
G01*
X97664883Y-97849300D01*
G75*
G02*
X97651056Y-97936601I-50564J-36737D01*
G01*
X97549929Y-98010074D01*
G75*
G02*
X97462628Y-97996247I-36737J50564D01*
G01*
G37*
G36*
G01*
X97058120Y-98290139D02*
X96661365Y-97744053D01*
G75*
G02*
X96675192Y-97656752I50564J36737D01*
G01*
X96776319Y-97583279D01*
G75*
G02*
X96863620Y-97597106I36737J-50564D01*
G01*
X97260375Y-98143193D01*
G75*
G02*
X97246548Y-98230494I-50564J-36737D01*
G01*
X97145421Y-98303967D01*
G75*
G02*
X97058120Y-98290140I-36737J50564D01*
G01*
G37*
G36*
G01*
X96653611Y-98584032D02*
X96256856Y-98037946D01*
G75*
G02*
X96270683Y-97950645I50564J36737D01*
G01*
X96371810Y-97877172D01*
G75*
G02*
X96459111Y-97890999I36737J-50564D01*
G01*
X96855866Y-98437086D01*
G75*
G02*
X96842039Y-98524387I-50564J-36737D01*
G01*
X96740912Y-98597860D01*
G75*
G02*
X96653611Y-98584033I-36737J50564D01*
G01*
G37*
G36*
G01*
X96249103Y-98877924D02*
X95852348Y-98331838D01*
G75*
G02*
X95866175Y-98244537I50564J36737D01*
G01*
X95967302Y-98171064D01*
G75*
G02*
X96054603Y-98184891I36737J-50564D01*
G01*
X96451358Y-98730978D01*
G75*
G02*
X96437531Y-98818279I-50564J-36737D01*
G01*
X96336404Y-98891752D01*
G75*
G02*
X96249103Y-98877925I-36737J50564D01*
G01*
G37*
G36*
G01*
X95844594Y-99171817D02*
X95447839Y-98625731D01*
G75*
G02*
X95461666Y-98538430I50564J36737D01*
G01*
X95562793Y-98464957D01*
G75*
G02*
X95650094Y-98478784I36737J-50564D01*
G01*
X96046849Y-99024871D01*
G75*
G02*
X96033022Y-99112172I-50564J-36737D01*
G01*
X95931895Y-99185645D01*
G75*
G02*
X95844594Y-99171818I-36737J50564D01*
G01*
G37*
G36*
G01*
X96969027Y-100106996D02*
X96633989Y-99645856D01*
G75*
G02*
X96689297Y-99296656I202254J146946D01*
G01*
X97150437Y-98961618D01*
G75*
G02*
X97499637Y-99016926I146946J-202254D01*
G01*
X97834675Y-99478066D01*
G75*
G02*
X97779367Y-99827266I-202254J-146946D01*
G01*
X97318227Y-100162304D01*
G75*
G02*
X96969027Y-100106996I-146946J202254D01*
G01*
G37*
G36*
G01*
X97744903Y-101174899D02*
X97409865Y-100713759D01*
G75*
G02*
X97465173Y-100364559I202254J146946D01*
G01*
X97926313Y-100029521D01*
G75*
G02*
X98275513Y-100084829I146946J-202254D01*
G01*
X98610551Y-100545969D01*
G75*
G02*
X98555243Y-100895169I-202254J-146946D01*
G01*
X98094103Y-101230207D01*
G75*
G02*
X97744903Y-101174899I-146946J202254D01*
G01*
G37*
G36*
G01*
X98520780Y-102242801D02*
X98185742Y-101781661D01*
G75*
G02*
X98241050Y-101432461I202254J146946D01*
G01*
X98702190Y-101097423D01*
G75*
G02*
X99051390Y-101152731I146946J-202254D01*
G01*
X99386428Y-101613871D01*
G75*
G02*
X99331120Y-101963071I-202254J-146946D01*
G01*
X98869980Y-102298109D01*
G75*
G02*
X98520780Y-102242801I-146946J202254D01*
G01*
G37*
G36*
G01*
X99296656Y-103310703D02*
X98961618Y-102849563D01*
G75*
G02*
X99016926Y-102500363I202254J146946D01*
G01*
X99478066Y-102165325D01*
G75*
G02*
X99827266Y-102220633I146946J-202254D01*
G01*
X100162304Y-102681773D01*
G75*
G02*
X100106996Y-103030973I-202254J-146946D01*
G01*
X99645856Y-103366011D01*
G75*
G02*
X99296656Y-103310703I-146946J202254D01*
G01*
G37*
G36*
G01*
X98036929Y-99331120D02*
X97701891Y-98869980D01*
G75*
G02*
X97757199Y-98520780I202254J146946D01*
G01*
X98218339Y-98185742D01*
G75*
G02*
X98567539Y-98241050I146946J-202254D01*
G01*
X98902577Y-98702190D01*
G75*
G02*
X98847269Y-99051390I-202254J-146946D01*
G01*
X98386129Y-99386428D01*
G75*
G02*
X98036929Y-99331120I-146946J202254D01*
G01*
G37*
G36*
G01*
X98812806Y-100399022D02*
X98477768Y-99937882D01*
G75*
G02*
X98533076Y-99588682I202254J146946D01*
G01*
X98994216Y-99253644D01*
G75*
G02*
X99343416Y-99308952I146946J-202254D01*
G01*
X99678454Y-99770092D01*
G75*
G02*
X99623146Y-100119292I-202254J-146946D01*
G01*
X99162006Y-100454330D01*
G75*
G02*
X98812806Y-100399022I-146946J202254D01*
G01*
G37*
G36*
G01*
X99588682Y-101466924D02*
X99253644Y-101005784D01*
G75*
G02*
X99308952Y-100656584I202254J146946D01*
G01*
X99770092Y-100321546D01*
G75*
G02*
X100119292Y-100376854I146946J-202254D01*
G01*
X100454330Y-100837994D01*
G75*
G02*
X100399022Y-101187194I-202254J-146946D01*
G01*
X99937882Y-101522232D01*
G75*
G02*
X99588682Y-101466924I-146946J202254D01*
G01*
G37*
G36*
G01*
X100364559Y-102534827D02*
X100029521Y-102073687D01*
G75*
G02*
X100084829Y-101724487I202254J146946D01*
G01*
X100545969Y-101389449D01*
G75*
G02*
X100895169Y-101444757I146946J-202254D01*
G01*
X101230207Y-101905897D01*
G75*
G02*
X101174899Y-102255097I-202254J-146946D01*
G01*
X100713759Y-102590135D01*
G75*
G02*
X100364559Y-102534827I-146946J202254D01*
G01*
G37*
G36*
G01*
X99104831Y-98555243D02*
X98769793Y-98094103D01*
G75*
G02*
X98825101Y-97744903I202254J146946D01*
G01*
X99286241Y-97409865D01*
G75*
G02*
X99635441Y-97465173I146946J-202254D01*
G01*
X99970479Y-97926313D01*
G75*
G02*
X99915171Y-98275513I-202254J-146946D01*
G01*
X99454031Y-98610551D01*
G75*
G02*
X99104831Y-98555243I-146946J202254D01*
G01*
G37*
G36*
G01*
X99880708Y-99623146D02*
X99545670Y-99162006D01*
G75*
G02*
X99600978Y-98812806I202254J146946D01*
G01*
X100062118Y-98477768D01*
G75*
G02*
X100411318Y-98533076I146946J-202254D01*
G01*
X100746356Y-98994216D01*
G75*
G02*
X100691048Y-99343416I-202254J-146946D01*
G01*
X100229908Y-99678454D01*
G75*
G02*
X99880708Y-99623146I-146946J202254D01*
G01*
G37*
G36*
G01*
X100656584Y-100691048D02*
X100321546Y-100229908D01*
G75*
G02*
X100376854Y-99880708I202254J146946D01*
G01*
X100837994Y-99545670D01*
G75*
G02*
X101187194Y-99600978I146946J-202254D01*
G01*
X101522232Y-100062118D01*
G75*
G02*
X101466924Y-100411318I-202254J-146946D01*
G01*
X101005784Y-100746356D01*
G75*
G02*
X100656584Y-100691048I-146946J202254D01*
G01*
G37*
G36*
G01*
X101432461Y-101758950D02*
X101097423Y-101297810D01*
G75*
G02*
X101152731Y-100948610I202254J146946D01*
G01*
X101613871Y-100613572D01*
G75*
G02*
X101963071Y-100668880I146946J-202254D01*
G01*
X102298109Y-101130020D01*
G75*
G02*
X102242801Y-101479220I-202254J-146946D01*
G01*
X101781661Y-101814258D01*
G75*
G02*
X101432461Y-101758950I-146946J202254D01*
G01*
G37*
G36*
G01*
X100172734Y-97779367D02*
X99837696Y-97318227D01*
G75*
G02*
X99893004Y-96969027I202254J146946D01*
G01*
X100354144Y-96633989D01*
G75*
G02*
X100703344Y-96689297I146946J-202254D01*
G01*
X101038382Y-97150437D01*
G75*
G02*
X100983074Y-97499637I-202254J-146946D01*
G01*
X100521934Y-97834675D01*
G75*
G02*
X100172734Y-97779367I-146946J202254D01*
G01*
G37*
G36*
G01*
X100948610Y-98847269D02*
X100613572Y-98386129D01*
G75*
G02*
X100668880Y-98036929I202254J146946D01*
G01*
X101130020Y-97701891D01*
G75*
G02*
X101479220Y-97757199I146946J-202254D01*
G01*
X101814258Y-98218339D01*
G75*
G02*
X101758950Y-98567539I-202254J-146946D01*
G01*
X101297810Y-98902577D01*
G75*
G02*
X100948610Y-98847269I-146946J202254D01*
G01*
G37*
G36*
G01*
X101724487Y-99915171D02*
X101389449Y-99454031D01*
G75*
G02*
X101444757Y-99104831I202254J146946D01*
G01*
X101905897Y-98769793D01*
G75*
G02*
X102255097Y-98825101I146946J-202254D01*
G01*
X102590135Y-99286241D01*
G75*
G02*
X102534827Y-99635441I-202254J-146946D01*
G01*
X102073687Y-99970479D01*
G75*
G02*
X101724487Y-99915171I-146946J202254D01*
G01*
G37*
G36*
G01*
X102500363Y-100983074D02*
X102165325Y-100521934D01*
G75*
G02*
X102220633Y-100172734I202254J146946D01*
G01*
X102681773Y-99837696D01*
G75*
G02*
X103030973Y-99893004I146946J-202254D01*
G01*
X103366011Y-100354144D01*
G75*
G02*
X103310703Y-100703344I-202254J-146946D01*
G01*
X102849563Y-101038382D01*
G75*
G02*
X102500363Y-100983074I-146946J202254D01*
G01*
G37*
%TD*%
D10*
%TO.C,U2*%
G36*
X87898686Y-96680736D02*
G01*
X87205866Y-96280736D01*
X87655866Y-95501314D01*
X88348686Y-95901314D01*
X87898686Y-96680736D01*
G37*
G36*
X89544134Y-97630736D02*
G01*
X88851314Y-97230736D01*
X89301314Y-96451314D01*
X89994134Y-96851314D01*
X89544134Y-97630736D01*
G37*
G36*
X89721410Y-95423686D02*
G01*
X89028590Y-95023686D01*
X89478590Y-94244264D01*
X90171410Y-94644264D01*
X89721410Y-95423686D01*
G37*
%TD*%
%TO.C,U3*%
G36*
G01*
X100203405Y-80158591D02*
X100311659Y-80221090D01*
G75*
G02*
X100334536Y-80306467I-31250J-54127D01*
G01*
X99984536Y-80912685D01*
G75*
G02*
X99899159Y-80935562I-54127J31250D01*
G01*
X99790905Y-80873062D01*
G75*
G02*
X99768028Y-80787685I31250J54127D01*
G01*
X100118028Y-80181467D01*
G75*
G02*
X100203405Y-80158590I54127J-31250D01*
G01*
G37*
G36*
G01*
X99770392Y-79908591D02*
X99878646Y-79971090D01*
G75*
G02*
X99901523Y-80056467I-31250J-54127D01*
G01*
X99551523Y-80662685D01*
G75*
G02*
X99466146Y-80685562I-54127J31250D01*
G01*
X99357892Y-80623062D01*
G75*
G02*
X99335015Y-80537685I31250J54127D01*
G01*
X99685015Y-79931467D01*
G75*
G02*
X99770392Y-79908590I54127J-31250D01*
G01*
G37*
G36*
G01*
X99337379Y-79658591D02*
X99445633Y-79721090D01*
G75*
G02*
X99468510Y-79806467I-31250J-54127D01*
G01*
X99118510Y-80412685D01*
G75*
G02*
X99033133Y-80435562I-54127J31250D01*
G01*
X98924879Y-80373062D01*
G75*
G02*
X98902002Y-80287685I31250J54127D01*
G01*
X99252002Y-79681467D01*
G75*
G02*
X99337379Y-79658590I54127J-31250D01*
G01*
G37*
G36*
G01*
X98904367Y-79408591D02*
X99012621Y-79471090D01*
G75*
G02*
X99035498Y-79556467I-31250J-54127D01*
G01*
X98685498Y-80162685D01*
G75*
G02*
X98600121Y-80185562I-54127J31250D01*
G01*
X98491867Y-80123062D01*
G75*
G02*
X98468990Y-80037685I31250J54127D01*
G01*
X98818990Y-79431467D01*
G75*
G02*
X98904367Y-79408590I54127J-31250D01*
G01*
G37*
G36*
G01*
X98471354Y-79158591D02*
X98579608Y-79221090D01*
G75*
G02*
X98602485Y-79306467I-31250J-54127D01*
G01*
X98252485Y-79912685D01*
G75*
G02*
X98167108Y-79935562I-54127J31250D01*
G01*
X98058854Y-79873062D01*
G75*
G02*
X98035977Y-79787685I31250J54127D01*
G01*
X98385977Y-79181467D01*
G75*
G02*
X98471354Y-79158590I54127J-31250D01*
G01*
G37*
G36*
G01*
X98038341Y-78908591D02*
X98146595Y-78971090D01*
G75*
G02*
X98169472Y-79056467I-31250J-54127D01*
G01*
X97819472Y-79662685D01*
G75*
G02*
X97734095Y-79685562I-54127J31250D01*
G01*
X97625841Y-79623062D01*
G75*
G02*
X97602964Y-79537685I31250J54127D01*
G01*
X97952964Y-78931467D01*
G75*
G02*
X98038341Y-78908590I54127J-31250D01*
G01*
G37*
G36*
G01*
X96706467Y-79265465D02*
X97312685Y-79615464D01*
G75*
G02*
X97335562Y-79700841I-31250J-54127D01*
G01*
X97273062Y-79809095D01*
G75*
G02*
X97187685Y-79831972I-54127J31250D01*
G01*
X96581467Y-79481972D01*
G75*
G02*
X96558590Y-79396595I31250J54127D01*
G01*
X96621090Y-79288341D01*
G75*
G02*
X96706467Y-79265464I54127J-31250D01*
G01*
G37*
G36*
G01*
X96456467Y-79698478D02*
X97062685Y-80048477D01*
G75*
G02*
X97085562Y-80133854I-31250J-54127D01*
G01*
X97023062Y-80242108D01*
G75*
G02*
X96937685Y-80264985I-54127J31250D01*
G01*
X96331467Y-79914985D01*
G75*
G02*
X96308590Y-79829608I31250J54127D01*
G01*
X96371090Y-79721354D01*
G75*
G02*
X96456467Y-79698477I54127J-31250D01*
G01*
G37*
G36*
G01*
X96206467Y-80131491D02*
X96812685Y-80481490D01*
G75*
G02*
X96835562Y-80566867I-31250J-54127D01*
G01*
X96773062Y-80675121D01*
G75*
G02*
X96687685Y-80697998I-54127J31250D01*
G01*
X96081467Y-80347998D01*
G75*
G02*
X96058590Y-80262621I31250J54127D01*
G01*
X96121090Y-80154367D01*
G75*
G02*
X96206467Y-80131490I54127J-31250D01*
G01*
G37*
G36*
G01*
X95956467Y-80564503D02*
X96562685Y-80914502D01*
G75*
G02*
X96585562Y-80999879I-31250J-54127D01*
G01*
X96523062Y-81108133D01*
G75*
G02*
X96437685Y-81131010I-54127J31250D01*
G01*
X95831467Y-80781010D01*
G75*
G02*
X95808590Y-80695633I31250J54127D01*
G01*
X95871090Y-80587379D01*
G75*
G02*
X95956467Y-80564502I54127J-31250D01*
G01*
G37*
G36*
G01*
X95706467Y-80997516D02*
X96312685Y-81347515D01*
G75*
G02*
X96335562Y-81432892I-31250J-54127D01*
G01*
X96273062Y-81541146D01*
G75*
G02*
X96187685Y-81564023I-54127J31250D01*
G01*
X95581467Y-81214023D01*
G75*
G02*
X95558590Y-81128646I31250J54127D01*
G01*
X95621090Y-81020392D01*
G75*
G02*
X95706467Y-80997515I54127J-31250D01*
G01*
G37*
G36*
G01*
X95456467Y-81430529D02*
X96062685Y-81780528D01*
G75*
G02*
X96085562Y-81865905I-31250J-54127D01*
G01*
X96023062Y-81974159D01*
G75*
G02*
X95937685Y-81997036I-54127J31250D01*
G01*
X95331467Y-81647036D01*
G75*
G02*
X95308590Y-81561659I31250J54127D01*
G01*
X95371090Y-81453405D01*
G75*
G02*
X95456467Y-81430528I54127J-31250D01*
G01*
G37*
G36*
G01*
X96100841Y-82264439D02*
X96209095Y-82326938D01*
G75*
G02*
X96231972Y-82412315I-31250J-54127D01*
G01*
X95881972Y-83018533D01*
G75*
G02*
X95796595Y-83041410I-54127J31250D01*
G01*
X95688341Y-82978910D01*
G75*
G02*
X95665464Y-82893533I31250J54127D01*
G01*
X96015464Y-82287315D01*
G75*
G02*
X96100841Y-82264438I54127J-31250D01*
G01*
G37*
G36*
G01*
X96533854Y-82514439D02*
X96642108Y-82576938D01*
G75*
G02*
X96664985Y-82662315I-31250J-54127D01*
G01*
X96314985Y-83268533D01*
G75*
G02*
X96229608Y-83291410I-54127J31250D01*
G01*
X96121354Y-83228910D01*
G75*
G02*
X96098477Y-83143533I31250J54127D01*
G01*
X96448477Y-82537315D01*
G75*
G02*
X96533854Y-82514438I54127J-31250D01*
G01*
G37*
G36*
G01*
X96966867Y-82764439D02*
X97075121Y-82826938D01*
G75*
G02*
X97097998Y-82912315I-31250J-54127D01*
G01*
X96747998Y-83518533D01*
G75*
G02*
X96662621Y-83541410I-54127J31250D01*
G01*
X96554367Y-83478910D01*
G75*
G02*
X96531490Y-83393533I31250J54127D01*
G01*
X96881490Y-82787315D01*
G75*
G02*
X96966867Y-82764438I54127J-31250D01*
G01*
G37*
G36*
G01*
X97399879Y-83014439D02*
X97508133Y-83076938D01*
G75*
G02*
X97531010Y-83162315I-31250J-54127D01*
G01*
X97181010Y-83768533D01*
G75*
G02*
X97095633Y-83791410I-54127J31250D01*
G01*
X96987379Y-83728910D01*
G75*
G02*
X96964502Y-83643533I31250J54127D01*
G01*
X97314502Y-83037315D01*
G75*
G02*
X97399879Y-83014438I54127J-31250D01*
G01*
G37*
G36*
G01*
X97832892Y-83264439D02*
X97941146Y-83326938D01*
G75*
G02*
X97964023Y-83412315I-31250J-54127D01*
G01*
X97614023Y-84018533D01*
G75*
G02*
X97528646Y-84041410I-54127J31250D01*
G01*
X97420392Y-83978910D01*
G75*
G02*
X97397515Y-83893533I31250J54127D01*
G01*
X97747515Y-83287315D01*
G75*
G02*
X97832892Y-83264438I54127J-31250D01*
G01*
G37*
G36*
G01*
X98265905Y-83514439D02*
X98374159Y-83576938D01*
G75*
G02*
X98397036Y-83662315I-31250J-54127D01*
G01*
X98047036Y-84268533D01*
G75*
G02*
X97961659Y-84291410I-54127J31250D01*
G01*
X97853405Y-84228910D01*
G75*
G02*
X97830528Y-84143533I31250J54127D01*
G01*
X98180528Y-83537315D01*
G75*
G02*
X98265905Y-83514438I54127J-31250D01*
G01*
G37*
G36*
G01*
X98812315Y-83368029D02*
X99418533Y-83718028D01*
G75*
G02*
X99441410Y-83803405I-31250J-54127D01*
G01*
X99378910Y-83911659D01*
G75*
G02*
X99293533Y-83934536I-54127J31250D01*
G01*
X98687315Y-83584536D01*
G75*
G02*
X98664438Y-83499159I31250J54127D01*
G01*
X98726938Y-83390905D01*
G75*
G02*
X98812315Y-83368028I54127J-31250D01*
G01*
G37*
G36*
G01*
X99062315Y-82935016D02*
X99668533Y-83285015D01*
G75*
G02*
X99691410Y-83370392I-31250J-54127D01*
G01*
X99628910Y-83478646D01*
G75*
G02*
X99543533Y-83501523I-54127J31250D01*
G01*
X98937315Y-83151523D01*
G75*
G02*
X98914438Y-83066146I31250J54127D01*
G01*
X98976938Y-82957892D01*
G75*
G02*
X99062315Y-82935015I54127J-31250D01*
G01*
G37*
G36*
G01*
X99312315Y-82502003D02*
X99918533Y-82852002D01*
G75*
G02*
X99941410Y-82937379I-31250J-54127D01*
G01*
X99878910Y-83045633D01*
G75*
G02*
X99793533Y-83068510I-54127J31250D01*
G01*
X99187315Y-82718510D01*
G75*
G02*
X99164438Y-82633133I31250J54127D01*
G01*
X99226938Y-82524879D01*
G75*
G02*
X99312315Y-82502002I54127J-31250D01*
G01*
G37*
G36*
G01*
X99562315Y-82068991D02*
X100168533Y-82418990D01*
G75*
G02*
X100191410Y-82504367I-31250J-54127D01*
G01*
X100128910Y-82612621D01*
G75*
G02*
X100043533Y-82635498I-54127J31250D01*
G01*
X99437315Y-82285498D01*
G75*
G02*
X99414438Y-82200121I31250J54127D01*
G01*
X99476938Y-82091867D01*
G75*
G02*
X99562315Y-82068990I54127J-31250D01*
G01*
G37*
G36*
G01*
X99812315Y-81635978D02*
X100418533Y-81985977D01*
G75*
G02*
X100441410Y-82071354I-31250J-54127D01*
G01*
X100378910Y-82179608D01*
G75*
G02*
X100293533Y-82202485I-54127J31250D01*
G01*
X99687315Y-81852485D01*
G75*
G02*
X99664438Y-81767108I31250J54127D01*
G01*
X99726938Y-81658854D01*
G75*
G02*
X99812315Y-81635977I54127J-31250D01*
G01*
G37*
G36*
G01*
X100062315Y-81202965D02*
X100668533Y-81552964D01*
G75*
G02*
X100691410Y-81638341I-31250J-54127D01*
G01*
X100628910Y-81746595D01*
G75*
G02*
X100543533Y-81769472I-54127J31250D01*
G01*
X99937315Y-81419472D01*
G75*
G02*
X99914438Y-81334095I31250J54127D01*
G01*
X99976938Y-81225841D01*
G75*
G02*
X100062315Y-81202964I54127J-31250D01*
G01*
G37*
G36*
G01*
X98912259Y-80769919D02*
X99388575Y-81044921D01*
G75*
G02*
X99480080Y-81386425I-125000J-216505D01*
G01*
X99205079Y-81862740D01*
G75*
G02*
X98863574Y-81954246I-216505J124999D01*
G01*
X98387259Y-81679245D01*
G75*
G02*
X98295754Y-81337741I125000J216505D01*
G01*
X98570755Y-80861426D01*
G75*
G02*
X98912260Y-80769920I216505J-124999D01*
G01*
G37*
G36*
G01*
X97786425Y-80119919D02*
X98262741Y-80394921D01*
G75*
G02*
X98354246Y-80736425I-125000J-216505D01*
G01*
X98079245Y-81212740D01*
G75*
G02*
X97737740Y-81304246I-216505J124999D01*
G01*
X97261425Y-81029245D01*
G75*
G02*
X97169920Y-80687741I125000J216505D01*
G01*
X97444921Y-80211426D01*
G75*
G02*
X97786426Y-80119920I216505J-124999D01*
G01*
G37*
G36*
G01*
X98262259Y-81895753D02*
X98738575Y-82170755D01*
G75*
G02*
X98830080Y-82512259I-125000J-216505D01*
G01*
X98555079Y-82988574D01*
G75*
G02*
X98213574Y-83080080I-216505J124999D01*
G01*
X97737259Y-82805079D01*
G75*
G02*
X97645754Y-82463575I125000J216505D01*
G01*
X97920755Y-81987260D01*
G75*
G02*
X98262260Y-81895754I216505J-124999D01*
G01*
G37*
G36*
G01*
X97136425Y-81245753D02*
X97612741Y-81520755D01*
G75*
G02*
X97704246Y-81862259I-125000J-216505D01*
G01*
X97429245Y-82338574D01*
G75*
G02*
X97087740Y-82430080I-216505J124999D01*
G01*
X96611425Y-82155079D01*
G75*
G02*
X96519920Y-81813575I125000J216505D01*
G01*
X96794921Y-81337260D01*
G75*
G02*
X97136426Y-81245754I216505J-124999D01*
G01*
G37*
%TD*%
%TO.C,L2*%
G36*
G01*
X87365162Y-108744230D02*
X86877746Y-108585859D01*
G75*
G02*
X86737299Y-108310218I67597J208044D01*
G01*
X86872494Y-107894131D01*
G75*
G02*
X87148135Y-107753684I208044J-67597D01*
G01*
X87635552Y-107912055D01*
G75*
G02*
X87775999Y-108187696I-67597J-208044D01*
G01*
X87640804Y-108603783D01*
G75*
G02*
X87365163Y-108744230I-208044J67597D01*
G01*
G37*
G36*
G01*
X87851864Y-107246316D02*
X87364448Y-107087945D01*
G75*
G02*
X87224001Y-106812304I67597J208044D01*
G01*
X87359196Y-106396217D01*
G75*
G02*
X87634837Y-106255770I208044J-67597D01*
G01*
X88122254Y-106414141D01*
G75*
G02*
X88262701Y-106689782I-67597J-208044D01*
G01*
X88127506Y-107105869D01*
G75*
G02*
X87851865Y-107246316I-208044J67597D01*
G01*
G37*
%TD*%
M02*
