%TF.GenerationSoftware,KiCad,Pcbnew,5.1.6-c6e7f7d~87~ubuntu18.04.1*%
%TF.CreationDate,2020-07-29T15:25:13-07:00*%
%TF.ProjectId,esp32_picod4_downpads,65737033-325f-4706-9963-6f64345f646f,rev?*%
%TF.SameCoordinates,Original*%
%TF.FileFunction,Copper,L2,Bot*%
%TF.FilePolarity,Positive*%
%FSLAX46Y46*%
G04 Gerber Fmt 4.6, Leading zero omitted, Abs format (unit mm)*
G04 Created by KiCad (PCBNEW 5.1.6-c6e7f7d~87~ubuntu18.04.1) date 2020-07-29 15:25:13*
%MOMM*%
%LPD*%
G01*
G04 APERTURE LIST*
%TA.AperFunction,SMDPad,CuDef*%
%ADD10C,1.500000*%
%TD*%
%TA.AperFunction,ComponentPad*%
%ADD11C,0.800000*%
%TD*%
%TA.AperFunction,ComponentPad*%
%ADD12C,6.400000*%
%TD*%
%TA.AperFunction,ViaPad*%
%ADD13C,0.650000*%
%TD*%
%TA.AperFunction,Conductor*%
%ADD14C,0.250000*%
%TD*%
%TA.AperFunction,Conductor*%
%ADD15C,0.254000*%
%TD*%
G04 APERTURE END LIST*
D10*
%TO.P,K13,1*%
%TO.N,TOUCH9*%
X97500000Y-117500000D03*
%TD*%
%TO.P,K3,1*%
%TO.N,+3V3*%
X92000000Y-117500000D03*
%TD*%
%TO.P,K5,1*%
%TO.N,ADC7*%
X96500000Y-120000000D03*
%TD*%
%TO.P,J19,6*%
%TO.N,GND*%
%TA.AperFunction,ComponentPad*%
G36*
G01*
X89627454Y-79889828D02*
X89127836Y-79202164D01*
G75*
G02*
X89243983Y-78468843I424734J308587D01*
G01*
X89243983Y-78468843D01*
G75*
G02*
X89977304Y-78584990I308587J-424734D01*
G01*
X90476922Y-79272654D01*
G75*
G02*
X90360775Y-80005975I-424734J-308587D01*
G01*
X90360775Y-80005975D01*
G75*
G02*
X89627454Y-79889828I-308587J424734D01*
G01*
G37*
%TD.AperFunction*%
%TA.AperFunction,ComponentPad*%
G36*
G01*
X84192833Y-82787655D02*
X84692451Y-83475319D01*
G75*
G02*
X84576304Y-84208640I-424734J-308587D01*
G01*
X84576304Y-84208640D01*
G75*
G02*
X83842983Y-84092493I-308587J424734D01*
G01*
X83343365Y-83404829D01*
G75*
G02*
X83459512Y-82671508I424734J308587D01*
G01*
X83459512Y-82671508D01*
G75*
G02*
X84192833Y-82787655I308587J-424734D01*
G01*
G37*
%TD.AperFunction*%
%TD*%
%TO.P,K1,1*%
%TO.N,GND*%
X90000000Y-122500000D03*
%TD*%
%TO.P,K2,1*%
%TO.N,PT0*%
X81534014Y-113469766D03*
%TD*%
%TO.P,K4,1*%
%TO.N,ADC6*%
X80606964Y-110616596D03*
%TD*%
%TO.P,K6,1*%
%TO.N,GND*%
X121423620Y-97942862D03*
%TD*%
%TO.P,K7,1*%
%TO.N,TOUCH0*%
X119475023Y-112030196D03*
%TD*%
%TO.P,K8,1*%
%TO.N,TOUCH3*%
X118951484Y-105551314D03*
%TD*%
%TO.P,K9,1*%
%TO.N,TOUCH4*%
X108500000Y-117500000D03*
%TD*%
%TO.P,K10,1*%
%TO.N,TOUCH6*%
X107500000Y-120000000D03*
%TD*%
%TO.P,K11,1*%
%TO.N,TOUCH7*%
X106500000Y-122500000D03*
%TD*%
%TO.P,K12,1*%
%TO.N,TOUCH8*%
X101000000Y-122500000D03*
%TD*%
%TO.P,K14,1*%
%TO.N,GND*%
X116479348Y-113159766D03*
%TD*%
%TO.P,K15,1*%
%TO.N,Net-(J2-Pad1)*%
X117715416Y-109355540D03*
%TD*%
%TO.P,K16,1*%
%TO.N,Net-(J3-Pad1)*%
X123183227Y-100617517D03*
%TD*%
%TO.P,K17,1*%
%TO.N,Net-(J4-Pad1)*%
X91000000Y-120000000D03*
%TD*%
%TO.P,K18,1*%
%TO.N,Net-(J5-Pad1)*%
X120187552Y-101747088D03*
%TD*%
%TO.P,K19,1*%
%TO.N,GND*%
X120711091Y-108225969D03*
%TD*%
%TO.P,K20,1*%
%TO.N,+3V3*%
X118238955Y-115834422D03*
%TD*%
%TO.P,K21,1*%
%TO.N,PT5*%
X95500000Y-122500000D03*
%TD*%
%TO.P,K23,1*%
%TO.N,VSPIDGPIO23*%
X121947159Y-104421743D03*
%TD*%
%TO.P,K24,1*%
%TO.N,DAC1GPIO25*%
X102000000Y-120000000D03*
%TD*%
%TO.P,K25,1*%
%TO.N,DAC2GPIO26*%
X103000000Y-117500000D03*
%TD*%
%TO.P,K26,1*%
%TO.N,PT6*%
X79679914Y-107763427D03*
%TD*%
%TO.P,K27,1*%
%TO.N,GND*%
X109500000Y-115000000D03*
%TD*%
D11*
%TO.P,M1,1*%
%TO.N,GND*%
X87370452Y-120224557D03*
X86410685Y-118658359D03*
X84624557Y-118229548D03*
X83058359Y-119189315D03*
X82629548Y-120975443D03*
X83589315Y-122541641D03*
X85375443Y-122970452D03*
X86941641Y-122010685D03*
D12*
X85000000Y-120600000D03*
%TD*%
%TO.P,M2,1*%
%TO.N,GND*%
X115000000Y-120600000D03*
D11*
X116941641Y-119189315D03*
X117370452Y-120975443D03*
X116410685Y-122541641D03*
X114624557Y-122970452D03*
X113058359Y-122010685D03*
X112629548Y-120224557D03*
X113589315Y-118658359D03*
X115375443Y-118229548D03*
%TD*%
%TO.P,M4,1*%
%TO.N,GND*%
X76789577Y-94238415D03*
X77982536Y-92841641D03*
X77838415Y-91010423D03*
X76441641Y-89817464D03*
X74610423Y-89961585D03*
X73417464Y-91358359D03*
X73561585Y-93189577D03*
X74958359Y-94382536D03*
D12*
X75700000Y-92100000D03*
%TD*%
%TO.P,M5,1*%
%TO.N,GND*%
X124300000Y-92100000D03*
D11*
X123558359Y-89817464D03*
X125389577Y-89961585D03*
X126582536Y-91358359D03*
X126438415Y-93189577D03*
X125041641Y-94382536D03*
X123210423Y-94238415D03*
X122017464Y-92841641D03*
X122161585Y-91010423D03*
%TD*%
D12*
%TO.P,M3,1*%
%TO.N,GND*%
X100000000Y-74400000D03*
D11*
X102400000Y-74400000D03*
X101697056Y-76097056D03*
X100000000Y-76800000D03*
X98302944Y-76097056D03*
X97600000Y-74400000D03*
X98302944Y-72702944D03*
X100000000Y-72000000D03*
X101697056Y-72702944D03*
%TD*%
D10*
%TO.P,K22,1*%
%TO.N,Net-(K22-Pad1)*%
X82461066Y-116322936D03*
%TD*%
%TO.P,K28,1*%
%TO.N,GND*%
X78752863Y-104910257D03*
%TD*%
D13*
%TO.N,GND*%
X98000000Y-81600000D03*
X105450000Y-88200000D03*
X102137022Y-84625128D03*
X97000000Y-85450000D03*
X92313134Y-92986866D03*
X86400000Y-97050000D03*
X91400000Y-104600000D03*
X98600000Y-106100000D03*
X100400000Y-97350000D03*
X99550000Y-102600000D03*
X97300000Y-99500000D03*
X102800000Y-100450000D03*
X100019672Y-99869672D03*
X90650000Y-100800000D03*
X93350000Y-98050000D03*
X109500000Y-115000000D03*
X120711091Y-108225969D03*
X121423620Y-97942862D03*
X106769173Y-105819173D03*
X115500000Y-103500000D03*
X107470000Y-108710000D03*
X116490000Y-113160000D03*
X90000000Y-122500000D03*
X78752863Y-104910257D03*
X85800000Y-102600000D03*
X84975000Y-106650000D03*
X107450000Y-94875000D03*
X105450000Y-97500000D03*
X109950000Y-98725000D03*
X111625000Y-101325000D03*
X115375000Y-95250000D03*
X105600000Y-112275000D03*
X105600000Y-112275000D03*
X98425000Y-112450000D03*
X115825000Y-84650000D03*
X115825000Y-84650000D03*
X112250000Y-86775000D03*
X108700000Y-86475000D03*
X107800000Y-81400000D03*
X95775000Y-77100000D03*
X94250000Y-80100000D03*
X88350000Y-112025000D03*
X89100000Y-106250000D03*
X92825000Y-112075000D03*
X112725000Y-110350000D03*
X114250000Y-107325000D03*
X91550000Y-99350000D03*
%TO.N,+3V3*%
X100250000Y-87050000D03*
X100200000Y-91900000D03*
X95350000Y-101500000D03*
X94317391Y-100182609D03*
X99150000Y-95000000D03*
X97200000Y-96250000D03*
X103510000Y-104270000D03*
X109360000Y-107590000D03*
X118238955Y-115834422D03*
X92000000Y-117500000D03*
X93775000Y-102325000D03*
X92600000Y-100900000D03*
%TO.N,VUSB*%
X88250000Y-91750000D03*
X90900000Y-87600000D03*
%TO.N,Net-(C10-Pad1)*%
X97550000Y-78250000D03*
X101750000Y-78650000D03*
%TO.N,PT0*%
X81534014Y-113469766D03*
%TO.N,Net-(J2-Pad1)*%
X117715416Y-109355540D03*
%TO.N,Net-(J3-Pad1)*%
X123183227Y-100617517D03*
%TO.N,Net-(J4-Pad1)*%
X91000000Y-120000000D03*
%TO.N,Net-(J5-Pad1)*%
X120187552Y-101747088D03*
%TO.N,PT5*%
X95500000Y-122500000D03*
%TO.N,PT6*%
X79679914Y-107763427D03*
%TO.N,VSPIDGPIO23*%
X122010000Y-104460000D03*
X117770000Y-102920000D03*
X114000000Y-99500000D03*
X110200000Y-97400000D03*
%TO.N,DAC1GPIO25*%
X102000000Y-120000000D03*
%TO.N,DAC2GPIO26*%
X103000000Y-117500000D03*
%TO.N,#EN*%
X95580000Y-106200000D03*
X114640000Y-91090000D03*
%TO.N,Net-(J19-Pad2)*%
X89950000Y-84500000D03*
X99390000Y-78640000D03*
%TO.N,Net-(J19-Pad3)*%
X90100000Y-85450000D03*
X100346551Y-79146551D03*
%TO.N,ADC6*%
X80500000Y-110500000D03*
X84500000Y-109500000D03*
X95000000Y-109500000D03*
%TO.N,ADC7*%
X96500000Y-120000000D03*
%TO.N,TOUCH0*%
X119540000Y-112120000D03*
X107200000Y-101000000D03*
X110440000Y-106960000D03*
%TO.N,TOUCH3*%
X118951484Y-105551314D03*
%TO.N,TOUCH4*%
X108500000Y-117500000D03*
X105350000Y-106490000D03*
X104980000Y-104300000D03*
%TO.N,TOUCH6*%
X107460000Y-120010000D03*
%TO.N,TOUCH7*%
X106520000Y-122500000D03*
%TO.N,TOUCH8*%
X101000000Y-122500000D03*
%TO.N,TOUCH9*%
X97500000Y-117500000D03*
%TO.N,DTR*%
X103800000Y-84650000D03*
X105789786Y-86739786D03*
%TO.N,U0RX*%
X103700000Y-91350000D03*
X99675000Y-92950000D03*
%TO.N,Net-(R7-Pad2)*%
X104650000Y-90100000D03*
X100700000Y-83350000D03*
%TO.N,Net-(R8-Pad1)*%
X100950000Y-85550000D03*
X105400000Y-89500000D03*
%TO.N,U0TX*%
X103000000Y-93550000D03*
X97850000Y-93900000D03*
%TO.N,Net-(K22-Pad1)*%
X82500000Y-116500000D03*
%TD*%
D14*
%TO.N,*%
X109636000Y-111832000D02*
X110144000Y-111324000D01*
X110144000Y-111324000D02*
X110144000Y-112340000D01*
X110144000Y-112340000D02*
X110652000Y-112848000D01*
X110652000Y-112848000D02*
X111160000Y-112848000D01*
X111160000Y-112848000D02*
X111160000Y-112340000D01*
X111160000Y-112340000D02*
X110652000Y-111832000D01*
X110652000Y-111832000D02*
X109636000Y-111832000D01*
%TO.N,GND*%
X98000000Y-81600000D02*
X102200000Y-79950000D01*
X102200000Y-79950000D02*
X103350000Y-78850000D01*
X103350000Y-78850000D02*
X100000000Y-74400000D01*
X105450000Y-88200000D02*
X102137022Y-84625128D01*
X102137022Y-84625128D02*
X102250000Y-80100000D01*
X102250000Y-80100000D02*
X102200000Y-79950000D01*
X97000000Y-85450000D02*
X98000000Y-81600000D01*
X86400000Y-97050000D02*
X92313134Y-92986866D01*
X91400000Y-104600000D02*
X96400000Y-105400000D01*
X96400000Y-105400000D02*
X98100000Y-105150000D01*
X98100000Y-105150000D02*
X98600000Y-106100000D01*
X105450000Y-88200000D02*
X124300000Y-92100000D01*
X99550000Y-102600000D02*
X98100000Y-105150000D01*
X97300000Y-99500000D02*
X100019672Y-99869672D01*
X100019672Y-99869672D02*
X102800000Y-100450000D01*
X97300000Y-99500000D02*
X95800000Y-99050000D01*
X95800000Y-99050000D02*
X93350000Y-98700000D01*
X93350000Y-98700000D02*
X91900000Y-99350000D01*
X91900000Y-99350000D02*
X90650000Y-100800000D01*
X90650000Y-100800000D02*
X91400000Y-104600000D01*
X93350000Y-98700000D02*
X93350000Y-98050000D01*
X109500000Y-115000000D02*
X115000000Y-120600000D01*
X102800000Y-100450000D02*
X105300000Y-103360000D01*
X105300000Y-103360000D02*
X106769173Y-105819173D01*
X116479348Y-113159766D02*
X116490000Y-113160000D01*
X85800000Y-102600000D02*
X78752863Y-104910257D01*
X84975000Y-106650000D02*
X82725000Y-108375000D01*
X82725000Y-108375000D02*
X85000000Y-120600000D01*
X107450000Y-94875000D02*
X105450000Y-97500000D01*
X109950000Y-98725000D02*
X111625000Y-101325000D01*
X109500000Y-115000000D02*
X105600000Y-112275000D01*
X105600000Y-112275000D02*
X98425000Y-112450000D01*
X124300000Y-92100000D02*
X115825000Y-84650000D01*
X115825000Y-84650000D02*
X112250000Y-86775000D01*
X112250000Y-86775000D02*
X108700000Y-86475000D01*
X108700000Y-86475000D02*
X107800000Y-81400000D01*
X95775000Y-77100000D02*
X94250000Y-80100000D01*
X88350000Y-112025000D02*
X92825000Y-112075000D01*
X112725000Y-110350000D02*
X114250000Y-107325000D01*
X90650000Y-100800000D02*
X91550000Y-99350000D01*
%TO.N,+3V3*%
X100250000Y-87050000D02*
X100200000Y-91900000D01*
X95350000Y-101500000D02*
X94317391Y-100182609D01*
X99150000Y-95000000D02*
X97200000Y-96250000D01*
X97750000Y-100300000D02*
X95350000Y-101500000D01*
X101000000Y-100900000D02*
X97750000Y-100300000D01*
X103510000Y-104270000D02*
X101000000Y-100900000D01*
X118238955Y-115834422D02*
X115630000Y-115410000D01*
X115630000Y-115410000D02*
X113160000Y-112510000D01*
X113160000Y-112510000D02*
X109600000Y-108450000D01*
X109600000Y-108450000D02*
X109360000Y-107590000D01*
X93775000Y-102325000D02*
X92600000Y-100900000D01*
%TO.N,VUSB*%
X88250000Y-91750000D02*
X90900000Y-87600000D01*
%TO.N,Net-(C10-Pad1)*%
X99400000Y-77950000D02*
X100300000Y-78100000D01*
X98900000Y-78000000D02*
X99400000Y-77950000D01*
X97550000Y-78250000D02*
X98300000Y-77950000D01*
X100300000Y-78100000D02*
X101750000Y-78650000D01*
X98300000Y-77950000D02*
X98900000Y-78000000D01*
%TO.N,VSPIDGPIO23*%
X121947159Y-104421743D02*
X122010000Y-104460000D01*
X117770000Y-102920000D02*
X114000000Y-99500000D01*
X110200000Y-97400000D02*
X114000000Y-99500000D01*
%TO.N,#EN*%
X109140000Y-98010000D02*
X111410000Y-93370000D01*
X106090000Y-101150000D02*
X109140000Y-98010000D01*
X107790000Y-103910000D02*
X106090000Y-101150000D01*
X108960000Y-105860000D02*
X107790000Y-103910000D01*
X107990000Y-107580000D02*
X108960000Y-105860000D01*
X106200000Y-107880000D02*
X107990000Y-107580000D01*
X111410000Y-93370000D02*
X114640000Y-91090000D01*
X101960000Y-106290000D02*
X104560000Y-107260000D01*
X96800000Y-105890000D02*
X97370000Y-105760000D01*
X104560000Y-107260000D02*
X106200000Y-107880000D01*
X97880000Y-106430000D02*
X98380000Y-106880000D01*
X97370000Y-105760000D02*
X97830000Y-105970000D01*
X98380000Y-106880000D02*
X101960000Y-106290000D01*
X95580000Y-106200000D02*
X96800000Y-105890000D01*
X97830000Y-105970000D02*
X97880000Y-106430000D01*
%TO.N,Net-(J19-Pad2)*%
X89950000Y-84500000D02*
X99390000Y-78640000D01*
%TO.N,Net-(J19-Pad3)*%
X99663793Y-79363793D02*
X90100000Y-85450000D01*
X100346551Y-79146551D02*
X99663793Y-79363793D01*
%TO.N,ADC6*%
X80606964Y-110616596D02*
X80500000Y-110500000D01*
X84500000Y-109500000D02*
X95000000Y-109500000D01*
%TO.N,TOUCH0*%
X119475023Y-112030196D02*
X119540000Y-112120000D01*
X108500000Y-102720000D02*
X107200000Y-101000000D01*
X110440000Y-106960000D02*
X109390000Y-104520000D01*
X109390000Y-104520000D02*
X108500000Y-102720000D01*
%TO.N,TOUCH4*%
X104980000Y-104300000D02*
X105350000Y-106490000D01*
%TO.N,TOUCH6*%
X107500000Y-120000000D02*
X107460000Y-120010000D01*
%TO.N,TOUCH7*%
X106500000Y-122500000D02*
X106520000Y-122500000D01*
%TO.N,DTR*%
X103800000Y-84650000D02*
X105789786Y-86739786D01*
%TO.N,U0RX*%
X103700000Y-91350000D02*
X99675000Y-92950000D01*
%TO.N,Net-(R7-Pad2)*%
X104650000Y-90100000D02*
X100900000Y-86700000D01*
X100900000Y-86700000D02*
X100300000Y-86000000D01*
X100300000Y-86000000D02*
X100200000Y-85350000D01*
X100200000Y-85350000D02*
X100350000Y-84800000D01*
X100350000Y-84800000D02*
X100700000Y-83350000D01*
%TO.N,Net-(R8-Pad1)*%
X100950000Y-85550000D02*
X105400000Y-89500000D01*
%TO.N,U0TX*%
X103000000Y-93550000D02*
X98900000Y-94250000D01*
X98900000Y-94250000D02*
X97850000Y-93900000D01*
%TO.N,Net-(K22-Pad1)*%
X82461066Y-116322936D02*
X82500000Y-116500000D01*
%TD*%
D15*
%TO.N,GND*%
G36*
X124671061Y-88477623D02*
G01*
X123991128Y-88468562D01*
X123288605Y-88598597D01*
X122624949Y-88863189D01*
X122025664Y-89252170D01*
X121513780Y-89750592D01*
X121365076Y-89939223D01*
X121158306Y-90473413D01*
X122042634Y-90924001D01*
X122114915Y-90996282D01*
X122138400Y-90972797D01*
X122192520Y-91000372D01*
X122817014Y-91318567D01*
X124289949Y-92069065D01*
X125303153Y-90080538D01*
X125375436Y-90008255D01*
X125351950Y-89984769D01*
X125379525Y-89930650D01*
X125379526Y-89930650D01*
X125697721Y-89306156D01*
X125728534Y-89245682D01*
X125766216Y-89273051D01*
X125475999Y-89842634D01*
X125403718Y-89914915D01*
X125427203Y-89938400D01*
X125399628Y-89992520D01*
X125119280Y-90542735D01*
X124386423Y-91981048D01*
X124314141Y-92053330D01*
X124337627Y-92076816D01*
X124330935Y-92089949D01*
X126319462Y-93103153D01*
X126391745Y-93175436D01*
X126415231Y-93151950D01*
X126469350Y-93179525D01*
X126469350Y-93179526D01*
X127093844Y-93497721D01*
X127113902Y-93507941D01*
X127099529Y-93552245D01*
X126557366Y-93275999D01*
X126485085Y-93203718D01*
X126461600Y-93227203D01*
X126407480Y-93199628D01*
X125782986Y-92881433D01*
X124418952Y-92186423D01*
X124346670Y-92114141D01*
X124323184Y-92137627D01*
X124310051Y-92130935D01*
X123296847Y-94119462D01*
X123224564Y-94191745D01*
X123248050Y-94215231D01*
X123220475Y-94269350D01*
X123220474Y-94269350D01*
X122902279Y-94893844D01*
X122714400Y-95262578D01*
X123195669Y-95573211D01*
X123894478Y-95721918D01*
X124608872Y-95731438D01*
X125311395Y-95601403D01*
X125975051Y-95336811D01*
X126574336Y-94947830D01*
X126680250Y-94844701D01*
X125660225Y-97989000D01*
X122599716Y-97989000D01*
X122604277Y-97873456D01*
X122568051Y-97644455D01*
X122555324Y-97599333D01*
X122392517Y-97474998D01*
X121454555Y-97952913D01*
X121461247Y-97966046D01*
X121438293Y-97989000D01*
X121421315Y-97989000D01*
X121413569Y-97973797D01*
X121400436Y-97980489D01*
X121376950Y-97957003D01*
X121344953Y-97989000D01*
X121282408Y-97989000D01*
X121392685Y-97932811D01*
X120914770Y-96994849D01*
X120709974Y-96999742D01*
X120539692Y-97157089D01*
X120403380Y-97344633D01*
X120306275Y-97555167D01*
X120252108Y-97780600D01*
X120243881Y-97989000D01*
X118272000Y-97989000D01*
X118247224Y-97991440D01*
X118223399Y-97998667D01*
X118201443Y-98010403D01*
X118182197Y-98026197D01*
X118166403Y-98045443D01*
X118151378Y-98076258D01*
X117024002Y-101497969D01*
X114752000Y-99436896D01*
X114752000Y-99425934D01*
X114723101Y-99280650D01*
X114666414Y-99143794D01*
X114584117Y-99020628D01*
X114479372Y-98915883D01*
X114356206Y-98833586D01*
X114219350Y-98776899D01*
X114074066Y-98748000D01*
X113925934Y-98748000D01*
X113818973Y-98769276D01*
X110916803Y-97165446D01*
X110866414Y-97043794D01*
X110819756Y-96973965D01*
X120955756Y-96973965D01*
X121433671Y-97911927D01*
X122371633Y-97434012D01*
X122366740Y-97229216D01*
X122209393Y-97058934D01*
X122021849Y-96922622D01*
X121811315Y-96825517D01*
X121585882Y-96771350D01*
X121354214Y-96762205D01*
X121125213Y-96798431D01*
X121080091Y-96811158D01*
X120955756Y-96973965D01*
X110819756Y-96973965D01*
X110784117Y-96920628D01*
X110679372Y-96815883D01*
X110556206Y-96733586D01*
X110419350Y-96676899D01*
X110407824Y-96674606D01*
X111843754Y-93739489D01*
X113728795Y-92408872D01*
X120668562Y-92408872D01*
X120798597Y-93111395D01*
X121063189Y-93775051D01*
X121452170Y-94374336D01*
X121950592Y-94886220D01*
X122139223Y-95034924D01*
X122673413Y-95241694D01*
X123124001Y-94357366D01*
X123196282Y-94285085D01*
X123172797Y-94261600D01*
X123200372Y-94207480D01*
X123518567Y-93582986D01*
X124269065Y-92110051D01*
X122280537Y-91096846D01*
X122208255Y-91024564D01*
X122184769Y-91048050D01*
X122171636Y-91041358D01*
X122130650Y-91020475D01*
X122130650Y-91020474D01*
X121506156Y-90702279D01*
X121137422Y-90514400D01*
X120826789Y-90995669D01*
X120678082Y-91694478D01*
X120668562Y-92408872D01*
X113728795Y-92408872D01*
X114539354Y-91836713D01*
X114565934Y-91842000D01*
X114714066Y-91842000D01*
X114859350Y-91813101D01*
X114996206Y-91756414D01*
X115119372Y-91674117D01*
X115224117Y-91569372D01*
X115306414Y-91446206D01*
X115363101Y-91309350D01*
X115392000Y-91164066D01*
X115392000Y-91015934D01*
X115363101Y-90870650D01*
X115306414Y-90733794D01*
X115224117Y-90610628D01*
X115119372Y-90505883D01*
X114996206Y-90423586D01*
X114859350Y-90366899D01*
X114714066Y-90338000D01*
X114565934Y-90338000D01*
X114420650Y-90366899D01*
X114283794Y-90423586D01*
X114160628Y-90505883D01*
X114055883Y-90610628D01*
X113973586Y-90733794D01*
X113916899Y-90870650D01*
X113904379Y-90933594D01*
X111133748Y-92889334D01*
X111131149Y-92890521D01*
X111089396Y-92920641D01*
X111069524Y-92934668D01*
X111067372Y-92936528D01*
X111042965Y-92954135D01*
X111026332Y-92972007D01*
X111007873Y-92987964D01*
X110989393Y-93011696D01*
X110968886Y-93033730D01*
X110956059Y-93054504D01*
X110941068Y-93073755D01*
X110927573Y-93100637D01*
X110926070Y-93103071D01*
X110915319Y-93125047D01*
X110892284Y-93170932D01*
X110891527Y-93173679D01*
X108682792Y-97688451D01*
X105722881Y-100735705D01*
X105712562Y-100743554D01*
X105685089Y-100774613D01*
X105675156Y-100784839D01*
X105667114Y-100794934D01*
X105640521Y-100824998D01*
X105633306Y-100837373D01*
X105624378Y-100848580D01*
X105605970Y-100884257D01*
X105585753Y-100918932D01*
X105581090Y-100932478D01*
X105574521Y-100945210D01*
X105563429Y-100983784D01*
X105550362Y-101021746D01*
X105548431Y-101035945D01*
X105544473Y-101049710D01*
X105541120Y-101089709D01*
X105535710Y-101129488D01*
X105536586Y-101143786D01*
X105535389Y-101158063D01*
X105539905Y-101197956D01*
X105542359Y-101238018D01*
X105546007Y-101251870D01*
X105547619Y-101266108D01*
X105559831Y-101304354D01*
X105570053Y-101343166D01*
X105576334Y-101356040D01*
X105580692Y-101369690D01*
X105600131Y-101404819D01*
X105605785Y-101416409D01*
X105613255Y-101428537D01*
X105633338Y-101464830D01*
X105641709Y-101474734D01*
X107318368Y-104196841D01*
X108321422Y-105868598D01*
X107638712Y-107079176D01*
X106255770Y-107310954D01*
X105757076Y-107122424D01*
X105829372Y-107074117D01*
X105934117Y-106969372D01*
X106016414Y-106846206D01*
X106073101Y-106709350D01*
X106102000Y-106564066D01*
X106102000Y-106415934D01*
X106073101Y-106270650D01*
X106016414Y-106133794D01*
X105934117Y-106010628D01*
X105829372Y-105905883D01*
X105808815Y-105892147D01*
X105609370Y-104711647D01*
X105646414Y-104656206D01*
X105703101Y-104519350D01*
X105732000Y-104374066D01*
X105732000Y-104225934D01*
X105703101Y-104080650D01*
X105646414Y-103943794D01*
X105564117Y-103820628D01*
X105459372Y-103715883D01*
X105336206Y-103633586D01*
X105199350Y-103576899D01*
X105054066Y-103548000D01*
X104905934Y-103548000D01*
X104760650Y-103576899D01*
X104623794Y-103633586D01*
X104500628Y-103715883D01*
X104395883Y-103820628D01*
X104313586Y-103943794D01*
X104256899Y-104080650D01*
X104247984Y-104125470D01*
X104233101Y-104050650D01*
X104176414Y-103913794D01*
X104094117Y-103790628D01*
X103989372Y-103685883D01*
X103866206Y-103603586D01*
X103729350Y-103546899D01*
X103647601Y-103530638D01*
X101465075Y-100600314D01*
X101456898Y-100585511D01*
X101432665Y-100556800D01*
X101426507Y-100548532D01*
X101415200Y-100536107D01*
X101386765Y-100502418D01*
X101378644Y-100495938D01*
X101371656Y-100488260D01*
X101336223Y-100462092D01*
X101301769Y-100434603D01*
X101292540Y-100429833D01*
X101284189Y-100423665D01*
X101244346Y-100404920D01*
X101205177Y-100384673D01*
X101195187Y-100381793D01*
X101185800Y-100377376D01*
X101143071Y-100366765D01*
X101126873Y-100362094D01*
X101116702Y-100360216D01*
X101080271Y-100351169D01*
X101063391Y-100350374D01*
X97861333Y-99759226D01*
X97819374Y-99749686D01*
X97780804Y-99748636D01*
X97742352Y-99745383D01*
X97726561Y-99747158D01*
X97710680Y-99746726D01*
X97672648Y-99753220D01*
X97634298Y-99757532D01*
X97619157Y-99762354D01*
X97603497Y-99765028D01*
X97567457Y-99778819D01*
X97530691Y-99790528D01*
X97493036Y-99811328D01*
X95564016Y-100775838D01*
X95468916Y-100756921D01*
X95069391Y-100247212D01*
X95069391Y-100108543D01*
X95040492Y-99963259D01*
X94983805Y-99826403D01*
X94901508Y-99703237D01*
X94796763Y-99598492D01*
X94673597Y-99516195D01*
X94536741Y-99459508D01*
X94391457Y-99430609D01*
X94243325Y-99430609D01*
X94098041Y-99459508D01*
X93961185Y-99516195D01*
X93838019Y-99598492D01*
X93733274Y-99703237D01*
X93650977Y-99826403D01*
X93594290Y-99963259D01*
X93565391Y-100108543D01*
X93565391Y-100256675D01*
X93594290Y-100401959D01*
X93650977Y-100538815D01*
X93733274Y-100661981D01*
X93838019Y-100766726D01*
X93961185Y-100849023D01*
X94098041Y-100905710D01*
X94198475Y-100925688D01*
X94598000Y-101435398D01*
X94598000Y-101574066D01*
X94626899Y-101719350D01*
X94683586Y-101856206D01*
X94765883Y-101979372D01*
X94870628Y-102084117D01*
X94993794Y-102166414D01*
X95130650Y-102223101D01*
X95275934Y-102252000D01*
X95424066Y-102252000D01*
X95569350Y-102223101D01*
X95706206Y-102166414D01*
X95829372Y-102084117D01*
X95934117Y-101979372D01*
X96016414Y-101856206D01*
X96054162Y-101765073D01*
X97831546Y-100876382D01*
X100686720Y-101403491D01*
X102759802Y-104186873D01*
X102758000Y-104195934D01*
X102758000Y-104344066D01*
X102786899Y-104489350D01*
X102843586Y-104626206D01*
X102925883Y-104749372D01*
X103030628Y-104854117D01*
X103153794Y-104936414D01*
X103290650Y-104993101D01*
X103435934Y-105022000D01*
X103584066Y-105022000D01*
X103729350Y-104993101D01*
X103866206Y-104936414D01*
X103989372Y-104854117D01*
X104094117Y-104749372D01*
X104176414Y-104626206D01*
X104233101Y-104489350D01*
X104242016Y-104444530D01*
X104256899Y-104519350D01*
X104313586Y-104656206D01*
X104395883Y-104779372D01*
X104500628Y-104884117D01*
X104521185Y-104897853D01*
X104720630Y-106078353D01*
X104683586Y-106133794D01*
X104626899Y-106270650D01*
X104598000Y-106415934D01*
X104598000Y-106564066D01*
X104623986Y-106694707D01*
X102196178Y-105788949D01*
X102189062Y-105784838D01*
X102145330Y-105769979D01*
X102127548Y-105763345D01*
X102119643Y-105761251D01*
X102086108Y-105749857D01*
X102067206Y-105747363D01*
X102048770Y-105742480D01*
X102013419Y-105740266D01*
X101978308Y-105735633D01*
X101959277Y-105736875D01*
X101940250Y-105735683D01*
X101905161Y-105740406D01*
X101896987Y-105740939D01*
X101878226Y-105744031D01*
X101832487Y-105750187D01*
X101824718Y-105752849D01*
X98552045Y-106292201D01*
X98405984Y-106160746D01*
X98380127Y-105922859D01*
X98377515Y-105881201D01*
X98367306Y-105842662D01*
X98359133Y-105803638D01*
X98353410Y-105790207D01*
X98349671Y-105776092D01*
X98332136Y-105740278D01*
X98316510Y-105703606D01*
X98308276Y-105691549D01*
X98301856Y-105678436D01*
X98277678Y-105646741D01*
X98255191Y-105613811D01*
X98244761Y-105603589D01*
X98235908Y-105591984D01*
X98206016Y-105565619D01*
X98177532Y-105537704D01*
X98165308Y-105529714D01*
X98154362Y-105520059D01*
X98119888Y-105500024D01*
X98086517Y-105478211D01*
X98047800Y-105462630D01*
X97607960Y-105261834D01*
X97567892Y-105241833D01*
X97532339Y-105232122D01*
X97497485Y-105220180D01*
X97480011Y-105217829D01*
X97463001Y-105213183D01*
X97426235Y-105210594D01*
X97389722Y-105205682D01*
X97372130Y-105206785D01*
X97354535Y-105205546D01*
X97317968Y-105210180D01*
X97281202Y-105212485D01*
X97237954Y-105223942D01*
X96697049Y-105347306D01*
X96690331Y-105348326D01*
X96670648Y-105353327D01*
X96650827Y-105357848D01*
X96644376Y-105360003D01*
X95943104Y-105538195D01*
X95936206Y-105533586D01*
X95799350Y-105476899D01*
X95654066Y-105448000D01*
X95505934Y-105448000D01*
X95360650Y-105476899D01*
X95223794Y-105533586D01*
X95100628Y-105615883D01*
X94995883Y-105720628D01*
X94913586Y-105843794D01*
X94856899Y-105980650D01*
X94828000Y-106125934D01*
X94828000Y-106274066D01*
X94856899Y-106419350D01*
X94913586Y-106556206D01*
X94995883Y-106679372D01*
X95100628Y-106784117D01*
X95223794Y-106866414D01*
X95360650Y-106923101D01*
X95505934Y-106952000D01*
X95654066Y-106952000D01*
X95799350Y-106923101D01*
X95936206Y-106866414D01*
X96059372Y-106784117D01*
X96164117Y-106679372D01*
X96211002Y-106609204D01*
X96929356Y-106426672D01*
X97310655Y-106339709D01*
X97315158Y-106341764D01*
X97326635Y-106447353D01*
X97326097Y-106459152D01*
X97332497Y-106501283D01*
X97334162Y-106516598D01*
X97336572Y-106528106D01*
X97342428Y-106566653D01*
X97347693Y-106581208D01*
X97350867Y-106596362D01*
X97366153Y-106632236D01*
X97379417Y-106668903D01*
X97387422Y-106682154D01*
X97393490Y-106696394D01*
X97415479Y-106728594D01*
X97435643Y-106761971D01*
X97446079Y-106773405D01*
X97454809Y-106786189D01*
X97482656Y-106813479D01*
X97490582Y-106822163D01*
X97502037Y-106832472D01*
X97532468Y-106862295D01*
X97542351Y-106868755D01*
X97972932Y-107256279D01*
X97975058Y-107259051D01*
X98013201Y-107292521D01*
X98030881Y-107308433D01*
X98033699Y-107310508D01*
X98056788Y-107330768D01*
X98077360Y-107342653D01*
X98096507Y-107356750D01*
X98124339Y-107369794D01*
X98150939Y-107385162D01*
X98173442Y-107392808D01*
X98194964Y-107402895D01*
X98224797Y-107410257D01*
X98253892Y-107420143D01*
X98277453Y-107423252D01*
X98300531Y-107428947D01*
X98331231Y-107430348D01*
X98361692Y-107434367D01*
X98385407Y-107432820D01*
X98409152Y-107433903D01*
X98439529Y-107429288D01*
X98443013Y-107429061D01*
X98466442Y-107425200D01*
X98516653Y-107417572D01*
X98519939Y-107416383D01*
X101904751Y-106858552D01*
X104365980Y-107776779D01*
X105963483Y-108380714D01*
X105972313Y-108385783D01*
X106014229Y-108399898D01*
X106030158Y-108405920D01*
X106039946Y-108408558D01*
X106075361Y-108420484D01*
X106092324Y-108422675D01*
X106108844Y-108427128D01*
X106146135Y-108429627D01*
X106183199Y-108434415D01*
X106200269Y-108433254D01*
X106217335Y-108434398D01*
X106254396Y-108429574D01*
X106264505Y-108428887D01*
X106281289Y-108426074D01*
X106325160Y-108420364D01*
X106334810Y-108417104D01*
X108029737Y-108133039D01*
X108031868Y-108133087D01*
X108083201Y-108124078D01*
X108107977Y-108119926D01*
X108110035Y-108119369D01*
X108138966Y-108114292D01*
X108162393Y-108105203D01*
X108186643Y-108098642D01*
X108212956Y-108085586D01*
X108240338Y-108074963D01*
X108261537Y-108061482D01*
X108284047Y-108050313D01*
X108307305Y-108032376D01*
X108332091Y-108016614D01*
X108350258Y-107999251D01*
X108370150Y-107983910D01*
X108389459Y-107961784D01*
X108410697Y-107941486D01*
X108425125Y-107920916D01*
X108441645Y-107901986D01*
X108456270Y-107876512D01*
X108457494Y-107874767D01*
X108469821Y-107852909D01*
X108495783Y-107807688D01*
X108496464Y-107805665D01*
X108608000Y-107607890D01*
X108608000Y-107664066D01*
X108636899Y-107809350D01*
X108693586Y-107946206D01*
X108775883Y-108069372D01*
X108880628Y-108174117D01*
X108965800Y-108231027D01*
X109065123Y-108586935D01*
X109074754Y-108628254D01*
X109090917Y-108663933D01*
X109105097Y-108700458D01*
X109113310Y-108713366D01*
X109119622Y-108727299D01*
X109142438Y-108759144D01*
X109163469Y-108792196D01*
X109192795Y-108822865D01*
X112742378Y-112870987D01*
X113127767Y-113323469D01*
X112683011Y-114673353D01*
X110633016Y-114681245D01*
X110601424Y-114569148D01*
X110496205Y-114362550D01*
X110470158Y-114323568D01*
X110276898Y-114255629D01*
X109848261Y-114684266D01*
X109782955Y-114684518D01*
X110244371Y-114223102D01*
X110176432Y-114029842D01*
X109974166Y-113916517D01*
X109753678Y-113844831D01*
X109523441Y-113817537D01*
X109292304Y-113835684D01*
X109069148Y-113898576D01*
X108862550Y-114003795D01*
X108823568Y-114029842D01*
X108755629Y-114223102D01*
X109219215Y-114686688D01*
X109154411Y-114686938D01*
X108723102Y-114255629D01*
X108529842Y-114323568D01*
X108416517Y-114525834D01*
X108363148Y-114689984D01*
X86887193Y-114772663D01*
X85759720Y-111832000D01*
X109081330Y-111832000D01*
X109091988Y-111940211D01*
X109123552Y-112044263D01*
X109174809Y-112140158D01*
X109243789Y-112224211D01*
X109327842Y-112293191D01*
X109423737Y-112344448D01*
X109527789Y-112376012D01*
X109593515Y-112382486D01*
X109596757Y-112415395D01*
X109599989Y-112448211D01*
X109608481Y-112476206D01*
X109631552Y-112552262D01*
X109682809Y-112648157D01*
X109682810Y-112648158D01*
X109751790Y-112732211D01*
X109772851Y-112749495D01*
X110242508Y-113219154D01*
X110259789Y-113240211D01*
X110343842Y-113309191D01*
X110439737Y-113360448D01*
X110543789Y-113392012D01*
X110624891Y-113400000D01*
X110624901Y-113400000D01*
X110651999Y-113402669D01*
X110679097Y-113400000D01*
X111132891Y-113400000D01*
X111160000Y-113402670D01*
X111187108Y-113400000D01*
X111187109Y-113400000D01*
X111268211Y-113392012D01*
X111372263Y-113360448D01*
X111468158Y-113309191D01*
X111552211Y-113240211D01*
X111621191Y-113156158D01*
X111672448Y-113060263D01*
X111704012Y-112956211D01*
X111714670Y-112848000D01*
X111712000Y-112820891D01*
X111712000Y-112367097D01*
X111714669Y-112339999D01*
X111712000Y-112312901D01*
X111712000Y-112312891D01*
X111704012Y-112231789D01*
X111672448Y-112127737D01*
X111621191Y-112031842D01*
X111552211Y-111947789D01*
X111531154Y-111930508D01*
X111061500Y-111460856D01*
X111044211Y-111439789D01*
X110960158Y-111370809D01*
X110864263Y-111319552D01*
X110760211Y-111287988D01*
X110694486Y-111281514D01*
X110688012Y-111215789D01*
X110656448Y-111111737D01*
X110605191Y-111015842D01*
X110536211Y-110931789D01*
X110452158Y-110862809D01*
X110356262Y-110811552D01*
X110252210Y-110779988D01*
X110144000Y-110769330D01*
X110035789Y-110779988D01*
X109931737Y-110811552D01*
X109835842Y-110862809D01*
X109751789Y-110931789D01*
X109734508Y-110952846D01*
X109264856Y-111422500D01*
X109243789Y-111439789D01*
X109174809Y-111523842D01*
X109123552Y-111619737D01*
X109091988Y-111723789D01*
X109081330Y-111832000D01*
X85759720Y-111832000D01*
X85077253Y-110052000D01*
X94488511Y-110052000D01*
X94520628Y-110084117D01*
X94643794Y-110166414D01*
X94780650Y-110223101D01*
X94925934Y-110252000D01*
X95074066Y-110252000D01*
X95219350Y-110223101D01*
X95356206Y-110166414D01*
X95479372Y-110084117D01*
X95584117Y-109979372D01*
X95666414Y-109856206D01*
X95723101Y-109719350D01*
X95752000Y-109574066D01*
X95752000Y-109425934D01*
X95723101Y-109280650D01*
X95666414Y-109143794D01*
X95584117Y-109020628D01*
X95479372Y-108915883D01*
X95356206Y-108833586D01*
X95219350Y-108776899D01*
X95074066Y-108748000D01*
X94925934Y-108748000D01*
X94780650Y-108776899D01*
X94643794Y-108833586D01*
X94520628Y-108915883D01*
X94488511Y-108948000D01*
X85011489Y-108948000D01*
X84979372Y-108915883D01*
X84856206Y-108833586D01*
X84719350Y-108776899D01*
X84577555Y-108748694D01*
X82643583Y-103704534D01*
X82632434Y-103682274D01*
X82617157Y-103662616D01*
X82598339Y-103646316D01*
X82576702Y-103634000D01*
X82553078Y-103626143D01*
X82528375Y-103623045D01*
X82492640Y-103627192D01*
X79787386Y-104340019D01*
X79667239Y-104160133D01*
X79503328Y-103996161D01*
X79466509Y-103967137D01*
X79261713Y-103962244D01*
X78957856Y-104558597D01*
X78898223Y-104574311D01*
X79220727Y-103941360D01*
X79096392Y-103778553D01*
X78869007Y-103733278D01*
X78637158Y-103733236D01*
X78409756Y-103778424D01*
X78195539Y-103867109D01*
X78002739Y-103995881D01*
X77838767Y-104159792D01*
X77809743Y-104196611D01*
X77804850Y-104401407D01*
X78401216Y-104705270D01*
X78334430Y-104722868D01*
X77783966Y-104442393D01*
X77621159Y-104566728D01*
X77575884Y-104794113D01*
X77575861Y-104922749D01*
X76666821Y-105162279D01*
X75260090Y-100825934D01*
X91848000Y-100825934D01*
X91848000Y-100974066D01*
X91876899Y-101119350D01*
X91933586Y-101256206D01*
X92015883Y-101379372D01*
X92120628Y-101484117D01*
X92243794Y-101566414D01*
X92380650Y-101623101D01*
X92500436Y-101646928D01*
X93023000Y-102280676D01*
X93023000Y-102399066D01*
X93051899Y-102544350D01*
X93108586Y-102681206D01*
X93190883Y-102804372D01*
X93295628Y-102909117D01*
X93418794Y-102991414D01*
X93555650Y-103048101D01*
X93700934Y-103077000D01*
X93849066Y-103077000D01*
X93994350Y-103048101D01*
X94131206Y-102991414D01*
X94254372Y-102909117D01*
X94359117Y-102804372D01*
X94441414Y-102681206D01*
X94498101Y-102544350D01*
X94527000Y-102399066D01*
X94527000Y-102250934D01*
X94498101Y-102105650D01*
X94441414Y-101968794D01*
X94359117Y-101845628D01*
X94254372Y-101740883D01*
X94131206Y-101658586D01*
X93994350Y-101601899D01*
X93874565Y-101578072D01*
X93352000Y-100944324D01*
X93352000Y-100825934D01*
X93323101Y-100680650D01*
X93266414Y-100543794D01*
X93184117Y-100420628D01*
X93079372Y-100315883D01*
X92956206Y-100233586D01*
X92819350Y-100176899D01*
X92674066Y-100148000D01*
X92525934Y-100148000D01*
X92380650Y-100176899D01*
X92243794Y-100233586D01*
X92120628Y-100315883D01*
X92015883Y-100420628D01*
X91933586Y-100543794D01*
X91876899Y-100680650D01*
X91848000Y-100825934D01*
X75260090Y-100825934D01*
X73751608Y-96175934D01*
X96448000Y-96175934D01*
X96448000Y-96324066D01*
X96476899Y-96469350D01*
X96533586Y-96606206D01*
X96615883Y-96729372D01*
X96720628Y-96834117D01*
X96843794Y-96916414D01*
X96980650Y-96973101D01*
X97125934Y-97002000D01*
X97274066Y-97002000D01*
X97419350Y-96973101D01*
X97556206Y-96916414D01*
X97679372Y-96834117D01*
X97784117Y-96729372D01*
X97866414Y-96606206D01*
X97923101Y-96469350D01*
X97929302Y-96438175D01*
X99017780Y-95740432D01*
X99075934Y-95752000D01*
X99224066Y-95752000D01*
X99369350Y-95723101D01*
X99506206Y-95666414D01*
X99629372Y-95584117D01*
X99734117Y-95479372D01*
X99816414Y-95356206D01*
X99873101Y-95219350D01*
X99902000Y-95074066D01*
X99902000Y-94925934D01*
X99873101Y-94780650D01*
X99820179Y-94652883D01*
X102589426Y-94180086D01*
X102643794Y-94216414D01*
X102780650Y-94273101D01*
X102925934Y-94302000D01*
X103074066Y-94302000D01*
X103219350Y-94273101D01*
X103356206Y-94216414D01*
X103479372Y-94134117D01*
X103584117Y-94029372D01*
X103666414Y-93906206D01*
X103723101Y-93769350D01*
X103752000Y-93624066D01*
X103752000Y-93475934D01*
X103723101Y-93330650D01*
X103666414Y-93193794D01*
X103584117Y-93070628D01*
X103479372Y-92965883D01*
X103356206Y-92883586D01*
X103219350Y-92826899D01*
X103074066Y-92798000D01*
X102925934Y-92798000D01*
X102780650Y-92826899D01*
X102643794Y-92883586D01*
X102520628Y-92965883D01*
X102415883Y-93070628D01*
X102401468Y-93092202D01*
X100224633Y-93463856D01*
X100259117Y-93429372D01*
X100341414Y-93306206D01*
X100354853Y-93273762D01*
X103429042Y-92051725D01*
X103480650Y-92073101D01*
X103625934Y-92102000D01*
X103774066Y-92102000D01*
X103919350Y-92073101D01*
X104056206Y-92016414D01*
X104179372Y-91934117D01*
X104284117Y-91829372D01*
X104366414Y-91706206D01*
X104423101Y-91569350D01*
X104452000Y-91424066D01*
X104452000Y-91275934D01*
X104423101Y-91130650D01*
X104366414Y-90993794D01*
X104284117Y-90870628D01*
X104179372Y-90765883D01*
X104056206Y-90683586D01*
X103919350Y-90626899D01*
X103774066Y-90598000D01*
X103625934Y-90598000D01*
X103480650Y-90626899D01*
X103343794Y-90683586D01*
X103220628Y-90765883D01*
X103115883Y-90870628D01*
X103033586Y-90993794D01*
X103020147Y-91026238D01*
X100952000Y-91848359D01*
X100952000Y-91825934D01*
X100923101Y-91680650D01*
X100866414Y-91543794D01*
X100784117Y-91420628D01*
X100757248Y-91393759D01*
X100796701Y-87566788D01*
X100834117Y-87529372D01*
X100894035Y-87439698D01*
X103898000Y-90163294D01*
X103898000Y-90174066D01*
X103926899Y-90319350D01*
X103983586Y-90456206D01*
X104065883Y-90579372D01*
X104170628Y-90684117D01*
X104293794Y-90766414D01*
X104430650Y-90823101D01*
X104575934Y-90852000D01*
X104724066Y-90852000D01*
X104869350Y-90823101D01*
X105006206Y-90766414D01*
X105129372Y-90684117D01*
X105234117Y-90579372D01*
X105316414Y-90456206D01*
X105373101Y-90319350D01*
X105386498Y-90252000D01*
X105474066Y-90252000D01*
X105619350Y-90223101D01*
X105756206Y-90166414D01*
X105879372Y-90084117D01*
X105984117Y-89979372D01*
X106066414Y-89856206D01*
X106123101Y-89719350D01*
X106152000Y-89574066D01*
X106152000Y-89425934D01*
X106123101Y-89280650D01*
X106066414Y-89143794D01*
X105984117Y-89020628D01*
X105879372Y-88915883D01*
X105756206Y-88833586D01*
X105619350Y-88776899D01*
X105474066Y-88748000D01*
X105384333Y-88748000D01*
X101702000Y-85479414D01*
X101702000Y-85475934D01*
X101673101Y-85330650D01*
X101616414Y-85193794D01*
X101534117Y-85070628D01*
X101429372Y-84965883D01*
X101306206Y-84883586D01*
X101169350Y-84826899D01*
X101024066Y-84798000D01*
X100918335Y-84798000D01*
X100971937Y-84575934D01*
X103048000Y-84575934D01*
X103048000Y-84724066D01*
X103076899Y-84869350D01*
X103133586Y-85006206D01*
X103215883Y-85129372D01*
X103320628Y-85234117D01*
X103443794Y-85316414D01*
X103580650Y-85373101D01*
X103725934Y-85402000D01*
X103753819Y-85402000D01*
X105037786Y-86750495D01*
X105037786Y-86813852D01*
X105066685Y-86959136D01*
X105123372Y-87095992D01*
X105205669Y-87219158D01*
X105310414Y-87323903D01*
X105433580Y-87406200D01*
X105570436Y-87462887D01*
X105715720Y-87491786D01*
X105863852Y-87491786D01*
X106009136Y-87462887D01*
X106145992Y-87406200D01*
X106269158Y-87323903D01*
X106373903Y-87219158D01*
X106456200Y-87095992D01*
X106512887Y-86959136D01*
X106541786Y-86813852D01*
X106541786Y-86665720D01*
X106512887Y-86520436D01*
X106456200Y-86383580D01*
X106373903Y-86260414D01*
X106269158Y-86155669D01*
X106145992Y-86073372D01*
X106009136Y-86016685D01*
X105863852Y-85987786D01*
X105835968Y-85987786D01*
X104552000Y-84639291D01*
X104552000Y-84575934D01*
X104523101Y-84430650D01*
X104466414Y-84293794D01*
X104384117Y-84170628D01*
X104279372Y-84065883D01*
X104156206Y-83983586D01*
X104019350Y-83926899D01*
X103874066Y-83898000D01*
X103725934Y-83898000D01*
X103580650Y-83926899D01*
X103443794Y-83983586D01*
X103320628Y-84065883D01*
X103215883Y-84170628D01*
X103133586Y-84293794D01*
X103076899Y-84430650D01*
X103048000Y-84575934D01*
X100971937Y-84575934D01*
X101116761Y-83975952D01*
X101179372Y-83934117D01*
X101284117Y-83829372D01*
X101366414Y-83706206D01*
X101423101Y-83569350D01*
X101452000Y-83424066D01*
X101452000Y-83275934D01*
X101423101Y-83130650D01*
X101366414Y-82993794D01*
X101284117Y-82870628D01*
X101179372Y-82765883D01*
X101056206Y-82683586D01*
X100919350Y-82626899D01*
X100774066Y-82598000D01*
X100625934Y-82598000D01*
X100480650Y-82626899D01*
X100343794Y-82683586D01*
X100220628Y-82765883D01*
X100115883Y-82870628D01*
X100033586Y-82993794D01*
X99976899Y-83130650D01*
X99948000Y-83275934D01*
X99948000Y-83424066D01*
X99976899Y-83569350D01*
X100033586Y-83706206D01*
X100042828Y-83720038D01*
X99815311Y-84662607D01*
X99672676Y-85185602D01*
X99661235Y-85218127D01*
X99654570Y-85264788D01*
X99646685Y-85311260D01*
X99646891Y-85318550D01*
X99645860Y-85325769D01*
X99648427Y-85372839D01*
X99649759Y-85419949D01*
X99657439Y-85453561D01*
X99748905Y-86048095D01*
X99749292Y-86066168D01*
X99757148Y-86101673D01*
X99758541Y-86110729D01*
X99763013Y-86128183D01*
X99772782Y-86172334D01*
X99776485Y-86180759D01*
X99778769Y-86189673D01*
X99798329Y-86230460D01*
X99816533Y-86271878D01*
X99821808Y-86279418D01*
X99825787Y-86287715D01*
X99852927Y-86323900D01*
X99863249Y-86338654D01*
X99869206Y-86345604D01*
X99891030Y-86374701D01*
X99898682Y-86381561D01*
X99893794Y-86383586D01*
X99770628Y-86465883D01*
X99665883Y-86570628D01*
X99583586Y-86693794D01*
X99526899Y-86830650D01*
X99498000Y-86975934D01*
X99498000Y-87124066D01*
X99526899Y-87269350D01*
X99583586Y-87406206D01*
X99665883Y-87529372D01*
X99692752Y-87556241D01*
X99653299Y-91383212D01*
X99615883Y-91420628D01*
X99533586Y-91543794D01*
X99476899Y-91680650D01*
X99448000Y-91825934D01*
X99448000Y-91974066D01*
X99476899Y-92119350D01*
X99516438Y-92214807D01*
X99455650Y-92226899D01*
X99318794Y-92283586D01*
X99195628Y-92365883D01*
X99090883Y-92470628D01*
X99008586Y-92593794D01*
X98951899Y-92730650D01*
X98923000Y-92875934D01*
X98923000Y-93024066D01*
X98951899Y-93169350D01*
X99008586Y-93306206D01*
X99090883Y-93429372D01*
X99195628Y-93534117D01*
X99318794Y-93616414D01*
X99322380Y-93617899D01*
X98943390Y-93682605D01*
X98513393Y-93539273D01*
X98434117Y-93420628D01*
X98329372Y-93315883D01*
X98206206Y-93233586D01*
X98069350Y-93176899D01*
X97924066Y-93148000D01*
X97775934Y-93148000D01*
X97630650Y-93176899D01*
X97493794Y-93233586D01*
X97370628Y-93315883D01*
X97265883Y-93420628D01*
X97183586Y-93543794D01*
X97126899Y-93680650D01*
X97098000Y-93825934D01*
X97098000Y-93974066D01*
X97126899Y-94119350D01*
X97183586Y-94256206D01*
X97265883Y-94379372D01*
X97370628Y-94484117D01*
X97493794Y-94566414D01*
X97630650Y-94623101D01*
X97775934Y-94652000D01*
X97924066Y-94652000D01*
X98069350Y-94623101D01*
X98160483Y-94585353D01*
X98465657Y-94687078D01*
X98426899Y-94780650D01*
X98420698Y-94811825D01*
X97332220Y-95509568D01*
X97274066Y-95498000D01*
X97125934Y-95498000D01*
X96980650Y-95526899D01*
X96843794Y-95583586D01*
X96720628Y-95665883D01*
X96615883Y-95770628D01*
X96533586Y-95893794D01*
X96476899Y-96030650D01*
X96448000Y-96175934D01*
X73751608Y-96175934D01*
X73321659Y-94850588D01*
X73815377Y-95219445D01*
X74460163Y-95527177D01*
X75152595Y-95703205D01*
X75866064Y-95740764D01*
X76573151Y-95638410D01*
X76804331Y-95573211D01*
X77285600Y-95262578D01*
X77097721Y-94893844D01*
X76779526Y-94269350D01*
X76779525Y-94269350D01*
X76751950Y-94215231D01*
X76775436Y-94191745D01*
X76703153Y-94119462D01*
X75689949Y-92130935D01*
X75676816Y-92137627D01*
X75653330Y-92114141D01*
X75581048Y-92186423D01*
X74217014Y-92881433D01*
X73592520Y-93199628D01*
X73538400Y-93227203D01*
X73514915Y-93203718D01*
X73442634Y-93275999D01*
X72900470Y-93552246D01*
X72886098Y-93507941D01*
X72906156Y-93497721D01*
X73530650Y-93179526D01*
X73530650Y-93179525D01*
X73584769Y-93151950D01*
X73608255Y-93175436D01*
X73680538Y-93103153D01*
X75629612Y-92110051D01*
X75730935Y-92110051D01*
X76481433Y-93582986D01*
X76799628Y-94207480D01*
X76827203Y-94261600D01*
X76803718Y-94285085D01*
X76875999Y-94357366D01*
X77326587Y-95241694D01*
X77860777Y-95034924D01*
X78391834Y-94556984D01*
X78819445Y-93984623D01*
X79127177Y-93339837D01*
X79303205Y-92647405D01*
X79340764Y-91933936D01*
X79303418Y-91675934D01*
X87498000Y-91675934D01*
X87498000Y-91824066D01*
X87526899Y-91969350D01*
X87583586Y-92106206D01*
X87665883Y-92229372D01*
X87770628Y-92334117D01*
X87893794Y-92416414D01*
X88030650Y-92473101D01*
X88175934Y-92502000D01*
X88324066Y-92502000D01*
X88469350Y-92473101D01*
X88606206Y-92416414D01*
X88729372Y-92334117D01*
X88834117Y-92229372D01*
X88916414Y-92106206D01*
X88973101Y-91969350D01*
X89002000Y-91824066D01*
X89002000Y-91675934D01*
X88990180Y-91616512D01*
X91089397Y-88329059D01*
X91119350Y-88323101D01*
X91256206Y-88266414D01*
X91379372Y-88184117D01*
X91484117Y-88079372D01*
X91566414Y-87956206D01*
X91623101Y-87819350D01*
X91652000Y-87674066D01*
X91652000Y-87525934D01*
X91623101Y-87380650D01*
X91566414Y-87243794D01*
X91484117Y-87120628D01*
X91379372Y-87015883D01*
X91256206Y-86933586D01*
X91119350Y-86876899D01*
X90974066Y-86848000D01*
X90825934Y-86848000D01*
X90680650Y-86876899D01*
X90543794Y-86933586D01*
X90420628Y-87015883D01*
X90315883Y-87120628D01*
X90233586Y-87243794D01*
X90176899Y-87380650D01*
X90148000Y-87525934D01*
X90148000Y-87674066D01*
X90159820Y-87733488D01*
X88060604Y-91020941D01*
X88030650Y-91026899D01*
X87893794Y-91083586D01*
X87770628Y-91165883D01*
X87665883Y-91270628D01*
X87583586Y-91393794D01*
X87526899Y-91530650D01*
X87498000Y-91675934D01*
X79303418Y-91675934D01*
X79238410Y-91226849D01*
X79173211Y-90995669D01*
X78862578Y-90514400D01*
X78493844Y-90702279D01*
X77869350Y-91020474D01*
X77869350Y-91020475D01*
X77828364Y-91041358D01*
X77815231Y-91048050D01*
X77791745Y-91024564D01*
X77719463Y-91096846D01*
X75730935Y-92110051D01*
X75629612Y-92110051D01*
X75669065Y-92089949D01*
X75662373Y-92076816D01*
X75685859Y-92053330D01*
X75613577Y-91981048D01*
X74880720Y-90542735D01*
X74600372Y-89992520D01*
X74572797Y-89938400D01*
X74596282Y-89914915D01*
X74524001Y-89842634D01*
X74233784Y-89273052D01*
X74271466Y-89245682D01*
X74302279Y-89306156D01*
X74620474Y-89930650D01*
X74620475Y-89930650D01*
X74648050Y-89984769D01*
X74624564Y-90008255D01*
X74696847Y-90080538D01*
X75710051Y-92069065D01*
X77182986Y-91318567D01*
X77807480Y-91000372D01*
X77861600Y-90972797D01*
X77885085Y-90996282D01*
X77957366Y-90924001D01*
X78841694Y-90473413D01*
X78634924Y-89939223D01*
X78156984Y-89408166D01*
X77584623Y-88980555D01*
X76939837Y-88672823D01*
X76247405Y-88496795D01*
X75533936Y-88459236D01*
X75309531Y-88491720D01*
X81468652Y-84018253D01*
X83261243Y-84018253D01*
X83511052Y-84362085D01*
X83638387Y-84498594D01*
X83789909Y-84607637D01*
X83959792Y-84685025D01*
X84141508Y-84727783D01*
X84328074Y-84734269D01*
X84512322Y-84704233D01*
X84679296Y-84642339D01*
X84745751Y-84480994D01*
X84012820Y-83472200D01*
X83261243Y-84018253D01*
X81468652Y-84018253D01*
X82822215Y-83035139D01*
X82815930Y-83110635D01*
X82837033Y-83296117D01*
X82893917Y-83473919D01*
X82984396Y-83637206D01*
X83234205Y-83981038D01*
X83971775Y-83445162D01*
X84050034Y-83445162D01*
X84782966Y-84453956D01*
X84956949Y-84440612D01*
X84968557Y-84425934D01*
X89198000Y-84425934D01*
X89198000Y-84574066D01*
X89226899Y-84719350D01*
X89283586Y-84856206D01*
X89365883Y-84979372D01*
X89452299Y-85065788D01*
X89433586Y-85093794D01*
X89376899Y-85230650D01*
X89348000Y-85375934D01*
X89348000Y-85524066D01*
X89376899Y-85669350D01*
X89433586Y-85806206D01*
X89515883Y-85929372D01*
X89620628Y-86034117D01*
X89743794Y-86116414D01*
X89880650Y-86173101D01*
X90025934Y-86202000D01*
X90174066Y-86202000D01*
X90319350Y-86173101D01*
X90456206Y-86116414D01*
X90579372Y-86034117D01*
X90684117Y-85929372D01*
X90766414Y-85806206D01*
X90823101Y-85669350D01*
X90828845Y-85640473D01*
X99899584Y-79868037D01*
X100026109Y-79827779D01*
X100127201Y-79869652D01*
X100272485Y-79898551D01*
X100420617Y-79898551D01*
X100565901Y-79869652D01*
X100702757Y-79812965D01*
X100825923Y-79730668D01*
X100930668Y-79625923D01*
X101012965Y-79502757D01*
X101069652Y-79365901D01*
X101098551Y-79220617D01*
X101098551Y-79072485D01*
X101086122Y-79010002D01*
X101165883Y-79129372D01*
X101270628Y-79234117D01*
X101393794Y-79316414D01*
X101530650Y-79373101D01*
X101675934Y-79402000D01*
X101824066Y-79402000D01*
X101969350Y-79373101D01*
X102106206Y-79316414D01*
X102229372Y-79234117D01*
X102334117Y-79129372D01*
X102416414Y-79006206D01*
X102473101Y-78869350D01*
X102502000Y-78724066D01*
X102502000Y-78575934D01*
X102473101Y-78430650D01*
X102416414Y-78293794D01*
X102334117Y-78170628D01*
X102229372Y-78065883D01*
X102106206Y-77983586D01*
X101969350Y-77926899D01*
X101824066Y-77898000D01*
X101675934Y-77898000D01*
X101530650Y-77926899D01*
X101468240Y-77952750D01*
X101172905Y-77840727D01*
X101282994Y-77811256D01*
X101923845Y-77495409D01*
X102123562Y-77361963D01*
X102485286Y-76917813D01*
X100000000Y-74432527D01*
X97514714Y-76917813D01*
X97876438Y-77361963D01*
X98043101Y-77458238D01*
X97819508Y-77547675D01*
X97769350Y-77526899D01*
X97624066Y-77498000D01*
X97475934Y-77498000D01*
X97330650Y-77526899D01*
X97193794Y-77583586D01*
X97070628Y-77665883D01*
X96965883Y-77770628D01*
X96883586Y-77893794D01*
X96826899Y-78030650D01*
X96798000Y-78175934D01*
X96798000Y-78324066D01*
X96826899Y-78469350D01*
X96883586Y-78606206D01*
X96965883Y-78729372D01*
X97070628Y-78834117D01*
X97193794Y-78916414D01*
X97330650Y-78973101D01*
X97475934Y-79002000D01*
X97624066Y-79002000D01*
X97769350Y-78973101D01*
X97881817Y-78926516D01*
X90092770Y-83761666D01*
X90024066Y-83748000D01*
X89875934Y-83748000D01*
X89730650Y-83776899D01*
X89593794Y-83833586D01*
X89470628Y-83915883D01*
X89365883Y-84020628D01*
X89283586Y-84143794D01*
X89226899Y-84280650D01*
X89198000Y-84425934D01*
X84968557Y-84425934D01*
X85067412Y-84300936D01*
X85152914Y-84134988D01*
X85204398Y-83955549D01*
X85219886Y-83769513D01*
X85198783Y-83584031D01*
X85141899Y-83406229D01*
X85051420Y-83242942D01*
X84801611Y-82899110D01*
X84050034Y-83445162D01*
X83971775Y-83445162D01*
X83985782Y-83434986D01*
X83974026Y-83418805D01*
X84011240Y-83391767D01*
X84022996Y-83407948D01*
X84774573Y-82861895D01*
X84524764Y-82518063D01*
X84397429Y-82381554D01*
X84245907Y-82272511D01*
X84076024Y-82195123D01*
X84002559Y-82177837D01*
X87254930Y-79815588D01*
X89045714Y-79815588D01*
X89295523Y-80159420D01*
X89422858Y-80295929D01*
X89574380Y-80404972D01*
X89744263Y-80482360D01*
X89925979Y-80525118D01*
X90112545Y-80531604D01*
X90296793Y-80501568D01*
X90463767Y-80439674D01*
X90530222Y-80278329D01*
X89797291Y-79269535D01*
X89045714Y-79815588D01*
X87254930Y-79815588D01*
X88606570Y-78833871D01*
X88600401Y-78907970D01*
X88621504Y-79093452D01*
X88678388Y-79271254D01*
X88768867Y-79434541D01*
X89018676Y-79778373D01*
X89756246Y-79242497D01*
X89834505Y-79242497D01*
X90567437Y-80251291D01*
X90741420Y-80237947D01*
X90851883Y-80098271D01*
X90937385Y-79932323D01*
X90988869Y-79752884D01*
X91004357Y-79566848D01*
X90983254Y-79381366D01*
X90926370Y-79203564D01*
X90835891Y-79040277D01*
X90586082Y-78696445D01*
X89834505Y-79242497D01*
X89756246Y-79242497D01*
X89770253Y-79232321D01*
X89758497Y-79216140D01*
X89795711Y-79189102D01*
X89807467Y-79205283D01*
X90559044Y-78659230D01*
X90309235Y-78315398D01*
X90181900Y-78178889D01*
X90030378Y-78069846D01*
X89860495Y-77992458D01*
X89788395Y-77975493D01*
X96647093Y-72993912D01*
X96450851Y-73571578D01*
X96357430Y-74279901D01*
X96403991Y-74992839D01*
X96588744Y-75682994D01*
X96904591Y-76323845D01*
X97038037Y-76523562D01*
X97482187Y-76885286D01*
X99967473Y-74400000D01*
X99953331Y-74385858D01*
X99985858Y-74353331D01*
X100000000Y-74367473D01*
X100014142Y-74353331D01*
X100046669Y-74385858D01*
X100032527Y-74400000D01*
X102517813Y-76885286D01*
X102961963Y-76523562D01*
X103319336Y-75904908D01*
X103549149Y-75228422D01*
X103642570Y-74520099D01*
X103596009Y-73807161D01*
X103411256Y-73117006D01*
X103349295Y-72991288D01*
X124671061Y-88477623D01*
G37*
X124671061Y-88477623D02*
X123991128Y-88468562D01*
X123288605Y-88598597D01*
X122624949Y-88863189D01*
X122025664Y-89252170D01*
X121513780Y-89750592D01*
X121365076Y-89939223D01*
X121158306Y-90473413D01*
X122042634Y-90924001D01*
X122114915Y-90996282D01*
X122138400Y-90972797D01*
X122192520Y-91000372D01*
X122817014Y-91318567D01*
X124289949Y-92069065D01*
X125303153Y-90080538D01*
X125375436Y-90008255D01*
X125351950Y-89984769D01*
X125379525Y-89930650D01*
X125379526Y-89930650D01*
X125697721Y-89306156D01*
X125728534Y-89245682D01*
X125766216Y-89273051D01*
X125475999Y-89842634D01*
X125403718Y-89914915D01*
X125427203Y-89938400D01*
X125399628Y-89992520D01*
X125119280Y-90542735D01*
X124386423Y-91981048D01*
X124314141Y-92053330D01*
X124337627Y-92076816D01*
X124330935Y-92089949D01*
X126319462Y-93103153D01*
X126391745Y-93175436D01*
X126415231Y-93151950D01*
X126469350Y-93179525D01*
X126469350Y-93179526D01*
X127093844Y-93497721D01*
X127113902Y-93507941D01*
X127099529Y-93552245D01*
X126557366Y-93275999D01*
X126485085Y-93203718D01*
X126461600Y-93227203D01*
X126407480Y-93199628D01*
X125782986Y-92881433D01*
X124418952Y-92186423D01*
X124346670Y-92114141D01*
X124323184Y-92137627D01*
X124310051Y-92130935D01*
X123296847Y-94119462D01*
X123224564Y-94191745D01*
X123248050Y-94215231D01*
X123220475Y-94269350D01*
X123220474Y-94269350D01*
X122902279Y-94893844D01*
X122714400Y-95262578D01*
X123195669Y-95573211D01*
X123894478Y-95721918D01*
X124608872Y-95731438D01*
X125311395Y-95601403D01*
X125975051Y-95336811D01*
X126574336Y-94947830D01*
X126680250Y-94844701D01*
X125660225Y-97989000D01*
X122599716Y-97989000D01*
X122604277Y-97873456D01*
X122568051Y-97644455D01*
X122555324Y-97599333D01*
X122392517Y-97474998D01*
X121454555Y-97952913D01*
X121461247Y-97966046D01*
X121438293Y-97989000D01*
X121421315Y-97989000D01*
X121413569Y-97973797D01*
X121400436Y-97980489D01*
X121376950Y-97957003D01*
X121344953Y-97989000D01*
X121282408Y-97989000D01*
X121392685Y-97932811D01*
X120914770Y-96994849D01*
X120709974Y-96999742D01*
X120539692Y-97157089D01*
X120403380Y-97344633D01*
X120306275Y-97555167D01*
X120252108Y-97780600D01*
X120243881Y-97989000D01*
X118272000Y-97989000D01*
X118247224Y-97991440D01*
X118223399Y-97998667D01*
X118201443Y-98010403D01*
X118182197Y-98026197D01*
X118166403Y-98045443D01*
X118151378Y-98076258D01*
X117024002Y-101497969D01*
X114752000Y-99436896D01*
X114752000Y-99425934D01*
X114723101Y-99280650D01*
X114666414Y-99143794D01*
X114584117Y-99020628D01*
X114479372Y-98915883D01*
X114356206Y-98833586D01*
X114219350Y-98776899D01*
X114074066Y-98748000D01*
X113925934Y-98748000D01*
X113818973Y-98769276D01*
X110916803Y-97165446D01*
X110866414Y-97043794D01*
X110819756Y-96973965D01*
X120955756Y-96973965D01*
X121433671Y-97911927D01*
X122371633Y-97434012D01*
X122366740Y-97229216D01*
X122209393Y-97058934D01*
X122021849Y-96922622D01*
X121811315Y-96825517D01*
X121585882Y-96771350D01*
X121354214Y-96762205D01*
X121125213Y-96798431D01*
X121080091Y-96811158D01*
X120955756Y-96973965D01*
X110819756Y-96973965D01*
X110784117Y-96920628D01*
X110679372Y-96815883D01*
X110556206Y-96733586D01*
X110419350Y-96676899D01*
X110407824Y-96674606D01*
X111843754Y-93739489D01*
X113728795Y-92408872D01*
X120668562Y-92408872D01*
X120798597Y-93111395D01*
X121063189Y-93775051D01*
X121452170Y-94374336D01*
X121950592Y-94886220D01*
X122139223Y-95034924D01*
X122673413Y-95241694D01*
X123124001Y-94357366D01*
X123196282Y-94285085D01*
X123172797Y-94261600D01*
X123200372Y-94207480D01*
X123518567Y-93582986D01*
X124269065Y-92110051D01*
X122280537Y-91096846D01*
X122208255Y-91024564D01*
X122184769Y-91048050D01*
X122171636Y-91041358D01*
X122130650Y-91020475D01*
X122130650Y-91020474D01*
X121506156Y-90702279D01*
X121137422Y-90514400D01*
X120826789Y-90995669D01*
X120678082Y-91694478D01*
X120668562Y-92408872D01*
X113728795Y-92408872D01*
X114539354Y-91836713D01*
X114565934Y-91842000D01*
X114714066Y-91842000D01*
X114859350Y-91813101D01*
X114996206Y-91756414D01*
X115119372Y-91674117D01*
X115224117Y-91569372D01*
X115306414Y-91446206D01*
X115363101Y-91309350D01*
X115392000Y-91164066D01*
X115392000Y-91015934D01*
X115363101Y-90870650D01*
X115306414Y-90733794D01*
X115224117Y-90610628D01*
X115119372Y-90505883D01*
X114996206Y-90423586D01*
X114859350Y-90366899D01*
X114714066Y-90338000D01*
X114565934Y-90338000D01*
X114420650Y-90366899D01*
X114283794Y-90423586D01*
X114160628Y-90505883D01*
X114055883Y-90610628D01*
X113973586Y-90733794D01*
X113916899Y-90870650D01*
X113904379Y-90933594D01*
X111133748Y-92889334D01*
X111131149Y-92890521D01*
X111089396Y-92920641D01*
X111069524Y-92934668D01*
X111067372Y-92936528D01*
X111042965Y-92954135D01*
X111026332Y-92972007D01*
X111007873Y-92987964D01*
X110989393Y-93011696D01*
X110968886Y-93033730D01*
X110956059Y-93054504D01*
X110941068Y-93073755D01*
X110927573Y-93100637D01*
X110926070Y-93103071D01*
X110915319Y-93125047D01*
X110892284Y-93170932D01*
X110891527Y-93173679D01*
X108682792Y-97688451D01*
X105722881Y-100735705D01*
X105712562Y-100743554D01*
X105685089Y-100774613D01*
X105675156Y-100784839D01*
X105667114Y-100794934D01*
X105640521Y-100824998D01*
X105633306Y-100837373D01*
X105624378Y-100848580D01*
X105605970Y-100884257D01*
X105585753Y-100918932D01*
X105581090Y-100932478D01*
X105574521Y-100945210D01*
X105563429Y-100983784D01*
X105550362Y-101021746D01*
X105548431Y-101035945D01*
X105544473Y-101049710D01*
X105541120Y-101089709D01*
X105535710Y-101129488D01*
X105536586Y-101143786D01*
X105535389Y-101158063D01*
X105539905Y-101197956D01*
X105542359Y-101238018D01*
X105546007Y-101251870D01*
X105547619Y-101266108D01*
X105559831Y-101304354D01*
X105570053Y-101343166D01*
X105576334Y-101356040D01*
X105580692Y-101369690D01*
X105600131Y-101404819D01*
X105605785Y-101416409D01*
X105613255Y-101428537D01*
X105633338Y-101464830D01*
X105641709Y-101474734D01*
X107318368Y-104196841D01*
X108321422Y-105868598D01*
X107638712Y-107079176D01*
X106255770Y-107310954D01*
X105757076Y-107122424D01*
X105829372Y-107074117D01*
X105934117Y-106969372D01*
X106016414Y-106846206D01*
X106073101Y-106709350D01*
X106102000Y-106564066D01*
X106102000Y-106415934D01*
X106073101Y-106270650D01*
X106016414Y-106133794D01*
X105934117Y-106010628D01*
X105829372Y-105905883D01*
X105808815Y-105892147D01*
X105609370Y-104711647D01*
X105646414Y-104656206D01*
X105703101Y-104519350D01*
X105732000Y-104374066D01*
X105732000Y-104225934D01*
X105703101Y-104080650D01*
X105646414Y-103943794D01*
X105564117Y-103820628D01*
X105459372Y-103715883D01*
X105336206Y-103633586D01*
X105199350Y-103576899D01*
X105054066Y-103548000D01*
X104905934Y-103548000D01*
X104760650Y-103576899D01*
X104623794Y-103633586D01*
X104500628Y-103715883D01*
X104395883Y-103820628D01*
X104313586Y-103943794D01*
X104256899Y-104080650D01*
X104247984Y-104125470D01*
X104233101Y-104050650D01*
X104176414Y-103913794D01*
X104094117Y-103790628D01*
X103989372Y-103685883D01*
X103866206Y-103603586D01*
X103729350Y-103546899D01*
X103647601Y-103530638D01*
X101465075Y-100600314D01*
X101456898Y-100585511D01*
X101432665Y-100556800D01*
X101426507Y-100548532D01*
X101415200Y-100536107D01*
X101386765Y-100502418D01*
X101378644Y-100495938D01*
X101371656Y-100488260D01*
X101336223Y-100462092D01*
X101301769Y-100434603D01*
X101292540Y-100429833D01*
X101284189Y-100423665D01*
X101244346Y-100404920D01*
X101205177Y-100384673D01*
X101195187Y-100381793D01*
X101185800Y-100377376D01*
X101143071Y-100366765D01*
X101126873Y-100362094D01*
X101116702Y-100360216D01*
X101080271Y-100351169D01*
X101063391Y-100350374D01*
X97861333Y-99759226D01*
X97819374Y-99749686D01*
X97780804Y-99748636D01*
X97742352Y-99745383D01*
X97726561Y-99747158D01*
X97710680Y-99746726D01*
X97672648Y-99753220D01*
X97634298Y-99757532D01*
X97619157Y-99762354D01*
X97603497Y-99765028D01*
X97567457Y-99778819D01*
X97530691Y-99790528D01*
X97493036Y-99811328D01*
X95564016Y-100775838D01*
X95468916Y-100756921D01*
X95069391Y-100247212D01*
X95069391Y-100108543D01*
X95040492Y-99963259D01*
X94983805Y-99826403D01*
X94901508Y-99703237D01*
X94796763Y-99598492D01*
X94673597Y-99516195D01*
X94536741Y-99459508D01*
X94391457Y-99430609D01*
X94243325Y-99430609D01*
X94098041Y-99459508D01*
X93961185Y-99516195D01*
X93838019Y-99598492D01*
X93733274Y-99703237D01*
X93650977Y-99826403D01*
X93594290Y-99963259D01*
X93565391Y-100108543D01*
X93565391Y-100256675D01*
X93594290Y-100401959D01*
X93650977Y-100538815D01*
X93733274Y-100661981D01*
X93838019Y-100766726D01*
X93961185Y-100849023D01*
X94098041Y-100905710D01*
X94198475Y-100925688D01*
X94598000Y-101435398D01*
X94598000Y-101574066D01*
X94626899Y-101719350D01*
X94683586Y-101856206D01*
X94765883Y-101979372D01*
X94870628Y-102084117D01*
X94993794Y-102166414D01*
X95130650Y-102223101D01*
X95275934Y-102252000D01*
X95424066Y-102252000D01*
X95569350Y-102223101D01*
X95706206Y-102166414D01*
X95829372Y-102084117D01*
X95934117Y-101979372D01*
X96016414Y-101856206D01*
X96054162Y-101765073D01*
X97831546Y-100876382D01*
X100686720Y-101403491D01*
X102759802Y-104186873D01*
X102758000Y-104195934D01*
X102758000Y-104344066D01*
X102786899Y-104489350D01*
X102843586Y-104626206D01*
X102925883Y-104749372D01*
X103030628Y-104854117D01*
X103153794Y-104936414D01*
X103290650Y-104993101D01*
X103435934Y-105022000D01*
X103584066Y-105022000D01*
X103729350Y-104993101D01*
X103866206Y-104936414D01*
X103989372Y-104854117D01*
X104094117Y-104749372D01*
X104176414Y-104626206D01*
X104233101Y-104489350D01*
X104242016Y-104444530D01*
X104256899Y-104519350D01*
X104313586Y-104656206D01*
X104395883Y-104779372D01*
X104500628Y-104884117D01*
X104521185Y-104897853D01*
X104720630Y-106078353D01*
X104683586Y-106133794D01*
X104626899Y-106270650D01*
X104598000Y-106415934D01*
X104598000Y-106564066D01*
X104623986Y-106694707D01*
X102196178Y-105788949D01*
X102189062Y-105784838D01*
X102145330Y-105769979D01*
X102127548Y-105763345D01*
X102119643Y-105761251D01*
X102086108Y-105749857D01*
X102067206Y-105747363D01*
X102048770Y-105742480D01*
X102013419Y-105740266D01*
X101978308Y-105735633D01*
X101959277Y-105736875D01*
X101940250Y-105735683D01*
X101905161Y-105740406D01*
X101896987Y-105740939D01*
X101878226Y-105744031D01*
X101832487Y-105750187D01*
X101824718Y-105752849D01*
X98552045Y-106292201D01*
X98405984Y-106160746D01*
X98380127Y-105922859D01*
X98377515Y-105881201D01*
X98367306Y-105842662D01*
X98359133Y-105803638D01*
X98353410Y-105790207D01*
X98349671Y-105776092D01*
X98332136Y-105740278D01*
X98316510Y-105703606D01*
X98308276Y-105691549D01*
X98301856Y-105678436D01*
X98277678Y-105646741D01*
X98255191Y-105613811D01*
X98244761Y-105603589D01*
X98235908Y-105591984D01*
X98206016Y-105565619D01*
X98177532Y-105537704D01*
X98165308Y-105529714D01*
X98154362Y-105520059D01*
X98119888Y-105500024D01*
X98086517Y-105478211D01*
X98047800Y-105462630D01*
X97607960Y-105261834D01*
X97567892Y-105241833D01*
X97532339Y-105232122D01*
X97497485Y-105220180D01*
X97480011Y-105217829D01*
X97463001Y-105213183D01*
X97426235Y-105210594D01*
X97389722Y-105205682D01*
X97372130Y-105206785D01*
X97354535Y-105205546D01*
X97317968Y-105210180D01*
X97281202Y-105212485D01*
X97237954Y-105223942D01*
X96697049Y-105347306D01*
X96690331Y-105348326D01*
X96670648Y-105353327D01*
X96650827Y-105357848D01*
X96644376Y-105360003D01*
X95943104Y-105538195D01*
X95936206Y-105533586D01*
X95799350Y-105476899D01*
X95654066Y-105448000D01*
X95505934Y-105448000D01*
X95360650Y-105476899D01*
X95223794Y-105533586D01*
X95100628Y-105615883D01*
X94995883Y-105720628D01*
X94913586Y-105843794D01*
X94856899Y-105980650D01*
X94828000Y-106125934D01*
X94828000Y-106274066D01*
X94856899Y-106419350D01*
X94913586Y-106556206D01*
X94995883Y-106679372D01*
X95100628Y-106784117D01*
X95223794Y-106866414D01*
X95360650Y-106923101D01*
X95505934Y-106952000D01*
X95654066Y-106952000D01*
X95799350Y-106923101D01*
X95936206Y-106866414D01*
X96059372Y-106784117D01*
X96164117Y-106679372D01*
X96211002Y-106609204D01*
X96929356Y-106426672D01*
X97310655Y-106339709D01*
X97315158Y-106341764D01*
X97326635Y-106447353D01*
X97326097Y-106459152D01*
X97332497Y-106501283D01*
X97334162Y-106516598D01*
X97336572Y-106528106D01*
X97342428Y-106566653D01*
X97347693Y-106581208D01*
X97350867Y-106596362D01*
X97366153Y-106632236D01*
X97379417Y-106668903D01*
X97387422Y-106682154D01*
X97393490Y-106696394D01*
X97415479Y-106728594D01*
X97435643Y-106761971D01*
X97446079Y-106773405D01*
X97454809Y-106786189D01*
X97482656Y-106813479D01*
X97490582Y-106822163D01*
X97502037Y-106832472D01*
X97532468Y-106862295D01*
X97542351Y-106868755D01*
X97972932Y-107256279D01*
X97975058Y-107259051D01*
X98013201Y-107292521D01*
X98030881Y-107308433D01*
X98033699Y-107310508D01*
X98056788Y-107330768D01*
X98077360Y-107342653D01*
X98096507Y-107356750D01*
X98124339Y-107369794D01*
X98150939Y-107385162D01*
X98173442Y-107392808D01*
X98194964Y-107402895D01*
X98224797Y-107410257D01*
X98253892Y-107420143D01*
X98277453Y-107423252D01*
X98300531Y-107428947D01*
X98331231Y-107430348D01*
X98361692Y-107434367D01*
X98385407Y-107432820D01*
X98409152Y-107433903D01*
X98439529Y-107429288D01*
X98443013Y-107429061D01*
X98466442Y-107425200D01*
X98516653Y-107417572D01*
X98519939Y-107416383D01*
X101904751Y-106858552D01*
X104365980Y-107776779D01*
X105963483Y-108380714D01*
X105972313Y-108385783D01*
X106014229Y-108399898D01*
X106030158Y-108405920D01*
X106039946Y-108408558D01*
X106075361Y-108420484D01*
X106092324Y-108422675D01*
X106108844Y-108427128D01*
X106146135Y-108429627D01*
X106183199Y-108434415D01*
X106200269Y-108433254D01*
X106217335Y-108434398D01*
X106254396Y-108429574D01*
X106264505Y-108428887D01*
X106281289Y-108426074D01*
X106325160Y-108420364D01*
X106334810Y-108417104D01*
X108029737Y-108133039D01*
X108031868Y-108133087D01*
X108083201Y-108124078D01*
X108107977Y-108119926D01*
X108110035Y-108119369D01*
X108138966Y-108114292D01*
X108162393Y-108105203D01*
X108186643Y-108098642D01*
X108212956Y-108085586D01*
X108240338Y-108074963D01*
X108261537Y-108061482D01*
X108284047Y-108050313D01*
X108307305Y-108032376D01*
X108332091Y-108016614D01*
X108350258Y-107999251D01*
X108370150Y-107983910D01*
X108389459Y-107961784D01*
X108410697Y-107941486D01*
X108425125Y-107920916D01*
X108441645Y-107901986D01*
X108456270Y-107876512D01*
X108457494Y-107874767D01*
X108469821Y-107852909D01*
X108495783Y-107807688D01*
X108496464Y-107805665D01*
X108608000Y-107607890D01*
X108608000Y-107664066D01*
X108636899Y-107809350D01*
X108693586Y-107946206D01*
X108775883Y-108069372D01*
X108880628Y-108174117D01*
X108965800Y-108231027D01*
X109065123Y-108586935D01*
X109074754Y-108628254D01*
X109090917Y-108663933D01*
X109105097Y-108700458D01*
X109113310Y-108713366D01*
X109119622Y-108727299D01*
X109142438Y-108759144D01*
X109163469Y-108792196D01*
X109192795Y-108822865D01*
X112742378Y-112870987D01*
X113127767Y-113323469D01*
X112683011Y-114673353D01*
X110633016Y-114681245D01*
X110601424Y-114569148D01*
X110496205Y-114362550D01*
X110470158Y-114323568D01*
X110276898Y-114255629D01*
X109848261Y-114684266D01*
X109782955Y-114684518D01*
X110244371Y-114223102D01*
X110176432Y-114029842D01*
X109974166Y-113916517D01*
X109753678Y-113844831D01*
X109523441Y-113817537D01*
X109292304Y-113835684D01*
X109069148Y-113898576D01*
X108862550Y-114003795D01*
X108823568Y-114029842D01*
X108755629Y-114223102D01*
X109219215Y-114686688D01*
X109154411Y-114686938D01*
X108723102Y-114255629D01*
X108529842Y-114323568D01*
X108416517Y-114525834D01*
X108363148Y-114689984D01*
X86887193Y-114772663D01*
X85759720Y-111832000D01*
X109081330Y-111832000D01*
X109091988Y-111940211D01*
X109123552Y-112044263D01*
X109174809Y-112140158D01*
X109243789Y-112224211D01*
X109327842Y-112293191D01*
X109423737Y-112344448D01*
X109527789Y-112376012D01*
X109593515Y-112382486D01*
X109596757Y-112415395D01*
X109599989Y-112448211D01*
X109608481Y-112476206D01*
X109631552Y-112552262D01*
X109682809Y-112648157D01*
X109682810Y-112648158D01*
X109751790Y-112732211D01*
X109772851Y-112749495D01*
X110242508Y-113219154D01*
X110259789Y-113240211D01*
X110343842Y-113309191D01*
X110439737Y-113360448D01*
X110543789Y-113392012D01*
X110624891Y-113400000D01*
X110624901Y-113400000D01*
X110651999Y-113402669D01*
X110679097Y-113400000D01*
X111132891Y-113400000D01*
X111160000Y-113402670D01*
X111187108Y-113400000D01*
X111187109Y-113400000D01*
X111268211Y-113392012D01*
X111372263Y-113360448D01*
X111468158Y-113309191D01*
X111552211Y-113240211D01*
X111621191Y-113156158D01*
X111672448Y-113060263D01*
X111704012Y-112956211D01*
X111714670Y-112848000D01*
X111712000Y-112820891D01*
X111712000Y-112367097D01*
X111714669Y-112339999D01*
X111712000Y-112312901D01*
X111712000Y-112312891D01*
X111704012Y-112231789D01*
X111672448Y-112127737D01*
X111621191Y-112031842D01*
X111552211Y-111947789D01*
X111531154Y-111930508D01*
X111061500Y-111460856D01*
X111044211Y-111439789D01*
X110960158Y-111370809D01*
X110864263Y-111319552D01*
X110760211Y-111287988D01*
X110694486Y-111281514D01*
X110688012Y-111215789D01*
X110656448Y-111111737D01*
X110605191Y-111015842D01*
X110536211Y-110931789D01*
X110452158Y-110862809D01*
X110356262Y-110811552D01*
X110252210Y-110779988D01*
X110144000Y-110769330D01*
X110035789Y-110779988D01*
X109931737Y-110811552D01*
X109835842Y-110862809D01*
X109751789Y-110931789D01*
X109734508Y-110952846D01*
X109264856Y-111422500D01*
X109243789Y-111439789D01*
X109174809Y-111523842D01*
X109123552Y-111619737D01*
X109091988Y-111723789D01*
X109081330Y-111832000D01*
X85759720Y-111832000D01*
X85077253Y-110052000D01*
X94488511Y-110052000D01*
X94520628Y-110084117D01*
X94643794Y-110166414D01*
X94780650Y-110223101D01*
X94925934Y-110252000D01*
X95074066Y-110252000D01*
X95219350Y-110223101D01*
X95356206Y-110166414D01*
X95479372Y-110084117D01*
X95584117Y-109979372D01*
X95666414Y-109856206D01*
X95723101Y-109719350D01*
X95752000Y-109574066D01*
X95752000Y-109425934D01*
X95723101Y-109280650D01*
X95666414Y-109143794D01*
X95584117Y-109020628D01*
X95479372Y-108915883D01*
X95356206Y-108833586D01*
X95219350Y-108776899D01*
X95074066Y-108748000D01*
X94925934Y-108748000D01*
X94780650Y-108776899D01*
X94643794Y-108833586D01*
X94520628Y-108915883D01*
X94488511Y-108948000D01*
X85011489Y-108948000D01*
X84979372Y-108915883D01*
X84856206Y-108833586D01*
X84719350Y-108776899D01*
X84577555Y-108748694D01*
X82643583Y-103704534D01*
X82632434Y-103682274D01*
X82617157Y-103662616D01*
X82598339Y-103646316D01*
X82576702Y-103634000D01*
X82553078Y-103626143D01*
X82528375Y-103623045D01*
X82492640Y-103627192D01*
X79787386Y-104340019D01*
X79667239Y-104160133D01*
X79503328Y-103996161D01*
X79466509Y-103967137D01*
X79261713Y-103962244D01*
X78957856Y-104558597D01*
X78898223Y-104574311D01*
X79220727Y-103941360D01*
X79096392Y-103778553D01*
X78869007Y-103733278D01*
X78637158Y-103733236D01*
X78409756Y-103778424D01*
X78195539Y-103867109D01*
X78002739Y-103995881D01*
X77838767Y-104159792D01*
X77809743Y-104196611D01*
X77804850Y-104401407D01*
X78401216Y-104705270D01*
X78334430Y-104722868D01*
X77783966Y-104442393D01*
X77621159Y-104566728D01*
X77575884Y-104794113D01*
X77575861Y-104922749D01*
X76666821Y-105162279D01*
X75260090Y-100825934D01*
X91848000Y-100825934D01*
X91848000Y-100974066D01*
X91876899Y-101119350D01*
X91933586Y-101256206D01*
X92015883Y-101379372D01*
X92120628Y-101484117D01*
X92243794Y-101566414D01*
X92380650Y-101623101D01*
X92500436Y-101646928D01*
X93023000Y-102280676D01*
X93023000Y-102399066D01*
X93051899Y-102544350D01*
X93108586Y-102681206D01*
X93190883Y-102804372D01*
X93295628Y-102909117D01*
X93418794Y-102991414D01*
X93555650Y-103048101D01*
X93700934Y-103077000D01*
X93849066Y-103077000D01*
X93994350Y-103048101D01*
X94131206Y-102991414D01*
X94254372Y-102909117D01*
X94359117Y-102804372D01*
X94441414Y-102681206D01*
X94498101Y-102544350D01*
X94527000Y-102399066D01*
X94527000Y-102250934D01*
X94498101Y-102105650D01*
X94441414Y-101968794D01*
X94359117Y-101845628D01*
X94254372Y-101740883D01*
X94131206Y-101658586D01*
X93994350Y-101601899D01*
X93874565Y-101578072D01*
X93352000Y-100944324D01*
X93352000Y-100825934D01*
X93323101Y-100680650D01*
X93266414Y-100543794D01*
X93184117Y-100420628D01*
X93079372Y-100315883D01*
X92956206Y-100233586D01*
X92819350Y-100176899D01*
X92674066Y-100148000D01*
X92525934Y-100148000D01*
X92380650Y-100176899D01*
X92243794Y-100233586D01*
X92120628Y-100315883D01*
X92015883Y-100420628D01*
X91933586Y-100543794D01*
X91876899Y-100680650D01*
X91848000Y-100825934D01*
X75260090Y-100825934D01*
X73751608Y-96175934D01*
X96448000Y-96175934D01*
X96448000Y-96324066D01*
X96476899Y-96469350D01*
X96533586Y-96606206D01*
X96615883Y-96729372D01*
X96720628Y-96834117D01*
X96843794Y-96916414D01*
X96980650Y-96973101D01*
X97125934Y-97002000D01*
X97274066Y-97002000D01*
X97419350Y-96973101D01*
X97556206Y-96916414D01*
X97679372Y-96834117D01*
X97784117Y-96729372D01*
X97866414Y-96606206D01*
X97923101Y-96469350D01*
X97929302Y-96438175D01*
X99017780Y-95740432D01*
X99075934Y-95752000D01*
X99224066Y-95752000D01*
X99369350Y-95723101D01*
X99506206Y-95666414D01*
X99629372Y-95584117D01*
X99734117Y-95479372D01*
X99816414Y-95356206D01*
X99873101Y-95219350D01*
X99902000Y-95074066D01*
X99902000Y-94925934D01*
X99873101Y-94780650D01*
X99820179Y-94652883D01*
X102589426Y-94180086D01*
X102643794Y-94216414D01*
X102780650Y-94273101D01*
X102925934Y-94302000D01*
X103074066Y-94302000D01*
X103219350Y-94273101D01*
X103356206Y-94216414D01*
X103479372Y-94134117D01*
X103584117Y-94029372D01*
X103666414Y-93906206D01*
X103723101Y-93769350D01*
X103752000Y-93624066D01*
X103752000Y-93475934D01*
X103723101Y-93330650D01*
X103666414Y-93193794D01*
X103584117Y-93070628D01*
X103479372Y-92965883D01*
X103356206Y-92883586D01*
X103219350Y-92826899D01*
X103074066Y-92798000D01*
X102925934Y-92798000D01*
X102780650Y-92826899D01*
X102643794Y-92883586D01*
X102520628Y-92965883D01*
X102415883Y-93070628D01*
X102401468Y-93092202D01*
X100224633Y-93463856D01*
X100259117Y-93429372D01*
X100341414Y-93306206D01*
X100354853Y-93273762D01*
X103429042Y-92051725D01*
X103480650Y-92073101D01*
X103625934Y-92102000D01*
X103774066Y-92102000D01*
X103919350Y-92073101D01*
X104056206Y-92016414D01*
X104179372Y-91934117D01*
X104284117Y-91829372D01*
X104366414Y-91706206D01*
X104423101Y-91569350D01*
X104452000Y-91424066D01*
X104452000Y-91275934D01*
X104423101Y-91130650D01*
X104366414Y-90993794D01*
X104284117Y-90870628D01*
X104179372Y-90765883D01*
X104056206Y-90683586D01*
X103919350Y-90626899D01*
X103774066Y-90598000D01*
X103625934Y-90598000D01*
X103480650Y-90626899D01*
X103343794Y-90683586D01*
X103220628Y-90765883D01*
X103115883Y-90870628D01*
X103033586Y-90993794D01*
X103020147Y-91026238D01*
X100952000Y-91848359D01*
X100952000Y-91825934D01*
X100923101Y-91680650D01*
X100866414Y-91543794D01*
X100784117Y-91420628D01*
X100757248Y-91393759D01*
X100796701Y-87566788D01*
X100834117Y-87529372D01*
X100894035Y-87439698D01*
X103898000Y-90163294D01*
X103898000Y-90174066D01*
X103926899Y-90319350D01*
X103983586Y-90456206D01*
X104065883Y-90579372D01*
X104170628Y-90684117D01*
X104293794Y-90766414D01*
X104430650Y-90823101D01*
X104575934Y-90852000D01*
X104724066Y-90852000D01*
X104869350Y-90823101D01*
X105006206Y-90766414D01*
X105129372Y-90684117D01*
X105234117Y-90579372D01*
X105316414Y-90456206D01*
X105373101Y-90319350D01*
X105386498Y-90252000D01*
X105474066Y-90252000D01*
X105619350Y-90223101D01*
X105756206Y-90166414D01*
X105879372Y-90084117D01*
X105984117Y-89979372D01*
X106066414Y-89856206D01*
X106123101Y-89719350D01*
X106152000Y-89574066D01*
X106152000Y-89425934D01*
X106123101Y-89280650D01*
X106066414Y-89143794D01*
X105984117Y-89020628D01*
X105879372Y-88915883D01*
X105756206Y-88833586D01*
X105619350Y-88776899D01*
X105474066Y-88748000D01*
X105384333Y-88748000D01*
X101702000Y-85479414D01*
X101702000Y-85475934D01*
X101673101Y-85330650D01*
X101616414Y-85193794D01*
X101534117Y-85070628D01*
X101429372Y-84965883D01*
X101306206Y-84883586D01*
X101169350Y-84826899D01*
X101024066Y-84798000D01*
X100918335Y-84798000D01*
X100971937Y-84575934D01*
X103048000Y-84575934D01*
X103048000Y-84724066D01*
X103076899Y-84869350D01*
X103133586Y-85006206D01*
X103215883Y-85129372D01*
X103320628Y-85234117D01*
X103443794Y-85316414D01*
X103580650Y-85373101D01*
X103725934Y-85402000D01*
X103753819Y-85402000D01*
X105037786Y-86750495D01*
X105037786Y-86813852D01*
X105066685Y-86959136D01*
X105123372Y-87095992D01*
X105205669Y-87219158D01*
X105310414Y-87323903D01*
X105433580Y-87406200D01*
X105570436Y-87462887D01*
X105715720Y-87491786D01*
X105863852Y-87491786D01*
X106009136Y-87462887D01*
X106145992Y-87406200D01*
X106269158Y-87323903D01*
X106373903Y-87219158D01*
X106456200Y-87095992D01*
X106512887Y-86959136D01*
X106541786Y-86813852D01*
X106541786Y-86665720D01*
X106512887Y-86520436D01*
X106456200Y-86383580D01*
X106373903Y-86260414D01*
X106269158Y-86155669D01*
X106145992Y-86073372D01*
X106009136Y-86016685D01*
X105863852Y-85987786D01*
X105835968Y-85987786D01*
X104552000Y-84639291D01*
X104552000Y-84575934D01*
X104523101Y-84430650D01*
X104466414Y-84293794D01*
X104384117Y-84170628D01*
X104279372Y-84065883D01*
X104156206Y-83983586D01*
X104019350Y-83926899D01*
X103874066Y-83898000D01*
X103725934Y-83898000D01*
X103580650Y-83926899D01*
X103443794Y-83983586D01*
X103320628Y-84065883D01*
X103215883Y-84170628D01*
X103133586Y-84293794D01*
X103076899Y-84430650D01*
X103048000Y-84575934D01*
X100971937Y-84575934D01*
X101116761Y-83975952D01*
X101179372Y-83934117D01*
X101284117Y-83829372D01*
X101366414Y-83706206D01*
X101423101Y-83569350D01*
X101452000Y-83424066D01*
X101452000Y-83275934D01*
X101423101Y-83130650D01*
X101366414Y-82993794D01*
X101284117Y-82870628D01*
X101179372Y-82765883D01*
X101056206Y-82683586D01*
X100919350Y-82626899D01*
X100774066Y-82598000D01*
X100625934Y-82598000D01*
X100480650Y-82626899D01*
X100343794Y-82683586D01*
X100220628Y-82765883D01*
X100115883Y-82870628D01*
X100033586Y-82993794D01*
X99976899Y-83130650D01*
X99948000Y-83275934D01*
X99948000Y-83424066D01*
X99976899Y-83569350D01*
X100033586Y-83706206D01*
X100042828Y-83720038D01*
X99815311Y-84662607D01*
X99672676Y-85185602D01*
X99661235Y-85218127D01*
X99654570Y-85264788D01*
X99646685Y-85311260D01*
X99646891Y-85318550D01*
X99645860Y-85325769D01*
X99648427Y-85372839D01*
X99649759Y-85419949D01*
X99657439Y-85453561D01*
X99748905Y-86048095D01*
X99749292Y-86066168D01*
X99757148Y-86101673D01*
X99758541Y-86110729D01*
X99763013Y-86128183D01*
X99772782Y-86172334D01*
X99776485Y-86180759D01*
X99778769Y-86189673D01*
X99798329Y-86230460D01*
X99816533Y-86271878D01*
X99821808Y-86279418D01*
X99825787Y-86287715D01*
X99852927Y-86323900D01*
X99863249Y-86338654D01*
X99869206Y-86345604D01*
X99891030Y-86374701D01*
X99898682Y-86381561D01*
X99893794Y-86383586D01*
X99770628Y-86465883D01*
X99665883Y-86570628D01*
X99583586Y-86693794D01*
X99526899Y-86830650D01*
X99498000Y-86975934D01*
X99498000Y-87124066D01*
X99526899Y-87269350D01*
X99583586Y-87406206D01*
X99665883Y-87529372D01*
X99692752Y-87556241D01*
X99653299Y-91383212D01*
X99615883Y-91420628D01*
X99533586Y-91543794D01*
X99476899Y-91680650D01*
X99448000Y-91825934D01*
X99448000Y-91974066D01*
X99476899Y-92119350D01*
X99516438Y-92214807D01*
X99455650Y-92226899D01*
X99318794Y-92283586D01*
X99195628Y-92365883D01*
X99090883Y-92470628D01*
X99008586Y-92593794D01*
X98951899Y-92730650D01*
X98923000Y-92875934D01*
X98923000Y-93024066D01*
X98951899Y-93169350D01*
X99008586Y-93306206D01*
X99090883Y-93429372D01*
X99195628Y-93534117D01*
X99318794Y-93616414D01*
X99322380Y-93617899D01*
X98943390Y-93682605D01*
X98513393Y-93539273D01*
X98434117Y-93420628D01*
X98329372Y-93315883D01*
X98206206Y-93233586D01*
X98069350Y-93176899D01*
X97924066Y-93148000D01*
X97775934Y-93148000D01*
X97630650Y-93176899D01*
X97493794Y-93233586D01*
X97370628Y-93315883D01*
X97265883Y-93420628D01*
X97183586Y-93543794D01*
X97126899Y-93680650D01*
X97098000Y-93825934D01*
X97098000Y-93974066D01*
X97126899Y-94119350D01*
X97183586Y-94256206D01*
X97265883Y-94379372D01*
X97370628Y-94484117D01*
X97493794Y-94566414D01*
X97630650Y-94623101D01*
X97775934Y-94652000D01*
X97924066Y-94652000D01*
X98069350Y-94623101D01*
X98160483Y-94585353D01*
X98465657Y-94687078D01*
X98426899Y-94780650D01*
X98420698Y-94811825D01*
X97332220Y-95509568D01*
X97274066Y-95498000D01*
X97125934Y-95498000D01*
X96980650Y-95526899D01*
X96843794Y-95583586D01*
X96720628Y-95665883D01*
X96615883Y-95770628D01*
X96533586Y-95893794D01*
X96476899Y-96030650D01*
X96448000Y-96175934D01*
X73751608Y-96175934D01*
X73321659Y-94850588D01*
X73815377Y-95219445D01*
X74460163Y-95527177D01*
X75152595Y-95703205D01*
X75866064Y-95740764D01*
X76573151Y-95638410D01*
X76804331Y-95573211D01*
X77285600Y-95262578D01*
X77097721Y-94893844D01*
X76779526Y-94269350D01*
X76779525Y-94269350D01*
X76751950Y-94215231D01*
X76775436Y-94191745D01*
X76703153Y-94119462D01*
X75689949Y-92130935D01*
X75676816Y-92137627D01*
X75653330Y-92114141D01*
X75581048Y-92186423D01*
X74217014Y-92881433D01*
X73592520Y-93199628D01*
X73538400Y-93227203D01*
X73514915Y-93203718D01*
X73442634Y-93275999D01*
X72900470Y-93552246D01*
X72886098Y-93507941D01*
X72906156Y-93497721D01*
X73530650Y-93179526D01*
X73530650Y-93179525D01*
X73584769Y-93151950D01*
X73608255Y-93175436D01*
X73680538Y-93103153D01*
X75629612Y-92110051D01*
X75730935Y-92110051D01*
X76481433Y-93582986D01*
X76799628Y-94207480D01*
X76827203Y-94261600D01*
X76803718Y-94285085D01*
X76875999Y-94357366D01*
X77326587Y-95241694D01*
X77860777Y-95034924D01*
X78391834Y-94556984D01*
X78819445Y-93984623D01*
X79127177Y-93339837D01*
X79303205Y-92647405D01*
X79340764Y-91933936D01*
X79303418Y-91675934D01*
X87498000Y-91675934D01*
X87498000Y-91824066D01*
X87526899Y-91969350D01*
X87583586Y-92106206D01*
X87665883Y-92229372D01*
X87770628Y-92334117D01*
X87893794Y-92416414D01*
X88030650Y-92473101D01*
X88175934Y-92502000D01*
X88324066Y-92502000D01*
X88469350Y-92473101D01*
X88606206Y-92416414D01*
X88729372Y-92334117D01*
X88834117Y-92229372D01*
X88916414Y-92106206D01*
X88973101Y-91969350D01*
X89002000Y-91824066D01*
X89002000Y-91675934D01*
X88990180Y-91616512D01*
X91089397Y-88329059D01*
X91119350Y-88323101D01*
X91256206Y-88266414D01*
X91379372Y-88184117D01*
X91484117Y-88079372D01*
X91566414Y-87956206D01*
X91623101Y-87819350D01*
X91652000Y-87674066D01*
X91652000Y-87525934D01*
X91623101Y-87380650D01*
X91566414Y-87243794D01*
X91484117Y-87120628D01*
X91379372Y-87015883D01*
X91256206Y-86933586D01*
X91119350Y-86876899D01*
X90974066Y-86848000D01*
X90825934Y-86848000D01*
X90680650Y-86876899D01*
X90543794Y-86933586D01*
X90420628Y-87015883D01*
X90315883Y-87120628D01*
X90233586Y-87243794D01*
X90176899Y-87380650D01*
X90148000Y-87525934D01*
X90148000Y-87674066D01*
X90159820Y-87733488D01*
X88060604Y-91020941D01*
X88030650Y-91026899D01*
X87893794Y-91083586D01*
X87770628Y-91165883D01*
X87665883Y-91270628D01*
X87583586Y-91393794D01*
X87526899Y-91530650D01*
X87498000Y-91675934D01*
X79303418Y-91675934D01*
X79238410Y-91226849D01*
X79173211Y-90995669D01*
X78862578Y-90514400D01*
X78493844Y-90702279D01*
X77869350Y-91020474D01*
X77869350Y-91020475D01*
X77828364Y-91041358D01*
X77815231Y-91048050D01*
X77791745Y-91024564D01*
X77719463Y-91096846D01*
X75730935Y-92110051D01*
X75629612Y-92110051D01*
X75669065Y-92089949D01*
X75662373Y-92076816D01*
X75685859Y-92053330D01*
X75613577Y-91981048D01*
X74880720Y-90542735D01*
X74600372Y-89992520D01*
X74572797Y-89938400D01*
X74596282Y-89914915D01*
X74524001Y-89842634D01*
X74233784Y-89273052D01*
X74271466Y-89245682D01*
X74302279Y-89306156D01*
X74620474Y-89930650D01*
X74620475Y-89930650D01*
X74648050Y-89984769D01*
X74624564Y-90008255D01*
X74696847Y-90080538D01*
X75710051Y-92069065D01*
X77182986Y-91318567D01*
X77807480Y-91000372D01*
X77861600Y-90972797D01*
X77885085Y-90996282D01*
X77957366Y-90924001D01*
X78841694Y-90473413D01*
X78634924Y-89939223D01*
X78156984Y-89408166D01*
X77584623Y-88980555D01*
X76939837Y-88672823D01*
X76247405Y-88496795D01*
X75533936Y-88459236D01*
X75309531Y-88491720D01*
X81468652Y-84018253D01*
X83261243Y-84018253D01*
X83511052Y-84362085D01*
X83638387Y-84498594D01*
X83789909Y-84607637D01*
X83959792Y-84685025D01*
X84141508Y-84727783D01*
X84328074Y-84734269D01*
X84512322Y-84704233D01*
X84679296Y-84642339D01*
X84745751Y-84480994D01*
X84012820Y-83472200D01*
X83261243Y-84018253D01*
X81468652Y-84018253D01*
X82822215Y-83035139D01*
X82815930Y-83110635D01*
X82837033Y-83296117D01*
X82893917Y-83473919D01*
X82984396Y-83637206D01*
X83234205Y-83981038D01*
X83971775Y-83445162D01*
X84050034Y-83445162D01*
X84782966Y-84453956D01*
X84956949Y-84440612D01*
X84968557Y-84425934D01*
X89198000Y-84425934D01*
X89198000Y-84574066D01*
X89226899Y-84719350D01*
X89283586Y-84856206D01*
X89365883Y-84979372D01*
X89452299Y-85065788D01*
X89433586Y-85093794D01*
X89376899Y-85230650D01*
X89348000Y-85375934D01*
X89348000Y-85524066D01*
X89376899Y-85669350D01*
X89433586Y-85806206D01*
X89515883Y-85929372D01*
X89620628Y-86034117D01*
X89743794Y-86116414D01*
X89880650Y-86173101D01*
X90025934Y-86202000D01*
X90174066Y-86202000D01*
X90319350Y-86173101D01*
X90456206Y-86116414D01*
X90579372Y-86034117D01*
X90684117Y-85929372D01*
X90766414Y-85806206D01*
X90823101Y-85669350D01*
X90828845Y-85640473D01*
X99899584Y-79868037D01*
X100026109Y-79827779D01*
X100127201Y-79869652D01*
X100272485Y-79898551D01*
X100420617Y-79898551D01*
X100565901Y-79869652D01*
X100702757Y-79812965D01*
X100825923Y-79730668D01*
X100930668Y-79625923D01*
X101012965Y-79502757D01*
X101069652Y-79365901D01*
X101098551Y-79220617D01*
X101098551Y-79072485D01*
X101086122Y-79010002D01*
X101165883Y-79129372D01*
X101270628Y-79234117D01*
X101393794Y-79316414D01*
X101530650Y-79373101D01*
X101675934Y-79402000D01*
X101824066Y-79402000D01*
X101969350Y-79373101D01*
X102106206Y-79316414D01*
X102229372Y-79234117D01*
X102334117Y-79129372D01*
X102416414Y-79006206D01*
X102473101Y-78869350D01*
X102502000Y-78724066D01*
X102502000Y-78575934D01*
X102473101Y-78430650D01*
X102416414Y-78293794D01*
X102334117Y-78170628D01*
X102229372Y-78065883D01*
X102106206Y-77983586D01*
X101969350Y-77926899D01*
X101824066Y-77898000D01*
X101675934Y-77898000D01*
X101530650Y-77926899D01*
X101468240Y-77952750D01*
X101172905Y-77840727D01*
X101282994Y-77811256D01*
X101923845Y-77495409D01*
X102123562Y-77361963D01*
X102485286Y-76917813D01*
X100000000Y-74432527D01*
X97514714Y-76917813D01*
X97876438Y-77361963D01*
X98043101Y-77458238D01*
X97819508Y-77547675D01*
X97769350Y-77526899D01*
X97624066Y-77498000D01*
X97475934Y-77498000D01*
X97330650Y-77526899D01*
X97193794Y-77583586D01*
X97070628Y-77665883D01*
X96965883Y-77770628D01*
X96883586Y-77893794D01*
X96826899Y-78030650D01*
X96798000Y-78175934D01*
X96798000Y-78324066D01*
X96826899Y-78469350D01*
X96883586Y-78606206D01*
X96965883Y-78729372D01*
X97070628Y-78834117D01*
X97193794Y-78916414D01*
X97330650Y-78973101D01*
X97475934Y-79002000D01*
X97624066Y-79002000D01*
X97769350Y-78973101D01*
X97881817Y-78926516D01*
X90092770Y-83761666D01*
X90024066Y-83748000D01*
X89875934Y-83748000D01*
X89730650Y-83776899D01*
X89593794Y-83833586D01*
X89470628Y-83915883D01*
X89365883Y-84020628D01*
X89283586Y-84143794D01*
X89226899Y-84280650D01*
X89198000Y-84425934D01*
X84968557Y-84425934D01*
X85067412Y-84300936D01*
X85152914Y-84134988D01*
X85204398Y-83955549D01*
X85219886Y-83769513D01*
X85198783Y-83584031D01*
X85141899Y-83406229D01*
X85051420Y-83242942D01*
X84801611Y-82899110D01*
X84050034Y-83445162D01*
X83971775Y-83445162D01*
X83985782Y-83434986D01*
X83974026Y-83418805D01*
X84011240Y-83391767D01*
X84022996Y-83407948D01*
X84774573Y-82861895D01*
X84524764Y-82518063D01*
X84397429Y-82381554D01*
X84245907Y-82272511D01*
X84076024Y-82195123D01*
X84002559Y-82177837D01*
X87254930Y-79815588D01*
X89045714Y-79815588D01*
X89295523Y-80159420D01*
X89422858Y-80295929D01*
X89574380Y-80404972D01*
X89744263Y-80482360D01*
X89925979Y-80525118D01*
X90112545Y-80531604D01*
X90296793Y-80501568D01*
X90463767Y-80439674D01*
X90530222Y-80278329D01*
X89797291Y-79269535D01*
X89045714Y-79815588D01*
X87254930Y-79815588D01*
X88606570Y-78833871D01*
X88600401Y-78907970D01*
X88621504Y-79093452D01*
X88678388Y-79271254D01*
X88768867Y-79434541D01*
X89018676Y-79778373D01*
X89756246Y-79242497D01*
X89834505Y-79242497D01*
X90567437Y-80251291D01*
X90741420Y-80237947D01*
X90851883Y-80098271D01*
X90937385Y-79932323D01*
X90988869Y-79752884D01*
X91004357Y-79566848D01*
X90983254Y-79381366D01*
X90926370Y-79203564D01*
X90835891Y-79040277D01*
X90586082Y-78696445D01*
X89834505Y-79242497D01*
X89756246Y-79242497D01*
X89770253Y-79232321D01*
X89758497Y-79216140D01*
X89795711Y-79189102D01*
X89807467Y-79205283D01*
X90559044Y-78659230D01*
X90309235Y-78315398D01*
X90181900Y-78178889D01*
X90030378Y-78069846D01*
X89860495Y-77992458D01*
X89788395Y-77975493D01*
X96647093Y-72993912D01*
X96450851Y-73571578D01*
X96357430Y-74279901D01*
X96403991Y-74992839D01*
X96588744Y-75682994D01*
X96904591Y-76323845D01*
X97038037Y-76523562D01*
X97482187Y-76885286D01*
X99967473Y-74400000D01*
X99953331Y-74385858D01*
X99985858Y-74353331D01*
X100000000Y-74367473D01*
X100014142Y-74353331D01*
X100046669Y-74385858D01*
X100032527Y-74400000D01*
X102517813Y-76885286D01*
X102961963Y-76523562D01*
X103319336Y-75904908D01*
X103549149Y-75228422D01*
X103642570Y-74520099D01*
X103596009Y-73807161D01*
X103411256Y-73117006D01*
X103349295Y-72991288D01*
X124671061Y-88477623D01*
G36*
X109843794Y-98066414D02*
G01*
X109980650Y-98123101D01*
X110125934Y-98152000D01*
X110274066Y-98152000D01*
X110381027Y-98130724D01*
X113283197Y-99734555D01*
X113333586Y-99856206D01*
X113415883Y-99979372D01*
X113520628Y-100084117D01*
X113643794Y-100166414D01*
X113780650Y-100223101D01*
X113925934Y-100252000D01*
X114007398Y-100252000D01*
X116645900Y-102645549D01*
X113531903Y-112096873D01*
X110097902Y-108180570D01*
X110030049Y-107937430D01*
X110083101Y-107809350D01*
X110112000Y-107664066D01*
X110112000Y-107638097D01*
X110220650Y-107683101D01*
X110365934Y-107712000D01*
X110514066Y-107712000D01*
X110659350Y-107683101D01*
X110796206Y-107626414D01*
X110919372Y-107544117D01*
X111024117Y-107439372D01*
X111106414Y-107316206D01*
X111163101Y-107179350D01*
X111192000Y-107034066D01*
X111192000Y-106885934D01*
X111163101Y-106740650D01*
X111106414Y-106603794D01*
X111024117Y-106480628D01*
X110919372Y-106375883D01*
X110796206Y-106293586D01*
X110745044Y-106272394D01*
X109901986Y-104313287D01*
X109896833Y-104299640D01*
X109891280Y-104288409D01*
X109886329Y-104276904D01*
X109879279Y-104264138D01*
X109007854Y-102501703D01*
X108999242Y-102478307D01*
X108983827Y-102453110D01*
X108982803Y-102451039D01*
X108969652Y-102429939D01*
X108956713Y-102408790D01*
X108955324Y-102406952D01*
X108939696Y-102381879D01*
X108922632Y-102363698D01*
X107951148Y-101078350D01*
X107952000Y-101074066D01*
X107952000Y-100925934D01*
X107923101Y-100780650D01*
X107866414Y-100643794D01*
X107784117Y-100520628D01*
X107679372Y-100415883D01*
X107614632Y-100372625D01*
X109502224Y-98429335D01*
X109507034Y-98425865D01*
X109540007Y-98390437D01*
X109554844Y-98375162D01*
X109558533Y-98370532D01*
X109581113Y-98346270D01*
X109592324Y-98328114D01*
X109605622Y-98311421D01*
X109620825Y-98281956D01*
X109623929Y-98276929D01*
X109633263Y-98257851D01*
X109655480Y-98214791D01*
X109657122Y-98209081D01*
X109755711Y-98007559D01*
X109843794Y-98066414D01*
G37*
X109843794Y-98066414D02*
X109980650Y-98123101D01*
X110125934Y-98152000D01*
X110274066Y-98152000D01*
X110381027Y-98130724D01*
X113283197Y-99734555D01*
X113333586Y-99856206D01*
X113415883Y-99979372D01*
X113520628Y-100084117D01*
X113643794Y-100166414D01*
X113780650Y-100223101D01*
X113925934Y-100252000D01*
X114007398Y-100252000D01*
X116645900Y-102645549D01*
X113531903Y-112096873D01*
X110097902Y-108180570D01*
X110030049Y-107937430D01*
X110083101Y-107809350D01*
X110112000Y-107664066D01*
X110112000Y-107638097D01*
X110220650Y-107683101D01*
X110365934Y-107712000D01*
X110514066Y-107712000D01*
X110659350Y-107683101D01*
X110796206Y-107626414D01*
X110919372Y-107544117D01*
X111024117Y-107439372D01*
X111106414Y-107316206D01*
X111163101Y-107179350D01*
X111192000Y-107034066D01*
X111192000Y-106885934D01*
X111163101Y-106740650D01*
X111106414Y-106603794D01*
X111024117Y-106480628D01*
X110919372Y-106375883D01*
X110796206Y-106293586D01*
X110745044Y-106272394D01*
X109901986Y-104313287D01*
X109896833Y-104299640D01*
X109891280Y-104288409D01*
X109886329Y-104276904D01*
X109879279Y-104264138D01*
X109007854Y-102501703D01*
X108999242Y-102478307D01*
X108983827Y-102453110D01*
X108982803Y-102451039D01*
X108969652Y-102429939D01*
X108956713Y-102408790D01*
X108955324Y-102406952D01*
X108939696Y-102381879D01*
X108922632Y-102363698D01*
X107951148Y-101078350D01*
X107952000Y-101074066D01*
X107952000Y-100925934D01*
X107923101Y-100780650D01*
X107866414Y-100643794D01*
X107784117Y-100520628D01*
X107679372Y-100415883D01*
X107614632Y-100372625D01*
X109502224Y-98429335D01*
X109507034Y-98425865D01*
X109540007Y-98390437D01*
X109554844Y-98375162D01*
X109558533Y-98370532D01*
X109581113Y-98346270D01*
X109592324Y-98328114D01*
X109605622Y-98311421D01*
X109620825Y-98281956D01*
X109623929Y-98276929D01*
X109633263Y-98257851D01*
X109655480Y-98214791D01*
X109657122Y-98209081D01*
X109755711Y-98007559D01*
X109843794Y-98066414D01*
%TD*%
M02*
